  0
SECTION
  2
HEADER
  9
$ANGBASE
  50
0.0
  9
$ANGDIR
  70
1
  9
$MEASUREMENT
  70
0
  0
ENDSEC
  0
SECTION
  2
TABLES
  0
TABLE
  2
LTYPE
  70
4
  0
LTYPE
  5
40F
  2
CONTINUOUS
  70
0
  3
Solid line
  72
65
  73
0
  40
0.0
  0
LTYPE
  5
410
  2
DASHDOT
 70
0
  3
Dash Dot ____ _ ____ _
 72
65
 73
4
 40
2.0
 49
1.25
 49
-0.25
 49
0.25
 49
-0.25
  0
LTYPE
  5
411
  2
DASHED
 70
0
  3
Dashed __ __ __ __ __
 72
65
 73
2
 40
0.75
 49
0.5
 49
-0.25
  0
LTYPE
  5
43B
  2
DOTTED
 70
0
  3
Dotted .  .  .  .
 72
65
 73
2
 40
0.2
 49
0.0
 49
-0.2
  0
ENDTAB
  0
TABLE
  2
STYLE
  70
4
  0
STYLE
  2
KICAD
  70
0
  40
0
  41
1
  42
1
  50
0
  71
0
  3
isocp.shx
  0
STYLE
  2
KICADB
  70
0
  40
0
  41
1
  42
1
  50
0
  71
0
  3
isocp.shx
  0
STYLE
  2
KICADI
  70
0
  40
0
  41
1
  42
1
  50
15
  71
0
  3
isocp.shx
  0
STYLE
  2
KICADBI
  70
0
  40
0
  41
1
  42
1
  50
15
  71
0
  3
isocp.shx
  0
ENDTAB
  0
TABLE
  2
LAYER
  70
1
  0
LAYER
  2
BLACK
  70
0
  62
7
  6
CONTINUOUS
  0
ENDTAB
  0
ENDSEC
  0
SECTION
  2
ENTITIES
0
LINE
8
BLACK
6
CONTINUOUS
10
3.3614257874015747
20
-4.1352801181102361
11
3.4022920866141733
21
-4.1381558267716532
0
LINE
8
BLACK
6
CONTINUOUS
10
3.4022920866141733
20
-4.1381558267716532
11
3.4430321653543308
21
-4.1424649999999996
0
LINE
8
BLACK
6
CONTINUOUS
10
3.4430321653543308
20
-4.1424649999999996
11
3.4835958267716536
21
-4.1482022440944881
0
LINE
8
BLACK
6
CONTINUOUS
10
3.4835958267716536
20
-4.1482022440944881
11
3.5239329133858268
21
-4.1553605118110237
0
LINE
8
BLACK
6
CONTINUOUS
10
3.5239329133858268
20
-4.1553605118110237
11
3.5639937795275589
21
-4.1639309842519685
0
LINE
8
BLACK
6
CONTINUOUS
10
3.5639937795275589
20
-4.1639309842519685
11
3.603728897637795
21
-4.1739030708661415
0
LINE
8
BLACK
6
CONTINUOUS
10
3.603728897637795
20
-4.1739030708661415
11
3.6430893307086611
21
-4.1852644881889765
0
LINE
8
BLACK
6
CONTINUOUS
10
3.6430893307086611
20
-4.1852644881889765
11
3.6820264566929133
21
-4.1980012204724408
0
LINE
8
BLACK
6
CONTINUOUS
10
3.6820264566929133
20
-4.1980012204724408
11
3.7204922440944883
21
-4.212097519685039
0
LINE
8
BLACK
6
CONTINUOUS
10
3.7204922440944883
20
-4.212097519685039
11
3.7584392519685039
21
-4.2275360236220472
0
LINE
8
BLACK
6
CONTINUOUS
10
3.7584392519685039
20
-4.2275360236220472
11
3.7958207086614171
21
-4.2442976771653544
0
LINE
8
BLACK
6
CONTINUOUS
10
3.7958207086614171
20
-4.2442976771653544
11
3.8325903937007872
21
-4.2623618110236219
0
LINE
8
BLACK
6
CONTINUOUS
10
3.8325903937007872
20
-4.2623618110236219
11
3.8687030314960631
21
-4.2817061023622047
0
LINE
8
BLACK
6
CONTINUOUS
10
3.8687030314960631
20
-4.2817061023622047
11
3.9041140157480312
21
-4.3023067322834647
0
LINE
8
BLACK
6
CONTINUOUS
10
3.9041140157480312
20
-4.3023067322834647
11
3.9045455118110235
21
-4.3027241732283468
0
LINE
8
BLACK
6
CONTINUOUS
10
3.9045455118110235
20
-4.3027241732283468
11
3.9050531889763778
21
-4.3030448818897638
0
LINE
8
BLACK
6
CONTINUOUS
10
3.9050531889763778
20
-4.3030448818897638
11
3.9053227165354332
21
-4.3034761023622048
0
LINE
8
BLACK
6
CONTINUOUS
10
3.9053227165354332
20
-4.3034761023622048
11
3.9056880708661414
21
-4.3038296062992121
0
LINE
8
BLACK
6
CONTINUOUS
10
3.9056880708661414
20
-4.3038296062992121
11
3.9058957086614172
21
-4.3043929133858265
0
LINE
8
BLACK
6
CONTINUOUS
10
3.9058957086614172
20
-4.3043929133858265
11
3.9062139763779529
21
-4.3049021653543305
0
LINE
8
BLACK
6
CONTINUOUS
10
3.9062139763779529
20
-4.3049021653543305
11
3.9062136614173228
21
-4.304902244094488
0
LINE
8
BLACK
6
CONTINUOUS
10
3.9062136614173228
20
-4.304902244094488
11
3.9170585826771651
21
-4.3361347637795271
0
LINE
8
BLACK
6
CONTINUOUS
10
3.9170585826771651
20
-4.3361347637795271
11
3.9401347244094489
21
-4.398101023622047
0
LINE
8
BLACK
6
CONTINUOUS
10
3.9401347244094489
20
-4.398101023622047
11
3.9645857086614171
21
-4.4595377952755904
0
LINE
8
BLACK
6
CONTINUOUS
10
3.9645857086614171
20
-4.4595377952755904
11
3.9903994488188976
21
-4.5204145275590548
0
LINE
8
BLACK
6
CONTINUOUS
10
3.9903994488188976
20
-4.5204145275590548
11
4.0175630708661414
21
-4.5807010236220469
0
LINE
8
BLACK
6
CONTINUOUS
10
4.0175630708661414
20
-4.5807010236220469
11
4.0460631102362203
21
-4.6403674015748031
0
LINE
8
BLACK
6
CONTINUOUS
10
4.0460631102362203
20
-4.6403674015748031
11
4.0758854330708658
21
-4.6993839763779528
0
LINE
8
BLACK
6
CONTINUOUS
10
4.0758854330708658
20
-4.6993839763779528
11
4.1070151968503934
21
-4.7577214566929129
0
LINE
8
BLACK
6
CONTINUOUS
10
4.1070151968503934
20
-4.7577214566929129
11
4.1394370078740153
21
-4.8153509055118109
0
LINE
8
BLACK
6
CONTINUOUS
10
4.1394370078740153
20
-4.8153509055118109
11
4.1731346850393702
21
-4.8722437007874015
0
LINE
8
BLACK
6
CONTINUOUS
10
4.1731346850393702
20
-4.8722437007874015
11
4.2080916141732283
21
-4.9283716141732281
0
LINE
8
BLACK
6
CONTINUOUS
10
4.2080916141732283
20
-4.9283716141732281
11
4.2442903149606295
21
-4.9837067716535435
0
LINE
8
BLACK
6
CONTINUOUS
10
4.2442903149606295
20
-4.9837067716535435
11
4.2817129133858263
21
-5.0382216929133854
0
LINE
8
BLACK
6
CONTINUOUS
10
4.2817129133858263
20
-5.0382216929133854
11
4.3203407874015749
21
-5.0918892913385827
0
LINE
8
BLACK
6
CONTINUOUS
10
4.3203407874015749
20
-5.0918892913385827
11
4.3601547637795273
21
-5.1446829921259845
0
LINE
8
BLACK
6
CONTINUOUS
10
4.3601547637795273
20
-5.1446829921259845
11
4.4011350787401575
21
-5.1965765354330706
0
LINE
8
BLACK
6
CONTINUOUS
10
4.4011350787401575
20
-5.1965765354330706
11
4.4432613779527559
21
-5.2475441732283468
0
LINE
8
BLACK
6
CONTINUOUS
10
4.4432613779527559
20
-5.2475441732283468
11
4.4648870866141728
21
-5.2725523622047241
0
LINE
8
BLACK
6
CONTINUOUS
10
4.4648870866141728
20
-5.2725523622047241
11
4.4648870866141728
21
-5.2725524015748029
0
LINE
8
BLACK
6
CONTINUOUS
10
4.4648870866141728
20
-5.2725524015748029
11
4.4651688582677167
21
-5.2730825196850395
0
LINE
8
BLACK
6
CONTINUOUS
10
4.4651688582677167
20
-5.2730825196850395
11
4.4655529921259838
21
-5.2735440944881891
0
LINE
8
BLACK
6
CONTINUOUS
10
4.4655529921259838
20
-5.2735440944881891
11
4.4656764173228343
21
-5.274037322834646
0
LINE
8
BLACK
6
CONTINUOUS
10
4.4656764173228343
20
-5.274037322834646
11
4.4659151181102361
21
-5.2744862992125983
0
LINE
8
BLACK
6
CONTINUOUS
10
4.4659151181102361
20
-5.2744862992125983
11
4.4659389763779522
21
-5.2750862204724411
0
LINE
8
BLACK
6
CONTINUOUS
10
4.4659389763779522
20
-5.2750862204724411
11
4.4660848031496059
21
-5.275668700787401
0
LINE
8
BLACK
6
CONTINUOUS
10
4.4660848031496059
20
-5.275668700787401
11
4.4660847637795271
21
-5.275668700787401
0
LINE
8
BLACK
6
CONTINUOUS
10
4.4660847637795271
20
-5.275668700787401
11
4.4662199212598424
21
-5.3166358267716536
0
LINE
8
BLACK
6
CONTINUOUS
10
4.4662199212598424
20
-5.3166358267716536
11
4.4649162992125984
21
-5.3575824409448813
0
LINE
8
BLACK
6
CONTINUOUS
10
4.4649162992125984
20
-5.3575824409448813
11
4.4621754330708656
21
-5.3984579921259845
0
LINE
8
BLACK
6
CONTINUOUS
10
4.4621754330708656
20
-5.3984579921259845
11
4.4580007086614168
21
-5.4392120866141731
0
LINE
8
BLACK
6
CONTINUOUS
10
4.4580007086614168
20
-5.4392120866141731
11
4.4523973622047244
21
-5.4797944094488189
0
LINE
8
BLACK
6
CONTINUOUS
10
4.4523973622047244
20
-5.4797944094488189
11
4.4453722047244097
21
-5.5201549212598424
0
LINE
8
BLACK
6
CONTINUOUS
10
4.4453722047244097
20
-5.5201549212598424
11
4.4369339763779525
21
-5.5602438188976375
0
LINE
8
BLACK
6
CONTINUOUS
10
4.4369339763779525
20
-5.5602438188976375
11
4.4270930314960628
21
-5.6000116535433069
0
LINE
8
BLACK
6
CONTINUOUS
10
4.4270930314960628
20
-5.6000116535433069
11
4.4158615354330708
21
-5.639409330708661
0
LINE
8
BLACK
6
CONTINUOUS
10
4.4158615354330708
20
-5.639409330708661
11
4.4032533858267717
21
-5.6783882677165352
0
LINE
8
BLACK
6
CONTINUOUS
10
4.4032533858267717
20
-5.6783882677165352
11
4.38928405511811
21
-5.7169003937007874
0
LINE
8
BLACK
6
CONTINUOUS
10
4.38928405511811
20
-5.7169003937007874
11
4.3739708661417325
21
-5.75489811023622
0
LINE
8
BLACK
6
CONTINUOUS
10
4.3739708661417325
20
-5.75489811023622
11
4.3573326377952757
21
-5.7923346456692908
0
LINE
8
BLACK
6
CONTINUOUS
10
4.3573326377952757
20
-5.7923346456692908
11
4.3393899212598424
21
-5.8291637401574805
0
LINE
8
BLACK
6
CONTINUOUS
10
4.3393899212598424
20
-5.8291637401574805
11
4.320164881889764
21
-5.8653399999999998
0
LINE
8
BLACK
6
CONTINUOUS
10
4.320164881889764
20
-5.8653399999999998
11
4.2996811811023621
21
-5.9008187795275591
0
LINE
8
BLACK
6
CONTINUOUS
10
4.2996811811023621
20
-5.9008187795275591
11
4.2779641732283462
21
-5.9355562598425191
0
LINE
8
BLACK
6
CONTINUOUS
10
4.2779641732283462
20
-5.9355562598425191
11
4.2550405905511814
21
-5.9695096456692909
0
LINE
8
BLACK
6
CONTINUOUS
10
4.2550405905511814
20
-5.9695096456692909
11
4.2309387007874015
21
-6.002637047244094
0
LINE
8
BLACK
6
CONTINUOUS
10
4.2309387007874015
20
-6.002637047244094
11
4.2056883070866142
21
-6.0348975590551177
0
LINE
8
BLACK
6
CONTINUOUS
10
4.2056883070866142
20
-6.0348975590551177
11
4.1793204724409447
21
-6.0662513779527556
0
LINE
8
BLACK
6
CONTINUOUS
10
4.1793204724409447
20
-6.0662513779527556
11
4.1518678346456692
21
-6.096659842519685
0
LINE
8
BLACK
6
CONTINUOUS
10
4.1518678346456692
20
-6.096659842519685
11
4.1233641732283459
21
-6.1260854330708661
0
LINE
8
BLACK
6
CONTINUOUS
10
4.1233641732283459
20
-6.1260854330708661
11
4.0938446850393699
21
-6.1544918503937005
0
LINE
8
BLACK
6
CONTINUOUS
10
4.0938446850393699
20
-6.1544918503937005
11
4.063345787401575
21
-6.1818440157480312
0
LINE
8
BLACK
6
CONTINUOUS
10
4.063345787401575
20
-6.1818440157480312
11
4.0319051574803151
21
-6.2081082283464566
0
LINE
8
BLACK
6
CONTINUOUS
10
4.0319051574803151
20
-6.2081082283464566
11
3.9995614960629919
21
-6.2332520472440942
0
LINE
8
BLACK
6
CONTINUOUS
10
3.9995614960629919
20
-6.2332520472440942
11
3.9663547637795276
21
-6.2572444881889764
0
LINE
8
BLACK
6
CONTINUOUS
10
3.9663547637795276
20
-6.2572444881889764
11
3.9323259448818897
21
-6.2800559055118113
0
LINE
8
BLACK
6
CONTINUOUS
10
3.9323259448818897
20
-6.2800559055118113
11
3.897516968503937
21
-6.3016582283464562
0
LINE
8
BLACK
6
CONTINUOUS
10
3.897516968503937
20
-6.3016582283464562
11
3.8619707874015745
21
-6.3220247244094487
0
LINE
8
BLACK
6
CONTINUOUS
10
3.8619707874015745
20
-6.3220247244094487
11
3.8619708267716533
21
-6.3220247637795275
0
LINE
8
BLACK
6
CONTINUOUS
10
3.8619708267716533
20
-6.3220247637795275
11
3.8613935433070865
21
-6.32218968503937
0
LINE
8
BLACK
6
CONTINUOUS
10
3.8613935433070865
20
-6.32218968503937
11
3.8608619685039369
21
-6.32246905511811
0
LINE
8
BLACK
6
CONTINUOUS
10
3.8608619685039369
20
-6.32246905511811
11
3.8603537401574801
21
-6.3224868503937008
0
LINE
8
BLACK
6
CONTINUOUS
10
3.8603537401574801
20
-6.3224868503937008
11
3.8598649606299213
21
-6.3226265354330708
0
LINE
8
BLACK
6
CONTINUOUS
10
3.8598649606299213
20
-6.3226265354330708
11
3.8592732677165356
21
-6.3225246850393697
0
LINE
8
BLACK
6
CONTINUOUS
10
3.8592732677165356
20
-6.3225246850393697
11
3.8586731496062989
21
-6.3225457086614174
0
LINE
8
BLACK
6
CONTINUOUS
10
3.8586731496062989
20
-6.3225457086614174
11
3.8586731496062989
21
-6.3225457480314962
0
LINE
8
BLACK
6
CONTINUOUS
10
3.8586731496062989
20
-6.3225457480314962
11
3.8262025590551181
21
-6.3163214566929131
0
LINE
8
BLACK
6
CONTINUOUS
10
3.8262025590551181
20
-6.3163214566929131
11
3.7610001181102359
21
-6.3053228346456693
0
LINE
8
BLACK
6
CONTINUOUS
10
3.7610001181102359
20
-6.3053228346456693
11
3.6955688582677166
21
-6.2957796456692909
0
LINE
8
BLACK
6
CONTINUOUS
10
3.6955688582677166
20
-6.2957796456692909
11
3.6299411811023621
21
-6.2876965748031495
0
LINE
8
BLACK
6
CONTINUOUS
10
3.6299411811023621
20
-6.2876965748031495
11
3.5641497244094489
21
-6.2810777165354326
0
LINE
8
BLACK
6
CONTINUOUS
10
3.5641497244094489
20
-6.2810777165354326
11
3.4982271259842519
21
-6.2759262598425192
0
LINE
8
BLACK
6
CONTINUOUS
10
3.4982271259842519
20
-6.2759262598425192
11
3.4322061417322836
21
-6.2722448425196848
0
LINE
8
BLACK
6
CONTINUOUS
10
3.4322061417322836
20
-6.2722448425196848
11
3.3661194881889762
21
-6.2700352755905513
0
LINE
8
BLACK
6
CONTINUOUS
10
3.3661194881889762
20
-6.2700352755905513
11
3.3000000393700786
21
-6.269298622047244
0
LINE
8
BLACK
6
CONTINUOUS
10
3.3000000393700786
20
-6.269298622047244
11
3.2338805905511809
21
-6.2700352755905513
0
LINE
8
BLACK
6
CONTINUOUS
10
3.2338805905511809
20
-6.2700352755905513
11
3.167793937007874
21
-6.2722448425196848
0
LINE
8
BLACK
6
CONTINUOUS
10
3.167793937007874
20
-6.2722448425196848
11
3.1017729527559053
21
-6.2759262598425192
0
LINE
8
BLACK
6
CONTINUOUS
10
3.1017729527559053
20
-6.2759262598425192
11
3.0358503543307087
21
-6.2810777165354326
0
LINE
8
BLACK
6
CONTINUOUS
10
3.0358503543307087
20
-6.2810777165354326
11
2.9700588976377951
21
-6.2876965748031495
0
LINE
8
BLACK
6
CONTINUOUS
10
2.9700588976377951
20
-6.2876965748031495
11
2.904431220472441
21
-6.2957796456692909
0
LINE
8
BLACK
6
CONTINUOUS
10
2.904431220472441
20
-6.2957796456692909
11
2.8389999606299212
21
-6.3053228346456693
0
LINE
8
BLACK
6
CONTINUOUS
10
2.8389999606299212
20
-6.3053228346456693
11
2.7737975196850395
21
-6.3163214566929131
0
LINE
8
BLACK
6
CONTINUOUS
10
2.7737975196850395
20
-6.3163214566929131
11
2.7413269291338582
21
-6.3225457480314962
0
LINE
8
BLACK
6
CONTINUOUS
10
2.7413269291338582
20
-6.3225457480314962
11
2.7413269291338582
21
-6.3225457086614174
0
LINE
8
BLACK
6
CONTINUOUS
10
2.7413269291338582
20
-6.3225457086614174
11
2.7407267716535433
21
-6.3225246850393697
0
LINE
8
BLACK
6
CONTINUOUS
10
2.7407267716535433
20
-6.3225246850393697
11
2.7401351181102362
21
-6.3226265354330708
0
LINE
8
BLACK
6
CONTINUOUS
10
2.7401351181102362
20
-6.3226265354330708
11
2.7396462992125983
21
-6.3224868503937008
0
LINE
8
BLACK
6
CONTINUOUS
10
2.7396462992125983
20
-6.3224868503937008
11
2.7391381102362202
21
-6.32246905511811
0
LINE
8
BLACK
6
CONTINUOUS
10
2.7391381102362202
20
-6.32246905511811
11
2.7386064960629919
21
-6.32218968503937
0
LINE
8
BLACK
6
CONTINUOUS
10
2.7386064960629919
20
-6.32218968503937
11
2.7380292519685039
21
-6.3220247637795275
0
LINE
8
BLACK
6
CONTINUOUS
10
2.7380292519685039
20
-6.3220247637795275
11
2.7024831102362206
21
-6.3016582677165349
0
LINE
8
BLACK
6
CONTINUOUS
10
2.7024831102362206
20
-6.3016582677165349
11
2.6676741338582675
21
-6.28005594488189
0
LINE
8
BLACK
6
CONTINUOUS
10
2.6676741338582675
20
-6.28005594488189
11
2.6336452755905513
21
-6.2572445275590551
0
LINE
8
BLACK
6
CONTINUOUS
10
2.6336452755905513
20
-6.2572445275590551
11
2.6004385433070865
21
-6.233252086614173
0
LINE
8
BLACK
6
CONTINUOUS
10
2.6004385433070865
20
-6.233252086614173
11
2.5680949212598425
21
-6.2081082677165353
0
LINE
8
BLACK
6
CONTINUOUS
10
2.5680949212598425
20
-6.2081082677165353
11
2.5366542519685038
21
-6.18184405511811
0
LINE
8
BLACK
6
CONTINUOUS
10
2.5366542519685038
20
-6.18184405511811
11
2.5061553543307085
21
-6.1544918897637793
0
LINE
8
BLACK
6
CONTINUOUS
10
2.5061553543307085
20
-6.1544918897637793
11
2.476635866141732
21
-6.1260854724409448
0
LINE
8
BLACK
6
CONTINUOUS
10
2.476635866141732
20
-6.1260854724409448
11
2.4481322047244092
21
-6.0966598818897637
0
LINE
8
BLACK
6
CONTINUOUS
10
2.4481322047244092
20
-6.0966598818897637
11
2.4206795275590549
21
-6.0662514173228343
0
LINE
8
BLACK
6
CONTINUOUS
10
2.4206795275590549
20
-6.0662514173228343
11
2.3943117322834646
21
-6.0348975984251965
0
LINE
8
BLACK
6
CONTINUOUS
10
2.3943117322834646
20
-6.0348975984251965
11
2.3690613385826773
21
-6.0026370866141727
0
LINE
8
BLACK
6
CONTINUOUS
10
2.3690613385826773
20
-6.0026370866141727
11
2.3449594488188974
21
-5.9695096850393696
0
LINE
8
BLACK
6
CONTINUOUS
10
2.3449594488188974
20
-5.9695096850393696
11
2.3220358661417322
21
-5.9355562992125979
0
LINE
8
BLACK
6
CONTINUOUS
10
2.3220358661417322
20
-5.9355562992125979
11
2.3003188188976376
21
-5.9008187795275591
0
LINE
8
BLACK
6
CONTINUOUS
10
2.3003188188976376
20
-5.9008187795275591
11
2.2798351574803148
21
-5.8653400393700785
0
LINE
8
BLACK
6
CONTINUOUS
10
2.2798351574803148
20
-5.8653400393700785
11
2.2606100787401573
21
-5.8291637795275593
0
LINE
8
BLACK
6
CONTINUOUS
10
2.2606100787401573
20
-5.8291637795275593
11
2.2426674015748032
21
-5.7923346850393695
0
LINE
8
BLACK
6
CONTINUOUS
10
2.2426674015748032
20
-5.7923346850393695
11
2.2260291732283464
21
-5.7548981496062988
0
LINE
8
BLACK
6
CONTINUOUS
10
2.2260291732283464
20
-5.7548981496062988
11
2.2107159448818896
21
-5.7169003937007874
0
LINE
8
BLACK
6
CONTINUOUS
10
2.2107159448818896
20
-5.7169003937007874
11
2.1967466535433071
21
-5.6783883070866139
0
LINE
8
BLACK
6
CONTINUOUS
10
2.1967466535433071
20
-5.6783883070866139
11
2.1841384645669293
21
-5.6394093700787398
0
LINE
8
BLACK
6
CONTINUOUS
10
2.1841384645669293
20
-5.6394093700787398
11
2.1729069685039368
21
-5.6000116535433069
0
LINE
8
BLACK
6
CONTINUOUS
10
2.1729069685039368
20
-5.6000116535433069
11
2.1630660236220471
21
-5.5602438582677163
0
LINE
8
BLACK
6
CONTINUOUS
10
2.1630660236220471
20
-5.5602438582677163
11
2.1546277952755903
21
-5.5201549606299212
0
LINE
8
BLACK
6
CONTINUOUS
10
2.1546277952755903
20
-5.5201549606299212
11
2.1476026377952757
21
-5.4797944488188977
0
LINE
8
BLACK
6
CONTINUOUS
10
2.1476026377952757
20
-5.4797944488188977
11
2.1419992913385828
21
-5.4392120866141731
0
LINE
8
BLACK
6
CONTINUOUS
10
2.1419992913385828
20
-5.4392120866141731
11
2.137824566929134
21
-5.3984579921259845
0
LINE
8
BLACK
6
CONTINUOUS
10
2.137824566929134
20
-5.3984579921259845
11
2.1350837007874017
21
-5.3575824409448813
0
LINE
8
BLACK
6
CONTINUOUS
10
2.1350837007874017
20
-5.3575824409448813
11
2.1337800787401573
21
-5.3166358267716536
0
LINE
8
BLACK
6
CONTINUOUS
10
2.1337800787401573
20
-5.3166358267716536
11
2.1339152362204725
21
-5.275668700787401
0
LINE
8
BLACK
6
CONTINUOUS
10
2.1339152362204725
20
-5.275668700787401
11
2.1339152755905513
21
-5.275668700787401
0
LINE
8
BLACK
6
CONTINUOUS
10
2.1339152755905513
20
-5.275668700787401
11
2.1340610629921257
21
-5.2750862204724411
0
LINE
8
BLACK
6
CONTINUOUS
10
2.1340610629921257
20
-5.2750862204724411
11
2.134084960629921
21
-5.2744862992125983
0
LINE
8
BLACK
6
CONTINUOUS
10
2.134084960629921
20
-5.2744862992125983
11
2.1343236220472441
21
-5.274037322834646
0
LINE
8
BLACK
6
CONTINUOUS
10
2.1343236220472441
20
-5.274037322834646
11
2.1344470866141734
21
-5.2735440944881891
0
LINE
8
BLACK
6
CONTINUOUS
10
2.1344470866141734
20
-5.2735440944881891
11
2.1348311811023621
21
-5.2730825196850395
0
LINE
8
BLACK
6
CONTINUOUS
10
2.1348311811023621
20
-5.2730825196850395
11
2.1351129921259844
21
-5.2725524015748029
0
LINE
8
BLACK
6
CONTINUOUS
10
2.1351129921259844
20
-5.2725524015748029
11
2.156738661417323
21
-5.2475441732283468
0
LINE
8
BLACK
6
CONTINUOUS
10
2.156738661417323
20
-5.2475441732283468
11
2.1988649606299213
21
-5.1965765354330706
0
LINE
8
BLACK
6
CONTINUOUS
10
2.1988649606299213
20
-5.1965765354330706
11
2.2398452755905511
21
-5.1446829527559057
0
LINE
8
BLACK
6
CONTINUOUS
10
2.2398452755905511
20
-5.1446829527559057
11
2.2796592125984252
21
-5.0918892519685039
0
LINE
8
BLACK
6
CONTINUOUS
10
2.2796592125984252
20
-5.0918892519685039
11
2.3182870866141734
21
-5.0382216141732279
0
LINE
8
BLACK
6
CONTINUOUS
10
2.3182870866141734
20
-5.0382216141732279
11
2.3557096456692914
21
-4.983706692913386
0
LINE
8
BLACK
6
CONTINUOUS
10
2.3557096456692914
20
-4.983706692913386
11
2.391908346456693
21
-4.9283715354330706
0
LINE
8
BLACK
6
CONTINUOUS
10
2.391908346456693
20
-4.9283715354330706
11
2.4268652362204723
21
-4.872243622047244
0
LINE
8
BLACK
6
CONTINUOUS
10
2.4268652362204723
20
-4.872243622047244
11
2.4605629133858269
21
-4.8153508267716534
0
LINE
8
BLACK
6
CONTINUOUS
10
2.4605629133858269
20
-4.8153508267716534
11
2.49298468503937
21
-4.7577213779527554
0
LINE
8
BLACK
6
CONTINUOUS
10
2.49298468503937
20
-4.7577213779527554
11
2.5241144488188976
21
-4.6993838582677165
0
LINE
8
BLACK
6
CONTINUOUS
10
2.5241144488188976
20
-4.6993838582677165
11
2.5539367322834643
21
-4.6403672834645668
0
LINE
8
BLACK
6
CONTINUOUS
10
2.5539367322834643
20
-4.6403672834645668
11
2.5824367716535432
21
-4.5807009448818894
0
LINE
8
BLACK
6
CONTINUOUS
10
2.5824367716535432
20
-4.5807009448818894
11
2.6096003937007874
21
-4.5204144094488186
0
LINE
8
BLACK
6
CONTINUOUS
10
2.6096003937007874
20
-4.5204144094488186
11
2.6354140944881888
21
-4.4595376771653541
0
LINE
8
BLACK
6
CONTINUOUS
10
2.6354140944881888
20
-4.4595376771653541
11
2.6598650787401574
21
-4.3981009055118108
0
LINE
8
BLACK
6
CONTINUOUS
10
2.6598650787401574
20
-4.3981009055118108
11
2.682941181102362
21
-4.3361346456692909
0
LINE
8
BLACK
6
CONTINUOUS
10
2.682941181102362
20
-4.3361346456692909
11
2.6937861023622047
21
-4.3049021653543305
0
LINE
8
BLACK
6
CONTINUOUS
10
2.6937861023622047
20
-4.3049021653543305
11
2.6941043307086612
21
-4.3043929133858265
0
LINE
8
BLACK
6
CONTINUOUS
10
2.6941043307086612
20
-4.3043929133858265
11
2.6943120078740157
21
-4.3038296062992121
0
LINE
8
BLACK
6
CONTINUOUS
10
2.6943120078740157
20
-4.3038296062992121
11
2.6946773228346457
21
-4.3034761023622048
0
LINE
8
BLACK
6
CONTINUOUS
10
2.6946773228346457
20
-4.3034761023622048
11
2.6949468897637794
21
-4.3030448818897638
0
LINE
8
BLACK
6
CONTINUOUS
10
2.6949468897637794
20
-4.3030448818897638
11
2.6954545275590549
21
-4.3027241732283468
0
LINE
8
BLACK
6
CONTINUOUS
10
2.6954545275590549
20
-4.3027241732283468
11
2.695886062992126
21
-4.3023067322834647
0
LINE
8
BLACK
6
CONTINUOUS
10
2.695886062992126
20
-4.3023067322834647
11
2.7312970472440945
21
-4.2817061023622047
0
LINE
8
BLACK
6
CONTINUOUS
10
2.7312970472440945
20
-4.2817061023622047
11
2.7674096850393699
21
-4.2623618110236219
0
LINE
8
BLACK
6
CONTINUOUS
10
2.7674096850393699
20
-4.2623618110236219
11
2.8041793700787401
21
-4.2442976771653544
0
LINE
8
BLACK
6
CONTINUOUS
10
2.8041793700787401
20
-4.2442976771653544
11
2.8415608267716537
21
-4.2275360236220472
0
LINE
8
BLACK
6
CONTINUOUS
10
2.8415608267716537
20
-4.2275360236220472
11
2.8795078346456693
21
-4.212097519685039
0
LINE
8
BLACK
6
CONTINUOUS
10
2.8795078346456693
20
-4.212097519685039
11
2.9179736220472439
21
-4.1980012204724408
0
LINE
8
BLACK
6
CONTINUOUS
10
2.9179736220472439
20
-4.1980012204724408
11
2.956910748031496
21
-4.1852644881889765
0
LINE
8
BLACK
6
CONTINUOUS
10
2.956910748031496
20
-4.1852644881889765
11
2.9962711811023621
21
-4.1739030708661415
0
LINE
8
BLACK
6
CONTINUOUS
10
2.9962711811023621
20
-4.1739030708661415
11
3.0360062992125982
21
-4.1639309842519685
0
LINE
8
BLACK
6
CONTINUOUS
10
3.0360062992125982
20
-4.1639309842519685
11
3.0760671653543308
21
-4.1553605118110237
0
LINE
8
BLACK
6
CONTINUOUS
10
3.0760671653543308
20
-4.1553605118110237
11
3.116404251968504
21
-4.1482022440944881
0
LINE
8
BLACK
6
CONTINUOUS
10
3.116404251968504
20
-4.1482022440944881
11
3.1569679133858268
21
-4.1424649999999996
0
LINE
8
BLACK
6
CONTINUOUS
10
3.1569679133858268
20
-4.1424649999999996
11
3.1977079921259843
21
-4.1381558267716532
0
LINE
8
BLACK
6
CONTINUOUS
10
3.1977079921259843
20
-4.1381558267716532
11
3.2385742913385824
21
-4.1352801181102361
0
LINE
8
BLACK
6
CONTINUOUS
10
3.2385742913385824
20
-4.1352801181102361
11
3.2795163779527559
21
-4.1338413779527556
0
LINE
8
BLACK
6
CONTINUOUS
10
3.2795163779527559
20
-4.1338413779527556
11
3.3204837007874013
21
-4.1338413779527556
0
LINE
8
BLACK
6
CONTINUOUS
10
3.3204837007874013
20
-4.1338413779527556
11
3.3614257874015747
21
-4.1352801181102361
0
LINE
8
BLACK
6
CONTINUOUS
10
3.2593784251968505
20
-4.1440393700787403
11
3.2188068897637794
21
-4.1461790944881889
0
LINE
8
BLACK
6
CONTINUOUS
10
3.2188068897637794
20
-4.1461790944881889
11
3.1783355511811022
21
-4.1497422834645672
0
LINE
8
BLACK
6
CONTINUOUS
10
3.1783355511811022
20
-4.1497422834645672
11
3.1380143307086614
21
-4.1547246062992125
0
LINE
8
BLACK
6
CONTINUOUS
10
3.1380143307086614
20
-4.1547246062992125
11
3.0978929527559056
21
-4.1611199606299207
0
LINE
8
BLACK
6
CONTINUOUS
10
3.0978929527559056
20
-4.1611199606299207
11
3.0580209055118108
21
-4.1689203543307087
0
LINE
8
BLACK
6
CONTINUOUS
10
3.0580209055118108
20
-4.1689203543307087
11
3.0184474015748033
21
-4.1781162204724405
0
LINE
8
BLACK
6
CONTINUOUS
10
3.0184474015748033
20
-4.1781162204724405
11
2.9792212992125982
21
-4.1886962204724405
0
LINE
8
BLACK
6
CONTINUOUS
10
2.9792212992125982
20
-4.1886962204724405
11
2.9403909055118111
21
-4.2006473228346453
0
LINE
8
BLACK
6
CONTINUOUS
10
2.9403909055118111
20
-4.2006473228346453
11
2.9020042125984253
21
-4.2139547244094491
0
LINE
8
BLACK
6
CONTINUOUS
10
2.9020042125984253
20
-4.2139547244094491
11
2.8641085433070868
21
-4.2286020078740156
0
LINE
8
BLACK
6
CONTINUOUS
10
2.8641085433070868
20
-4.2286020078740156
11
2.8267506299212597
21
-4.2445711417322833
0
LINE
8
BLACK
6
CONTINUOUS
10
2.8267506299212597
20
-4.2445711417322833
11
2.7899766141732281
21
-4.2618424015748033
0
LINE
8
BLACK
6
CONTINUOUS
10
2.7899766141732281
20
-4.2618424015748033
11
2.7538318503937007
21
-4.2803945275590554
0
LINE
8
BLACK
6
CONTINUOUS
10
2.7538318503937007
20
-4.2803945275590554
11
2.718360905511811
21
-4.300204527559055
0
LINE
8
BLACK
6
CONTINUOUS
10
2.718360905511811
20
-4.300204527559055
11
2.7024750787401572
21
-4.3098232677165349
0
LINE
8
BLACK
6
CONTINUOUS
10
2.7024750787401572
20
-4.3098232677165349
11
2.6806268503937005
21
-4.370552677165354
0
LINE
8
BLACK
6
CONTINUOUS
10
2.6806268503937005
20
-4.370552677165354
11
2.6567844488188976
21
-4.4324588188976373
0
LINE
8
BLACK
6
CONTINUOUS
10
2.6567844488188976
20
-4.4324588188976373
11
2.6315687401574803
21
-4.4938184251968503
0
LINE
8
BLACK
6
CONTINUOUS
10
2.6315687401574803
20
-4.4938184251968503
11
2.6049922440944879
21
-4.5546009842519686
0
LINE
8
BLACK
6
CONTINUOUS
10
2.6049922440944879
20
-4.5546009842519686
11
2.5770681102362203
21
-4.6147763385826774
0
LINE
8
BLACK
6
CONTINUOUS
10
2.5770681102362203
20
-4.6147763385826774
11
2.5478102362204722
21
-4.6743146456692912
0
LINE
8
BLACK
6
CONTINUOUS
10
2.5478102362204722
20
-4.6743146456692912
11
2.5172331102362202
21
-4.7331862992125986
0
LINE
8
BLACK
6
CONTINUOUS
10
2.5172331102362202
20
-4.7331862992125986
11
2.4853519685039371
21
-4.7913620866141731
0
LINE
8
BLACK
6
CONTINUOUS
10
2.4853519685039371
20
-4.7913620866141731
11
2.4521825984251966
21
-4.8488131496062987
0
LINE
8
BLACK
6
CONTINUOUS
10
2.4521825984251966
20
-4.8488131496062987
11
2.4177414566929132
21
-4.9055109448818897
0
LINE
8
BLACK
6
CONTINUOUS
10
2.4177414566929132
20
-4.9055109448818897
11
2.3820456692913385
21
-4.9614273228346457
0
LINE
8
BLACK
6
CONTINUOUS
10
2.3820456692913385
20
-4.9614273228346457
11
2.3451129133858268
21
-5.0165345275590552
0
LINE
8
BLACK
6
CONTINUOUS
10
2.3451129133858268
20
-5.0165345275590552
11
2.3069616141732281
21
-5.0708052362204725
0
LINE
8
BLACK
6
CONTINUOUS
10
2.3069616141732281
20
-5.0708052362204725
11
2.2676105905511812
21
-5.1242124409448815
0
LINE
8
BLACK
6
CONTINUOUS
10
2.2676105905511812
20
-5.1242124409448815
11
2.2270794881889762
21
-5.17672968503937
0
LINE
8
BLACK
6
CONTINUOUS
10
2.2270794881889762
20
-5.17672968503937
11
2.1853883858267715
21
-5.2283308661417323
0
LINE
8
BLACK
6
CONTINUOUS
10
2.1853883858267715
20
-5.2283308661417323
11
2.1437192519685038
21
-5.2776167322834642
0
LINE
8
BLACK
6
CONTINUOUS
10
2.1437192519685038
20
-5.2776167322834642
11
2.1433320866141732
21
-5.2961835826771653
0
LINE
8
BLACK
6
CONTINUOUS
10
2.1433320866141732
20
-5.2961835826771653
11
2.1439115748031496
21
-5.3368073228346455
0
LINE
8
BLACK
6
CONTINUOUS
10
2.1439115748031496
20
-5.3368073228346455
11
2.1459173622047243
21
-5.3773856692913382
0
LINE
8
BLACK
6
CONTINUOUS
10
2.1459173622047243
20
-5.3773856692913382
11
2.1493470472440945
21
-5.4178685433070868
0
LINE
8
BLACK
6
CONTINUOUS
10
2.1493470472440945
20
-5.4178685433070868
11
2.1541962992125985
21
-5.4582060236220471
0
LINE
8
BLACK
6
CONTINUOUS
10
2.1541962992125985
20
-5.4582060236220471
11
2.160459212598425
21
-5.4983482677165352
0
LINE
8
BLACK
6
CONTINUOUS
10
2.160459212598425
20
-5.4983482677165352
11
2.1681280314960629
21
-5.5382458267716537
0
LINE
8
BLACK
6
CONTINUOUS
10
2.1681280314960629
20
-5.5382458267716537
11
2.1771932677165355
21
-5.5778494488188972
0
LINE
8
BLACK
6
CONTINUOUS
10
2.1771932677165355
20
-5.5778494488188972
11
2.1876438188976377
21
-5.6171102755905506
0
LINE
8
BLACK
6
CONTINUOUS
10
2.1876438188976377
20
-5.6171102755905506
11
2.1994666929133859
21
-5.6559798818897633
0
LINE
8
BLACK
6
CONTINUOUS
10
2.1994666929133859
20
-5.6559798818897633
11
2.2126473622047245
21
-5.6944102755905508
0
LINE
8
BLACK
6
CONTINUOUS
10
2.2126473622047245
20
-5.6944102755905508
11
2.2271695275590551
21
-5.73235405511811
0
LINE
8
BLACK
6
CONTINUOUS
10
2.2271695275590551
20
-5.73235405511811
11
2.2430153149606298
21
-5.7697644488188979
0
LINE
8
BLACK
6
CONTINUOUS
10
2.2430153149606298
20
-5.7697644488188979
11
2.2601651574803148
21
-5.8065952362204722
0
LINE
8
BLACK
6
CONTINUOUS
10
2.2601651574803148
20
-5.8065952362204722
11
2.2785979133858265
21
-5.8428010629921259
0
LINE
8
BLACK
6
CONTINUOUS
10
2.2785979133858265
20
-5.8428010629921259
11
2.2982907874015748
21
-5.8783371653543304
0
LINE
8
BLACK
6
CONTINUOUS
10
2.2982907874015748
20
-5.8783371653543304
11
2.319219527559055
21
-5.913159763779527
0
LINE
8
BLACK
6
CONTINUOUS
10
2.319219527559055
20
-5.913159763779527
11
2.341358307086614
21
-5.9472258661417321
0
LINE
8
BLACK
6
CONTINUOUS
10
2.341358307086614
20
-5.9472258661417321
11
2.3646798031496061
21
-5.980493464566929
0
LINE
8
BLACK
6
CONTINUOUS
10
2.3646798031496061
20
-5.980493464566929
11
2.389155275590551
21
-6.0129215354330707
0
LINE
8
BLACK
6
CONTINUOUS
10
2.389155275590551
20
-6.0129215354330707
11
2.4147544488188974
21
-6.0444699999999996
0
LINE
8
BLACK
6
CONTINUOUS
10
2.4147544488188974
20
-6.0444699999999996
11
2.4414458267716537
21
-6.0750999999999999
0
LINE
8
BLACK
6
CONTINUOUS
10
2.4414458267716537
20
-6.0750999999999999
11
2.4691964566929134
21
-6.1047737007874012
0
LINE
8
BLACK
6
CONTINUOUS
10
2.4691964566929134
20
-6.1047737007874012
11
2.497972086614173
21
-6.1334545275590546
0
LINE
8
BLACK
6
CONTINUOUS
10
2.497972086614173
20
-6.1334545275590546
11
2.5277372047244095
21
-6.1611070866141731
0
LINE
8
BLACK
6
CONTINUOUS
10
2.5277372047244095
20
-6.1611070866141731
11
2.5584550787401574
21
-6.1876972440944877
0
LINE
8
BLACK
6
CONTINUOUS
10
2.5584550787401574
20
-6.1876972440944877
11
2.5900878740157478
21
-6.2131922047244093
0
LINE
8
BLACK
6
CONTINUOUS
10
2.5900878740157478
20
-6.2131922047244093
11
2.6225964960629922
21
-6.2375605118110231
0
LINE
8
BLACK
6
CONTINUOUS
10
2.6225964960629922
20
-6.2375605118110231
11
2.6559408661417323
21
-6.2607721259842517
0
LINE
8
BLACK
6
CONTINUOUS
10
2.6559408661417323
20
-6.2607721259842517
11
2.690079842519685
21
-6.2827983464566923
0
LINE
8
BLACK
6
CONTINUOUS
10
2.690079842519685
20
-6.2827983464566923
11
2.7249712992125983
21
-6.3036120866141729
0
LINE
8
BLACK
6
CONTINUOUS
10
2.7249712992125983
20
-6.3036120866141729
11
2.7412443307086614
21
-6.312560236220472
0
LINE
8
BLACK
6
CONTINUOUS
10
2.7412443307086614
20
-6.312560236220472
11
2.8047615748031496
21
-6.3011167322834645
0
LINE
8
BLACK
6
CONTINUOUS
10
2.8047615748031496
20
-6.3011167322834645
11
2.8702950787401575
21
-6.2908117716535434
0
LINE
8
BLACK
6
CONTINUOUS
10
2.8702950787401575
20
-6.2908117716535434
11
2.9360418897637794
21
-6.281969409448819
0
LINE
8
BLACK
6
CONTINUOUS
10
2.9360418897637794
20
-6.281969409448819
11
3.0019694094488187
21
-6.2745940551181105
0
LINE
8
BLACK
6
CONTINUOUS
10
3.0019694094488187
20
-6.2745940551181105
11
3.0680448425196851
21
-6.268689409448819
0
LINE
8
BLACK
6
CONTINUOUS
10
3.0680448425196851
20
-6.268689409448819
11
3.1342354724409449
21
-6.2642583070866138
0
LINE
8
BLACK
6
CONTINUOUS
10
3.1342354724409449
20
-6.2642583070866138
11
3.2005083464566928
21
-6.2613030314960625
0
LINE
8
BLACK
6
CONTINUOUS
10
3.2005083464566928
20
-6.2613030314960625
11
3.2668306692913385
21
-6.2598250393700789
0
LINE
8
BLACK
6
CONTINUOUS
10
3.2668306692913385
20
-6.2598250393700789
11
3.3331694094488187
21
-6.2598250393700789
0
LINE
8
BLACK
6
CONTINUOUS
10
3.3331694094488187
20
-6.2598250393700789
11
3.3994917322834644
21
-6.2613030314960625
0
LINE
8
BLACK
6
CONTINUOUS
10
3.3994917322834644
20
-6.2613030314960625
11
3.4657646062992127
21
-6.2642583070866138
0
LINE
8
BLACK
6
CONTINUOUS
10
3.4657646062992127
20
-6.2642583070866138
11
3.5319552362204725
21
-6.268689409448819
0
LINE
8
BLACK
6
CONTINUOUS
10
3.5319552362204725
20
-6.268689409448819
11
3.5980306692913384
21
-6.2745940551181105
0
LINE
8
BLACK
6
CONTINUOUS
10
3.5980306692913384
20
-6.2745940551181105
11
3.6639581889763777
21
-6.281969409448819
0
LINE
8
BLACK
6
CONTINUOUS
10
3.6639581889763777
20
-6.281969409448819
11
3.729705
21
-6.2908117716535434
0
LINE
8
BLACK
6
CONTINUOUS
10
3.729705
20
-6.2908117716535434
11
3.7952385039370076
21
-6.3011167322834645
0
LINE
8
BLACK
6
CONTINUOUS
10
3.7952385039370076
20
-6.3011167322834645
11
3.8587556692913383
21
-6.312560236220472
0
LINE
8
BLACK
6
CONTINUOUS
10
3.8587556692913383
20
-6.312560236220472
11
3.8750287401574801
21
-6.3036120472440942
0
LINE
8
BLACK
6
CONTINUOUS
10
3.8750287401574801
20
-6.3036120472440942
11
3.9099202362204721
21
-6.2827983464566923
0
LINE
8
BLACK
6
CONTINUOUS
10
3.9099202362204721
20
-6.2827983464566923
11
3.9440592125984253
21
-6.2607720866141729
0
LINE
8
BLACK
6
CONTINUOUS
10
3.9440592125984253
20
-6.2607720866141729
11
3.9774035826771654
21
-6.2375604724409444
0
LINE
8
BLACK
6
CONTINUOUS
10
3.9774035826771654
20
-6.2375604724409444
11
4.0099122047244098
21
-6.2131921653543305
0
LINE
8
BLACK
6
CONTINUOUS
10
4.0099122047244098
20
-6.2131921653543305
11
4.0415449606299214
21
-6.187697204724409
0
LINE
8
BLACK
6
CONTINUOUS
10
4.0415449606299214
20
-6.187697204724409
11
4.0722628346456693
21
-6.1611070472440943
0
LINE
8
BLACK
6
CONTINUOUS
10
4.0722628346456693
20
-6.1611070472440943
11
4.1020279527559058
21
-6.1334544881889759
0
LINE
8
BLACK
6
CONTINUOUS
10
4.1020279527559058
20
-6.1334544881889759
11
4.1308035826771654
21
-6.1047736614173225
0
LINE
8
BLACK
6
CONTINUOUS
10
4.1308035826771654
20
-6.1047736614173225
11
4.158554173228346
21
-6.0750999606299212
0
LINE
8
BLACK
6
CONTINUOUS
10
4.158554173228346
20
-6.0750999606299212
11
4.1852455511811026
21
-6.0444699606299208
0
LINE
8
BLACK
6
CONTINUOUS
10
4.1852455511811026
20
-6.0444699606299208
11
4.2108447637795274
21
-6.012921496062992
0
LINE
8
BLACK
6
CONTINUOUS
10
4.2108447637795274
20
-6.012921496062992
11
4.2353201968503935
21
-5.980493464566929
0
LINE
8
BLACK
6
CONTINUOUS
10
4.2353201968503935
20
-5.980493464566929
11
4.2586416929133861
21
-5.9472258661417321
0
LINE
8
BLACK
6
CONTINUOUS
10
4.2586416929133861
20
-5.9472258661417321
11
4.2807804724409451
21
-5.9131597244094483
0
LINE
8
BLACK
6
CONTINUOUS
10
4.2807804724409451
20
-5.9131597244094483
11
4.3017092125984249
21
-5.8783371259842516
0
LINE
8
BLACK
6
CONTINUOUS
10
4.3017092125984249
20
-5.8783371259842516
11
4.3214021259842514
21
-5.8428010236220471
0
LINE
8
BLACK
6
CONTINUOUS
10
4.3214021259842514
20
-5.8428010236220471
11
4.3398348425196849
21
-5.8065952362204722
0
LINE
8
BLACK
6
CONTINUOUS
10
4.3398348425196849
20
-5.8065952362204722
11
4.3569846850393699
21
-5.7697644094488192
0
LINE
8
BLACK
6
CONTINUOUS
10
4.3569846850393699
20
-5.7697644094488192
11
4.3728304724409446
21
-5.73235405511811
0
LINE
8
BLACK
6
CONTINUOUS
10
4.3728304724409446
20
-5.73235405511811
11
4.3873526377952752
21
-5.694410236220472
0
LINE
8
BLACK
6
CONTINUOUS
10
4.3873526377952752
20
-5.694410236220472
11
4.4005333070866142
21
-5.6559798425196846
0
LINE
8
BLACK
6
CONTINUOUS
10
4.4005333070866142
20
-5.6559798425196846
11
4.4123562204724411
21
-5.6171102755905506
0
LINE
8
BLACK
6
CONTINUOUS
10
4.4123562204724411
20
-5.6171102755905506
11
4.4228067322834645
21
-5.5778494488188972
0
LINE
8
BLACK
6
CONTINUOUS
10
4.4228067322834645
20
-5.5778494488188972
11
4.4318719685039367
21
-5.5382458267716537
0
LINE
8
BLACK
6
CONTINUOUS
10
4.4318719685039367
20
-5.5382458267716537
11
4.4395407874015751
21
-5.4983482677165352
0
LINE
8
BLACK
6
CONTINUOUS
10
4.4395407874015751
20
-5.4983482677165352
11
4.4458037007874012
21
-5.4582059842519683
0
LINE
8
BLACK
6
CONTINUOUS
10
4.4458037007874012
20
-5.4582059842519683
11
4.4506529527559051
21
-5.4178685433070868
0
LINE
8
BLACK
6
CONTINUOUS
10
4.4506529527559051
20
-5.4178685433070868
11
4.4540826377952758
21
-5.3773856692913382
0
LINE
8
BLACK
6
CONTINUOUS
10
4.4540826377952758
20
-5.3773856692913382
11
4.4560884251968504
21
-5.3368073228346455
0
LINE
8
BLACK
6
CONTINUOUS
10
4.4560884251968504
20
-5.3368073228346455
11
4.4566679133858269
21
-5.2961835826771653
0
LINE
8
BLACK
6
CONTINUOUS
10
4.4566679133858269
20
-5.2961835826771653
11
4.4562807086614171
21
-5.2776166141732279
0
LINE
8
BLACK
6
CONTINUOUS
10
4.4562807086614171
20
-5.2776166141732279
11
4.4146116929133861
21
-5.2283308661417323
0
LINE
8
BLACK
6
CONTINUOUS
10
4.4146116929133861
20
-5.2283308661417323
11
4.3729205511811022
21
-5.17672968503937
0
LINE
8
BLACK
6
CONTINUOUS
10
4.3729205511811022
20
-5.17672968503937
11
4.3323894094488189
21
-5.1242124803149602
0
LINE
8
BLACK
6
CONTINUOUS
10
4.3323894094488189
20
-5.1242124803149602
11
4.2930383858267716
21
-5.0708052755905513
0
LINE
8
BLACK
6
CONTINUOUS
10
4.2930383858267716
20
-5.0708052755905513
11
4.2548870472440941
21
-5.0165345669291339
0
LINE
8
BLACK
6
CONTINUOUS
10
4.2548870472440941
20
-5.0165345669291339
11
4.2179542913385824
21
-4.9614273622047245
0
LINE
8
BLACK
6
CONTINUOUS
10
4.2179542913385824
20
-4.9614273622047245
11
4.1822585039370077
21
-4.9055110236220472
0
LINE
8
BLACK
6
CONTINUOUS
10
4.1822585039370077
20
-4.9055110236220472
11
4.147817322834646
21
-4.8488132283464562
0
LINE
8
BLACK
6
CONTINUOUS
10
4.147817322834646
20
-4.8488132283464562
11
4.114647952755905
21
-4.7913621653543306
0
LINE
8
BLACK
6
CONTINUOUS
10
4.114647952755905
20
-4.7913621653543306
11
4.0827667716535432
21
-4.7331863779527561
0
LINE
8
BLACK
6
CONTINUOUS
10
4.0827667716535432
20
-4.7331863779527561
11
4.0521896456692916
21
-4.6743147244094487
0
LINE
8
BLACK
6
CONTINUOUS
10
4.0521896456692916
20
-4.6743147244094487
11
4.0229317322834648
21
-4.6147764566929137
0
LINE
8
BLACK
6
CONTINUOUS
10
4.0229317322834648
20
-4.6147764566929137
11
3.9950075984251967
21
-4.5546011023622048
0
LINE
8
BLACK
6
CONTINUOUS
10
3.9950075984251967
20
-4.5546011023622048
11
3.968431062992126
21
-4.4938185433070865
0
LINE
8
BLACK
6
CONTINUOUS
10
3.968431062992126
20
-4.4938185433070865
11
3.9432153543307087
21
-4.4324589370078735
0
LINE
8
BLACK
6
CONTINUOUS
10
3.9432153543307087
20
-4.4324589370078735
11
3.9193729527559054
21
-4.3705527952755903
0
LINE
8
BLACK
6
CONTINUOUS
10
3.9193729527559054
20
-4.3705527952755903
11
3.8975244881889761
21
-4.3098229921259845
0
LINE
8
BLACK
6
CONTINUOUS
10
3.8975244881889761
20
-4.3098229921259845
11
3.8816391732283462
21
-4.300204527559055
0
LINE
8
BLACK
6
CONTINUOUS
10
3.8816391732283462
20
-4.300204527559055
11
3.8461682283464564
21
-4.2803945275590554
0
LINE
8
BLACK
6
CONTINUOUS
10
3.8461682283464564
20
-4.2803945275590554
11
3.8100234645669291
21
-4.2618424015748033
0
LINE
8
BLACK
6
CONTINUOUS
10
3.8100234645669291
20
-4.2618424015748033
11
3.7732494488188975
21
-4.2445711417322833
0
LINE
8
BLACK
6
CONTINUOUS
10
3.7732494488188975
20
-4.2445711417322833
11
3.7358915354330708
21
-4.2286020078740156
0
LINE
8
BLACK
6
CONTINUOUS
10
3.7358915354330708
20
-4.2286020078740156
11
3.6979958661417323
21
-4.2139547244094491
0
LINE
8
BLACK
6
CONTINUOUS
10
3.6979958661417323
20
-4.2139547244094491
11
3.6596091732283464
21
-4.2006473228346453
0
LINE
8
BLACK
6
CONTINUOUS
10
3.6596091732283464
20
-4.2006473228346453
11
3.620778779527559
21
-4.1886962204724405
0
LINE
8
BLACK
6
CONTINUOUS
10
3.620778779527559
20
-4.1886962204724405
11
3.5815526771653543
21
-4.1781162204724405
0
LINE
8
BLACK
6
CONTINUOUS
10
3.5815526771653543
20
-4.1781162204724405
11
3.5419791732283463
21
-4.1689203543307087
0
LINE
8
BLACK
6
CONTINUOUS
10
3.5419791732283463
20
-4.1689203543307087
11
3.502107125984252
21
-4.1611199606299207
0
LINE
8
BLACK
6
CONTINUOUS
10
3.502107125984252
20
-4.1611199606299207
11
3.4619857480314962
21
-4.1547246062992125
0
LINE
8
BLACK
6
CONTINUOUS
10
3.4619857480314962
20
-4.1547246062992125
11
3.4216645275590549
21
-4.1497422834645672
0
LINE
8
BLACK
6
CONTINUOUS
10
3.4216645275590549
20
-4.1497422834645672
11
3.3811931889763778
21
-4.1461790944881889
0
LINE
8
BLACK
6
CONTINUOUS
10
3.3811931889763778
20
-4.1461790944881889
11
3.3406216535433071
21
-4.1440393700787403
0
LINE
8
BLACK
6
CONTINUOUS
10
3.3406216535433071
20
-4.1440393700787403
11
3.3000000393700786
21
-4.1433258661417325
0
LINE
8
BLACK
6
CONTINUOUS
10
3.3000000393700786
20
-4.1433258661417325
11
3.2593784251968505
21
-4.1440393700787403
  0
ENDSEC
  0
EOF
