  0
SECTION
  2
HEADER
  9
$ANGBASE
  50
0.0
  9
$ANGDIR
  70
1
  9
$MEASUREMENT
  70
1
  0
ENDSEC
  0
SECTION
  2
TABLES
  0
TABLE
  2
LTYPE
  70
4
  0
LTYPE
  5
40F
  2
CONTINUOUS
  70
0
  3
Solid line
  72
65
  73
0
  40
0.0
  0
LTYPE
  5
410
  2
DASHDOT
 70
0
  3
Dash Dot ____ _ ____ _
 72
65
 73
4
 40
2.0
 49
1.25
 49
-0.25
 49
0.25
 49
-0.25
  0
LTYPE
  5
411
  2
DASHED
 70
0
  3
Dashed __ __ __ __ __
 72
65
 73
2
 40
0.75
 49
0.5
 49
-0.25
  0
LTYPE
  5
43B
  2
DOTTED
 70
0
  3
Dotted .  .  .  .
 72
65
 73
2
 40
0.2
 49
0.0
 49
-0.2
  0
ENDTAB
  0
TABLE
  2
STYLE
  70
4
  0
STYLE
  2
KICAD
  70
0
  40
0
  41
1
  42
1
  50
0
  71
0
  3
isocp.shx
  0
STYLE
  2
KICADB
  70
0
  40
0
  41
1
  42
1
  50
0
  71
0
  3
isocp.shx
  0
STYLE
  2
KICADI
  70
0
  40
0
  41
1
  42
1
  50
15
  71
0
  3
isocp.shx
  0
STYLE
  2
KICADBI
  70
0
  40
0
  41
1
  42
1
  50
15
  71
0
  3
isocp.shx
  0
ENDTAB
  0
TABLE
  2
LAYER
  70
1
  0
LAYER
  2
BLACK
  70
0
  62
7
  6
CONTINUOUS
  0
ENDTAB
  0
ENDSEC
  0
SECTION
  2
ENTITIES
0
LINE
8
BLACK
6
CONTINUOUS
10
85.3802149999999926
20
-105.0361149999999952
11
86.4182189999999935
21
-105.1091579999999936
0
LINE
8
BLACK
6
CONTINUOUS
10
86.4182189999999935
20
-105.1091579999999936
11
87.4530170000000027
21
-105.2186109999999957
0
LINE
8
BLACK
6
CONTINUOUS
10
87.4530170000000027
20
-105.2186109999999957
11
88.4833339999999993
21
-105.3643369999999919
0
LINE
8
BLACK
6
CONTINUOUS
10
88.4833339999999993
20
-105.3643369999999919
11
89.5078960000000023
21
-105.5461569999999938
0
LINE
8
BLACK
6
CONTINUOUS
10
89.5078960000000023
20
-105.5461569999999938
11
90.5254419999999982
21
-105.7638469999999984
0
LINE
8
BLACK
6
CONTINUOUS
10
90.5254419999999982
20
-105.7638469999999984
11
91.5347139999999939
21
-106.0171379999999886
0
LINE
8
BLACK
6
CONTINUOUS
10
91.5347139999999939
20
-106.0171379999999886
11
92.5344690000000014
21
-106.3057179999999988
0
LINE
8
BLACK
6
CONTINUOUS
10
92.5344690000000014
20
-106.3057179999999988
11
93.5234719999999982
21
-106.6292309999999901
0
LINE
8
BLACK
6
CONTINUOUS
10
93.5234719999999982
20
-106.6292309999999901
11
94.5005029999999948
21
-106.9872769999999917
0
LINE
8
BLACK
6
CONTINUOUS
10
94.5005029999999948
20
-106.9872769999999917
11
95.4643569999999926
21
-107.3794149999999945
0
LINE
8
BLACK
6
CONTINUOUS
10
95.4643569999999926
20
-107.3794149999999945
11
96.4138459999999924
21
-107.8051609999999982
0
LINE
8
BLACK
6
CONTINUOUS
10
96.4138459999999924
20
-107.8051609999999982
11
97.3477960000000024
21
-108.2639899999999926
0
LINE
8
BLACK
6
CONTINUOUS
10
97.3477960000000024
20
-108.2639899999999926
11
98.2650569999999988
21
-108.7553349999999881
0
LINE
8
BLACK
6
CONTINUOUS
10
98.2650569999999988
20
-108.7553349999999881
11
99.1644959999999998
21
-109.2785909999999916
0
LINE
8
BLACK
6
CONTINUOUS
10
99.1644959999999998
20
-109.2785909999999916
11
99.1754559999999969
21
-109.2891939999999948
0
LINE
8
BLACK
6
CONTINUOUS
10
99.1754559999999969
20
-109.2891939999999948
11
99.1883509999999973
21
-109.2973399999999913
0
LINE
8
BLACK
6
CONTINUOUS
10
99.1883509999999973
20
-109.2973399999999913
11
99.1951969999999932
21
-109.3082929999999919
0
LINE
8
BLACK
6
CONTINUOUS
10
99.1951969999999932
20
-109.3082929999999919
11
99.2044769999999971
21
-109.3172719999999885
0
LINE
8
BLACK
6
CONTINUOUS
10
99.2044769999999971
20
-109.3172719999999885
11
99.2097509999999971
21
-109.3315799999999882
0
LINE
8
BLACK
6
CONTINUOUS
10
99.2097509999999971
20
-109.3315799999999882
11
99.2178349999999938
21
-109.3445150000000012
0
LINE
8
BLACK
6
CONTINUOUS
10
99.2178349999999938
20
-109.3445150000000012
11
99.2178269999999998
21
-109.3445169999999962
0
LINE
8
BLACK
6
CONTINUOUS
10
99.2178269999999998
20
-109.3445169999999962
11
99.4932879999999926
21
-110.1378229999999974
0
LINE
8
BLACK
6
CONTINUOUS
10
99.4932879999999926
20
-110.1378229999999974
11
100.0794219999999939
21
-111.7117659999999972
0
LINE
8
BLACK
6
CONTINUOUS
10
100.0794219999999939
20
-111.7117659999999972
11
100.7004769999999922
21
-113.2722599999999886
0
LINE
8
BLACK
6
CONTINUOUS
10
100.7004769999999922
20
-113.2722599999999886
11
101.3561459999999954
21
-114.8185289999999981
0
LINE
8
BLACK
6
CONTINUOUS
10
101.3561459999999954
20
-114.8185289999999981
11
102.0461019999999905
21
-116.3498060000000009
0
LINE
8
BLACK
6
CONTINUOUS
10
102.0461019999999905
20
-116.3498060000000009
11
102.7700029999999884
21
-117.8653319999999951
0
LINE
8
BLACK
6
CONTINUOUS
10
102.7700029999999884
20
-117.8653319999999951
11
103.5274900000000002
21
-119.3643529999999942
0
LINE
8
BLACK
6
CONTINUOUS
10
103.5274900000000002
20
-119.3643529999999942
11
104.3181859999999972
21
-120.8461250000000007
0
LINE
8
BLACK
6
CONTINUOUS
10
104.3181859999999972
20
-120.8461250000000007
11
105.1417000000000002
21
-122.3099129999999946
0
LINE
8
BLACK
6
CONTINUOUS
10
105.1417000000000002
20
-122.3099129999999946
11
105.9976209999999952
21
-123.7549899999999923
0
LINE
8
BLACK
6
CONTINUOUS
10
105.9976209999999952
20
-123.7549899999999923
11
106.8855269999999962
21
-125.1806389999999993
0
LINE
8
BLACK
6
CONTINUOUS
10
106.8855269999999962
20
-125.1806389999999993
11
107.8049740000000014
21
-126.5861519999999985
0
LINE
8
BLACK
6
CONTINUOUS
10
107.8049740000000014
20
-126.5861519999999985
11
108.7555079999999919
21
-127.9708309999999898
0
LINE
8
BLACK
6
CONTINUOUS
10
108.7555079999999919
20
-127.9708309999999898
11
109.7366559999999964
21
-129.3339880000000051
0
LINE
8
BLACK
6
CONTINUOUS
10
109.7366559999999964
20
-129.3339880000000051
11
110.7479309999999941
21
-130.6749480000000005
0
LINE
8
BLACK
6
CONTINUOUS
10
110.7479309999999941
20
-130.6749480000000005
11
111.7888310000000018
21
-131.9930439999999976
0
LINE
8
BLACK
6
CONTINUOUS
10
111.7888310000000018
20
-131.9930439999999976
11
112.858838999999989
21
-133.2876219999999989
0
LINE
8
BLACK
6
CONTINUOUS
10
112.858838999999989
20
-133.2876219999999989
11
113.4081319999999948
21
-133.9228300000000047
0
LINE
8
BLACK
6
CONTINUOUS
10
113.4081319999999948
20
-133.9228300000000047
11
113.4081319999999948
21
-133.9228310000000022
0
LINE
8
BLACK
6
CONTINUOUS
10
113.4081319999999948
20
-133.9228310000000022
11
113.4152890000000014
21
-133.9362959999999987
0
LINE
8
BLACK
6
CONTINUOUS
10
113.4152890000000014
20
-133.9362959999999987
11
113.4250459999999947
21
-133.9480199999999854
0
LINE
8
BLACK
6
CONTINUOUS
10
113.4250459999999947
20
-133.9480199999999854
11
113.428180999999995
21
-133.9605479999999886
0
LINE
8
BLACK
6
CONTINUOUS
10
113.428180999999995
20
-133.9605479999999886
11
113.4342439999999925
21
-133.9719519999999875
0
LINE
8
BLACK
6
CONTINUOUS
10
113.4342439999999925
20
-133.9719519999999875
11
113.4348499999999973
21
-133.9871899999999982
0
LINE
8
BLACK
6
CONTINUOUS
10
113.4348499999999973
20
-133.9871899999999982
11
113.4385539999999963
21
-134.0019849999999906
0
LINE
8
BLACK
6
CONTINUOUS
10
113.4385539999999963
20
-134.0019849999999906
11
113.4385529999999989
21
-134.0019849999999906
0
LINE
8
BLACK
6
CONTINUOUS
10
113.4385529999999989
20
-134.0019849999999906
11
113.441986
21
-135.0425500000000056
0
LINE
8
BLACK
6
CONTINUOUS
10
113.441986
20
-135.0425500000000056
11
113.4088739999999973
21
-136.0825940000000003
0
LINE
8
BLACK
6
CONTINUOUS
10
113.4088739999999973
20
-136.0825940000000003
11
113.3392559999999918
21
-137.1208330000000046
0
LINE
8
BLACK
6
CONTINUOUS
10
113.3392559999999918
20
-137.1208330000000046
11
113.2332179999999937
21
-138.1559869999999819
0
LINE
8
BLACK
6
CONTINUOUS
10
113.2332179999999937
20
-138.1559869999999819
11
113.0908929999999941
21
-139.1867780000000039
0
LINE
8
BLACK
6
CONTINUOUS
10
113.0908929999999941
20
-139.1867780000000039
11
112.9124539999999968
21
-140.2119349999999827
0
LINE
8
BLACK
6
CONTINUOUS
10
112.9124539999999968
20
-140.2119349999999827
11
112.6981229999999954
21
-141.2301929999999857
0
LINE
8
BLACK
6
CONTINUOUS
10
112.6981229999999954
20
-141.2301929999999857
11
112.4481629999999939
21
-142.2402960000000007
0
LINE
8
BLACK
6
CONTINUOUS
10
112.4481629999999939
20
-142.2402960000000007
11
112.1628829999999937
21
-143.240996999999993
0
LINE
8
BLACK
6
CONTINUOUS
10
112.1628829999999937
20
-143.240996999999993
11
111.8426359999999988
21
-144.2310619999999801
0
LINE
8
BLACK
6
CONTINUOUS
10
111.8426359999999988
20
-144.2310619999999801
11
111.4878149999999977
21
-145.2092700000000036
0
LINE
8
BLACK
6
CONTINUOUS
10
111.4878149999999977
20
-145.2092700000000036
11
111.0988600000000019
21
-146.1744119999999896
0
LINE
8
BLACK
6
CONTINUOUS
10
111.0988600000000019
20
-146.1744119999999896
11
110.6762489999999985
21
-147.1252999999999815
0
LINE
8
BLACK
6
CONTINUOUS
10
110.6762489999999985
20
-147.1252999999999815
11
110.2205039999999912
21
-148.0607589999999902
0
LINE
8
BLACK
6
CONTINUOUS
10
110.2205039999999912
20
-148.0607589999999902
11
109.7321879999999936
21
-148.9796359999999993
0
LINE
8
BLACK
6
CONTINUOUS
10
109.7321879999999936
20
-148.9796359999999993
11
109.2119019999999949
21
-149.8807970000000012
0
LINE
8
BLACK
6
CONTINUOUS
10
109.2119019999999949
20
-149.8807970000000012
11
108.6602899999999892
21
-150.7631289999999922
0
LINE
8
BLACK
6
CONTINUOUS
10
108.6602899999999892
20
-150.7631289999999922
11
108.0780309999999957
21
-151.6255449999999882
0
LINE
8
BLACK
6
CONTINUOUS
10
108.0780309999999957
20
-151.6255449999999882
11
107.4658429999999925
21
-152.4669810000000041
0
LINE
8
BLACK
6
CONTINUOUS
10
107.4658429999999925
20
-152.4669810000000041
11
106.8244830000000007
21
-153.2863979999999913
0
LINE
8
BLACK
6
CONTINUOUS
10
106.8244830000000007
20
-153.2863979999999913
11
106.1547399999999897
21
-154.0827850000000012
0
LINE
8
BLACK
6
CONTINUOUS
10
106.1547399999999897
20
-154.0827850000000012
11
105.4574429999999978
21
-154.8551599999999837
0
LINE
8
BLACK
6
CONTINUOUS
10
105.4574429999999978
20
-154.8551599999999837
11
104.7334499999999906
21
-155.6025699999999858
0
LINE
8
BLACK
6
CONTINUOUS
10
104.7334499999999906
20
-155.6025699999999858
11
103.9836549999999988
21
-156.3240930000000048
0
LINE
8
BLACK
6
CONTINUOUS
10
103.9836549999999988
20
-156.3240930000000048
11
103.2089829999999893
21
-157.0188379999999881
0
LINE
8
BLACK
6
CONTINUOUS
10
103.2089829999999893
20
-157.0188379999999881
11
102.41039099999999
21
-157.6859489999999937
0
LINE
8
BLACK
6
CONTINUOUS
10
102.41039099999999
20
-157.6859489999999937
11
101.5888619999999918
21
-158.3246019999999987
0
LINE
8
BLACK
6
CONTINUOUS
10
101.5888619999999918
20
-158.3246019999999987
11
100.7454109999999901
21
-158.9340100000000007
0
LINE
8
BLACK
6
CONTINUOUS
10
100.7454109999999901
20
-158.9340100000000007
11
99.8810789999999997
21
-159.5134199999999964
0
LINE
8
BLACK
6
CONTINUOUS
10
99.8810789999999997
20
-159.5134199999999964
11
98.9969309999999894
21
-160.0621189999999956
0
LINE
8
BLACK
6
CONTINUOUS
10
98.9969309999999894
20
-160.0621189999999956
11
98.0940579999999898
21
-160.5794279999999787
0
LINE
8
BLACK
6
CONTINUOUS
10
98.0940579999999898
20
-160.5794279999999787
11
98.0940590000000014
21
-160.5794290000000046
0
LINE
8
BLACK
6
CONTINUOUS
10
98.0940590000000014
20
-160.5794290000000046
11
98.0793959999999885
21
-160.5836180000000013
0
LINE
8
BLACK
6
CONTINUOUS
10
98.0793959999999885
20
-160.5836180000000013
11
98.0658940000000001
21
-160.5907139999999913
0
LINE
8
BLACK
6
CONTINUOUS
10
98.0658940000000001
20
-160.5907139999999913
11
98.0529849999999925
21
-160.591165999999987
0
LINE
8
BLACK
6
CONTINUOUS
10
98.0529849999999925
20
-160.591165999999987
11
98.0405700000000024
21
-160.594713999999982
0
LINE
8
BLACK
6
CONTINUOUS
10
98.0405700000000024
20
-160.594713999999982
11
98.0255409999999898
21
-160.592127000000005
0
LINE
8
BLACK
6
CONTINUOUS
10
98.0255409999999898
20
-160.592127000000005
11
98.0102979999999917
21
-160.5926609999999926
0
LINE
8
BLACK
6
CONTINUOUS
10
98.0102979999999917
20
-160.5926609999999926
11
98.0102979999999917
21
-160.59266199999999
0
LINE
8
BLACK
6
CONTINUOUS
10
98.0102979999999917
20
-160.59266199999999
11
97.1855449999999905
21
-160.4345649999999921
0
LINE
8
BLACK
6
CONTINUOUS
10
97.1855449999999905
20
-160.4345649999999921
11
95.5294030000000021
21
-160.1551999999999794
0
LINE
8
BLACK
6
CONTINUOUS
10
95.5294030000000021
20
-160.1551999999999794
11
93.8674489999999935
21
-159.9128029999999967
0
LINE
8
BLACK
6
CONTINUOUS
10
93.8674489999999935
20
-159.9128029999999967
11
92.2005059999999901
21
-159.7074929999999995
0
LINE
8
BLACK
6
CONTINUOUS
10
92.2005059999999901
20
-159.7074929999999995
11
90.5294030000000021
21
-159.5393739999999809
0
LINE
8
BLACK
6
CONTINUOUS
10
90.5294030000000021
20
-159.5393739999999809
11
88.854968999999997
21
-159.4085269999999923
0
LINE
8
BLACK
6
CONTINUOUS
10
88.854968999999997
20
-159.4085269999999923
11
87.1780359999999916
21
-159.3150190000000066
0
LINE
8
BLACK
6
CONTINUOUS
10
87.1780359999999916
20
-159.3150190000000066
11
85.4994349999999912
21
-159.2588959999999929
0
LINE
8
BLACK
6
CONTINUOUS
10
85.4994349999999912
20
-159.2588959999999929
11
83.8200009999999907
21
-159.2401849999999968
0
LINE
8
BLACK
6
CONTINUOUS
10
83.8200009999999907
20
-159.2401849999999968
11
82.1405669999999901
21
-159.2588959999999929
0
LINE
8
BLACK
6
CONTINUOUS
10
82.1405669999999901
20
-159.2588959999999929
11
80.4619659999999897
21
-159.3150190000000066
0
LINE
8
BLACK
6
CONTINUOUS
10
80.4619659999999897
20
-159.3150190000000066
11
78.7850329999999985
21
-159.4085269999999923
0
LINE
8
BLACK
6
CONTINUOUS
10
78.7850329999999985
20
-159.4085269999999923
11
77.1105989999999935
21
-159.5393739999999809
0
LINE
8
BLACK
6
CONTINUOUS
10
77.1105989999999935
20
-159.5393739999999809
11
75.4394959999999912
21
-159.7074929999999995
0
LINE
8
BLACK
6
CONTINUOUS
10
75.4394959999999912
20
-159.7074929999999995
11
73.772553000000002
21
-159.9128029999999967
0
LINE
8
BLACK
6
CONTINUOUS
10
73.772553000000002
20
-159.9128029999999967
11
72.1105989999999935
21
-160.1551999999999794
0
LINE
8
BLACK
6
CONTINUOUS
10
72.1105989999999935
20
-160.1551999999999794
11
70.4544569999999908
21
-160.4345649999999921
0
LINE
8
BLACK
6
CONTINUOUS
10
70.4544569999999908
20
-160.4345649999999921
11
69.6297040000000038
21
-160.59266199999999
0
LINE
8
BLACK
6
CONTINUOUS
10
69.6297040000000038
20
-160.59266199999999
11
69.6297040000000038
21
-160.5926609999999926
0
LINE
8
BLACK
6
CONTINUOUS
10
69.6297040000000038
20
-160.5926609999999926
11
69.614459999999994
21
-160.592127000000005
0
LINE
8
BLACK
6
CONTINUOUS
10
69.614459999999994
20
-160.592127000000005
11
69.5994319999999931
21
-160.594713999999982
0
LINE
8
BLACK
6
CONTINUOUS
10
69.5994319999999931
20
-160.594713999999982
11
69.5870159999999913
21
-160.591165999999987
0
LINE
8
BLACK
6
CONTINUOUS
10
69.5870159999999913
20
-160.591165999999987
11
69.5741079999999954
21
-160.5907139999999913
0
LINE
8
BLACK
6
CONTINUOUS
10
69.5741079999999954
20
-160.5907139999999913
11
69.5606049999999954
21
-160.5836180000000013
0
LINE
8
BLACK
6
CONTINUOUS
10
69.5606049999999954
20
-160.5836180000000013
11
69.5459429999999941
21
-160.5794290000000046
0
LINE
8
BLACK
6
CONTINUOUS
10
69.5459429999999941
20
-160.5794290000000046
11
68.643070999999992
21
-160.0621199999999931
0
LINE
8
BLACK
6
CONTINUOUS
10
68.643070999999992
20
-160.0621199999999931
11
67.7589229999999958
21
-159.5134209999999939
0
LINE
8
BLACK
6
CONTINUOUS
10
67.7589229999999958
20
-159.5134209999999939
11
66.8945899999999938
21
-158.9340109999999981
0
LINE
8
BLACK
6
CONTINUOUS
10
66.8945899999999938
20
-158.9340109999999981
11
66.0511389999999921
21
-158.3246029999999962
0
LINE
8
BLACK
6
CONTINUOUS
10
66.0511389999999921
20
-158.3246029999999962
11
65.2296109999999913
21
-157.6859499999999912
0
LINE
8
BLACK
6
CONTINUOUS
10
65.2296109999999913
20
-157.6859499999999912
11
64.4310179999999946
21
-157.0188389999999856
0
LINE
8
BLACK
6
CONTINUOUS
10
64.4310179999999946
20
-157.0188389999999856
11
63.6563459999999992
21
-156.3240940000000023
0
LINE
8
BLACK
6
CONTINUOUS
10
63.6563459999999992
20
-156.3240940000000023
11
62.9065510000000003
21
-155.6025709999999833
0
LINE
8
BLACK
6
CONTINUOUS
10
62.9065510000000003
20
-155.6025709999999833
11
62.1825580000000002
21
-154.8551609999999812
0
LINE
8
BLACK
6
CONTINUOUS
10
62.1825580000000002
20
-154.8551609999999812
11
61.4852599999999967
21
-154.0827859999999987
0
LINE
8
BLACK
6
CONTINUOUS
10
61.4852599999999967
20
-154.0827859999999987
11
60.8155179999999973
21
-153.2863989999999887
0
LINE
8
BLACK
6
CONTINUOUS
10
60.8155179999999973
20
-153.2863989999999887
11
60.1741579999999985
21
-152.4669820000000016
0
LINE
8
BLACK
6
CONTINUOUS
10
60.1741579999999985
20
-152.4669820000000016
11
59.5619699999999952
21
-151.6255459999999857
0
LINE
8
BLACK
6
CONTINUOUS
10
59.5619699999999952
20
-151.6255459999999857
11
58.9797109999999947
21
-150.7631299999999896
0
LINE
8
BLACK
6
CONTINUOUS
10
58.9797109999999947
20
-150.7631299999999896
11
58.4280979999999985
21
-149.8807970000000012
0
LINE
8
BLACK
6
CONTINUOUS
10
58.4280979999999985
20
-149.8807970000000012
11
57.9078129999999973
21
-148.9796369999999968
0
LINE
8
BLACK
6
CONTINUOUS
10
57.9078129999999973
20
-148.9796369999999968
11
57.4194959999999952
21
-148.0607599999999877
0
LINE
8
BLACK
6
CONTINUOUS
10
57.4194959999999952
20
-148.0607599999999877
11
56.9637519999999995
21
-147.1253010000000074
0
LINE
8
BLACK
6
CONTINUOUS
10
56.9637519999999995
20
-147.1253010000000074
11
56.5411409999999961
21
-146.1744129999999871
0
LINE
8
BLACK
6
CONTINUOUS
10
56.5411409999999961
20
-146.1744129999999871
11
56.1521849999999958
21
-145.2092700000000036
0
LINE
8
BLACK
6
CONTINUOUS
10
56.1521849999999958
20
-145.2092700000000036
11
55.7973649999999992
21
-144.231063000000006
0
LINE
8
BLACK
6
CONTINUOUS
10
55.7973649999999992
20
-144.231063000000006
11
55.4771169999999998
21
-143.2409979999999905
0
LINE
8
BLACK
6
CONTINUOUS
10
55.4771169999999998
20
-143.2409979999999905
11
55.1918369999999996
21
-142.2402960000000007
0
LINE
8
BLACK
6
CONTINUOUS
10
55.1918369999999996
20
-142.2402960000000007
11
54.9418769999999981
21
-141.2301939999999831
0
LINE
8
BLACK
6
CONTINUOUS
10
54.9418769999999981
20
-141.2301939999999831
11
54.7275459999999967
21
-140.2119359999999801
0
LINE
8
BLACK
6
CONTINUOUS
10
54.7275459999999967
20
-140.2119359999999801
11
54.5491069999999993
21
-139.1867790000000014
0
LINE
8
BLACK
6
CONTINUOUS
10
54.5491069999999993
20
-139.1867790000000014
11
54.4067819999999998
21
-138.1559869999999819
0
LINE
8
BLACK
6
CONTINUOUS
10
54.4067819999999998
20
-138.1559869999999819
11
54.3007439999999946
21
-137.1208330000000046
0
LINE
8
BLACK
6
CONTINUOUS
10
54.3007439999999946
20
-137.1208330000000046
11
54.2311259999999962
21
-136.0825940000000003
0
LINE
8
BLACK
6
CONTINUOUS
10
54.2311259999999962
20
-136.0825940000000003
11
54.1980140000000006
21
-135.0425500000000056
0
LINE
8
BLACK
6
CONTINUOUS
10
54.1980140000000006
20
-135.0425500000000056
11
54.2014469999999946
21
-134.0019849999999906
0
LINE
8
BLACK
6
CONTINUOUS
10
54.2014469999999946
20
-134.0019849999999906
11
54.2014479999999992
21
-134.0019849999999906
0
LINE
8
BLACK
6
CONTINUOUS
10
54.2014479999999992
20
-134.0019849999999906
11
54.2051510000000007
21
-133.9871899999999982
0
LINE
8
BLACK
6
CONTINUOUS
10
54.2051510000000007
20
-133.9871899999999982
11
54.2057579999999959
21
-133.9719519999999875
0
LINE
8
BLACK
6
CONTINUOUS
10
54.2057579999999959
20
-133.9719519999999875
11
54.2118199999999959
21
-133.9605479999999886
0
LINE
8
BLACK
6
CONTINUOUS
10
54.2118199999999959
20
-133.9605479999999886
11
54.2149560000000008
21
-133.9480199999999854
0
LINE
8
BLACK
6
CONTINUOUS
10
54.2149560000000008
20
-133.9480199999999854
11
54.2247119999999967
21
-133.9362959999999987
0
LINE
8
BLACK
6
CONTINUOUS
10
54.2247119999999967
20
-133.9362959999999987
11
54.2318700000000007
21
-133.9228310000000022
0
LINE
8
BLACK
6
CONTINUOUS
10
54.2318700000000007
20
-133.9228310000000022
11
54.7811619999999948
21
-133.2876219999999989
0
LINE
8
BLACK
6
CONTINUOUS
10
54.7811619999999948
20
-133.2876219999999989
11
55.8511699999999962
21
-131.9930439999999976
0
LINE
8
BLACK
6
CONTINUOUS
10
55.8511699999999962
20
-131.9930439999999976
11
56.8920699999999968
21
-130.6749470000000031
0
LINE
8
BLACK
6
CONTINUOUS
10
56.8920699999999968
20
-130.6749470000000031
11
57.903343999999997
21
-129.3339870000000076
0
LINE
8
BLACK
6
CONTINUOUS
10
57.903343999999997
20
-129.3339870000000076
11
58.8844919999999945
21
-127.9708289999999948
0
LINE
8
BLACK
6
CONTINUOUS
10
58.8844919999999945
20
-127.9708289999999948
11
59.8350249999999946
21
-126.5861499999999893
0
LINE
8
BLACK
6
CONTINUOUS
10
59.8350249999999946
20
-126.5861499999999893
11
60.7544719999999998
21
-125.1806369999999902
0
LINE
8
BLACK
6
CONTINUOUS
10
60.7544719999999998
20
-125.1806369999999902
11
61.6423769999999962
21
-123.7549879999999973
0
LINE
8
BLACK
6
CONTINUOUS
10
61.6423769999999962
20
-123.7549879999999973
11
62.4982979999999984
21
-122.3099109999999996
0
LINE
8
BLACK
6
CONTINUOUS
10
62.4982979999999984
20
-122.3099109999999996
11
63.3218109999999967
21
-120.8461229999999915
0
LINE
8
BLACK
6
CONTINUOUS
10
63.3218109999999967
20
-120.8461229999999915
11
64.1125069999999937
21
-119.3643499999999875
0
LINE
8
BLACK
6
CONTINUOUS
10
64.1125069999999937
20
-119.3643499999999875
11
64.8699929999999938
21
-117.8653289999999885
0
LINE
8
BLACK
6
CONTINUOUS
10
64.8699929999999938
20
-117.8653289999999885
11
65.5938939999999917
21
-116.3498039999999918
0
LINE
8
BLACK
6
CONTINUOUS
10
65.5938939999999917
20
-116.3498039999999918
11
66.283850000000001
21
-114.8185259999999914
0
LINE
8
BLACK
6
CONTINUOUS
10
66.283850000000001
20
-114.8185259999999914
11
66.9395179999999925
21
-113.2722569999999962
0
LINE
8
BLACK
6
CONTINUOUS
10
66.9395179999999925
20
-113.2722569999999962
11
67.5605729999999909
21
-111.7117629999999906
0
LINE
8
BLACK
6
CONTINUOUS
10
67.5605729999999909
20
-111.7117629999999906
11
68.1467059999999947
21
-110.1378199999999907
0
LINE
8
BLACK
6
CONTINUOUS
10
68.1467059999999947
20
-110.1378199999999907
11
68.4221670000000017
21
-109.3445150000000012
0
LINE
8
BLACK
6
CONTINUOUS
10
68.4221670000000017
20
-109.3445150000000012
11
68.4302500000000009
21
-109.3315799999999882
0
LINE
8
BLACK
6
CONTINUOUS
10
68.4302500000000009
20
-109.3315799999999882
11
68.4355249999999984
21
-109.3172719999999885
0
LINE
8
BLACK
6
CONTINUOUS
10
68.4355249999999984
20
-109.3172719999999885
11
68.4448039999999907
21
-109.3082929999999919
0
LINE
8
BLACK
6
CONTINUOUS
10
68.4448039999999907
20
-109.3082929999999919
11
68.4516509999999982
21
-109.2973399999999913
0
LINE
8
BLACK
6
CONTINUOUS
10
68.4516509999999982
20
-109.2973399999999913
11
68.4645450000000011
21
-109.2891939999999948
0
LINE
8
BLACK
6
CONTINUOUS
10
68.4645450000000011
20
-109.2891939999999948
11
68.4755059999999958
21
-109.2785909999999916
0
LINE
8
BLACK
6
CONTINUOUS
10
68.4755059999999958
20
-109.2785909999999916
11
69.3749449999999968
21
-108.7553349999999881
0
LINE
8
BLACK
6
CONTINUOUS
10
69.3749449999999968
20
-108.7553349999999881
11
70.2922059999999931
21
-108.2639899999999926
0
LINE
8
BLACK
6
CONTINUOUS
10
70.2922059999999931
20
-108.2639899999999926
11
71.2261560000000031
21
-107.8051609999999982
0
LINE
8
BLACK
6
CONTINUOUS
10
71.2261560000000031
20
-107.8051609999999982
11
72.1756450000000029
21
-107.3794149999999945
0
LINE
8
BLACK
6
CONTINUOUS
10
72.1756450000000029
20
-107.3794149999999945
11
73.1394990000000007
21
-106.9872769999999917
0
LINE
8
BLACK
6
CONTINUOUS
10
73.1394990000000007
20
-106.9872769999999917
11
74.1165299999999974
21
-106.6292309999999901
0
LINE
8
BLACK
6
CONTINUOUS
10
74.1165299999999974
20
-106.6292309999999901
11
75.1055329999999941
21
-106.3057179999999988
0
LINE
8
BLACK
6
CONTINUOUS
10
75.1055329999999941
20
-106.3057179999999988
11
76.1052880000000016
21
-106.0171379999999886
0
LINE
8
BLACK
6
CONTINUOUS
10
76.1052880000000016
20
-106.0171379999999886
11
77.1145599999999973
21
-105.7638469999999984
0
LINE
8
BLACK
6
CONTINUOUS
10
77.1145599999999973
20
-105.7638469999999984
11
78.1321059999999932
21
-105.5461569999999938
0
LINE
8
BLACK
6
CONTINUOUS
10
78.1321059999999932
20
-105.5461569999999938
11
79.1566679999999963
21
-105.3643369999999919
0
LINE
8
BLACK
6
CONTINUOUS
10
79.1566679999999963
20
-105.3643369999999919
11
80.1869849999999929
21
-105.2186109999999957
0
LINE
8
BLACK
6
CONTINUOUS
10
80.1869849999999929
20
-105.2186109999999957
11
81.2217830000000021
21
-105.1091579999999936
0
LINE
8
BLACK
6
CONTINUOUS
10
81.2217830000000021
20
-105.1091579999999936
11
82.2597870000000029
21
-105.0361149999999952
0
LINE
8
BLACK
6
CONTINUOUS
10
82.2597870000000029
20
-105.0361149999999952
11
83.2997159999999894
21
-104.9995709999999889
0
LINE
8
BLACK
6
CONTINUOUS
10
83.2997159999999894
20
-104.9995709999999889
11
84.3402859999999919
21
-104.9995709999999889
0
LINE
8
BLACK
6
CONTINUOUS
10
84.3402859999999919
20
-104.9995709999999889
11
85.3802149999999926
21
-105.0361149999999952
0
LINE
8
BLACK
6
CONTINUOUS
10
82.7882120000000015
20
-105.2586000000000013
11
81.7576949999999982
21
-105.312948999999989
0
LINE
8
BLACK
6
CONTINUOUS
10
81.7576949999999982
20
-105.312948999999989
11
80.7297229999999928
21
-105.4034539999999964
0
LINE
8
BLACK
6
CONTINUOUS
10
80.7297229999999928
20
-105.4034539999999964
11
79.7055639999999954
21
-105.5300049999999885
0
LINE
8
BLACK
6
CONTINUOUS
10
79.7055639999999954
20
-105.5300049999999885
11
78.6864810000000006
21
-105.6924470000000014
0
LINE
8
BLACK
6
CONTINUOUS
10
78.6864810000000006
20
-105.6924470000000014
11
77.6737309999999894
21
-105.8905769999999933
0
LINE
8
BLACK
6
CONTINUOUS
10
77.6737309999999894
20
-105.8905769999999933
11
76.6685640000000035
21
-106.1241519999999952
0
LINE
8
BLACK
6
CONTINUOUS
10
76.6685640000000035
20
-106.1241519999999952
11
75.6722209999999933
21
-106.3928839999999951
0
LINE
8
BLACK
6
CONTINUOUS
10
75.6722209999999933
20
-106.3928839999999951
11
74.6859290000000016
21
-106.6964419999999905
0
LINE
8
BLACK
6
CONTINUOUS
10
74.6859290000000016
20
-106.6964419999999905
11
73.7109069999999917
21
-107.0344499999999925
0
LINE
8
BLACK
6
CONTINUOUS
10
73.7109069999999917
20
-107.0344499999999925
11
72.7483569999999986
21
-107.4064909999999884
0
LINE
8
BLACK
6
CONTINUOUS
10
72.7483569999999986
20
-107.4064909999999884
11
71.7994659999999953
21
-107.8121069999999975
0
LINE
8
BLACK
6
CONTINUOUS
10
71.7994659999999953
20
-107.8121069999999975
11
70.865405999999993
21
-108.2507969999999915
0
LINE
8
BLACK
6
CONTINUOUS
10
70.865405999999993
20
-108.2507969999999915
11
69.9473289999999963
21
-108.722020999999998
0
LINE
8
BLACK
6
CONTINUOUS
10
69.9473289999999963
20
-108.722020999999998
11
69.0463670000000036
21
-109.2251949999999994
0
LINE
8
BLACK
6
CONTINUOUS
10
69.0463670000000036
20
-109.2251949999999994
11
68.6428669999999954
21
-109.4695109999999971
0
LINE
8
BLACK
6
CONTINUOUS
10
68.6428669999999954
20
-109.4695109999999971
11
68.0879219999999918
21
-111.0120379999999898
0
LINE
8
BLACK
6
CONTINUOUS
10
68.0879219999999918
20
-111.0120379999999898
11
67.482325000000003
21
-112.5844539999999938
0
LINE
8
BLACK
6
CONTINUOUS
10
67.482325000000003
20
-112.5844539999999938
11
66.8418460000000039
21
-114.1429879999999883
0
LINE
8
BLACK
6
CONTINUOUS
10
66.8418460000000039
20
-114.1429879999999883
11
66.1668030000000016
21
-115.6868649999999974
0
LINE
8
BLACK
6
CONTINUOUS
10
66.1668030000000016
20
-115.6868649999999974
11
65.4575299999999913
21
-117.2153189999999938
0
LINE
8
BLACK
6
CONTINUOUS
10
65.4575299999999913
20
-117.2153189999999938
11
64.7143799999999914
21
-118.7275920000000013
0
LINE
8
BLACK
6
CONTINUOUS
10
64.7143799999999914
20
-118.7275920000000013
11
63.9377209999999963
21
-120.2229320000000001
0
LINE
8
BLACK
6
CONTINUOUS
10
63.9377209999999963
20
-120.2229320000000001
11
63.1279399999999953
21
-121.7005969999999877
0
LINE
8
BLACK
6
CONTINUOUS
10
63.1279399999999953
20
-121.7005969999999877
11
62.2854379999999992
21
-123.1598539999999957
0
LINE
8
BLACK
6
CONTINUOUS
10
62.2854379999999992
20
-123.1598539999999957
11
61.4106329999999971
21
-124.599977999999993
0
LINE
8
BLACK
6
CONTINUOUS
10
61.4106329999999971
20
-124.599977999999993
11
60.5039599999999993
21
-126.0202539999999942
0
LINE
8
BLACK
6
CONTINUOUS
10
60.5039599999999993
20
-126.0202539999999942
11
59.5658679999999947
21
-127.4199769999999887
0
LINE
8
BLACK
6
CONTINUOUS
10
59.5658679999999947
20
-127.4199769999999887
11
58.5968249999999955
21
-128.798452999999995
0
LINE
8
BLACK
6
CONTINUOUS
10
58.5968249999999955
20
-128.798452999999995
11
57.5973089999999956
21
-130.1549959999999828
0
LINE
8
BLACK
6
CONTINUOUS
10
57.5973089999999956
20
-130.1549959999999828
11
56.5678190000000001
21
-131.4889340000000004
0
LINE
8
BLACK
6
CONTINUOUS
10
56.5678190000000001
20
-131.4889340000000004
11
55.5088650000000001
21
-132.799603999999988
0
LINE
8
BLACK
6
CONTINUOUS
10
55.5088650000000001
20
-132.799603999999988
11
54.4504689999999982
21
-134.0514650000000074
0
LINE
8
BLACK
6
CONTINUOUS
10
54.4504689999999982
20
-134.0514650000000074
11
54.4406350000000003
21
-134.5230630000000076
0
LINE
8
BLACK
6
CONTINUOUS
10
54.4406350000000003
20
-134.5230630000000076
11
54.4553539999999998
21
-135.5549059999999884
0
LINE
8
BLACK
6
CONTINUOUS
10
54.4553539999999998
20
-135.5549059999999884
11
54.5063010000000006
21
-136.5855959999999811
0
LINE
8
BLACK
6
CONTINUOUS
10
54.5063010000000006
20
-136.5855959999999811
11
54.5934150000000002
21
-137.6138609999999858
0
LINE
8
BLACK
6
CONTINUOUS
10
54.5934150000000002
20
-137.6138609999999858
11
54.7165859999999995
21
-138.638432999999992
0
LINE
8
BLACK
6
CONTINUOUS
10
54.7165859999999995
20
-138.638432999999992
11
54.8756640000000004
21
-139.6580459999999846
0
LINE
8
BLACK
6
CONTINUOUS
10
54.8756640000000004
20
-139.6580459999999846
11
55.070451999999996
21
-140.6714439999999797
0
LINE
8
BLACK
6
CONTINUOUS
10
55.070451999999996
20
-140.6714439999999797
11
55.3007089999999977
21
-141.6773759999999811
0
LINE
8
BLACK
6
CONTINUOUS
10
55.3007089999999977
20
-141.6773759999999811
11
55.5661529999999999
21
-142.6746009999999956
0
LINE
8
BLACK
6
CONTINUOUS
10
55.5661529999999999
20
-142.6746009999999956
11
55.8664539999999974
21
-143.6618890000000022
0
LINE
8
BLACK
6
CONTINUOUS
10
55.8664539999999974
20
-143.6618890000000022
11
56.2012429999999981
21
-144.6380209999999806
0
LINE
8
BLACK
6
CONTINUOUS
10
56.2012429999999981
20
-144.6380209999999806
11
56.5701059999999956
21
-145.6017929999999865
0
LINE
8
BLACK
6
CONTINUOUS
10
56.5701059999999956
20
-145.6017929999999865
11
56.9725889999999993
21
-146.5520170000000064
0
LINE
8
BLACK
6
CONTINUOUS
10
56.9725889999999993
20
-146.5520170000000064
11
57.4081949999999992
21
-147.4875189999999918
0
LINE
8
BLACK
6
CONTINUOUS
10
57.4081949999999992
20
-147.4875189999999918
11
57.876386999999994
21
-148.4071469999999806
0
LINE
8
BLACK
6
CONTINUOUS
10
57.876386999999994
20
-148.4071469999999806
11
58.3765859999999961
21
-149.3097640000000013
0
LINE
8
BLACK
6
CONTINUOUS
10
58.3765859999999961
20
-149.3097640000000013
11
58.9081759999999974
21
-150.1942579999999907
0
LINE
8
BLACK
6
CONTINUOUS
10
58.9081759999999974
20
-150.1942579999999907
11
59.4705009999999987
21
-151.0595370000000059
0
LINE
8
BLACK
6
CONTINUOUS
10
59.4705009999999987
20
-151.0595370000000059
11
60.0628669999999971
21
-151.904533999999984
0
LINE
8
BLACK
6
CONTINUOUS
10
60.0628669999999971
20
-151.904533999999984
11
60.6845439999999954
21
-152.7282069999999976
0
LINE
8
BLACK
6
CONTINUOUS
10
60.6845439999999954
20
-152.7282069999999976
11
61.3347629999999953
21
-153.5295380000000023
0
LINE
8
BLACK
6
CONTINUOUS
10
61.3347629999999953
20
-153.5295380000000023
11
62.0127239999999986
21
-154.3075399999999888
0
LINE
8
BLACK
6
CONTINUOUS
10
62.0127239999999986
20
-154.3075399999999888
11
62.7175899999999942
21
-155.0612519999999961
0
LINE
8
BLACK
6
CONTINUOUS
10
62.7175899999999942
20
-155.0612519999999961
11
63.4484909999999971
21
-155.7897449999999822
0
LINE
8
BLACK
6
CONTINUOUS
10
63.4484909999999971
20
-155.7897449999999822
11
64.2045250000000038
21
-156.4921199999999999
0
LINE
8
BLACK
6
CONTINUOUS
10
64.2045250000000038
20
-156.4921199999999999
11
64.9847589999999968
21
-157.1675099999999929
0
LINE
8
BLACK
6
CONTINUOUS
10
64.9847589999999968
20
-157.1675099999999929
11
65.7882319999999936
21
-157.8150819999999896
0
LINE
8
BLACK
6
CONTINUOUS
10
65.7882319999999936
20
-157.8150819999999896
11
66.6139510000000001
21
-158.4340369999999893
0
LINE
8
BLACK
6
CONTINUOUS
10
66.6139510000000001
20
-158.4340369999999893
11
67.4608980000000003
21
-159.0236119999999858
0
LINE
8
BLACK
6
CONTINUOUS
10
67.4608980000000003
20
-159.0236119999999858
11
68.3280280000000033
21
-159.5830780000000004
0
LINE
8
BLACK
6
CONTINUOUS
10
68.3280280000000033
20
-159.5830780000000004
11
69.2142709999999965
21
-160.1117469999999798
0
LINE
8
BLACK
6
CONTINUOUS
10
69.2142709999999965
20
-160.1117469999999798
11
69.6276060000000001
21
-160.3390299999999797
0
LINE
8
BLACK
6
CONTINUOUS
10
69.6276060000000001
20
-160.3390299999999797
11
71.2409439999999989
21
-160.0483649999999898
0
LINE
8
BLACK
6
CONTINUOUS
10
71.2409439999999989
20
-160.0483649999999898
11
72.9054950000000019
21
-159.7866190000000017
0
LINE
8
BLACK
6
CONTINUOUS
10
72.9054950000000019
20
-159.7866190000000017
11
74.5754639999999966
21
-159.5620229999999822
0
LINE
8
BLACK
6
CONTINUOUS
10
74.5754639999999966
20
-159.5620229999999822
11
76.2500229999999988
21
-159.3746889999999894
0
LINE
8
BLACK
6
CONTINUOUS
10
76.2500229999999988
20
-159.3746889999999894
11
77.928338999999994
21
-159.224710999999985
0
LINE
8
BLACK
6
CONTINUOUS
10
77.928338999999994
20
-159.224710999999985
11
79.6095809999999915
21
-159.1121609999999862
0
LINE
8
BLACK
6
CONTINUOUS
10
79.6095809999999915
20
-159.1121609999999862
11
81.2929120000000012
21
-159.0370969999999886
0
LINE
8
BLACK
6
CONTINUOUS
10
81.2929120000000012
20
-159.0370969999999886
11
82.9774989999999946
21
-158.9995559999999841
0
LINE
8
BLACK
6
CONTINUOUS
10
82.9774989999999946
20
-158.9995559999999841
11
84.662503000000001
21
-158.9995559999999841
0
LINE
8
BLACK
6
CONTINUOUS
10
84.662503000000001
20
-158.9995559999999841
11
86.3470899999999943
21
-159.0370969999999886
0
LINE
8
BLACK
6
CONTINUOUS
10
86.3470899999999943
20
-159.0370969999999886
11
88.0304209999999898
21
-159.1121609999999862
0
LINE
8
BLACK
6
CONTINUOUS
10
88.0304209999999898
20
-159.1121609999999862
11
89.7116630000000015
21
-159.224710999999985
0
LINE
8
BLACK
6
CONTINUOUS
10
89.7116630000000015
20
-159.224710999999985
11
91.3899789999999967
21
-159.3746889999999894
0
LINE
8
BLACK
6
CONTINUOUS
10
91.3899789999999967
20
-159.3746889999999894
11
93.0645379999999989
21
-159.5620229999999822
0
LINE
8
BLACK
6
CONTINUOUS
10
93.0645379999999989
20
-159.5620229999999822
11
94.7345069999999936
21
-159.7866190000000017
0
LINE
8
BLACK
6
CONTINUOUS
10
94.7345069999999936
20
-159.7866190000000017
11
96.3990579999999966
21
-160.0483649999999898
0
LINE
8
BLACK
6
CONTINUOUS
10
96.3990579999999966
20
-160.0483649999999898
11
98.0123940000000005
21
-160.3390299999999797
0
LINE
8
BLACK
6
CONTINUOUS
10
98.0123940000000005
20
-160.3390299999999797
11
98.4257300000000015
21
-160.1117459999999824
0
LINE
8
BLACK
6
CONTINUOUS
10
98.4257300000000015
20
-160.1117459999999824
11
99.3119739999999922
21
-159.5830780000000004
0
LINE
8
BLACK
6
CONTINUOUS
10
99.3119739999999922
20
-159.5830780000000004
11
100.1791039999999953
21
-159.0236109999999883
0
LINE
8
BLACK
6
CONTINUOUS
10
100.1791039999999953
20
-159.0236109999999883
11
101.0260509999999954
21
-158.4340359999999919
0
LINE
8
BLACK
6
CONTINUOUS
10
101.0260509999999954
20
-158.4340359999999919
11
101.8517700000000019
21
-157.8150809999999922
0
LINE
8
BLACK
6
CONTINUOUS
10
101.8517700000000019
20
-157.8150809999999922
11
102.6552420000000012
21
-157.1675089999999955
0
LINE
8
BLACK
6
CONTINUOUS
10
102.6552420000000012
20
-157.1675089999999955
11
103.4354759999999942
21
-156.4921190000000024
0
LINE
8
BLACK
6
CONTINUOUS
10
103.4354759999999942
20
-156.4921190000000024
11
104.1915099999999939
21
-155.7897439999999847
0
LINE
8
BLACK
6
CONTINUOUS
10
104.1915099999999939
20
-155.7897439999999847
11
104.9224109999999968
21
-155.0612509999999986
0
LINE
8
BLACK
6
CONTINUOUS
10
104.9224109999999968
20
-155.0612509999999986
11
105.6272759999999948
21
-154.3075389999999913
0
LINE
8
BLACK
6
CONTINUOUS
10
105.6272759999999948
20
-154.3075389999999913
11
106.3052369999999911
21
-153.5295370000000048
0
LINE
8
BLACK
6
CONTINUOUS
10
106.3052369999999911
20
-153.5295370000000048
11
106.9554569999999956
21
-152.7282060000000001
0
LINE
8
BLACK
6
CONTINUOUS
10
106.9554569999999956
20
-152.7282060000000001
11
107.5771329999999892
21
-151.904533999999984
0
LINE
8
BLACK
6
CONTINUOUS
10
107.5771329999999892
20
-151.904533999999984
11
108.1694990000000018
21
-151.0595370000000059
0
LINE
8
BLACK
6
CONTINUOUS
10
108.1694990000000018
20
-151.0595370000000059
11
108.7318239999999889
21
-150.1942569999999932
0
LINE
8
BLACK
6
CONTINUOUS
10
108.7318239999999889
20
-150.1942569999999932
11
109.2634139999999974
21
-149.3097630000000038
0
LINE
8
BLACK
6
CONTINUOUS
10
109.2634139999999974
20
-149.3097630000000038
11
109.7636139999999898
21
-148.4071459999999831
0
LINE
8
BLACK
6
CONTINUOUS
10
109.7636139999999898
20
-148.4071459999999831
11
110.2318049999999943
21
-147.4875189999999918
0
LINE
8
BLACK
6
CONTINUOUS
10
110.2318049999999943
20
-147.4875189999999918
11
110.6674110000000013
21
-146.5520159999999805
0
LINE
8
BLACK
6
CONTINUOUS
10
110.6674110000000013
20
-146.5520159999999805
11
111.0698939999999908
21
-145.6017929999999865
0
LINE
8
BLACK
6
CONTINUOUS
10
111.0698939999999908
20
-145.6017929999999865
11
111.4387569999999954
21
-144.6380199999999832
0
LINE
8
BLACK
6
CONTINUOUS
10
111.4387569999999954
20
-144.6380199999999832
11
111.7735459999999961
21
-143.6618880000000047
0
LINE
8
BLACK
6
CONTINUOUS
10
111.7735459999999961
20
-143.6618880000000047
11
112.0738479999999981
21
-142.6746009999999956
0
LINE
8
BLACK
6
CONTINUOUS
10
112.0738479999999981
20
-142.6746009999999956
11
112.3392909999999887
21
-141.6773759999999811
0
LINE
8
BLACK
6
CONTINUOUS
10
112.3392909999999887
20
-141.6773759999999811
11
112.5695479999999975
21
-140.6714439999999797
0
LINE
8
BLACK
6
CONTINUOUS
10
112.5695479999999975
20
-140.6714439999999797
11
112.7643360000000001
21
-139.6580459999999846
0
LINE
8
BLACK
6
CONTINUOUS
10
112.7643360000000001
20
-139.6580459999999846
11
112.923413999999994
21
-138.6384319999999946
0
LINE
8
BLACK
6
CONTINUOUS
10
112.923413999999994
20
-138.6384319999999946
11
113.0465849999999932
21
-137.6138609999999858
0
LINE
8
BLACK
6
CONTINUOUS
10
113.0465849999999932
20
-137.6138609999999858
11
113.1336989999999929
21
-136.5855959999999811
0
LINE
8
BLACK
6
CONTINUOUS
10
113.1336989999999929
20
-136.5855959999999811
11
113.1846460000000008
21
-135.5549059999999884
0
LINE
8
BLACK
6
CONTINUOUS
10
113.1846460000000008
20
-135.5549059999999884
11
113.1993650000000002
21
-134.5230630000000076
0
LINE
8
BLACK
6
CONTINUOUS
10
113.1993650000000002
20
-134.5230630000000076
11
113.1895299999999907
21
-134.0514619999999866
0
LINE
8
BLACK
6
CONTINUOUS
10
113.1895299999999907
20
-134.0514619999999866
11
112.1311369999999954
21
-132.799603999999988
0
LINE
8
BLACK
6
CONTINUOUS
10
112.1311369999999954
20
-132.799603999999988
11
111.072181999999998
21
-131.4889340000000004
0
LINE
8
BLACK
6
CONTINUOUS
10
111.072181999999998
20
-131.4889340000000004
11
110.0426909999999907
21
-130.1549969999999803
0
LINE
8
BLACK
6
CONTINUOUS
10
110.0426909999999907
20
-130.1549969999999803
11
109.0431749999999909
21
-128.7984539999999924
0
LINE
8
BLACK
6
CONTINUOUS
10
109.0431749999999909
20
-128.7984539999999924
11
108.0741309999999942
21
-127.4199780000000004
0
LINE
8
BLACK
6
CONTINUOUS
10
108.0741309999999942
20
-127.4199780000000004
11
107.1360389999999967
21
-126.0202549999999917
0
LINE
8
BLACK
6
CONTINUOUS
10
107.1360389999999967
20
-126.0202549999999917
11
106.2293659999999988
21
-124.599979999999988
0
LINE
8
BLACK
6
CONTINUOUS
10
106.2293659999999988
20
-124.599979999999988
11
105.3545599999999922
21
-123.1598559999999907
0
LINE
8
BLACK
6
CONTINUOUS
10
105.3545599999999922
20
-123.1598559999999907
11
104.5120579999999961
21
-121.7005989999999969
0
LINE
8
BLACK
6
CONTINUOUS
10
104.5120579999999961
20
-121.7005989999999969
11
103.7022759999999977
21
-120.2229339999999951
0
LINE
8
BLACK
6
CONTINUOUS
10
103.7022759999999977
20
-120.2229339999999951
11
102.9256169999999884
21
-118.7275939999999963
0
LINE
8
BLACK
6
CONTINUOUS
10
102.9256169999999884
20
-118.7275939999999963
11
102.1824659999999909
21
-117.2153220000000005
0
LINE
8
BLACK
6
CONTINUOUS
10
102.1824659999999909
20
-117.2153220000000005
11
101.4731929999999949
21
-115.6868679999999898
0
LINE
8
BLACK
6
CONTINUOUS
10
101.4731929999999949
20
-115.6868679999999898
11
100.7981489999999951
21
-114.142990999999995
0
LINE
8
BLACK
6
CONTINUOUS
10
100.7981489999999951
20
-114.142990999999995
11
100.157669999999996
21
-112.5844570000000004
0
LINE
8
BLACK
6
CONTINUOUS
10
100.157669999999996
20
-112.5844570000000004
11
99.5520729999999929
21
-111.0120409999999964
0
LINE
8
BLACK
6
CONTINUOUS
10
99.5520729999999929
20
-111.0120409999999964
11
98.9971219999999903
21
-109.4695040000000006
0
LINE
8
BLACK
6
CONTINUOUS
10
98.9971219999999903
20
-109.4695040000000006
11
98.5936349999999919
21
-109.2251949999999994
0
LINE
8
BLACK
6
CONTINUOUS
10
98.5936349999999919
20
-109.2251949999999994
11
97.6926729999999992
21
-108.722020999999998
0
LINE
8
BLACK
6
CONTINUOUS
10
97.6926729999999992
20
-108.722020999999998
11
96.7745960000000025
21
-108.2507969999999915
0
LINE
8
BLACK
6
CONTINUOUS
10
96.7745960000000025
20
-108.2507969999999915
11
95.8405360000000002
21
-107.8121069999999975
0
LINE
8
BLACK
6
CONTINUOUS
10
95.8405360000000002
20
-107.8121069999999975
11
94.8916449999999969
21
-107.4064909999999884
0
LINE
8
BLACK
6
CONTINUOUS
10
94.8916449999999969
20
-107.4064909999999884
11
93.9290949999999896
21
-107.0344499999999925
0
LINE
8
BLACK
6
CONTINUOUS
10
93.9290949999999896
20
-107.0344499999999925
11
92.954072999999994
21
-106.6964419999999905
0
LINE
8
BLACK
6
CONTINUOUS
10
92.954072999999994
20
-106.6964419999999905
11
91.9677810000000022
21
-106.3928839999999951
0
LINE
8
BLACK
6
CONTINUOUS
10
91.9677810000000022
20
-106.3928839999999951
11
90.971437999999992
21
-106.1241519999999952
0
LINE
8
BLACK
6
CONTINUOUS
10
90.971437999999992
20
-106.1241519999999952
11
89.9662709999999919
21
-105.8905769999999933
0
LINE
8
BLACK
6
CONTINUOUS
10
89.9662709999999919
20
-105.8905769999999933
11
88.953520999999995
21
-105.6924470000000014
0
LINE
8
BLACK
6
CONTINUOUS
10
88.953520999999995
20
-105.6924470000000014
11
87.9344380000000001
21
-105.5300049999999885
0
LINE
8
BLACK
6
CONTINUOUS
10
87.9344380000000001
20
-105.5300049999999885
11
86.9102790000000027
21
-105.4034539999999964
0
LINE
8
BLACK
6
CONTINUOUS
10
86.9102790000000027
20
-105.4034539999999964
11
85.8823069999999973
21
-105.312948999999989
0
LINE
8
BLACK
6
CONTINUOUS
10
85.8823069999999973
20
-105.312948999999989
11
84.8517899999999941
21
-105.2586000000000013
0
LINE
8
BLACK
6
CONTINUOUS
10
84.8517899999999941
20
-105.2586000000000013
11
83.8200009999999907
21
-105.2404769999999985
0
LINE
8
BLACK
6
CONTINUOUS
10
83.8200009999999907
20
-105.2404769999999985
11
82.7882120000000015
21
-105.2586000000000013
  0
ENDSEC
  0
EOF
