%TF.GenerationSoftware,KiCad,Pcbnew,7.0.9*%
%TF.CreationDate,2023-12-12T05:21:09-05:00*%
%TF.ProjectId,MotorDriver,4d6f746f-7244-4726-9976-65722e6b6963,rev?*%
%TF.SameCoordinates,Original*%
%TF.FileFunction,Legend,Bot*%
%TF.FilePolarity,Positive*%
%FSLAX46Y46*%
G04 Gerber Fmt 4.6, Leading zero omitted, Abs format (unit mm)*
G04 Created by KiCad (PCBNEW 7.0.9) date 2023-12-12 05:21:09*
%MOMM*%
%LPD*%
G01*
G04 APERTURE LIST*
%ADD10C,0.150000*%
%ADD11C,0.120000*%
%ADD12C,0.127000*%
%ADD13C,0.200000*%
G04 APERTURE END LIST*
D10*
X79281257Y-138764180D02*
X79328876Y-138811800D01*
X79328876Y-138811800D02*
X79471733Y-138859419D01*
X79471733Y-138859419D02*
X79566971Y-138859419D01*
X79566971Y-138859419D02*
X79709828Y-138811800D01*
X79709828Y-138811800D02*
X79805066Y-138716561D01*
X79805066Y-138716561D02*
X79852685Y-138621323D01*
X79852685Y-138621323D02*
X79900304Y-138430847D01*
X79900304Y-138430847D02*
X79900304Y-138287990D01*
X79900304Y-138287990D02*
X79852685Y-138097514D01*
X79852685Y-138097514D02*
X79805066Y-138002276D01*
X79805066Y-138002276D02*
X79709828Y-137907038D01*
X79709828Y-137907038D02*
X79566971Y-137859419D01*
X79566971Y-137859419D02*
X79471733Y-137859419D01*
X79471733Y-137859419D02*
X79328876Y-137907038D01*
X79328876Y-137907038D02*
X79281257Y-137954657D01*
X78328876Y-138859419D02*
X78900304Y-138859419D01*
X78614590Y-138859419D02*
X78614590Y-137859419D01*
X78614590Y-137859419D02*
X78709828Y-138002276D01*
X78709828Y-138002276D02*
X78805066Y-138097514D01*
X78805066Y-138097514D02*
X78900304Y-138145133D01*
X77709828Y-137859419D02*
X77614590Y-137859419D01*
X77614590Y-137859419D02*
X77519352Y-137907038D01*
X77519352Y-137907038D02*
X77471733Y-137954657D01*
X77471733Y-137954657D02*
X77424114Y-138049895D01*
X77424114Y-138049895D02*
X77376495Y-138240371D01*
X77376495Y-138240371D02*
X77376495Y-138478466D01*
X77376495Y-138478466D02*
X77424114Y-138668942D01*
X77424114Y-138668942D02*
X77471733Y-138764180D01*
X77471733Y-138764180D02*
X77519352Y-138811800D01*
X77519352Y-138811800D02*
X77614590Y-138859419D01*
X77614590Y-138859419D02*
X77709828Y-138859419D01*
X77709828Y-138859419D02*
X77805066Y-138811800D01*
X77805066Y-138811800D02*
X77852685Y-138764180D01*
X77852685Y-138764180D02*
X77900304Y-138668942D01*
X77900304Y-138668942D02*
X77947923Y-138478466D01*
X77947923Y-138478466D02*
X77947923Y-138240371D01*
X77947923Y-138240371D02*
X77900304Y-138049895D01*
X77900304Y-138049895D02*
X77852685Y-137954657D01*
X77852685Y-137954657D02*
X77805066Y-137907038D01*
X77805066Y-137907038D02*
X77709828Y-137859419D01*
X102480904Y-119317419D02*
X101909476Y-119317419D01*
X102195190Y-120317419D02*
X102195190Y-119317419D01*
X101576142Y-120317419D02*
X101576142Y-119317419D01*
X101576142Y-119317419D02*
X101195190Y-119317419D01*
X101195190Y-119317419D02*
X101099952Y-119365038D01*
X101099952Y-119365038D02*
X101052333Y-119412657D01*
X101052333Y-119412657D02*
X101004714Y-119507895D01*
X101004714Y-119507895D02*
X101004714Y-119650752D01*
X101004714Y-119650752D02*
X101052333Y-119745990D01*
X101052333Y-119745990D02*
X101099952Y-119793609D01*
X101099952Y-119793609D02*
X101195190Y-119841228D01*
X101195190Y-119841228D02*
X101576142Y-119841228D01*
X100099952Y-119317419D02*
X100576142Y-119317419D01*
X100576142Y-119317419D02*
X100623761Y-119793609D01*
X100623761Y-119793609D02*
X100576142Y-119745990D01*
X100576142Y-119745990D02*
X100480904Y-119698371D01*
X100480904Y-119698371D02*
X100242809Y-119698371D01*
X100242809Y-119698371D02*
X100147571Y-119745990D01*
X100147571Y-119745990D02*
X100099952Y-119793609D01*
X100099952Y-119793609D02*
X100052333Y-119888847D01*
X100052333Y-119888847D02*
X100052333Y-120126942D01*
X100052333Y-120126942D02*
X100099952Y-120222180D01*
X100099952Y-120222180D02*
X100147571Y-120269800D01*
X100147571Y-120269800D02*
X100242809Y-120317419D01*
X100242809Y-120317419D02*
X100480904Y-120317419D01*
X100480904Y-120317419D02*
X100576142Y-120269800D01*
X100576142Y-120269800D02*
X100623761Y-120222180D01*
X98924904Y-127394619D02*
X98353476Y-127394619D01*
X98639190Y-128394619D02*
X98639190Y-127394619D01*
X98020142Y-128394619D02*
X98020142Y-127394619D01*
X98020142Y-127394619D02*
X97639190Y-127394619D01*
X97639190Y-127394619D02*
X97543952Y-127442238D01*
X97543952Y-127442238D02*
X97496333Y-127489857D01*
X97496333Y-127489857D02*
X97448714Y-127585095D01*
X97448714Y-127585095D02*
X97448714Y-127727952D01*
X97448714Y-127727952D02*
X97496333Y-127823190D01*
X97496333Y-127823190D02*
X97543952Y-127870809D01*
X97543952Y-127870809D02*
X97639190Y-127918428D01*
X97639190Y-127918428D02*
X98020142Y-127918428D01*
X96972523Y-128394619D02*
X96782047Y-128394619D01*
X96782047Y-128394619D02*
X96686809Y-128347000D01*
X96686809Y-128347000D02*
X96639190Y-128299380D01*
X96639190Y-128299380D02*
X96543952Y-128156523D01*
X96543952Y-128156523D02*
X96496333Y-127966047D01*
X96496333Y-127966047D02*
X96496333Y-127585095D01*
X96496333Y-127585095D02*
X96543952Y-127489857D01*
X96543952Y-127489857D02*
X96591571Y-127442238D01*
X96591571Y-127442238D02*
X96686809Y-127394619D01*
X96686809Y-127394619D02*
X96877285Y-127394619D01*
X96877285Y-127394619D02*
X96972523Y-127442238D01*
X96972523Y-127442238D02*
X97020142Y-127489857D01*
X97020142Y-127489857D02*
X97067761Y-127585095D01*
X97067761Y-127585095D02*
X97067761Y-127823190D01*
X97067761Y-127823190D02*
X97020142Y-127918428D01*
X97020142Y-127918428D02*
X96972523Y-127966047D01*
X96972523Y-127966047D02*
X96877285Y-128013666D01*
X96877285Y-128013666D02*
X96686809Y-128013666D01*
X96686809Y-128013666D02*
X96591571Y-127966047D01*
X96591571Y-127966047D02*
X96543952Y-127918428D01*
X96543952Y-127918428D02*
X96496333Y-127823190D01*
X79857504Y-148044819D02*
X79857504Y-148854342D01*
X79857504Y-148854342D02*
X79809885Y-148949580D01*
X79809885Y-148949580D02*
X79762266Y-148997200D01*
X79762266Y-148997200D02*
X79667028Y-149044819D01*
X79667028Y-149044819D02*
X79476552Y-149044819D01*
X79476552Y-149044819D02*
X79381314Y-148997200D01*
X79381314Y-148997200D02*
X79333695Y-148949580D01*
X79333695Y-148949580D02*
X79286076Y-148854342D01*
X79286076Y-148854342D02*
X79286076Y-148044819D01*
X78857504Y-148140057D02*
X78809885Y-148092438D01*
X78809885Y-148092438D02*
X78714647Y-148044819D01*
X78714647Y-148044819D02*
X78476552Y-148044819D01*
X78476552Y-148044819D02*
X78381314Y-148092438D01*
X78381314Y-148092438D02*
X78333695Y-148140057D01*
X78333695Y-148140057D02*
X78286076Y-148235295D01*
X78286076Y-148235295D02*
X78286076Y-148330533D01*
X78286076Y-148330533D02*
X78333695Y-148473390D01*
X78333695Y-148473390D02*
X78905123Y-149044819D01*
X78905123Y-149044819D02*
X78286076Y-149044819D01*
X95895894Y-119317419D02*
X95324466Y-119317419D01*
X95610180Y-120317419D02*
X95610180Y-119317419D01*
X94991132Y-120317419D02*
X94991132Y-119317419D01*
X94991132Y-119317419D02*
X94610180Y-119317419D01*
X94610180Y-119317419D02*
X94514942Y-119365038D01*
X94514942Y-119365038D02*
X94467323Y-119412657D01*
X94467323Y-119412657D02*
X94419704Y-119507895D01*
X94419704Y-119507895D02*
X94419704Y-119650752D01*
X94419704Y-119650752D02*
X94467323Y-119745990D01*
X94467323Y-119745990D02*
X94514942Y-119793609D01*
X94514942Y-119793609D02*
X94610180Y-119841228D01*
X94610180Y-119841228D02*
X94991132Y-119841228D01*
X93467323Y-120317419D02*
X94038751Y-120317419D01*
X93753037Y-120317419D02*
X93753037Y-119317419D01*
X93753037Y-119317419D02*
X93848275Y-119460276D01*
X93848275Y-119460276D02*
X93943513Y-119555514D01*
X93943513Y-119555514D02*
X94038751Y-119603133D01*
X92514942Y-120317419D02*
X93086370Y-120317419D01*
X92800656Y-120317419D02*
X92800656Y-119317419D01*
X92800656Y-119317419D02*
X92895894Y-119460276D01*
X92895894Y-119460276D02*
X92991132Y-119555514D01*
X92991132Y-119555514D02*
X93086370Y-119603133D01*
X95870494Y-127394619D02*
X95299066Y-127394619D01*
X95584780Y-128394619D02*
X95584780Y-127394619D01*
X94965732Y-128394619D02*
X94965732Y-127394619D01*
X94965732Y-127394619D02*
X94584780Y-127394619D01*
X94584780Y-127394619D02*
X94489542Y-127442238D01*
X94489542Y-127442238D02*
X94441923Y-127489857D01*
X94441923Y-127489857D02*
X94394304Y-127585095D01*
X94394304Y-127585095D02*
X94394304Y-127727952D01*
X94394304Y-127727952D02*
X94441923Y-127823190D01*
X94441923Y-127823190D02*
X94489542Y-127870809D01*
X94489542Y-127870809D02*
X94584780Y-127918428D01*
X94584780Y-127918428D02*
X94965732Y-127918428D01*
X93441923Y-128394619D02*
X94013351Y-128394619D01*
X93727637Y-128394619D02*
X93727637Y-127394619D01*
X93727637Y-127394619D02*
X93822875Y-127537476D01*
X93822875Y-127537476D02*
X93918113Y-127632714D01*
X93918113Y-127632714D02*
X94013351Y-127680333D01*
X93060970Y-127489857D02*
X93013351Y-127442238D01*
X93013351Y-127442238D02*
X92918113Y-127394619D01*
X92918113Y-127394619D02*
X92680018Y-127394619D01*
X92680018Y-127394619D02*
X92584780Y-127442238D01*
X92584780Y-127442238D02*
X92537161Y-127489857D01*
X92537161Y-127489857D02*
X92489542Y-127585095D01*
X92489542Y-127585095D02*
X92489542Y-127680333D01*
X92489542Y-127680333D02*
X92537161Y-127823190D01*
X92537161Y-127823190D02*
X93108589Y-128394619D01*
X93108589Y-128394619D02*
X92489542Y-128394619D01*
X102455504Y-127394619D02*
X101884076Y-127394619D01*
X102169790Y-128394619D02*
X102169790Y-127394619D01*
X101550742Y-128394619D02*
X101550742Y-127394619D01*
X101550742Y-127394619D02*
X101169790Y-127394619D01*
X101169790Y-127394619D02*
X101074552Y-127442238D01*
X101074552Y-127442238D02*
X101026933Y-127489857D01*
X101026933Y-127489857D02*
X100979314Y-127585095D01*
X100979314Y-127585095D02*
X100979314Y-127727952D01*
X100979314Y-127727952D02*
X101026933Y-127823190D01*
X101026933Y-127823190D02*
X101074552Y-127870809D01*
X101074552Y-127870809D02*
X101169790Y-127918428D01*
X101169790Y-127918428D02*
X101550742Y-127918428D01*
X100122171Y-127394619D02*
X100312647Y-127394619D01*
X100312647Y-127394619D02*
X100407885Y-127442238D01*
X100407885Y-127442238D02*
X100455504Y-127489857D01*
X100455504Y-127489857D02*
X100550742Y-127632714D01*
X100550742Y-127632714D02*
X100598361Y-127823190D01*
X100598361Y-127823190D02*
X100598361Y-128204142D01*
X100598361Y-128204142D02*
X100550742Y-128299380D01*
X100550742Y-128299380D02*
X100503123Y-128347000D01*
X100503123Y-128347000D02*
X100407885Y-128394619D01*
X100407885Y-128394619D02*
X100217409Y-128394619D01*
X100217409Y-128394619D02*
X100122171Y-128347000D01*
X100122171Y-128347000D02*
X100074552Y-128299380D01*
X100074552Y-128299380D02*
X100026933Y-128204142D01*
X100026933Y-128204142D02*
X100026933Y-127966047D01*
X100026933Y-127966047D02*
X100074552Y-127870809D01*
X100074552Y-127870809D02*
X100122171Y-127823190D01*
X100122171Y-127823190D02*
X100217409Y-127775571D01*
X100217409Y-127775571D02*
X100407885Y-127775571D01*
X100407885Y-127775571D02*
X100503123Y-127823190D01*
X100503123Y-127823190D02*
X100550742Y-127870809D01*
X100550742Y-127870809D02*
X100598361Y-127966047D01*
X98950304Y-119317419D02*
X98378876Y-119317419D01*
X98664590Y-120317419D02*
X98664590Y-119317419D01*
X98045542Y-120317419D02*
X98045542Y-119317419D01*
X98045542Y-119317419D02*
X97664590Y-119317419D01*
X97664590Y-119317419D02*
X97569352Y-119365038D01*
X97569352Y-119365038D02*
X97521733Y-119412657D01*
X97521733Y-119412657D02*
X97474114Y-119507895D01*
X97474114Y-119507895D02*
X97474114Y-119650752D01*
X97474114Y-119650752D02*
X97521733Y-119745990D01*
X97521733Y-119745990D02*
X97569352Y-119793609D01*
X97569352Y-119793609D02*
X97664590Y-119841228D01*
X97664590Y-119841228D02*
X98045542Y-119841228D01*
X96902685Y-119745990D02*
X96997923Y-119698371D01*
X96997923Y-119698371D02*
X97045542Y-119650752D01*
X97045542Y-119650752D02*
X97093161Y-119555514D01*
X97093161Y-119555514D02*
X97093161Y-119507895D01*
X97093161Y-119507895D02*
X97045542Y-119412657D01*
X97045542Y-119412657D02*
X96997923Y-119365038D01*
X96997923Y-119365038D02*
X96902685Y-119317419D01*
X96902685Y-119317419D02*
X96712209Y-119317419D01*
X96712209Y-119317419D02*
X96616971Y-119365038D01*
X96616971Y-119365038D02*
X96569352Y-119412657D01*
X96569352Y-119412657D02*
X96521733Y-119507895D01*
X96521733Y-119507895D02*
X96521733Y-119555514D01*
X96521733Y-119555514D02*
X96569352Y-119650752D01*
X96569352Y-119650752D02*
X96616971Y-119698371D01*
X96616971Y-119698371D02*
X96712209Y-119745990D01*
X96712209Y-119745990D02*
X96902685Y-119745990D01*
X96902685Y-119745990D02*
X96997923Y-119793609D01*
X96997923Y-119793609D02*
X97045542Y-119841228D01*
X97045542Y-119841228D02*
X97093161Y-119936466D01*
X97093161Y-119936466D02*
X97093161Y-120126942D01*
X97093161Y-120126942D02*
X97045542Y-120222180D01*
X97045542Y-120222180D02*
X96997923Y-120269800D01*
X96997923Y-120269800D02*
X96902685Y-120317419D01*
X96902685Y-120317419D02*
X96712209Y-120317419D01*
X96712209Y-120317419D02*
X96616971Y-120269800D01*
X96616971Y-120269800D02*
X96569352Y-120222180D01*
X96569352Y-120222180D02*
X96521733Y-120126942D01*
X96521733Y-120126942D02*
X96521733Y-119936466D01*
X96521733Y-119936466D02*
X96569352Y-119841228D01*
X96569352Y-119841228D02*
X96616971Y-119793609D01*
X96616971Y-119793609D02*
X96712209Y-119745990D01*
X84581904Y-130624819D02*
X84581904Y-131434342D01*
X84581904Y-131434342D02*
X84534285Y-131529580D01*
X84534285Y-131529580D02*
X84486666Y-131577200D01*
X84486666Y-131577200D02*
X84391428Y-131624819D01*
X84391428Y-131624819D02*
X84200952Y-131624819D01*
X84200952Y-131624819D02*
X84105714Y-131577200D01*
X84105714Y-131577200D02*
X84058095Y-131529580D01*
X84058095Y-131529580D02*
X84010476Y-131434342D01*
X84010476Y-131434342D02*
X84010476Y-130624819D01*
X83629523Y-130624819D02*
X83010476Y-130624819D01*
X83010476Y-130624819D02*
X83343809Y-131005771D01*
X83343809Y-131005771D02*
X83200952Y-131005771D01*
X83200952Y-131005771D02*
X83105714Y-131053390D01*
X83105714Y-131053390D02*
X83058095Y-131101009D01*
X83058095Y-131101009D02*
X83010476Y-131196247D01*
X83010476Y-131196247D02*
X83010476Y-131434342D01*
X83010476Y-131434342D02*
X83058095Y-131529580D01*
X83058095Y-131529580D02*
X83105714Y-131577200D01*
X83105714Y-131577200D02*
X83200952Y-131624819D01*
X83200952Y-131624819D02*
X83486666Y-131624819D01*
X83486666Y-131624819D02*
X83581904Y-131577200D01*
X83581904Y-131577200D02*
X83629523Y-131529580D01*
D11*
%TO.C,C10*%
X78230000Y-136347780D02*
X78230000Y-136066620D01*
X79250000Y-136347780D02*
X79250000Y-136066620D01*
%TO.C,TP5*%
X103481800Y-122021600D02*
G75*
G03*
X103481800Y-122021600I-1450000J0D01*
G01*
%TO.C,TP9*%
X99951200Y-125577600D02*
G75*
G03*
X99951200Y-125577600I-1450000J0D01*
G01*
D12*
%TO.C,U2*%
X77052800Y-154417000D02*
X80952800Y-154417000D01*
X77052800Y-149367000D02*
X80952800Y-149367000D01*
D13*
X75102800Y-154392000D02*
G75*
G03*
X75102800Y-154392000I-100000J0D01*
G01*
D11*
%TO.C,TP11*%
X96420600Y-122021600D02*
G75*
G03*
X96420600Y-122021600I-1450000J0D01*
G01*
%TO.C,TP12*%
X96420600Y-125577600D02*
G75*
G03*
X96420600Y-125577600I-1450000J0D01*
G01*
%TO.C,TP6*%
X103481800Y-125577600D02*
G75*
G03*
X103481800Y-125577600I-1450000J0D01*
G01*
%TO.C,TP8*%
X99951200Y-122021600D02*
G75*
G03*
X99951200Y-122021600I-1450000J0D01*
G01*
%TO.C,U3*%
X83820000Y-132010000D02*
X81620000Y-132010000D01*
X83820000Y-137230000D02*
X81620000Y-137230000D01*
X83820000Y-137230000D02*
X86020000Y-137230000D01*
X83820000Y-132010000D02*
X87420000Y-132010000D01*
%TD*%
M02*
