%TF.GenerationSoftware,KiCad,Pcbnew,7.0.9*%
%TF.CreationDate,2023-12-12T05:21:09-05:00*%
%TF.ProjectId,MotorDriver,4d6f746f-7244-4726-9976-65722e6b6963,rev?*%
%TF.SameCoordinates,Original*%
%TF.FileFunction,Copper,L2,Inr*%
%TF.FilePolarity,Positive*%
%FSLAX46Y46*%
G04 Gerber Fmt 4.6, Leading zero omitted, Abs format (unit mm)*
G04 Created by KiCad (PCBNEW 7.0.9) date 2023-12-12 05:21:09*
%MOMM*%
%LPD*%
G01*
G04 APERTURE LIST*
%TA.AperFunction,ComponentPad*%
%ADD10R,1.700000X1.700000*%
%TD*%
%TA.AperFunction,ComponentPad*%
%ADD11O,1.700000X1.700000*%
%TD*%
%TA.AperFunction,ComponentPad*%
%ADD12C,1.007000*%
%TD*%
%TA.AperFunction,ViaPad*%
%ADD13C,0.800000*%
%TD*%
%TA.AperFunction,ViaPad*%
%ADD14C,0.600000*%
%TD*%
%TA.AperFunction,Conductor*%
%ADD15C,0.250000*%
%TD*%
G04 APERTURE END LIST*
D10*
%TO.N,/Microcontroller/NRST*%
%TO.C,J2*%
X70408800Y-156514800D03*
D11*
%TO.N,/Microcontroller/TCK*%
X72948800Y-156514800D03*
%TO.N,/Microcontroller/TMS*%
X75488800Y-156514800D03*
%TO.N,/Microcontroller/SWO*%
X78028800Y-156514800D03*
%TO.N,GND*%
X80568800Y-156514800D03*
%TO.N,+3.3V*%
X83108800Y-156514800D03*
%TD*%
D10*
%TO.N,Net-(J3-Pin_1)*%
%TO.C,J3*%
X97998200Y-156514800D03*
D11*
%TO.N,Net-(J3-Pin_2)*%
X95458200Y-156514800D03*
%TD*%
D10*
%TO.N,Vdrive*%
%TO.C,J4*%
X69824600Y-114838400D03*
D11*
%TO.N,GND*%
X69824600Y-112298400D03*
%TD*%
D10*
%TO.N,/MotorController/MOTA*%
%TO.C,J5*%
X86410800Y-109169200D03*
D11*
%TO.N,/MotorController/MOTB*%
X83870800Y-109169200D03*
%TO.N,/MotorController/MOTC*%
X81330800Y-109169200D03*
%TD*%
D10*
%TO.N,GND*%
%TO.C,J1*%
X91770200Y-156514800D03*
D11*
%TO.N,/Microcontroller/UART_RX*%
X89230200Y-156514800D03*
%TO.N,/Microcontroller/UART_TX*%
X86690200Y-156514800D03*
%TD*%
D12*
%TO.N,Net-(C2-Pad2)*%
%TO.C,Y2*%
X64894800Y-148106841D03*
%TO.N,Net-(C1-Pad2)*%
X62454800Y-143880637D03*
%TD*%
D13*
%TO.N,GND*%
X70789800Y-131902200D03*
X106629200Y-138303000D03*
X94919800Y-108381800D03*
X96621600Y-109270800D03*
X98348800Y-110236000D03*
D14*
%TO.N,Vdrive*%
X59613800Y-129565400D03*
D13*
X105384600Y-135585200D03*
X104444800Y-135585200D03*
X103454200Y-135585200D03*
X102463600Y-135585200D03*
X101473000Y-135610600D03*
%TO.N,GND*%
X99466400Y-136093200D03*
%TO.N,Net-(U4-FB)*%
X102565200Y-137566400D03*
X99872800Y-137261600D03*
%TO.N,+3.3V*%
X106578400Y-136702800D03*
X109626400Y-134848600D03*
X108153200Y-134823200D03*
X104063800Y-150342600D03*
D14*
%TO.N,GND*%
X96799400Y-140970000D03*
X95560767Y-140970000D03*
X97967052Y-140970000D03*
X71678800Y-110617000D03*
X71755000Y-109270800D03*
X70561200Y-109855000D03*
%TO.N,/Microcontroller/CAN2_TX*%
X74508700Y-154178501D03*
X73631460Y-142967637D03*
%TO.N,/Microcontroller/CAN2_RX*%
X74472800Y-142925800D03*
%TO.N,/MotorController/GLB*%
X89204799Y-119151400D03*
X86370800Y-118708800D03*
X89923200Y-129895601D03*
%TO.N,/MotorController/GHB*%
X92115800Y-128168401D03*
%TO.N,/MotorController/GLC*%
X85094263Y-123840187D03*
%TO.N,/MotorController/GHC*%
X85521800Y-123164601D03*
%TO.N,/MotorController/GHB*%
X87325200Y-112699801D03*
%TO.N,/MotorController/GLB*%
X88435633Y-141352344D03*
%TO.N,/MotorController/GHB*%
X90478111Y-141733117D03*
%TO.N,/MotorController/GLC*%
X84836000Y-141988500D03*
X77800200Y-118795801D03*
X91437089Y-143176890D03*
%TO.N,/MotorController/GHC*%
X90076100Y-142447204D03*
X85727631Y-141978381D03*
X79199641Y-112728206D03*
%TO.N,/Encoder/M1_ENC.A*%
X83207489Y-137792090D03*
X71783870Y-136332301D03*
%TO.N,/Encoder/M1_ENC.B*%
X82346800Y-137769601D03*
X70993000Y-136474201D03*
%TO.N,Net-(D1-A)*%
X77764300Y-141723926D03*
X83235800Y-146939001D03*
%TO.N,Net-(D2-A)*%
X77154700Y-141111901D03*
X81762600Y-146888201D03*
%TO.N,Net-(D3-A)*%
X80314800Y-146837401D03*
X76532400Y-140487401D03*
%TO.N,/Microcontroller/SEN.ISENA*%
X65487999Y-142983400D03*
%TO.N,/Microcontroller/SEN.ISENB*%
X65485088Y-141476017D03*
%TO.N,/Microcontroller/SEN.ISENC*%
X65467311Y-140676712D03*
X83997800Y-150114001D03*
%TO.N,/Microcontroller/SEN.ISENA*%
X86918800Y-150164801D03*
%TO.N,/Microcontroller/SEN.ISENB*%
X85445600Y-150164801D03*
%TO.N,+3.3V*%
X56997600Y-134188201D03*
%TO.N,/Microcontroller/NRST*%
X70090700Y-139247798D03*
%TO.N,/Microcontroller/UART_RX*%
X68760300Y-149682201D03*
%TO.N,/Microcontroller/UART_TX*%
X68035800Y-145237201D03*
%TO.N,/Microcontroller/TCK*%
X76413893Y-136435501D03*
%TO.N,/Microcontroller/TMS*%
X76428600Y-137490201D03*
%TO.N,/Microcontroller/SWO*%
X75907900Y-138925301D03*
%TO.N,Vdrive*%
X84353504Y-116604800D03*
X74320296Y-115598084D03*
X84870800Y-115598084D03*
X91421304Y-115598084D03*
X92904008Y-114604800D03*
X91904008Y-116604800D03*
X94361000Y-130556000D03*
X82353504Y-116604800D03*
X96850200Y-134899400D03*
X92904008Y-116604800D03*
X90904008Y-116604800D03*
X76320296Y-115598084D03*
X83353504Y-116604800D03*
X90904008Y-114604800D03*
X92421304Y-115598084D03*
X76803000Y-116604800D03*
X74803000Y-116604800D03*
X91904008Y-114604800D03*
X82870800Y-115598084D03*
X83870800Y-115598084D03*
X93904008Y-114604800D03*
X93421304Y-115598084D03*
X98348800Y-130556000D03*
X73803000Y-116604800D03*
X93904008Y-116604800D03*
X75320296Y-115598084D03*
X83353504Y-114604800D03*
X85353504Y-114604800D03*
X85353504Y-116604800D03*
X75803000Y-114604800D03*
X82353504Y-114604800D03*
X74803000Y-114604800D03*
X75803000Y-116604800D03*
X73803000Y-114604800D03*
X76803000Y-114604800D03*
X84353504Y-114604800D03*
%TO.N,GND*%
X97978033Y-142120000D03*
X95571748Y-142120000D03*
X96774000Y-143230600D03*
X97942400Y-143230600D03*
X95580200Y-143230600D03*
X96810381Y-142120000D03*
%TO.N,+3.3V*%
X70967600Y-144195800D03*
X93065600Y-147066000D03*
X78740000Y-134188200D03*
X69977000Y-132664200D03*
X65735200Y-136499600D03*
X94361000Y-153314401D03*
X78435200Y-146177000D03*
%TO.N,/Encoder/SPI3.CS*%
X89179400Y-131419600D03*
X78105000Y-129717798D03*
%TO.N,/Encoder/SPI3.SCK*%
X89179400Y-132486400D03*
X76911200Y-130581400D03*
%TO.N,/Encoder/SPI3.MISO*%
X89179400Y-133536403D03*
X76112813Y-131710918D03*
%TO.N,/Encoder/SPI3.MOSI*%
X75365759Y-132642731D03*
X89204800Y-134620000D03*
%TO.N,/Encoder/M1_ENC.I*%
X72529698Y-132651498D03*
%TO.N,/MotorController/SPC*%
X91490800Y-129204900D03*
X90243289Y-145646512D03*
X72898000Y-129032000D03*
%TO.N,/MotorController/SNC*%
X90195400Y-146481801D03*
X74422898Y-128065902D03*
X90906600Y-128066801D03*
%TO.N,/MotorController/SPA*%
X87477600Y-137845800D03*
X88315800Y-124688600D03*
%TO.N,/MotorController/SNA*%
X88666906Y-137970900D03*
X88341204Y-126390400D03*
%TO.N,/MotorController/SPB*%
X80416400Y-124155200D03*
X82981800Y-139669900D03*
%TO.N,/MotorController/SNB*%
X83864978Y-139669900D03*
X81178400Y-126365000D03*
%TO.N,Net-(U6-SH)*%
X88011000Y-113309400D03*
X87528400Y-143535400D03*
%TO.N,Net-(U8-SH)*%
X79857600Y-113182401D03*
X86436200Y-143535400D03*
%TO.N,/MotorController/GHA*%
X94310200Y-133985000D03*
X95656400Y-111683800D03*
%TO.N,/MotorController/GLA*%
X94919800Y-119380000D03*
X92930894Y-135495337D03*
%TO.N,/Microcontroller/DRV.INLC*%
X82092800Y-142036798D03*
X103164685Y-141627900D03*
%TO.N,/Microcontroller/DRV.INLB*%
X103378000Y-142976600D03*
X83743800Y-142976600D03*
%TO.N,/Microcontroller/DRV.INLA*%
X102717600Y-144881600D03*
X82067400Y-143865600D03*
%TO.N,/Microcontroller/DRV.ENABLE*%
X70992996Y-152171400D03*
X71045353Y-137491754D03*
X98247196Y-152196800D03*
%TO.N,/Microcontroller/DRV.INHA*%
X104190800Y-145669000D03*
X81933922Y-140521468D03*
%TO.N,/Microcontroller/DRV.INHB*%
X82143600Y-139478202D03*
X104933077Y-143901336D03*
%TO.N,/Microcontroller/DRV.INHC*%
X105714794Y-142849600D03*
X82092800Y-138531600D03*
%TO.N,/Microcontroller/SEN.VSENVM*%
X61315600Y-132537200D03*
X69570600Y-143484600D03*
%TO.N,/Microcontroller/SPI1.CS*%
X97129600Y-151180798D03*
X72136000Y-151434801D03*
%TO.N,/Microcontroller/SPI1.SCK*%
X96722146Y-150265230D03*
X72158489Y-150574112D03*
%TO.N,/Microcontroller/SPI1.MISO*%
X95402406Y-149428200D03*
X73126600Y-148244622D03*
%TO.N,/Microcontroller/SPI1.MOSI*%
X96545400Y-148412200D03*
X73710800Y-147548601D03*
%TO.N,Net-(U5-SH)*%
X94945200Y-110413800D03*
X95516100Y-129514600D03*
%TO.N,/Microcontroller/VDDA*%
X62687200Y-136779000D03*
X70395500Y-142443200D03*
%TD*%
D15*
%TO.N,/MotorController/GHC*%
X90070635Y-142441739D02*
X86190989Y-142441739D01*
X90076100Y-142447204D02*
X90070635Y-142441739D01*
X86190989Y-142441739D02*
X85727631Y-141978381D01*
%TO.N,/MotorController/SNC*%
X74423796Y-128066800D02*
X74422898Y-128065902D01*
X90906600Y-128066801D02*
X74423796Y-128066800D01*
%TO.N,/Microcontroller/SPI1.MISO*%
X84195883Y-149428200D02*
X95402406Y-149428200D01*
X83012305Y-148244622D02*
X84195883Y-149428200D01*
X73126600Y-148244622D02*
X83012305Y-148244622D01*
%TO.N,/MotorController/GLC*%
X88516089Y-143176890D02*
X91437089Y-143176890D01*
X88230938Y-142891739D02*
X88516089Y-143176890D01*
X85757105Y-142891739D02*
X88230938Y-142891739D01*
X84836000Y-141988500D02*
X84853866Y-141988500D01*
X84853866Y-141988500D02*
X85757105Y-142891739D01*
%TO.N,/Microcontroller/DRV.ENABLE*%
X86132796Y-152781000D02*
X86005797Y-152654001D01*
X86005797Y-152654001D02*
X71475597Y-152654001D01*
X71475597Y-152654001D02*
X70992996Y-152171400D01*
X86540593Y-152781000D02*
X86132796Y-152781000D01*
X87124793Y-152196800D02*
X86540593Y-152781000D01*
X98247196Y-152196800D02*
X87124793Y-152196800D01*
%TO.N,/Microcontroller/SPI1.CS*%
X83176008Y-152089001D02*
X86596196Y-152089001D01*
X82111119Y-151024112D02*
X83176008Y-152089001D01*
X86596196Y-152089001D02*
X87504399Y-151180798D01*
X72181684Y-151434801D02*
X72592373Y-151024112D01*
X72592373Y-151024112D02*
X82111119Y-151024112D01*
X87504399Y-151180798D02*
X97129600Y-151180798D01*
X72136000Y-151434801D02*
X72181684Y-151434801D01*
%TO.N,/MotorController/GLB*%
X86813400Y-119151400D02*
X89204799Y-119151400D01*
X86370800Y-118708800D02*
X86813400Y-119151400D01*
%TO.N,/Microcontroller/SPI1.SCK*%
X86409800Y-151639001D02*
X87783571Y-150265230D01*
X87783571Y-150265230D02*
X96722146Y-150265230D01*
X82297515Y-150574112D02*
X83362404Y-151639001D01*
X72158489Y-150574112D02*
X82297515Y-150574112D01*
X83362404Y-151639001D02*
X86409800Y-151639001D01*
%TO.N,/Microcontroller/SPI1.MOSI*%
X83816279Y-148412200D02*
X96545400Y-148412200D01*
X82952680Y-147548601D02*
X83816279Y-148412200D01*
X73710800Y-147548601D02*
X82952680Y-147548601D01*
%TO.N,/Microcontroller/UART_TX*%
X69908000Y-152840397D02*
X70621604Y-153554001D01*
X70621604Y-153554001D02*
X83729401Y-153554001D01*
X69908000Y-152204001D02*
X69908000Y-152840397D01*
X68035800Y-150331801D02*
X69908000Y-152204001D01*
X83729401Y-153554001D02*
X86690200Y-156514800D01*
X68035800Y-145237201D02*
X68035800Y-150331801D01*
%TO.N,/Microcontroller/UART_RX*%
X85819401Y-153104001D02*
X89230200Y-156514800D01*
X70808000Y-153104001D02*
X85819401Y-153104001D01*
X70358000Y-151279901D02*
X70358000Y-152654001D01*
X70358000Y-152654001D02*
X70808000Y-153104001D01*
X68760300Y-149682201D02*
X70358000Y-151279901D01*
%TO.N,/Microcontroller/SEN.ISENB*%
X83738916Y-150739001D02*
X84871400Y-150739001D01*
X69436400Y-148175005D02*
X70606196Y-149344801D01*
X69436400Y-144874401D02*
X69436400Y-148175005D01*
X66038016Y-141476017D02*
X69436400Y-144874401D01*
X70606196Y-149344801D02*
X82344716Y-149344801D01*
X82344716Y-149344801D02*
X83738916Y-150739001D01*
X84871400Y-150739001D02*
X85445600Y-150164801D01*
X65485088Y-141476017D02*
X66038016Y-141476017D01*
%TO.N,/Microcontroller/SEN.ISENC*%
X82778600Y-148894801D02*
X83997800Y-150114001D01*
X70792592Y-148894801D02*
X82778600Y-148894801D01*
X69886400Y-147988609D02*
X70792592Y-148894801D01*
X69886400Y-144688005D02*
X69886400Y-147988609D01*
X65467311Y-140676712D02*
X65875107Y-140676712D01*
X65875107Y-140676712D02*
X69886400Y-144688005D01*
%TO.N,/Microcontroller/SEN.ISENA*%
X83548800Y-151189001D02*
X85894600Y-151189001D01*
X82154600Y-149794801D02*
X83548800Y-151189001D01*
X70419800Y-149794801D02*
X82154600Y-149794801D01*
X68986400Y-148361401D02*
X70419800Y-149794801D01*
X68986400Y-145060797D02*
X68986400Y-148361401D01*
X85894600Y-151189001D02*
X86918800Y-150164801D01*
X66909003Y-142983400D02*
X68986400Y-145060797D01*
X65487999Y-142983400D02*
X66909003Y-142983400D01*
%TO.N,/Encoder/SPI3.CS*%
X89179400Y-131419600D02*
X87477598Y-129717798D01*
X87477598Y-129717798D02*
X78105000Y-129717798D01*
%TO.N,/Encoder/SPI3.SCK*%
X89179400Y-132486400D02*
X87274400Y-130581400D01*
X87274400Y-130581400D02*
X76911200Y-130581400D01*
%TO.N,/Encoder/SPI3.MISO*%
X87353891Y-131710894D02*
X76112837Y-131710894D01*
X89179400Y-133536403D02*
X87353891Y-131710894D01*
X76112837Y-131710894D02*
X76112813Y-131710918D01*
%TO.N,/Encoder/SPI3.MOSI*%
X87223600Y-132638800D02*
X75369690Y-132638800D01*
X89204800Y-134620000D02*
X87223600Y-132638800D01*
X75369690Y-132638800D02*
X75365759Y-132642731D01*
%TO.N,/MotorController/SPC*%
X91317900Y-129032000D02*
X91490800Y-129204900D01*
X72898000Y-129032000D02*
X91317900Y-129032000D01*
%TD*%
%TA.AperFunction,Conductor*%
%TO.N,Vdrive*%
G36*
X100768416Y-113946049D02*
G01*
X100835348Y-113966085D01*
X100880825Y-114019129D01*
X100881922Y-114021638D01*
X101241151Y-114868809D01*
X101932255Y-116402636D01*
X102657362Y-117920685D01*
X103416110Y-119422202D01*
X104208123Y-120906441D01*
X105033007Y-122372667D01*
X105890354Y-123820150D01*
X106779738Y-125248172D01*
X107700716Y-126656025D01*
X108652833Y-128043010D01*
X109635614Y-129408437D01*
X110648573Y-130751629D01*
X110803383Y-130947666D01*
X110829482Y-131012478D01*
X110816399Y-131081111D01*
X110768286Y-131131776D01*
X110706554Y-131148514D01*
X106349799Y-131165600D01*
X106278293Y-135670499D01*
X106257547Y-135737218D01*
X106204024Y-135782129D01*
X106156497Y-135792512D01*
X105873646Y-135797504D01*
X105864952Y-135797954D01*
X105843815Y-135799771D01*
X105757018Y-135823101D01*
X105693798Y-135852817D01*
X105693794Y-135852819D01*
X105693793Y-135852820D01*
X105680412Y-135861629D01*
X105633048Y-135892808D01*
X105633046Y-135892810D01*
X105621894Y-135902689D01*
X105597299Y-135919664D01*
X105539032Y-135950245D01*
X105511083Y-135960845D01*
X105447182Y-135976596D01*
X105417505Y-135980200D01*
X105351694Y-135980200D01*
X105322020Y-135976597D01*
X105286579Y-135967862D01*
X105258118Y-135960847D01*
X105230167Y-135950247D01*
X105171898Y-135919664D01*
X105163317Y-135915160D01*
X105146092Y-135904223D01*
X105135060Y-135895870D01*
X105135059Y-135895869D01*
X105103092Y-135875326D01*
X105092908Y-135869113D01*
X105092903Y-135869110D01*
X105045041Y-135852817D01*
X104998532Y-135836984D01*
X104998530Y-135836983D01*
X104998528Y-135836983D01*
X104929286Y-135827806D01*
X104929276Y-135827805D01*
X104929268Y-135827804D01*
X104886365Y-135825978D01*
X104883766Y-135825868D01*
X104883764Y-135825868D01*
X104787009Y-135849860D01*
X104787005Y-135849861D01*
X104723777Y-135879583D01*
X104686678Y-135904007D01*
X104681396Y-135907121D01*
X104599231Y-135950246D01*
X104571280Y-135960847D01*
X104555851Y-135964650D01*
X104507379Y-135976597D01*
X104477705Y-135980200D01*
X104411894Y-135980200D01*
X104382220Y-135976597D01*
X104346779Y-135967862D01*
X104318318Y-135960847D01*
X104290366Y-135950246D01*
X104222607Y-135914682D01*
X104206254Y-135904400D01*
X104206016Y-135904223D01*
X104200211Y-135899907D01*
X104164539Y-135882516D01*
X104115423Y-135858570D01*
X104115419Y-135858568D01*
X104048054Y-135840073D01*
X104048047Y-135840071D01*
X104048044Y-135840071D01*
X103985974Y-135832262D01*
X103975896Y-135830994D01*
X103975895Y-135830994D01*
X103939952Y-135831628D01*
X103904009Y-135832262D01*
X103895310Y-135832712D01*
X103874175Y-135834529D01*
X103787380Y-135857861D01*
X103787373Y-135857864D01*
X103724157Y-135887579D01*
X103724137Y-135887590D01*
X103711475Y-135895926D01*
X103706194Y-135899041D01*
X103608632Y-135950245D01*
X103580683Y-135960845D01*
X103516782Y-135976596D01*
X103487105Y-135980200D01*
X103421295Y-135980200D01*
X103391621Y-135976597D01*
X103356181Y-135967862D01*
X103327721Y-135960847D01*
X103299772Y-135950247D01*
X103240589Y-135919186D01*
X103240552Y-135919150D01*
X103196170Y-135895873D01*
X103170721Y-135882516D01*
X103142875Y-135874871D01*
X103094795Y-135861657D01*
X103094644Y-135861629D01*
X103078447Y-135857182D01*
X103078442Y-135857181D01*
X103006293Y-135848104D01*
X103006291Y-135848104D01*
X102961427Y-135848895D01*
X102894129Y-135850083D01*
X102891262Y-135850158D01*
X102817835Y-135862932D01*
X102727792Y-135892637D01*
X102618029Y-135950246D01*
X102590081Y-135960845D01*
X102526182Y-135976596D01*
X102496505Y-135980200D01*
X102430695Y-135980200D01*
X102401021Y-135976597D01*
X102388918Y-135973614D01*
X102365581Y-135967862D01*
X102352807Y-135965296D01*
X102349596Y-135964651D01*
X102349584Y-135964650D01*
X102266000Y-135961828D01*
X102265997Y-135961828D01*
X102265991Y-135961828D01*
X102221418Y-135967686D01*
X102196715Y-135970933D01*
X102196716Y-135970933D01*
X102152268Y-135980869D01*
X102065049Y-136029145D01*
X102065046Y-136029147D01*
X102011696Y-136074255D01*
X101979677Y-136106641D01*
X101932399Y-136194411D01*
X101911905Y-136261200D01*
X101911904Y-136261202D01*
X101900681Y-136333060D01*
X101900681Y-136333062D01*
X101894537Y-136839938D01*
X101894537Y-136839939D01*
X101897955Y-136884810D01*
X101905065Y-136927715D01*
X101908555Y-136945037D01*
X101908556Y-136945041D01*
X101950088Y-137035663D01*
X101950089Y-137035665D01*
X101969253Y-137062166D01*
X101992585Y-137128025D01*
X101992761Y-137136446D01*
X101991627Y-137223215D01*
X101983580Y-137265566D01*
X101928963Y-137409581D01*
X101909922Y-137566399D01*
X101909922Y-137566400D01*
X101928963Y-137723219D01*
X101928963Y-137723221D01*
X101974866Y-137844258D01*
X101982913Y-137889847D01*
X101981812Y-137974140D01*
X101961254Y-138040917D01*
X101957512Y-138046264D01*
X101956142Y-138048114D01*
X101908868Y-138135880D01*
X101908867Y-138135882D01*
X101888371Y-138202673D01*
X101877148Y-138274528D01*
X101877148Y-138274529D01*
X101876840Y-138299901D01*
X101876802Y-138302999D01*
X101857995Y-139854525D01*
X101837499Y-139921321D01*
X101784145Y-139966432D01*
X101732678Y-139977015D01*
X97238783Y-139928952D01*
X97177350Y-139911904D01*
X90670087Y-136093200D01*
X98811122Y-136093200D01*
X98830162Y-136250018D01*
X98861657Y-136333062D01*
X98886180Y-136397723D01*
X98975917Y-136527730D01*
X99094160Y-136632483D01*
X99094162Y-136632484D01*
X99234034Y-136705896D01*
X99257810Y-136711756D01*
X99318191Y-136746911D01*
X99349981Y-136809130D01*
X99343086Y-136878658D01*
X99330187Y-136902592D01*
X99292583Y-136957070D01*
X99292580Y-136957076D01*
X99236562Y-137104781D01*
X99217522Y-137261599D01*
X99217522Y-137261600D01*
X99236562Y-137418418D01*
X99292580Y-137566123D01*
X99382317Y-137696130D01*
X99500560Y-137800883D01*
X99500562Y-137800884D01*
X99640434Y-137874296D01*
X99793814Y-137912100D01*
X99793815Y-137912100D01*
X99951785Y-137912100D01*
X100105165Y-137874296D01*
X100111592Y-137870923D01*
X100245040Y-137800883D01*
X100363283Y-137696130D01*
X100453020Y-137566123D01*
X100509037Y-137418418D01*
X100528078Y-137261600D01*
X100509037Y-137104782D01*
X100504296Y-137092282D01*
X100482824Y-137035663D01*
X100453020Y-136957077D01*
X100363283Y-136827070D01*
X100245040Y-136722317D01*
X100245038Y-136722316D01*
X100245037Y-136722315D01*
X100105167Y-136648904D01*
X100081386Y-136643043D01*
X100021006Y-136607886D01*
X99989218Y-136545667D01*
X99996114Y-136476138D01*
X100009009Y-136452211D01*
X100046620Y-136397723D01*
X100102637Y-136250018D01*
X100121678Y-136093200D01*
X100114207Y-136031666D01*
X100102637Y-135936381D01*
X100077125Y-135869113D01*
X100046620Y-135788677D01*
X99956883Y-135658670D01*
X99838640Y-135553917D01*
X99838638Y-135553916D01*
X99838637Y-135553915D01*
X99698765Y-135480503D01*
X99545386Y-135442700D01*
X99545385Y-135442700D01*
X99387415Y-135442700D01*
X99387414Y-135442700D01*
X99234034Y-135480503D01*
X99094162Y-135553915D01*
X98975916Y-135658671D01*
X98886181Y-135788675D01*
X98886180Y-135788676D01*
X98830162Y-135936381D01*
X98811122Y-136093199D01*
X98811122Y-136093200D01*
X90670087Y-136093200D01*
X89651299Y-135495337D01*
X92375644Y-135495337D01*
X92394564Y-135639045D01*
X92394565Y-135639049D01*
X92450031Y-135772959D01*
X92450032Y-135772961D01*
X92450033Y-135772962D01*
X92538273Y-135887958D01*
X92653269Y-135976198D01*
X92653270Y-135976198D01*
X92653271Y-135976199D01*
X92654232Y-135976597D01*
X92787185Y-136031667D01*
X92914174Y-136048385D01*
X92930893Y-136050587D01*
X92930894Y-136050587D01*
X92930895Y-136050587D01*
X92945871Y-136048615D01*
X93074603Y-136031667D01*
X93208519Y-135976198D01*
X93323515Y-135887958D01*
X93411755Y-135772962D01*
X93467224Y-135639046D01*
X93486144Y-135495337D01*
X93467224Y-135351628D01*
X93411755Y-135217712D01*
X93323515Y-135102716D01*
X93208519Y-135014476D01*
X93208518Y-135014475D01*
X93208516Y-135014474D01*
X93074606Y-134959008D01*
X93074604Y-134959007D01*
X93074603Y-134959007D01*
X93002748Y-134949547D01*
X92930895Y-134940087D01*
X92930893Y-134940087D01*
X92787185Y-134959007D01*
X92787181Y-134959008D01*
X92653271Y-135014474D01*
X92538273Y-135102716D01*
X92450031Y-135217714D01*
X92394565Y-135351624D01*
X92394564Y-135351628D01*
X92375644Y-135495336D01*
X92375644Y-135495337D01*
X89651299Y-135495337D01*
X89402300Y-135349215D01*
X89354444Y-135298308D01*
X89341707Y-135229609D01*
X89368134Y-135164930D01*
X89417603Y-135127710D01*
X89482425Y-135100861D01*
X89597421Y-135012621D01*
X89685661Y-134897625D01*
X89741130Y-134763709D01*
X89760050Y-134620000D01*
X89741130Y-134476291D01*
X89702037Y-134381911D01*
X89685662Y-134342377D01*
X89685661Y-134342376D01*
X89685661Y-134342375D01*
X89597421Y-134227379D01*
X89518514Y-134166831D01*
X89477312Y-134110403D01*
X89473157Y-134040657D01*
X89504414Y-133985000D01*
X93754950Y-133985000D01*
X93766500Y-134072733D01*
X93773870Y-134128708D01*
X93773871Y-134128712D01*
X93829337Y-134262622D01*
X93829338Y-134262624D01*
X93829339Y-134262625D01*
X93917579Y-134377621D01*
X94032575Y-134465861D01*
X94032576Y-134465861D01*
X94032577Y-134465862D01*
X94077213Y-134484350D01*
X94166491Y-134521330D01*
X94293480Y-134538048D01*
X94310199Y-134540250D01*
X94310200Y-134540250D01*
X94310201Y-134540250D01*
X94325177Y-134538278D01*
X94453909Y-134521330D01*
X94587825Y-134465861D01*
X94702821Y-134377621D01*
X94791061Y-134262625D01*
X94846530Y-134128709D01*
X94865450Y-133985000D01*
X94846530Y-133841291D01*
X94791061Y-133707375D01*
X94702821Y-133592379D01*
X94587825Y-133504139D01*
X94587824Y-133504138D01*
X94587822Y-133504137D01*
X94453912Y-133448671D01*
X94453910Y-133448670D01*
X94453909Y-133448670D01*
X94382054Y-133439210D01*
X94310201Y-133429750D01*
X94310199Y-133429750D01*
X94166491Y-133448670D01*
X94166487Y-133448671D01*
X94032577Y-133504137D01*
X93917579Y-133592379D01*
X93829337Y-133707377D01*
X93773871Y-133841287D01*
X93773870Y-133841291D01*
X93762320Y-133929024D01*
X93754950Y-133985000D01*
X89504414Y-133985000D01*
X89507370Y-133979737D01*
X89518506Y-133970087D01*
X89572021Y-133929024D01*
X89660261Y-133814028D01*
X89715730Y-133680112D01*
X89734650Y-133536403D01*
X89715730Y-133392694D01*
X89660261Y-133258778D01*
X89572021Y-133143782D01*
X89527704Y-133109776D01*
X89486502Y-133053348D01*
X89482347Y-132983602D01*
X89516560Y-132922682D01*
X89527694Y-132913034D01*
X89572021Y-132879021D01*
X89660261Y-132764025D01*
X89715730Y-132630109D01*
X89734650Y-132486400D01*
X89715730Y-132342691D01*
X89660261Y-132208775D01*
X89572021Y-132093779D01*
X89572019Y-132093778D01*
X89572019Y-132093777D01*
X89544831Y-132072915D01*
X89516759Y-132051374D01*
X89475557Y-131994948D01*
X89471402Y-131925202D01*
X89505614Y-131864282D01*
X89516757Y-131854627D01*
X89572021Y-131812221D01*
X89660261Y-131697225D01*
X89715730Y-131563309D01*
X89734650Y-131419600D01*
X89715730Y-131275891D01*
X89660261Y-131141975D01*
X89572021Y-131026979D01*
X89457025Y-130938739D01*
X89457024Y-130938738D01*
X89457022Y-130938737D01*
X89323112Y-130883271D01*
X89323110Y-130883270D01*
X89323109Y-130883270D01*
X89306443Y-130881075D01*
X89193246Y-130866172D01*
X89129350Y-130837905D01*
X89121752Y-130830914D01*
X87910019Y-129619181D01*
X87876534Y-129557858D01*
X87881518Y-129488166D01*
X87923390Y-129432233D01*
X87988854Y-129407816D01*
X87997700Y-129407500D01*
X89352396Y-129407500D01*
X89419435Y-129427185D01*
X89465190Y-129479989D01*
X89475134Y-129549147D01*
X89450771Y-129606987D01*
X89442339Y-129617974D01*
X89442338Y-129617977D01*
X89386871Y-129751888D01*
X89386870Y-129751892D01*
X89367950Y-129895601D01*
X89385137Y-130026150D01*
X89386870Y-130039309D01*
X89386871Y-130039313D01*
X89442337Y-130173223D01*
X89442338Y-130173225D01*
X89442339Y-130173226D01*
X89530579Y-130288222D01*
X89645575Y-130376462D01*
X89779491Y-130431931D01*
X89906480Y-130448649D01*
X89923199Y-130450851D01*
X89923200Y-130450851D01*
X89923201Y-130450851D01*
X89938177Y-130448879D01*
X90066909Y-130431931D01*
X90200825Y-130376462D01*
X90315821Y-130288222D01*
X90404061Y-130173226D01*
X90459530Y-130039310D01*
X90478450Y-129895601D01*
X90459530Y-129751892D01*
X90404061Y-129617976D01*
X90404060Y-129617975D01*
X90404060Y-129617974D01*
X90395629Y-129606987D01*
X90370434Y-129541818D01*
X90384472Y-129473373D01*
X90433286Y-129423383D01*
X90494004Y-129407500D01*
X90896009Y-129407500D01*
X90963048Y-129427185D01*
X91005225Y-129475860D01*
X91005875Y-129475486D01*
X91007819Y-129478854D01*
X91008803Y-129479989D01*
X91009808Y-129482299D01*
X91009936Y-129482520D01*
X91009938Y-129482522D01*
X91009939Y-129482525D01*
X91098179Y-129597521D01*
X91213175Y-129685761D01*
X91347091Y-129741230D01*
X91474080Y-129757948D01*
X91490799Y-129760150D01*
X91490800Y-129760150D01*
X91490801Y-129760150D01*
X91505777Y-129758178D01*
X91634509Y-129741230D01*
X91768425Y-129685761D01*
X91883421Y-129597521D01*
X91947049Y-129514600D01*
X94960850Y-129514600D01*
X94979770Y-129658308D01*
X94979771Y-129658312D01*
X95035237Y-129792222D01*
X95035238Y-129792224D01*
X95035239Y-129792225D01*
X95123479Y-129907221D01*
X95238475Y-129995461D01*
X95372391Y-130050930D01*
X95499380Y-130067648D01*
X95516099Y-130069850D01*
X95516100Y-130069850D01*
X95516101Y-130069850D01*
X95531077Y-130067878D01*
X95659809Y-130050930D01*
X95793725Y-129995461D01*
X95908721Y-129907221D01*
X95996961Y-129792225D01*
X96052430Y-129658309D01*
X96071350Y-129514600D01*
X96052430Y-129370891D01*
X95996961Y-129236975D01*
X95908721Y-129121979D01*
X95793725Y-129033739D01*
X95793724Y-129033738D01*
X95793722Y-129033737D01*
X95659812Y-128978271D01*
X95659810Y-128978270D01*
X95659809Y-128978270D01*
X95587954Y-128968810D01*
X95516101Y-128959350D01*
X95516099Y-128959350D01*
X95372391Y-128978270D01*
X95372387Y-128978271D01*
X95238477Y-129033737D01*
X95123479Y-129121979D01*
X95035237Y-129236977D01*
X94979771Y-129370887D01*
X94979770Y-129370891D01*
X94960850Y-129514599D01*
X94960850Y-129514600D01*
X91947049Y-129514600D01*
X91971661Y-129482525D01*
X92027130Y-129348609D01*
X92046050Y-129204900D01*
X92027130Y-129061191D01*
X91971661Y-128927275D01*
X91971660Y-128927274D01*
X91971660Y-128927273D01*
X91963901Y-128917162D01*
X91938705Y-128851994D01*
X91952742Y-128783549D01*
X92001555Y-128733558D01*
X92069646Y-128717893D01*
X92078457Y-128718734D01*
X92097442Y-128721234D01*
X92115799Y-128723651D01*
X92115800Y-128723651D01*
X92115801Y-128723651D01*
X92130777Y-128721679D01*
X92259509Y-128704731D01*
X92393425Y-128649262D01*
X92508421Y-128561022D01*
X92596661Y-128446026D01*
X92652130Y-128312110D01*
X92671050Y-128168401D01*
X92652130Y-128024692D01*
X92609674Y-127922193D01*
X92596662Y-127890778D01*
X92596661Y-127890777D01*
X92596661Y-127890776D01*
X92508421Y-127775780D01*
X92393425Y-127687540D01*
X92393424Y-127687539D01*
X92393422Y-127687538D01*
X92259512Y-127632072D01*
X92259510Y-127632071D01*
X92259509Y-127632071D01*
X92187654Y-127622611D01*
X92115801Y-127613151D01*
X92115799Y-127613151D01*
X91972091Y-127632071D01*
X91972087Y-127632072D01*
X91838177Y-127687538D01*
X91780677Y-127731660D01*
X91723179Y-127775780D01*
X91723178Y-127775781D01*
X91723177Y-127775782D01*
X91632295Y-127894220D01*
X91575867Y-127935423D01*
X91506121Y-127939577D01*
X91445201Y-127905364D01*
X91419359Y-127866185D01*
X91387462Y-127789178D01*
X91387461Y-127789177D01*
X91387461Y-127789176D01*
X91299221Y-127674180D01*
X91184225Y-127585940D01*
X91184224Y-127585939D01*
X91184222Y-127585938D01*
X91050312Y-127530472D01*
X91050310Y-127530471D01*
X91050309Y-127530471D01*
X90978454Y-127521011D01*
X90906601Y-127511551D01*
X90906599Y-127511551D01*
X90762891Y-127530471D01*
X90762887Y-127530472D01*
X90628976Y-127585939D01*
X90628973Y-127585940D01*
X90525063Y-127665675D01*
X90459894Y-127690870D01*
X90449576Y-127691300D01*
X74881095Y-127691300D01*
X74814056Y-127671615D01*
X74805609Y-127665676D01*
X74700523Y-127585041D01*
X74700521Y-127585040D01*
X74566610Y-127529573D01*
X74566608Y-127529572D01*
X74566607Y-127529572D01*
X74494752Y-127520112D01*
X74422899Y-127510652D01*
X74422897Y-127510652D01*
X74279189Y-127529572D01*
X74279185Y-127529573D01*
X74145275Y-127585039D01*
X74030277Y-127673281D01*
X73942035Y-127788279D01*
X73886569Y-127922189D01*
X73886568Y-127922193D01*
X73873074Y-128024692D01*
X73867648Y-128065902D01*
X73881142Y-128168401D01*
X73886568Y-128209610D01*
X73886569Y-128209614D01*
X73942035Y-128343524D01*
X73942036Y-128343526D01*
X73942037Y-128343527D01*
X74029119Y-128457014D01*
X74054313Y-128522183D01*
X74040275Y-128590627D01*
X73991461Y-128640617D01*
X73930743Y-128656500D01*
X73355026Y-128656500D01*
X73287987Y-128636815D01*
X73279547Y-128630882D01*
X73175625Y-128551139D01*
X73175624Y-128551138D01*
X73175622Y-128551137D01*
X73041712Y-128495671D01*
X73041710Y-128495670D01*
X73041709Y-128495670D01*
X72969854Y-128486210D01*
X72898001Y-128476750D01*
X72897999Y-128476750D01*
X72754291Y-128495670D01*
X72754287Y-128495671D01*
X72620377Y-128551137D01*
X72505379Y-128639379D01*
X72417137Y-128754377D01*
X72361671Y-128888287D01*
X72361670Y-128888291D01*
X72342750Y-129031999D01*
X72342750Y-129032000D01*
X72361670Y-129175708D01*
X72361671Y-129175712D01*
X72417137Y-129309622D01*
X72417138Y-129309624D01*
X72417139Y-129309625D01*
X72505379Y-129424621D01*
X72620375Y-129512861D01*
X72754291Y-129568330D01*
X72881280Y-129585048D01*
X72897999Y-129587250D01*
X72898000Y-129587250D01*
X72898001Y-129587250D01*
X72912977Y-129585278D01*
X73041709Y-129568330D01*
X73175625Y-129512861D01*
X73279540Y-129433123D01*
X73344709Y-129407930D01*
X73355026Y-129407500D01*
X77452095Y-129407500D01*
X77519134Y-129427185D01*
X77564889Y-129479989D01*
X77574833Y-129549147D01*
X77570186Y-129566080D01*
X77570774Y-129566238D01*
X77568670Y-129574089D01*
X77549750Y-129717797D01*
X77549750Y-129717798D01*
X77568670Y-129861506D01*
X77568671Y-129861510D01*
X77624137Y-129995420D01*
X77624138Y-129995422D01*
X77624139Y-129995423D01*
X77632572Y-130006414D01*
X77657767Y-130071581D01*
X77643729Y-130140026D01*
X77594916Y-130190017D01*
X77534197Y-130205900D01*
X77368226Y-130205900D01*
X77301187Y-130186215D01*
X77292747Y-130180282D01*
X77188825Y-130100539D01*
X77188824Y-130100538D01*
X77188822Y-130100537D01*
X77054912Y-130045071D01*
X77054910Y-130045070D01*
X77054909Y-130045070D01*
X76983054Y-130035610D01*
X76911201Y-130026150D01*
X76911199Y-130026150D01*
X76767491Y-130045070D01*
X76767487Y-130045071D01*
X76633577Y-130100537D01*
X76518579Y-130188779D01*
X76430337Y-130303777D01*
X76374871Y-130437687D01*
X76374870Y-130437691D01*
X76355950Y-130581399D01*
X76355950Y-130581400D01*
X76374870Y-130725108D01*
X76374871Y-130725112D01*
X76430337Y-130859022D01*
X76430338Y-130859024D01*
X76430339Y-130859025D01*
X76518579Y-130974021D01*
X76633575Y-131062261D01*
X76633576Y-131062261D01*
X76633577Y-131062262D01*
X76717040Y-131096833D01*
X76771444Y-131140673D01*
X76793509Y-131206967D01*
X76776230Y-131274667D01*
X76725093Y-131322278D01*
X76669588Y-131335394D01*
X76569807Y-131335394D01*
X76502768Y-131315709D01*
X76494320Y-131309769D01*
X76390439Y-131230057D01*
X76390436Y-131230056D01*
X76256525Y-131174589D01*
X76256523Y-131174588D01*
X76256522Y-131174588D01*
X76184667Y-131165128D01*
X76112814Y-131155668D01*
X76112812Y-131155668D01*
X75969104Y-131174588D01*
X75969100Y-131174589D01*
X75835190Y-131230055D01*
X75720192Y-131318297D01*
X75631950Y-131433295D01*
X75576484Y-131567205D01*
X75576483Y-131567209D01*
X75568421Y-131628442D01*
X75540154Y-131692338D01*
X75481829Y-131730808D01*
X75444868Y-131736253D01*
X71500146Y-131716724D01*
X71433205Y-131696708D01*
X71387712Y-131643678D01*
X71384818Y-131636697D01*
X71382154Y-131629673D01*
X71370020Y-131597677D01*
X71280283Y-131467670D01*
X71162040Y-131362917D01*
X71162038Y-131362916D01*
X71162037Y-131362915D01*
X71022165Y-131289503D01*
X70868786Y-131251700D01*
X70868785Y-131251700D01*
X70710815Y-131251700D01*
X70710814Y-131251700D01*
X70557434Y-131289503D01*
X70417562Y-131362915D01*
X70299316Y-131467671D01*
X70209581Y-131597674D01*
X70209580Y-131597677D01*
X70197913Y-131628442D01*
X70197446Y-131629673D01*
X70155268Y-131685375D01*
X70089670Y-131709432D01*
X70080890Y-131709699D01*
X56543074Y-131642679D01*
X56476133Y-131622663D01*
X56430640Y-131569633D01*
X56421039Y-131500427D01*
X56446370Y-131441836D01*
X56991428Y-130751629D01*
X58004386Y-129408436D01*
X58987167Y-128043008D01*
X59939283Y-126656024D01*
X60129663Y-126365000D01*
X80623150Y-126365000D01*
X80642070Y-126508708D01*
X80642071Y-126508712D01*
X80697537Y-126642622D01*
X80697538Y-126642624D01*
X80697539Y-126642625D01*
X80785779Y-126757621D01*
X80900775Y-126845861D01*
X81034691Y-126901330D01*
X81161680Y-126918048D01*
X81178399Y-126920250D01*
X81178400Y-126920250D01*
X81178401Y-126920250D01*
X81193377Y-126918278D01*
X81322109Y-126901330D01*
X81456025Y-126845861D01*
X81571021Y-126757621D01*
X81659261Y-126642625D01*
X81714730Y-126508709D01*
X81730306Y-126390400D01*
X87785954Y-126390400D01*
X87804874Y-126534108D01*
X87804875Y-126534112D01*
X87860341Y-126668022D01*
X87860342Y-126668024D01*
X87860343Y-126668025D01*
X87948583Y-126783021D01*
X88063579Y-126871261D01*
X88197495Y-126926730D01*
X88324484Y-126943448D01*
X88341203Y-126945650D01*
X88341204Y-126945650D01*
X88341205Y-126945650D01*
X88356181Y-126943678D01*
X88484913Y-126926730D01*
X88618829Y-126871261D01*
X88733825Y-126783021D01*
X88822065Y-126668025D01*
X88877534Y-126534109D01*
X88896454Y-126390400D01*
X88877534Y-126246691D01*
X88822065Y-126112775D01*
X88733825Y-125997779D01*
X88618829Y-125909539D01*
X88618828Y-125909538D01*
X88618826Y-125909537D01*
X88484916Y-125854071D01*
X88484914Y-125854070D01*
X88484913Y-125854070D01*
X88413058Y-125844610D01*
X88341205Y-125835150D01*
X88341203Y-125835150D01*
X88197495Y-125854070D01*
X88197491Y-125854071D01*
X88063581Y-125909537D01*
X87948583Y-125997779D01*
X87860341Y-126112777D01*
X87804875Y-126246687D01*
X87804874Y-126246691D01*
X87785954Y-126390399D01*
X87785954Y-126390400D01*
X81730306Y-126390400D01*
X81733650Y-126365000D01*
X81714730Y-126221291D01*
X81659261Y-126087375D01*
X81571021Y-125972379D01*
X81456025Y-125884139D01*
X81456024Y-125884138D01*
X81456022Y-125884137D01*
X81322112Y-125828671D01*
X81322110Y-125828670D01*
X81322109Y-125828670D01*
X81250254Y-125819210D01*
X81178401Y-125809750D01*
X81178399Y-125809750D01*
X81034691Y-125828670D01*
X81034687Y-125828671D01*
X80900777Y-125884137D01*
X80785779Y-125972379D01*
X80697537Y-126087377D01*
X80642071Y-126221287D01*
X80642070Y-126221291D01*
X80623150Y-126364999D01*
X80623150Y-126365000D01*
X60129663Y-126365000D01*
X60860261Y-125248171D01*
X61540971Y-124155200D01*
X79861150Y-124155200D01*
X79871367Y-124232808D01*
X79880070Y-124298908D01*
X79880071Y-124298912D01*
X79935537Y-124432822D01*
X79935538Y-124432824D01*
X79935539Y-124432825D01*
X80023779Y-124547821D01*
X80138775Y-124636061D01*
X80272691Y-124691530D01*
X80399680Y-124708248D01*
X80416399Y-124710450D01*
X80416400Y-124710450D01*
X80416401Y-124710450D01*
X80431377Y-124708478D01*
X80560109Y-124691530D01*
X80567183Y-124688600D01*
X87760550Y-124688600D01*
X87779470Y-124832308D01*
X87779471Y-124832312D01*
X87834937Y-124966222D01*
X87834938Y-124966224D01*
X87834939Y-124966225D01*
X87923179Y-125081221D01*
X88038175Y-125169461D01*
X88172091Y-125224930D01*
X88299080Y-125241648D01*
X88315799Y-125243850D01*
X88315800Y-125243850D01*
X88315801Y-125243850D01*
X88330777Y-125241878D01*
X88459509Y-125224930D01*
X88593425Y-125169461D01*
X88708421Y-125081221D01*
X88796661Y-124966225D01*
X88852130Y-124832309D01*
X88871050Y-124688600D01*
X88852130Y-124544891D01*
X88815150Y-124455613D01*
X88796662Y-124410977D01*
X88796661Y-124410976D01*
X88796661Y-124410975D01*
X88708421Y-124295979D01*
X88593425Y-124207739D01*
X88593424Y-124207738D01*
X88593422Y-124207737D01*
X88459512Y-124152271D01*
X88459510Y-124152270D01*
X88459509Y-124152270D01*
X88387654Y-124142810D01*
X88315801Y-124133350D01*
X88315799Y-124133350D01*
X88172091Y-124152270D01*
X88172087Y-124152271D01*
X88038177Y-124207737D01*
X87923179Y-124295979D01*
X87834937Y-124410977D01*
X87779471Y-124544887D01*
X87779470Y-124544891D01*
X87760550Y-124688599D01*
X87760550Y-124688600D01*
X80567183Y-124688600D01*
X80694025Y-124636061D01*
X80809021Y-124547821D01*
X80897261Y-124432825D01*
X80952730Y-124298909D01*
X80971650Y-124155200D01*
X80952730Y-124011491D01*
X80897261Y-123877575D01*
X80868572Y-123840187D01*
X84539013Y-123840187D01*
X84557933Y-123983895D01*
X84557934Y-123983899D01*
X84613400Y-124117809D01*
X84613401Y-124117811D01*
X84613402Y-124117812D01*
X84701642Y-124232808D01*
X84816638Y-124321048D01*
X84950554Y-124376517D01*
X85077543Y-124393235D01*
X85094262Y-124395437D01*
X85094263Y-124395437D01*
X85094264Y-124395437D01*
X85109240Y-124393465D01*
X85237972Y-124376517D01*
X85371888Y-124321048D01*
X85486884Y-124232808D01*
X85575124Y-124117812D01*
X85630593Y-123983896D01*
X85649513Y-123840187D01*
X85645374Y-123808750D01*
X85656139Y-123739716D01*
X85702518Y-123687460D01*
X85720861Y-123678004D01*
X85757194Y-123662954D01*
X85799425Y-123645462D01*
X85914421Y-123557222D01*
X86002661Y-123442226D01*
X86058130Y-123308310D01*
X86077050Y-123164601D01*
X86058130Y-123020892D01*
X86002661Y-122886976D01*
X85914421Y-122771980D01*
X85799425Y-122683740D01*
X85799424Y-122683739D01*
X85799422Y-122683738D01*
X85665512Y-122628272D01*
X85665510Y-122628271D01*
X85665509Y-122628271D01*
X85593654Y-122618811D01*
X85521801Y-122609351D01*
X85521799Y-122609351D01*
X85378091Y-122628271D01*
X85378087Y-122628272D01*
X85244177Y-122683738D01*
X85129179Y-122771980D01*
X85040937Y-122886978D01*
X84985471Y-123020888D01*
X84985470Y-123020892D01*
X84966550Y-123164600D01*
X84966550Y-123164605D01*
X84970688Y-123196040D01*
X84959922Y-123265075D01*
X84913541Y-123317330D01*
X84895202Y-123326784D01*
X84816639Y-123359325D01*
X84701642Y-123447566D01*
X84613400Y-123562564D01*
X84557934Y-123696474D01*
X84557933Y-123696478D01*
X84539013Y-123840186D01*
X84539013Y-123840187D01*
X80868572Y-123840187D01*
X80809021Y-123762579D01*
X80694025Y-123674339D01*
X80694024Y-123674338D01*
X80694022Y-123674337D01*
X80560112Y-123618871D01*
X80560110Y-123618870D01*
X80560109Y-123618870D01*
X80488254Y-123609410D01*
X80416401Y-123599950D01*
X80416399Y-123599950D01*
X80272691Y-123618870D01*
X80272687Y-123618871D01*
X80138777Y-123674337D01*
X80023779Y-123762579D01*
X79935537Y-123877577D01*
X79880071Y-124011487D01*
X79880070Y-124011491D01*
X79861536Y-124152271D01*
X79861150Y-124155200D01*
X61540971Y-124155200D01*
X61749644Y-123820148D01*
X62606990Y-122372665D01*
X63431874Y-120906439D01*
X64223887Y-119422200D01*
X64540419Y-118795801D01*
X77244950Y-118795801D01*
X77263870Y-118939509D01*
X77263871Y-118939513D01*
X77319337Y-119073423D01*
X77319338Y-119073425D01*
X77319339Y-119073426D01*
X77407579Y-119188422D01*
X77522575Y-119276662D01*
X77656491Y-119332131D01*
X77783480Y-119348849D01*
X77800199Y-119351051D01*
X77800200Y-119351051D01*
X77800201Y-119351051D01*
X77815177Y-119349079D01*
X77943909Y-119332131D01*
X78077825Y-119276662D01*
X78192821Y-119188422D01*
X78281061Y-119073426D01*
X78336530Y-118939510D01*
X78355450Y-118795801D01*
X78343996Y-118708800D01*
X85815550Y-118708800D01*
X85833306Y-118843671D01*
X85834470Y-118852508D01*
X85834471Y-118852512D01*
X85889937Y-118986422D01*
X85889938Y-118986424D01*
X85889939Y-118986425D01*
X85978179Y-119101421D01*
X86093175Y-119189661D01*
X86227091Y-119245130D01*
X86356951Y-119262226D01*
X86420847Y-119290492D01*
X86428446Y-119297484D01*
X86511250Y-119380288D01*
X86527375Y-119400144D01*
X86533313Y-119409232D01*
X86533316Y-119409236D01*
X86561325Y-119431036D01*
X86567087Y-119436125D01*
X86569882Y-119438920D01*
X86588895Y-119452494D01*
X86632211Y-119486209D01*
X86632218Y-119486211D01*
X86639120Y-119489947D01*
X86646196Y-119493406D01*
X86646201Y-119493410D01*
X86698803Y-119509070D01*
X86750738Y-119526900D01*
X86758472Y-119528190D01*
X86766310Y-119529167D01*
X86766312Y-119529168D01*
X86766313Y-119529167D01*
X86766314Y-119529168D01*
X86821156Y-119526900D01*
X88747773Y-119526900D01*
X88814812Y-119546585D01*
X88823251Y-119552517D01*
X88927174Y-119632261D01*
X89061090Y-119687730D01*
X89188079Y-119704448D01*
X89204798Y-119706650D01*
X89204799Y-119706650D01*
X89204800Y-119706650D01*
X89219776Y-119704678D01*
X89348508Y-119687730D01*
X89482424Y-119632261D01*
X89597420Y-119544021D01*
X89685660Y-119429025D01*
X89705967Y-119380000D01*
X94364550Y-119380000D01*
X94383470Y-119523708D01*
X94383471Y-119523712D01*
X94438937Y-119657622D01*
X94438938Y-119657624D01*
X94438939Y-119657625D01*
X94527179Y-119772621D01*
X94642175Y-119860861D01*
X94776091Y-119916330D01*
X94903080Y-119933048D01*
X94919799Y-119935250D01*
X94919800Y-119935250D01*
X94919801Y-119935250D01*
X94934777Y-119933278D01*
X95063509Y-119916330D01*
X95197425Y-119860861D01*
X95312421Y-119772621D01*
X95400661Y-119657625D01*
X95456130Y-119523709D01*
X95475050Y-119380000D01*
X95456130Y-119236291D01*
X95400661Y-119102375D01*
X95312421Y-118987379D01*
X95197425Y-118899139D01*
X95197424Y-118899138D01*
X95197422Y-118899137D01*
X95063512Y-118843671D01*
X95063510Y-118843670D01*
X95063509Y-118843670D01*
X94991654Y-118834210D01*
X94919801Y-118824750D01*
X94919799Y-118824750D01*
X94776091Y-118843670D01*
X94776087Y-118843671D01*
X94642177Y-118899137D01*
X94527179Y-118987379D01*
X94438937Y-119102377D01*
X94383471Y-119236287D01*
X94383470Y-119236291D01*
X94364550Y-119379999D01*
X94364550Y-119380000D01*
X89705967Y-119380000D01*
X89741129Y-119295109D01*
X89760049Y-119151400D01*
X89741129Y-119007691D01*
X89685660Y-118873775D01*
X89597420Y-118758779D01*
X89482424Y-118670539D01*
X89482423Y-118670538D01*
X89482421Y-118670537D01*
X89348511Y-118615071D01*
X89348509Y-118615070D01*
X89348508Y-118615070D01*
X89276653Y-118605610D01*
X89204800Y-118596150D01*
X89204798Y-118596150D01*
X89061090Y-118615070D01*
X89061086Y-118615071D01*
X88927176Y-118670537D01*
X88926586Y-118670990D01*
X88823258Y-118750276D01*
X88758090Y-118775470D01*
X88747773Y-118775900D01*
X87043629Y-118775900D01*
X86976590Y-118756215D01*
X86930835Y-118703411D01*
X86920690Y-118668086D01*
X86913710Y-118615071D01*
X86907130Y-118565091D01*
X86851661Y-118431175D01*
X86763421Y-118316179D01*
X86648425Y-118227939D01*
X86648424Y-118227938D01*
X86648422Y-118227937D01*
X86514512Y-118172471D01*
X86514510Y-118172470D01*
X86514509Y-118172470D01*
X86442654Y-118163010D01*
X86370801Y-118153550D01*
X86370799Y-118153550D01*
X86227091Y-118172470D01*
X86227087Y-118172471D01*
X86093177Y-118227937D01*
X85978179Y-118316179D01*
X85889937Y-118431177D01*
X85834471Y-118565087D01*
X85834470Y-118565091D01*
X85820588Y-118670537D01*
X85815550Y-118708800D01*
X78343996Y-118708800D01*
X78336530Y-118652092D01*
X78281061Y-118518176D01*
X78192821Y-118403180D01*
X78077825Y-118314940D01*
X78077824Y-118314939D01*
X78077822Y-118314938D01*
X77943912Y-118259472D01*
X77943910Y-118259471D01*
X77943909Y-118259471D01*
X77872054Y-118250011D01*
X77800201Y-118240551D01*
X77800199Y-118240551D01*
X77656491Y-118259471D01*
X77656487Y-118259472D01*
X77522577Y-118314938D01*
X77407579Y-118403180D01*
X77319337Y-118518178D01*
X77263871Y-118652088D01*
X77263870Y-118652092D01*
X77244950Y-118795800D01*
X77244950Y-118795801D01*
X64540419Y-118795801D01*
X64982634Y-117920683D01*
X65707740Y-116402634D01*
X66398845Y-114868807D01*
X66833518Y-113843711D01*
X66877810Y-113789680D01*
X66944286Y-113768169D01*
X66948255Y-113768125D01*
X100768416Y-113946049D01*
G37*
%TD.AperFunction*%
%TD*%
%TA.AperFunction,Conductor*%
%TO.N,+3.3V*%
G36*
X111383612Y-131693285D02*
G01*
X111413888Y-131720751D01*
X111691206Y-132071920D01*
X112762996Y-133368653D01*
X113247572Y-133929024D01*
X113283027Y-133970024D01*
X113311988Y-134033609D01*
X113313231Y-134050723D01*
X113315908Y-134861703D01*
X113316402Y-135043792D01*
X113295682Y-135694598D01*
X113282181Y-136096460D01*
X113241557Y-136702298D01*
X113210415Y-137147226D01*
X113150446Y-137732650D01*
X113101199Y-138194719D01*
X113022110Y-138767518D01*
X112954673Y-139237633D01*
X112856618Y-139800974D01*
X112771032Y-140274605D01*
X112654148Y-140829904D01*
X112550506Y-141304352D01*
X112414932Y-141852211D01*
X112293388Y-142325516D01*
X112139281Y-142866091D01*
X111999995Y-143336855D01*
X111827534Y-143870029D01*
X111670726Y-144337005D01*
X111480060Y-144862655D01*
X111305994Y-145324736D01*
X111097345Y-145842469D01*
X110906265Y-146298791D01*
X110679853Y-146808225D01*
X110472059Y-147257916D01*
X110228112Y-147758640D01*
X110003942Y-148200876D01*
X109742694Y-148692474D01*
X109502540Y-149126436D01*
X109224216Y-149608507D01*
X108975920Y-150021093D01*
X108968484Y-150033448D01*
X108906030Y-150133347D01*
X108673336Y-150505551D01*
X108402462Y-150920760D01*
X108090789Y-151382397D01*
X107805223Y-151787224D01*
X107477276Y-152237980D01*
X107177593Y-152631670D01*
X106833583Y-153071185D01*
X106520407Y-153453014D01*
X106160534Y-153880936D01*
X105834546Y-154250200D01*
X105459004Y-154666176D01*
X105120962Y-155022174D01*
X104729873Y-155425912D01*
X104380759Y-155767818D01*
X103974050Y-156159192D01*
X103615085Y-156486084D01*
X103192528Y-156865044D01*
X102825225Y-157175911D01*
X102386311Y-157542561D01*
X102012979Y-157835957D01*
X101556386Y-158190911D01*
X101180890Y-158464562D01*
X100703847Y-158809233D01*
X100334075Y-159058684D01*
X99829744Y-159396766D01*
X99488404Y-159609431D01*
X98935218Y-159952736D01*
X98777375Y-160043297D01*
X98073604Y-160446528D01*
X98005650Y-160462776D01*
X97988615Y-160460720D01*
X97207798Y-160311046D01*
X95548899Y-160031216D01*
X93884178Y-159788416D01*
X92214460Y-159582764D01*
X90540574Y-159414365D01*
X88863352Y-159283301D01*
X87183627Y-159189637D01*
X85502232Y-159133420D01*
X83820001Y-159114678D01*
X82137770Y-159133420D01*
X80456375Y-159189637D01*
X78776650Y-159283301D01*
X77099428Y-159414365D01*
X75425542Y-159582764D01*
X73755824Y-159788416D01*
X72091103Y-160031216D01*
X70432204Y-160311046D01*
X69651384Y-160460720D01*
X69581838Y-160454008D01*
X69566395Y-160446528D01*
X68865649Y-160045029D01*
X68704730Y-159952703D01*
X68153093Y-159610361D01*
X67810166Y-159396706D01*
X67306825Y-159059289D01*
X66936081Y-158809183D01*
X66459741Y-158465019D01*
X66083524Y-158190842D01*
X65627560Y-157836377D01*
X65253597Y-157542485D01*
X65070434Y-157389478D01*
X69308300Y-157389478D01*
X69322832Y-157462535D01*
X69322833Y-157462539D01*
X69322834Y-157462540D01*
X69378199Y-157545401D01*
X69461060Y-157600766D01*
X69461064Y-157600767D01*
X69534121Y-157615299D01*
X69534124Y-157615300D01*
X69534126Y-157615300D01*
X71283476Y-157615300D01*
X71283477Y-157615299D01*
X71356540Y-157600766D01*
X71439401Y-157545401D01*
X71494766Y-157462540D01*
X71509300Y-157389474D01*
X71509300Y-156514800D01*
X71843585Y-156514800D01*
X71862402Y-156717882D01*
X71918217Y-156914047D01*
X71918222Y-156914060D01*
X72009127Y-157096621D01*
X72132037Y-157259381D01*
X72282758Y-157396780D01*
X72282760Y-157396782D01*
X72381941Y-157458192D01*
X72456163Y-157504148D01*
X72646344Y-157577824D01*
X72846824Y-157615300D01*
X72846826Y-157615300D01*
X73050774Y-157615300D01*
X73050776Y-157615300D01*
X73251256Y-157577824D01*
X73441437Y-157504148D01*
X73614841Y-157396781D01*
X73765564Y-157259379D01*
X73888473Y-157096621D01*
X73979382Y-156914050D01*
X74035197Y-156717883D01*
X74054015Y-156514800D01*
X74383585Y-156514800D01*
X74402402Y-156717882D01*
X74458217Y-156914047D01*
X74458222Y-156914060D01*
X74549127Y-157096621D01*
X74672037Y-157259381D01*
X74822758Y-157396780D01*
X74822760Y-157396782D01*
X74921941Y-157458192D01*
X74996163Y-157504148D01*
X75186344Y-157577824D01*
X75386824Y-157615300D01*
X75386826Y-157615300D01*
X75590774Y-157615300D01*
X75590776Y-157615300D01*
X75791256Y-157577824D01*
X75981437Y-157504148D01*
X76154841Y-157396781D01*
X76305564Y-157259379D01*
X76428473Y-157096621D01*
X76519382Y-156914050D01*
X76575197Y-156717883D01*
X76594015Y-156514800D01*
X76923585Y-156514800D01*
X76942402Y-156717882D01*
X76998217Y-156914047D01*
X76998222Y-156914060D01*
X77089127Y-157096621D01*
X77212037Y-157259381D01*
X77362758Y-157396780D01*
X77362760Y-157396782D01*
X77461941Y-157458192D01*
X77536163Y-157504148D01*
X77726344Y-157577824D01*
X77926824Y-157615300D01*
X77926826Y-157615300D01*
X78130774Y-157615300D01*
X78130776Y-157615300D01*
X78331256Y-157577824D01*
X78521437Y-157504148D01*
X78694841Y-157396781D01*
X78845564Y-157259379D01*
X78968473Y-157096621D01*
X79059382Y-156914050D01*
X79115197Y-156717883D01*
X79134015Y-156514800D01*
X79463585Y-156514800D01*
X79482402Y-156717882D01*
X79538217Y-156914047D01*
X79538222Y-156914060D01*
X79629127Y-157096621D01*
X79752037Y-157259381D01*
X79902758Y-157396780D01*
X79902760Y-157396782D01*
X80001941Y-157458192D01*
X80076163Y-157504148D01*
X80266344Y-157577824D01*
X80466824Y-157615300D01*
X80466826Y-157615300D01*
X80670774Y-157615300D01*
X80670776Y-157615300D01*
X80871256Y-157577824D01*
X81061437Y-157504148D01*
X81234841Y-157396781D01*
X81385564Y-157259379D01*
X81508473Y-157096621D01*
X81599382Y-156914050D01*
X81655197Y-156717883D01*
X81674015Y-156514800D01*
X81671385Y-156486422D01*
X81655197Y-156311717D01*
X81655196Y-156311715D01*
X81599382Y-156115550D01*
X81596636Y-156110036D01*
X81534937Y-155986126D01*
X81508473Y-155932979D01*
X81385564Y-155770221D01*
X81385562Y-155770218D01*
X81234841Y-155632819D01*
X81234839Y-155632817D01*
X81061442Y-155525455D01*
X81061435Y-155525451D01*
X80954950Y-155484199D01*
X80871256Y-155451776D01*
X80670776Y-155414300D01*
X80466824Y-155414300D01*
X80266344Y-155451776D01*
X80266341Y-155451776D01*
X80266341Y-155451777D01*
X80076164Y-155525451D01*
X80076157Y-155525455D01*
X79902760Y-155632817D01*
X79902758Y-155632819D01*
X79752037Y-155770218D01*
X79629127Y-155932978D01*
X79538222Y-156115539D01*
X79538217Y-156115552D01*
X79482402Y-156311717D01*
X79463585Y-156514799D01*
X79463585Y-156514800D01*
X79134015Y-156514800D01*
X79131385Y-156486422D01*
X79115197Y-156311717D01*
X79115196Y-156311715D01*
X79059382Y-156115550D01*
X79056636Y-156110036D01*
X78994937Y-155986126D01*
X78968473Y-155932979D01*
X78845564Y-155770221D01*
X78845562Y-155770218D01*
X78694841Y-155632819D01*
X78694839Y-155632817D01*
X78521442Y-155525455D01*
X78521435Y-155525451D01*
X78414950Y-155484199D01*
X78331256Y-155451776D01*
X78130776Y-155414300D01*
X77926824Y-155414300D01*
X77726344Y-155451776D01*
X77726341Y-155451776D01*
X77726341Y-155451777D01*
X77536164Y-155525451D01*
X77536157Y-155525455D01*
X77362760Y-155632817D01*
X77362758Y-155632819D01*
X77212037Y-155770218D01*
X77089127Y-155932978D01*
X76998222Y-156115539D01*
X76998217Y-156115552D01*
X76942402Y-156311717D01*
X76923585Y-156514799D01*
X76923585Y-156514800D01*
X76594015Y-156514800D01*
X76591385Y-156486422D01*
X76575197Y-156311717D01*
X76575196Y-156311715D01*
X76519382Y-156115550D01*
X76516636Y-156110036D01*
X76454937Y-155986126D01*
X76428473Y-155932979D01*
X76305564Y-155770221D01*
X76305562Y-155770218D01*
X76154841Y-155632819D01*
X76154839Y-155632817D01*
X75981442Y-155525455D01*
X75981435Y-155525451D01*
X75874950Y-155484199D01*
X75791256Y-155451776D01*
X75590776Y-155414300D01*
X75386824Y-155414300D01*
X75186344Y-155451776D01*
X75186341Y-155451776D01*
X75186341Y-155451777D01*
X74996164Y-155525451D01*
X74996157Y-155525455D01*
X74822760Y-155632817D01*
X74822758Y-155632819D01*
X74672037Y-155770218D01*
X74549127Y-155932978D01*
X74458222Y-156115539D01*
X74458217Y-156115552D01*
X74402402Y-156311717D01*
X74383585Y-156514799D01*
X74383585Y-156514800D01*
X74054015Y-156514800D01*
X74051385Y-156486422D01*
X74035197Y-156311717D01*
X74035196Y-156311715D01*
X73979382Y-156115550D01*
X73976636Y-156110036D01*
X73914937Y-155986126D01*
X73888473Y-155932979D01*
X73765564Y-155770221D01*
X73765562Y-155770218D01*
X73614841Y-155632819D01*
X73614839Y-155632817D01*
X73441442Y-155525455D01*
X73441435Y-155525451D01*
X73334950Y-155484199D01*
X73251256Y-155451776D01*
X73050776Y-155414300D01*
X72846824Y-155414300D01*
X72646344Y-155451776D01*
X72646341Y-155451776D01*
X72646341Y-155451777D01*
X72456164Y-155525451D01*
X72456157Y-155525455D01*
X72282760Y-155632817D01*
X72282758Y-155632819D01*
X72132037Y-155770218D01*
X72009127Y-155932978D01*
X71918222Y-156115539D01*
X71918217Y-156115552D01*
X71862402Y-156311717D01*
X71843585Y-156514799D01*
X71843585Y-156514800D01*
X71509300Y-156514800D01*
X71509300Y-155640126D01*
X71509300Y-155640123D01*
X71509299Y-155640121D01*
X71494767Y-155567064D01*
X71494766Y-155567060D01*
X71439401Y-155484199D01*
X71356540Y-155428834D01*
X71356539Y-155428833D01*
X71356535Y-155428832D01*
X71283477Y-155414300D01*
X71283474Y-155414300D01*
X69534126Y-155414300D01*
X69534123Y-155414300D01*
X69461064Y-155428832D01*
X69461060Y-155428833D01*
X69378199Y-155484199D01*
X69322833Y-155567060D01*
X69322832Y-155567064D01*
X69308300Y-155640121D01*
X69308300Y-157389478D01*
X65070434Y-157389478D01*
X64815202Y-157176268D01*
X64505391Y-156914060D01*
X64447368Y-156864952D01*
X64025291Y-156486422D01*
X63665841Y-156159088D01*
X63259543Y-155768109D01*
X62910047Y-155425830D01*
X62519236Y-155022379D01*
X62180921Y-154666094D01*
X62174844Y-154659363D01*
X61805639Y-154250405D01*
X61479378Y-153880833D01*
X61172411Y-153515820D01*
X61119732Y-153453179D01*
X60806352Y-153071102D01*
X60462527Y-152631824D01*
X60162648Y-152237876D01*
X60132762Y-152196799D01*
X59968576Y-151971129D01*
X59834889Y-151787379D01*
X59549130Y-151382279D01*
X59510127Y-151324510D01*
X59237656Y-150920938D01*
X59033727Y-150608344D01*
X58966563Y-150505392D01*
X58965491Y-150503678D01*
X58767010Y-150186196D01*
X58671631Y-150033632D01*
X58415687Y-149608340D01*
X58375360Y-149538492D01*
X58137560Y-149126610D01*
X58108195Y-149073546D01*
X57897204Y-148692284D01*
X57895897Y-148689825D01*
X57636139Y-148201031D01*
X57588395Y-148106844D01*
X64136029Y-148106844D01*
X64155051Y-148275677D01*
X64211171Y-148436060D01*
X64286479Y-148555912D01*
X64301569Y-148579927D01*
X64421714Y-148700072D01*
X64506809Y-148753541D01*
X64561173Y-148787700D01*
X64565582Y-148790470D01*
X64725958Y-148846588D01*
X64725961Y-148846588D01*
X64725963Y-148846589D01*
X64894796Y-148865612D01*
X64894800Y-148865612D01*
X64894804Y-148865612D01*
X65063636Y-148846589D01*
X65063637Y-148846588D01*
X65063642Y-148846588D01*
X65224018Y-148790470D01*
X65367886Y-148700072D01*
X65488031Y-148579927D01*
X65578429Y-148436059D01*
X65634547Y-148275683D01*
X65634548Y-148275677D01*
X65653571Y-148106844D01*
X65653571Y-148106837D01*
X65634548Y-147938004D01*
X65634547Y-147938002D01*
X65634547Y-147937999D01*
X65578429Y-147777623D01*
X65488031Y-147633755D01*
X65367886Y-147513610D01*
X65224019Y-147423212D01*
X65063636Y-147367092D01*
X64894804Y-147348070D01*
X64894796Y-147348070D01*
X64725963Y-147367092D01*
X64565580Y-147423212D01*
X64421713Y-147513610D01*
X64301569Y-147633754D01*
X64211171Y-147777621D01*
X64155051Y-147938004D01*
X64136029Y-148106837D01*
X64136029Y-148106844D01*
X57588395Y-148106844D01*
X57552621Y-148036270D01*
X57411817Y-147758498D01*
X57168001Y-147258041D01*
X57167943Y-147257916D01*
X56960071Y-146808056D01*
X56733794Y-146298926D01*
X56654029Y-146108437D01*
X56542553Y-145842220D01*
X56521598Y-145790224D01*
X56334062Y-145324877D01*
X56301035Y-145237201D01*
X56159843Y-144862389D01*
X55969325Y-144337150D01*
X55816032Y-143880640D01*
X61696029Y-143880640D01*
X61715051Y-144049473D01*
X61771171Y-144209856D01*
X61844369Y-144326350D01*
X61861569Y-144353723D01*
X61981714Y-144473868D01*
X62125582Y-144564266D01*
X62285958Y-144620384D01*
X62285961Y-144620384D01*
X62285963Y-144620385D01*
X62454796Y-144639408D01*
X62454800Y-144639408D01*
X62454804Y-144639408D01*
X62623636Y-144620385D01*
X62623637Y-144620384D01*
X62623642Y-144620384D01*
X62784018Y-144564266D01*
X62927886Y-144473868D01*
X63048031Y-144353723D01*
X63138429Y-144209855D01*
X63194547Y-144049479D01*
X63194548Y-144049473D01*
X63213571Y-143880640D01*
X63213571Y-143880633D01*
X63194548Y-143711800D01*
X63194547Y-143711798D01*
X63194547Y-143711795D01*
X63138429Y-143551419D01*
X63127836Y-143534561D01*
X63082325Y-143462130D01*
X63048031Y-143407551D01*
X62927886Y-143287406D01*
X62899400Y-143269507D01*
X62784019Y-143197008D01*
X62623636Y-143140888D01*
X62454804Y-143121866D01*
X62454796Y-143121866D01*
X62285963Y-143140888D01*
X62125580Y-143197008D01*
X61981713Y-143287406D01*
X61861569Y-143407550D01*
X61771171Y-143551417D01*
X61715051Y-143711800D01*
X61696029Y-143880633D01*
X61696029Y-143880640D01*
X55816032Y-143880640D01*
X55812378Y-143869759D01*
X55640043Y-143336975D01*
X55521245Y-142935456D01*
X55500615Y-142865729D01*
X55350722Y-142339937D01*
X55346652Y-142325661D01*
X55343471Y-142313271D01*
X55224996Y-141851925D01*
X55089515Y-141304439D01*
X54985772Y-140829530D01*
X54953606Y-140676712D01*
X64912061Y-140676712D01*
X64930981Y-140820420D01*
X64930982Y-140820424D01*
X64986449Y-140954335D01*
X64986450Y-140954337D01*
X65031050Y-141012460D01*
X65056245Y-141077629D01*
X65042207Y-141146074D01*
X65031052Y-141163432D01*
X65004226Y-141198392D01*
X65004226Y-141198393D01*
X64948759Y-141332304D01*
X64948758Y-141332308D01*
X64932978Y-141452170D01*
X64929838Y-141476017D01*
X64945618Y-141595879D01*
X64948758Y-141619725D01*
X64948759Y-141619729D01*
X65004225Y-141753639D01*
X65004226Y-141753641D01*
X65004227Y-141753642D01*
X65092467Y-141868638D01*
X65207463Y-141956878D01*
X65207464Y-141956878D01*
X65207465Y-141956879D01*
X65220642Y-141962337D01*
X65341379Y-142012347D01*
X65468368Y-142029065D01*
X65485087Y-142031267D01*
X65485088Y-142031267D01*
X65485089Y-142031267D01*
X65500065Y-142029295D01*
X65628797Y-142012347D01*
X65762713Y-141956878D01*
X65803824Y-141925332D01*
X65868991Y-141900139D01*
X65937436Y-141914177D01*
X65966990Y-141936028D01*
X66427181Y-142396219D01*
X66460666Y-142457542D01*
X66455682Y-142527234D01*
X66413810Y-142583167D01*
X66348346Y-142607584D01*
X66339500Y-142607900D01*
X65945025Y-142607900D01*
X65877986Y-142588215D01*
X65869546Y-142582282D01*
X65765624Y-142502539D01*
X65765623Y-142502538D01*
X65765621Y-142502537D01*
X65631711Y-142447071D01*
X65631709Y-142447070D01*
X65631708Y-142447070D01*
X65559853Y-142437610D01*
X65488000Y-142428150D01*
X65487998Y-142428150D01*
X65344290Y-142447070D01*
X65344286Y-142447071D01*
X65210376Y-142502537D01*
X65095378Y-142590779D01*
X65007136Y-142705777D01*
X64951670Y-142839687D01*
X64951669Y-142839691D01*
X64933259Y-142979530D01*
X64932749Y-142983400D01*
X64942029Y-143053891D01*
X64951669Y-143127108D01*
X64951670Y-143127112D01*
X65007136Y-143261022D01*
X65007137Y-143261024D01*
X65007138Y-143261025D01*
X65095378Y-143376021D01*
X65210374Y-143464261D01*
X65344290Y-143519730D01*
X65471279Y-143536448D01*
X65487998Y-143538650D01*
X65487999Y-143538650D01*
X65488000Y-143538650D01*
X65502976Y-143536678D01*
X65631708Y-143519730D01*
X65765624Y-143464261D01*
X65869539Y-143384523D01*
X65934708Y-143359330D01*
X65945025Y-143358900D01*
X66702104Y-143358900D01*
X66769143Y-143378585D01*
X66789785Y-143395219D01*
X67904653Y-144510088D01*
X67938138Y-144571411D01*
X67933154Y-144641103D01*
X67891282Y-144697036D01*
X67864425Y-144712330D01*
X67758176Y-144756339D01*
X67643179Y-144844580D01*
X67554937Y-144959578D01*
X67499471Y-145093488D01*
X67499470Y-145093492D01*
X67480550Y-145237200D01*
X67480550Y-145237201D01*
X67499470Y-145380909D01*
X67499471Y-145380913D01*
X67554937Y-145514823D01*
X67554938Y-145514825D01*
X67554939Y-145514826D01*
X67634676Y-145618741D01*
X67659870Y-145683910D01*
X67660300Y-145694227D01*
X67660300Y-150279997D01*
X67657662Y-150305435D01*
X67655433Y-150316069D01*
X67655433Y-150316070D01*
X67655433Y-150316072D01*
X67659823Y-150351292D01*
X67660300Y-150358968D01*
X67660300Y-150362917D01*
X67664142Y-150385942D01*
X67670934Y-150440428D01*
X67673173Y-150447948D01*
X67675734Y-150455409D01*
X67675735Y-150455411D01*
X67694546Y-150490171D01*
X67701855Y-150503678D01*
X67725974Y-150553012D01*
X67730542Y-150559410D01*
X67735382Y-150565628D01*
X67775771Y-150602810D01*
X69496181Y-152323219D01*
X69529666Y-152384542D01*
X69532500Y-152410900D01*
X69532500Y-152788593D01*
X69529862Y-152814031D01*
X69527633Y-152824665D01*
X69527633Y-152824666D01*
X69527633Y-152824668D01*
X69532023Y-152859888D01*
X69532500Y-152867564D01*
X69532500Y-152871513D01*
X69536342Y-152894538D01*
X69543134Y-152949024D01*
X69545373Y-152956544D01*
X69547934Y-152964005D01*
X69547935Y-152964007D01*
X69574055Y-153012274D01*
X69598174Y-153061608D01*
X69602742Y-153068006D01*
X69607582Y-153074224D01*
X69647971Y-153111406D01*
X70319453Y-153782887D01*
X70335581Y-153802746D01*
X70341520Y-153811837D01*
X70369536Y-153833642D01*
X70375297Y-153838731D01*
X70378086Y-153841520D01*
X70397087Y-153855086D01*
X70430299Y-153880936D01*
X70440415Y-153888810D01*
X70447326Y-153892550D01*
X70454404Y-153896011D01*
X70507009Y-153911672D01*
X70558944Y-153929501D01*
X70558946Y-153929501D01*
X70566683Y-153930792D01*
X70574513Y-153931768D01*
X70574515Y-153931769D01*
X70574516Y-153931768D01*
X70574517Y-153931769D01*
X70629359Y-153929501D01*
X73844837Y-153929501D01*
X73911876Y-153949186D01*
X73957631Y-154001990D01*
X73967776Y-154069687D01*
X73953450Y-154178500D01*
X73953450Y-154178501D01*
X73972370Y-154322209D01*
X73972371Y-154322213D01*
X74027837Y-154456123D01*
X74027838Y-154456125D01*
X74027839Y-154456126D01*
X74116079Y-154571122D01*
X74231075Y-154659362D01*
X74231076Y-154659362D01*
X74231077Y-154659363D01*
X74275713Y-154677851D01*
X74364991Y-154714831D01*
X74491980Y-154731549D01*
X74508699Y-154733751D01*
X74508700Y-154733751D01*
X74508701Y-154733751D01*
X74523677Y-154731779D01*
X74652409Y-154714831D01*
X74786325Y-154659362D01*
X74901321Y-154571122D01*
X74989561Y-154456126D01*
X75045030Y-154322210D01*
X75063950Y-154178501D01*
X75049624Y-154069686D01*
X75060389Y-154000651D01*
X75106769Y-153948395D01*
X75172563Y-153929501D01*
X83522502Y-153929501D01*
X83589541Y-153949186D01*
X83610183Y-153965820D01*
X85630489Y-155986126D01*
X85663974Y-156047449D01*
X85659531Y-156109565D01*
X85661186Y-156110036D01*
X85603803Y-156311715D01*
X85603802Y-156311717D01*
X85584985Y-156514799D01*
X85584985Y-156514800D01*
X85603802Y-156717882D01*
X85659617Y-156914047D01*
X85659622Y-156914060D01*
X85750527Y-157096621D01*
X85873437Y-157259381D01*
X86024158Y-157396780D01*
X86024160Y-157396782D01*
X86123341Y-157458192D01*
X86197563Y-157504148D01*
X86387744Y-157577824D01*
X86588224Y-157615300D01*
X86588226Y-157615300D01*
X86792174Y-157615300D01*
X86792176Y-157615300D01*
X86992656Y-157577824D01*
X87182837Y-157504148D01*
X87356241Y-157396781D01*
X87506964Y-157259379D01*
X87629873Y-157096621D01*
X87720782Y-156914050D01*
X87776597Y-156717883D01*
X87795415Y-156514800D01*
X87792785Y-156486422D01*
X87776597Y-156311717D01*
X87776596Y-156311715D01*
X87720782Y-156115550D01*
X87718036Y-156110036D01*
X87656337Y-155986126D01*
X87629873Y-155932979D01*
X87506964Y-155770221D01*
X87506962Y-155770218D01*
X87356241Y-155632819D01*
X87356239Y-155632817D01*
X87182842Y-155525455D01*
X87182835Y-155525451D01*
X87076350Y-155484199D01*
X86992656Y-155451776D01*
X86792176Y-155414300D01*
X86588224Y-155414300D01*
X86510484Y-155428832D01*
X86387736Y-155451777D01*
X86297643Y-155486679D01*
X86228020Y-155492540D01*
X86166280Y-155459830D01*
X86165170Y-155458733D01*
X84397620Y-153691182D01*
X84364135Y-153629859D01*
X84369119Y-153560167D01*
X84410991Y-153504234D01*
X84476455Y-153479817D01*
X84485301Y-153479501D01*
X85612502Y-153479501D01*
X85679541Y-153499186D01*
X85700183Y-153515820D01*
X88170489Y-155986126D01*
X88203974Y-156047449D01*
X88199531Y-156109565D01*
X88201186Y-156110036D01*
X88143803Y-156311715D01*
X88143802Y-156311717D01*
X88124985Y-156514799D01*
X88124985Y-156514800D01*
X88143802Y-156717882D01*
X88199617Y-156914047D01*
X88199622Y-156914060D01*
X88290527Y-157096621D01*
X88413437Y-157259381D01*
X88564158Y-157396780D01*
X88564160Y-157396782D01*
X88663341Y-157458192D01*
X88737563Y-157504148D01*
X88927744Y-157577824D01*
X89128224Y-157615300D01*
X89128226Y-157615300D01*
X89332174Y-157615300D01*
X89332176Y-157615300D01*
X89532656Y-157577824D01*
X89722837Y-157504148D01*
X89896241Y-157396781D01*
X89904252Y-157389478D01*
X90669700Y-157389478D01*
X90684232Y-157462535D01*
X90684233Y-157462539D01*
X90684234Y-157462540D01*
X90739599Y-157545401D01*
X90822460Y-157600766D01*
X90822464Y-157600767D01*
X90895521Y-157615299D01*
X90895524Y-157615300D01*
X90895526Y-157615300D01*
X92644876Y-157615300D01*
X92644877Y-157615299D01*
X92717940Y-157600766D01*
X92800801Y-157545401D01*
X92856166Y-157462540D01*
X92870700Y-157389474D01*
X92870700Y-156514800D01*
X94352985Y-156514800D01*
X94371802Y-156717882D01*
X94427617Y-156914047D01*
X94427622Y-156914060D01*
X94518527Y-157096621D01*
X94641437Y-157259381D01*
X94792158Y-157396780D01*
X94792160Y-157396782D01*
X94891341Y-157458192D01*
X94965563Y-157504148D01*
X95155744Y-157577824D01*
X95356224Y-157615300D01*
X95356226Y-157615300D01*
X95560174Y-157615300D01*
X95560176Y-157615300D01*
X95760656Y-157577824D01*
X95950837Y-157504148D01*
X96124241Y-157396781D01*
X96132252Y-157389478D01*
X96897700Y-157389478D01*
X96912232Y-157462535D01*
X96912233Y-157462539D01*
X96912234Y-157462540D01*
X96967599Y-157545401D01*
X97050460Y-157600766D01*
X97050464Y-157600767D01*
X97123521Y-157615299D01*
X97123524Y-157615300D01*
X97123526Y-157615300D01*
X98872876Y-157615300D01*
X98872877Y-157615299D01*
X98945940Y-157600766D01*
X99028801Y-157545401D01*
X99084166Y-157462540D01*
X99098700Y-157389474D01*
X99098700Y-155640126D01*
X99098700Y-155640123D01*
X99098699Y-155640121D01*
X99084167Y-155567064D01*
X99084166Y-155567060D01*
X99028801Y-155484199D01*
X98945940Y-155428834D01*
X98945939Y-155428833D01*
X98945935Y-155428832D01*
X98872877Y-155414300D01*
X98872874Y-155414300D01*
X97123526Y-155414300D01*
X97123523Y-155414300D01*
X97050464Y-155428832D01*
X97050460Y-155428833D01*
X96967599Y-155484199D01*
X96912233Y-155567060D01*
X96912232Y-155567064D01*
X96897700Y-155640121D01*
X96897700Y-157389478D01*
X96132252Y-157389478D01*
X96274964Y-157259379D01*
X96397873Y-157096621D01*
X96488782Y-156914050D01*
X96544597Y-156717883D01*
X96563415Y-156514800D01*
X96560785Y-156486422D01*
X96544597Y-156311717D01*
X96544596Y-156311715D01*
X96488782Y-156115550D01*
X96486036Y-156110036D01*
X96424337Y-155986126D01*
X96397873Y-155932979D01*
X96274964Y-155770221D01*
X96274962Y-155770218D01*
X96124241Y-155632819D01*
X96124239Y-155632817D01*
X95950842Y-155525455D01*
X95950835Y-155525451D01*
X95844350Y-155484199D01*
X95760656Y-155451776D01*
X95560176Y-155414300D01*
X95356224Y-155414300D01*
X95155744Y-155451776D01*
X95155741Y-155451776D01*
X95155741Y-155451777D01*
X94965564Y-155525451D01*
X94965557Y-155525455D01*
X94792160Y-155632817D01*
X94792158Y-155632819D01*
X94641437Y-155770218D01*
X94518527Y-155932978D01*
X94427622Y-156115539D01*
X94427617Y-156115552D01*
X94371802Y-156311717D01*
X94352985Y-156514799D01*
X94352985Y-156514800D01*
X92870700Y-156514800D01*
X92870700Y-155640126D01*
X92870700Y-155640123D01*
X92870699Y-155640121D01*
X92856167Y-155567064D01*
X92856166Y-155567060D01*
X92800801Y-155484199D01*
X92717940Y-155428834D01*
X92717939Y-155428833D01*
X92717935Y-155428832D01*
X92644877Y-155414300D01*
X92644874Y-155414300D01*
X90895526Y-155414300D01*
X90895523Y-155414300D01*
X90822464Y-155428832D01*
X90822460Y-155428833D01*
X90739599Y-155484199D01*
X90684233Y-155567060D01*
X90684232Y-155567064D01*
X90669700Y-155640121D01*
X90669700Y-157389478D01*
X89904252Y-157389478D01*
X90046964Y-157259379D01*
X90169873Y-157096621D01*
X90260782Y-156914050D01*
X90316597Y-156717883D01*
X90335415Y-156514800D01*
X90332785Y-156486422D01*
X90316597Y-156311717D01*
X90316596Y-156311715D01*
X90260782Y-156115550D01*
X90258036Y-156110036D01*
X90196337Y-155986126D01*
X90169873Y-155932979D01*
X90046964Y-155770221D01*
X90046962Y-155770218D01*
X89896241Y-155632819D01*
X89896239Y-155632817D01*
X89722842Y-155525455D01*
X89722835Y-155525451D01*
X89616350Y-155484199D01*
X89532656Y-155451776D01*
X89332176Y-155414300D01*
X89128224Y-155414300D01*
X89050484Y-155428832D01*
X88927736Y-155451777D01*
X88837643Y-155486679D01*
X88768020Y-155492540D01*
X88706280Y-155459830D01*
X88705170Y-155458733D01*
X87638087Y-154391650D01*
X86598389Y-153351951D01*
X86564906Y-153290631D01*
X86569890Y-153220939D01*
X86611762Y-153165006D01*
X86639482Y-153151064D01*
X86639309Y-153150714D01*
X86639452Y-153150643D01*
X86641848Y-153149874D01*
X86650692Y-153145427D01*
X86656754Y-153143622D01*
X86664199Y-153141066D01*
X86664199Y-153141065D01*
X86664203Y-153141065D01*
X86712470Y-153114944D01*
X86761804Y-153090826D01*
X86761807Y-153090823D01*
X86768187Y-153086268D01*
X86774412Y-153081422D01*
X86774419Y-153081419D01*
X86811601Y-153041028D01*
X86992741Y-152859888D01*
X87244011Y-152608619D01*
X87305334Y-152575134D01*
X87331692Y-152572300D01*
X97790170Y-152572300D01*
X97857209Y-152591985D01*
X97865648Y-152597917D01*
X97969571Y-152677661D01*
X98103487Y-152733130D01*
X98230476Y-152749848D01*
X98247195Y-152752050D01*
X98247196Y-152752050D01*
X98247197Y-152752050D01*
X98262173Y-152750078D01*
X98390905Y-152733130D01*
X98524821Y-152677661D01*
X98639817Y-152589421D01*
X98728057Y-152474425D01*
X98783526Y-152340509D01*
X98802446Y-152196800D01*
X98783526Y-152053091D01*
X98728057Y-151919175D01*
X98639817Y-151804179D01*
X98524821Y-151715939D01*
X98524820Y-151715938D01*
X98524818Y-151715937D01*
X98390908Y-151660471D01*
X98390906Y-151660470D01*
X98390905Y-151660470D01*
X98319050Y-151651010D01*
X98247197Y-151641550D01*
X98247195Y-151641550D01*
X98103487Y-151660470D01*
X98103483Y-151660471D01*
X97969573Y-151715937D01*
X97928488Y-151747463D01*
X97865655Y-151795676D01*
X97800487Y-151820870D01*
X97790170Y-151821300D01*
X97564468Y-151821300D01*
X97497429Y-151801615D01*
X97451674Y-151748811D01*
X97441730Y-151679653D01*
X97470755Y-151616097D01*
X97488974Y-151598929D01*
X97522221Y-151573419D01*
X97610461Y-151458423D01*
X97665930Y-151324507D01*
X97684850Y-151180798D01*
X97665930Y-151037089D01*
X97610461Y-150903173D01*
X97522221Y-150788177D01*
X97407225Y-150699937D01*
X97407224Y-150699936D01*
X97407222Y-150699935D01*
X97291938Y-150652184D01*
X97237534Y-150608344D01*
X97215469Y-150542050D01*
X97224829Y-150490171D01*
X97249587Y-150430399D01*
X97258476Y-150408939D01*
X97277396Y-150265230D01*
X97258476Y-150121521D01*
X97203007Y-149987605D01*
X97114767Y-149872609D01*
X96999771Y-149784369D01*
X96999770Y-149784368D01*
X96999768Y-149784367D01*
X96865858Y-149728901D01*
X96865856Y-149728900D01*
X96865855Y-149728900D01*
X96794000Y-149719440D01*
X96722147Y-149709980D01*
X96722145Y-149709980D01*
X96578437Y-149728900D01*
X96578433Y-149728901D01*
X96444523Y-149784367D01*
X96419328Y-149803700D01*
X96340605Y-149864106D01*
X96275437Y-149889300D01*
X96265120Y-149889730D01*
X95991864Y-149889730D01*
X95924825Y-149870045D01*
X95879070Y-149817241D01*
X95869126Y-149748083D01*
X95881027Y-149713694D01*
X95880157Y-149713334D01*
X95898789Y-149668351D01*
X95938736Y-149571909D01*
X95957656Y-149428200D01*
X95938736Y-149284491D01*
X95883267Y-149150575D01*
X95795027Y-149035579D01*
X95761790Y-149010075D01*
X95720588Y-148953647D01*
X95716433Y-148883901D01*
X95750646Y-148822981D01*
X95812363Y-148790229D01*
X95837277Y-148787700D01*
X96088374Y-148787700D01*
X96155413Y-148807385D01*
X96163852Y-148813317D01*
X96267775Y-148893061D01*
X96401691Y-148948530D01*
X96528680Y-148965248D01*
X96545399Y-148967450D01*
X96545400Y-148967450D01*
X96545401Y-148967450D01*
X96560377Y-148965478D01*
X96689109Y-148948530D01*
X96823025Y-148893061D01*
X96938021Y-148804821D01*
X97026261Y-148689825D01*
X97081730Y-148555909D01*
X97100650Y-148412200D01*
X97081730Y-148268491D01*
X97026261Y-148134575D01*
X96938021Y-148019579D01*
X96823025Y-147931339D01*
X96823024Y-147931338D01*
X96823022Y-147931337D01*
X96689112Y-147875871D01*
X96689110Y-147875870D01*
X96689109Y-147875870D01*
X96617254Y-147866410D01*
X96545401Y-147856950D01*
X96545399Y-147856950D01*
X96401691Y-147875870D01*
X96401687Y-147875871D01*
X96267777Y-147931337D01*
X96259089Y-147938004D01*
X96163859Y-148011076D01*
X96098691Y-148036270D01*
X96088374Y-148036700D01*
X84023179Y-148036700D01*
X83956140Y-148017015D01*
X83935498Y-148000381D01*
X83523753Y-147588636D01*
X83490268Y-147527313D01*
X83495252Y-147457621D01*
X83535945Y-147402581D01*
X83628421Y-147331622D01*
X83716661Y-147216626D01*
X83772130Y-147082710D01*
X83791050Y-146939001D01*
X83772130Y-146795292D01*
X83716661Y-146661376D01*
X83628421Y-146546380D01*
X83544260Y-146481801D01*
X89640150Y-146481801D01*
X89659070Y-146625509D01*
X89659071Y-146625513D01*
X89714537Y-146759423D01*
X89714538Y-146759425D01*
X89714539Y-146759426D01*
X89802779Y-146874422D01*
X89917775Y-146962662D01*
X90051691Y-147018131D01*
X90178680Y-147034849D01*
X90195399Y-147037051D01*
X90195400Y-147037051D01*
X90195401Y-147037051D01*
X90210377Y-147035079D01*
X90339109Y-147018131D01*
X90473025Y-146962662D01*
X90588021Y-146874422D01*
X90676261Y-146759426D01*
X90731730Y-146625510D01*
X90750650Y-146481801D01*
X90731730Y-146338092D01*
X90676261Y-146204176D01*
X90650687Y-146170847D01*
X90625493Y-146105678D01*
X90639532Y-146037233D01*
X90650688Y-146019874D01*
X90706894Y-145946625D01*
X90724150Y-145924137D01*
X90779619Y-145790221D01*
X90795578Y-145669000D01*
X103635550Y-145669000D01*
X103654470Y-145812708D01*
X103654471Y-145812712D01*
X103709937Y-145946622D01*
X103709938Y-145946624D01*
X103709939Y-145946625D01*
X103798179Y-146061621D01*
X103913175Y-146149861D01*
X104047091Y-146205330D01*
X104174080Y-146222048D01*
X104190799Y-146224250D01*
X104190800Y-146224250D01*
X104190801Y-146224250D01*
X104205777Y-146222278D01*
X104334509Y-146205330D01*
X104468425Y-146149861D01*
X104583421Y-146061621D01*
X104671661Y-145946625D01*
X104727130Y-145812709D01*
X104746050Y-145669000D01*
X104727130Y-145525291D01*
X104682660Y-145417929D01*
X104671662Y-145391377D01*
X104671661Y-145391376D01*
X104671661Y-145391375D01*
X104583421Y-145276379D01*
X104468425Y-145188139D01*
X104468424Y-145188138D01*
X104468422Y-145188137D01*
X104334512Y-145132671D01*
X104334510Y-145132670D01*
X104334509Y-145132670D01*
X104262654Y-145123210D01*
X104190801Y-145113750D01*
X104190799Y-145113750D01*
X104047091Y-145132670D01*
X104047087Y-145132671D01*
X103913177Y-145188137D01*
X103798179Y-145276379D01*
X103709937Y-145391377D01*
X103654471Y-145525287D01*
X103654470Y-145525291D01*
X103635550Y-145668999D01*
X103635550Y-145669000D01*
X90795578Y-145669000D01*
X90798539Y-145646512D01*
X90779619Y-145502803D01*
X90724150Y-145368887D01*
X90635910Y-145253891D01*
X90520914Y-145165651D01*
X90520913Y-145165650D01*
X90520911Y-145165649D01*
X90387001Y-145110183D01*
X90386999Y-145110182D01*
X90386998Y-145110182D01*
X90315143Y-145100722D01*
X90243290Y-145091262D01*
X90243288Y-145091262D01*
X90099580Y-145110182D01*
X90099576Y-145110183D01*
X89965666Y-145165649D01*
X89850668Y-145253891D01*
X89762426Y-145368889D01*
X89706960Y-145502799D01*
X89706959Y-145502803D01*
X89688039Y-145646511D01*
X89688039Y-145646512D01*
X89706959Y-145790220D01*
X89706960Y-145790224D01*
X89762427Y-145924135D01*
X89762428Y-145924137D01*
X89779681Y-145946622D01*
X89788001Y-145957464D01*
X89813196Y-146022633D01*
X89799158Y-146091078D01*
X89788002Y-146108437D01*
X89714539Y-146204175D01*
X89714538Y-146204177D01*
X89659071Y-146338088D01*
X89659070Y-146338092D01*
X89640150Y-146481800D01*
X89640150Y-146481801D01*
X83544260Y-146481801D01*
X83513425Y-146458140D01*
X83513424Y-146458139D01*
X83513422Y-146458138D01*
X83379512Y-146402672D01*
X83379510Y-146402671D01*
X83379509Y-146402671D01*
X83307654Y-146393211D01*
X83235801Y-146383751D01*
X83235799Y-146383751D01*
X83092091Y-146402671D01*
X83092087Y-146402672D01*
X82958177Y-146458138D01*
X82843179Y-146546380D01*
X82754937Y-146661378D01*
X82699471Y-146795288D01*
X82699470Y-146795292D01*
X82680550Y-146939000D01*
X82680550Y-146939003D01*
X82692914Y-147032916D01*
X82682148Y-147101951D01*
X82635769Y-147154207D01*
X82569975Y-147173101D01*
X82421736Y-147173101D01*
X82354697Y-147153416D01*
X82308942Y-147100612D01*
X82298797Y-147032915D01*
X82298929Y-147031912D01*
X82298930Y-147031910D01*
X82317850Y-146888201D01*
X82298930Y-146744492D01*
X82243461Y-146610576D01*
X82155221Y-146495580D01*
X82040225Y-146407340D01*
X82040224Y-146407339D01*
X82040222Y-146407338D01*
X81906312Y-146351872D01*
X81906310Y-146351871D01*
X81906309Y-146351871D01*
X81834454Y-146342411D01*
X81762601Y-146332951D01*
X81762599Y-146332951D01*
X81618891Y-146351871D01*
X81618887Y-146351872D01*
X81484977Y-146407338D01*
X81369979Y-146495580D01*
X81281737Y-146610578D01*
X81226271Y-146744488D01*
X81226270Y-146744492D01*
X81207350Y-146888201D01*
X81226270Y-147031910D01*
X81226270Y-147031912D01*
X81226403Y-147032915D01*
X81215638Y-147101950D01*
X81169258Y-147154206D01*
X81103464Y-147173101D01*
X80957184Y-147173101D01*
X80890145Y-147153416D01*
X80844390Y-147100612D01*
X80834446Y-147031454D01*
X80842622Y-147001650D01*
X80851130Y-146981110D01*
X80870050Y-146837401D01*
X80851130Y-146693692D01*
X80795661Y-146559776D01*
X80707421Y-146444780D01*
X80592425Y-146356540D01*
X80592424Y-146356539D01*
X80592422Y-146356538D01*
X80458512Y-146301072D01*
X80458510Y-146301071D01*
X80458509Y-146301071D01*
X80386654Y-146291611D01*
X80314801Y-146282151D01*
X80314799Y-146282151D01*
X80171091Y-146301071D01*
X80171087Y-146301072D01*
X80037177Y-146356538D01*
X79922179Y-146444780D01*
X79833937Y-146559778D01*
X79778471Y-146693688D01*
X79778470Y-146693692D01*
X79759550Y-146837401D01*
X79778470Y-146981110D01*
X79786978Y-147001650D01*
X79794445Y-147071119D01*
X79763170Y-147133598D01*
X79703080Y-147169250D01*
X79672416Y-147173101D01*
X74167826Y-147173101D01*
X74100787Y-147153416D01*
X74092347Y-147147483D01*
X73988425Y-147067740D01*
X73988424Y-147067739D01*
X73988422Y-147067738D01*
X73854512Y-147012272D01*
X73854510Y-147012271D01*
X73854509Y-147012271D01*
X73773836Y-147001650D01*
X73710801Y-146993351D01*
X73710799Y-146993351D01*
X73567091Y-147012271D01*
X73567087Y-147012272D01*
X73433177Y-147067738D01*
X73318179Y-147155980D01*
X73229937Y-147270978D01*
X73174471Y-147404888D01*
X73174470Y-147404892D01*
X73155550Y-147548600D01*
X73155550Y-147548606D01*
X73157088Y-147560290D01*
X73146321Y-147629325D01*
X73099941Y-147681580D01*
X73050336Y-147699412D01*
X72982891Y-147708292D01*
X72982887Y-147708293D01*
X72848977Y-147763759D01*
X72733979Y-147852001D01*
X72645737Y-147966999D01*
X72590271Y-148100909D01*
X72590270Y-148100913D01*
X72571350Y-148244622D01*
X72584653Y-148345669D01*
X72589057Y-148379115D01*
X72578292Y-148448150D01*
X72531912Y-148500406D01*
X72466118Y-148519301D01*
X70999491Y-148519301D01*
X70932452Y-148499616D01*
X70911810Y-148482982D01*
X70298219Y-147869390D01*
X70264734Y-147808067D01*
X70261900Y-147781709D01*
X70261900Y-144881600D01*
X102162350Y-144881600D01*
X102181270Y-145025308D01*
X102181271Y-145025312D01*
X102236737Y-145159222D01*
X102236738Y-145159224D01*
X102236739Y-145159225D01*
X102324979Y-145274221D01*
X102439975Y-145362461D01*
X102573891Y-145417930D01*
X102700880Y-145434648D01*
X102717599Y-145436850D01*
X102717600Y-145436850D01*
X102717601Y-145436850D01*
X102732577Y-145434878D01*
X102861309Y-145417930D01*
X102995225Y-145362461D01*
X103110221Y-145274221D01*
X103198461Y-145159225D01*
X103253930Y-145025309D01*
X103272850Y-144881600D01*
X103253930Y-144737891D01*
X103198461Y-144603975D01*
X103110221Y-144488979D01*
X102995225Y-144400739D01*
X102995224Y-144400738D01*
X102995222Y-144400737D01*
X102861312Y-144345271D01*
X102861310Y-144345270D01*
X102861309Y-144345270D01*
X102789454Y-144335810D01*
X102717601Y-144326350D01*
X102717599Y-144326350D01*
X102573891Y-144345270D01*
X102573887Y-144345271D01*
X102439977Y-144400737D01*
X102324979Y-144488979D01*
X102236737Y-144603977D01*
X102181271Y-144737887D01*
X102181270Y-144737891D01*
X102162350Y-144881599D01*
X102162350Y-144881600D01*
X70261900Y-144881600D01*
X70261900Y-144739809D01*
X70264539Y-144714364D01*
X70265185Y-144711280D01*
X70266767Y-144703737D01*
X70264821Y-144688124D01*
X70262377Y-144668511D01*
X70261900Y-144660835D01*
X70261900Y-144656894D01*
X70261898Y-144656881D01*
X70258057Y-144633864D01*
X70251266Y-144579381D01*
X70251266Y-144579379D01*
X70251264Y-144579375D01*
X70249022Y-144571845D01*
X70246465Y-144564397D01*
X70246465Y-144564395D01*
X70220344Y-144516127D01*
X70196226Y-144466794D01*
X70196224Y-144466792D01*
X70196224Y-144466791D01*
X70191667Y-144460409D01*
X70186815Y-144454174D01*
X70146429Y-144416997D01*
X69861446Y-144132014D01*
X69827961Y-144070691D01*
X69832945Y-144000999D01*
X69873638Y-143945960D01*
X69963221Y-143877221D01*
X69972138Y-143865600D01*
X81512150Y-143865600D01*
X81531070Y-144009308D01*
X81531071Y-144009312D01*
X81586537Y-144143222D01*
X81586538Y-144143224D01*
X81586539Y-144143225D01*
X81674779Y-144258221D01*
X81789775Y-144346461D01*
X81923691Y-144401930D01*
X82050680Y-144418648D01*
X82067399Y-144420850D01*
X82067400Y-144420850D01*
X82067401Y-144420850D01*
X82082377Y-144418878D01*
X82211109Y-144401930D01*
X82345025Y-144346461D01*
X82460021Y-144258221D01*
X82548261Y-144143225D01*
X82603730Y-144009309D01*
X82622650Y-143865600D01*
X82603730Y-143721891D01*
X82548261Y-143587975D01*
X82460021Y-143472979D01*
X82345025Y-143384739D01*
X82345024Y-143384738D01*
X82345022Y-143384737D01*
X82211112Y-143329271D01*
X82211110Y-143329270D01*
X82211109Y-143329270D01*
X82128697Y-143318420D01*
X82067401Y-143310350D01*
X82067399Y-143310350D01*
X81923691Y-143329270D01*
X81923687Y-143329271D01*
X81789777Y-143384737D01*
X81674779Y-143472979D01*
X81586537Y-143587977D01*
X81531071Y-143721887D01*
X81531070Y-143721891D01*
X81512150Y-143865599D01*
X81512150Y-143865600D01*
X69972138Y-143865600D01*
X70051461Y-143762225D01*
X70106930Y-143628309D01*
X70125850Y-143484600D01*
X70106930Y-143340891D01*
X70051461Y-143206975D01*
X70051460Y-143206974D01*
X70051460Y-143206973D01*
X69984001Y-143119060D01*
X69958806Y-143053891D01*
X69972844Y-142985446D01*
X70021658Y-142935456D01*
X70089749Y-142919792D01*
X70129827Y-142929011D01*
X70251791Y-142979530D01*
X70378780Y-142996248D01*
X70395499Y-142998450D01*
X70395500Y-142998450D01*
X70395501Y-142998450D01*
X70410477Y-142996478D01*
X70539209Y-142979530D01*
X70567922Y-142967637D01*
X73076210Y-142967637D01*
X73095130Y-143111345D01*
X73095131Y-143111349D01*
X73150597Y-143245259D01*
X73150598Y-143245261D01*
X73150599Y-143245262D01*
X73238839Y-143360258D01*
X73353835Y-143448498D01*
X73353836Y-143448498D01*
X73353837Y-143448499D01*
X73375474Y-143457461D01*
X73487751Y-143503967D01*
X73607473Y-143519729D01*
X73631459Y-143522887D01*
X73631460Y-143522887D01*
X73631461Y-143522887D01*
X73655439Y-143519730D01*
X73775169Y-143503967D01*
X73909085Y-143448498D01*
X74003905Y-143375739D01*
X74069073Y-143350545D01*
X74137518Y-143364583D01*
X74154871Y-143375734D01*
X74195175Y-143406661D01*
X74195176Y-143406661D01*
X74195177Y-143406662D01*
X74211085Y-143413251D01*
X74329091Y-143462130D01*
X74449451Y-143477976D01*
X74472799Y-143481050D01*
X74472800Y-143481050D01*
X74472801Y-143481050D01*
X74487777Y-143479078D01*
X74616509Y-143462130D01*
X74750425Y-143406661D01*
X74865421Y-143318421D01*
X74953661Y-143203425D01*
X75009130Y-143069509D01*
X75021362Y-142976600D01*
X83188550Y-142976600D01*
X83203740Y-143091981D01*
X83207470Y-143120308D01*
X83207471Y-143120312D01*
X83262937Y-143254222D01*
X83262938Y-143254224D01*
X83262939Y-143254225D01*
X83351179Y-143369221D01*
X83466175Y-143457461D01*
X83466176Y-143457461D01*
X83466177Y-143457462D01*
X83477447Y-143462130D01*
X83600091Y-143512930D01*
X83727080Y-143529648D01*
X83743799Y-143531850D01*
X83743800Y-143531850D01*
X83743801Y-143531850D01*
X83758777Y-143529878D01*
X83887509Y-143512930D01*
X84021425Y-143457461D01*
X84136421Y-143369221D01*
X84224661Y-143254225D01*
X84280130Y-143120309D01*
X84299050Y-142976600D01*
X84280130Y-142832891D01*
X84235370Y-142724829D01*
X84224662Y-142698977D01*
X84224661Y-142698976D01*
X84224661Y-142698975D01*
X84136421Y-142583979D01*
X84021425Y-142495739D01*
X84021424Y-142495738D01*
X84021422Y-142495737D01*
X83887512Y-142440271D01*
X83887510Y-142440270D01*
X83887509Y-142440270D01*
X83805089Y-142429419D01*
X83743801Y-142421350D01*
X83743799Y-142421350D01*
X83600091Y-142440270D01*
X83600087Y-142440271D01*
X83466177Y-142495737D01*
X83351179Y-142583979D01*
X83262937Y-142698977D01*
X83207471Y-142832887D01*
X83207470Y-142832891D01*
X83198732Y-142899265D01*
X83188550Y-142976600D01*
X75021362Y-142976600D01*
X75028050Y-142925800D01*
X75009130Y-142782091D01*
X74953661Y-142648175D01*
X74865421Y-142533179D01*
X74750425Y-142444939D01*
X74750424Y-142444938D01*
X74750422Y-142444937D01*
X74616512Y-142389471D01*
X74616510Y-142389470D01*
X74616509Y-142389470D01*
X74544654Y-142380010D01*
X74472801Y-142370550D01*
X74472799Y-142370550D01*
X74329091Y-142389470D01*
X74329087Y-142389471D01*
X74195176Y-142444938D01*
X74195174Y-142444939D01*
X74100354Y-142517697D01*
X74035185Y-142542891D01*
X73966740Y-142528852D01*
X73949386Y-142517700D01*
X73909085Y-142486776D01*
X73909084Y-142486775D01*
X73909082Y-142486774D01*
X73775172Y-142431308D01*
X73775170Y-142431307D01*
X73775169Y-142431307D01*
X73703314Y-142421847D01*
X73631461Y-142412387D01*
X73631459Y-142412387D01*
X73487751Y-142431307D01*
X73487747Y-142431308D01*
X73353837Y-142486774D01*
X73238839Y-142575016D01*
X73150597Y-142690014D01*
X73095131Y-142823924D01*
X73095130Y-142823928D01*
X73076210Y-142967636D01*
X73076210Y-142967637D01*
X70567922Y-142967637D01*
X70673125Y-142924061D01*
X70788121Y-142835821D01*
X70876361Y-142720825D01*
X70931830Y-142586909D01*
X70950750Y-142443200D01*
X70931830Y-142299491D01*
X70876361Y-142165575D01*
X70788121Y-142050579D01*
X70673125Y-141962339D01*
X70673124Y-141962338D01*
X70673122Y-141962337D01*
X70539212Y-141906871D01*
X70539210Y-141906870D01*
X70539209Y-141906870D01*
X70434534Y-141893089D01*
X70395501Y-141887950D01*
X70395499Y-141887950D01*
X70251791Y-141906870D01*
X70251787Y-141906871D01*
X70117877Y-141962337D01*
X70002879Y-142050579D01*
X69914637Y-142165577D01*
X69859171Y-142299487D01*
X69859170Y-142299491D01*
X69840636Y-142440271D01*
X69840250Y-142443200D01*
X69857428Y-142573681D01*
X69859170Y-142586908D01*
X69859171Y-142586912D01*
X69914637Y-142720822D01*
X69914638Y-142720824D01*
X69914639Y-142720825D01*
X69982099Y-142808741D01*
X70007293Y-142873908D01*
X69993255Y-142942353D01*
X69944441Y-142992343D01*
X69876350Y-143008007D01*
X69836271Y-142998787D01*
X69714312Y-142948271D01*
X69714310Y-142948270D01*
X69714309Y-142948270D01*
X69616979Y-142935456D01*
X69570601Y-142929350D01*
X69570599Y-142929350D01*
X69426891Y-142948270D01*
X69426887Y-142948271D01*
X69292977Y-143003737D01*
X69235477Y-143047859D01*
X69177979Y-143091979D01*
X69177978Y-143091980D01*
X69177977Y-143091981D01*
X69109241Y-143181559D01*
X69052813Y-143222761D01*
X68983067Y-143226916D01*
X68923185Y-143193753D01*
X67606261Y-141876829D01*
X66216834Y-140487401D01*
X75977150Y-140487401D01*
X75996070Y-140631109D01*
X75996071Y-140631113D01*
X76051537Y-140765023D01*
X76051538Y-140765025D01*
X76051539Y-140765026D01*
X76139779Y-140880022D01*
X76254775Y-140968262D01*
X76254776Y-140968262D01*
X76254777Y-140968263D01*
X76258971Y-140970000D01*
X76388691Y-141023731D01*
X76497021Y-141037993D01*
X76560917Y-141066260D01*
X76599388Y-141124584D01*
X76603774Y-141144746D01*
X76617928Y-141252256D01*
X76618370Y-141255608D01*
X76618371Y-141255613D01*
X76673837Y-141389523D01*
X76673838Y-141389525D01*
X76673839Y-141389526D01*
X76762079Y-141504522D01*
X76877075Y-141592762D01*
X77010991Y-141648231D01*
X77108068Y-141661011D01*
X77171964Y-141689277D01*
X77210435Y-141747602D01*
X77214821Y-141767764D01*
X77223369Y-141832693D01*
X77225939Y-141852211D01*
X77227970Y-141867633D01*
X77227971Y-141867638D01*
X77283437Y-142001548D01*
X77283438Y-142001550D01*
X77283439Y-142001551D01*
X77371679Y-142116547D01*
X77486675Y-142204787D01*
X77486676Y-142204787D01*
X77486677Y-142204788D01*
X77494468Y-142208015D01*
X77620591Y-142260256D01*
X77747580Y-142276974D01*
X77764299Y-142279176D01*
X77764300Y-142279176D01*
X77764301Y-142279176D01*
X77779277Y-142277204D01*
X77908009Y-142260256D01*
X78041925Y-142204787D01*
X78156921Y-142116547D01*
X78218115Y-142036798D01*
X81537550Y-142036798D01*
X81554504Y-142165577D01*
X81556470Y-142180506D01*
X81556471Y-142180510D01*
X81611937Y-142314420D01*
X81611938Y-142314422D01*
X81611939Y-142314423D01*
X81700179Y-142429419D01*
X81815175Y-142517659D01*
X81815176Y-142517659D01*
X81815177Y-142517660D01*
X81838291Y-142527234D01*
X81949091Y-142573128D01*
X82076080Y-142589846D01*
X82092799Y-142592048D01*
X82092800Y-142592048D01*
X82092801Y-142592048D01*
X82107777Y-142590076D01*
X82236509Y-142573128D01*
X82370425Y-142517659D01*
X82485421Y-142429419D01*
X82573661Y-142314423D01*
X82629130Y-142180507D01*
X82648050Y-142036798D01*
X82641691Y-141988500D01*
X84280750Y-141988500D01*
X84298062Y-142119999D01*
X84299670Y-142132208D01*
X84299671Y-142132212D01*
X84355137Y-142266122D01*
X84355138Y-142266124D01*
X84355139Y-142266125D01*
X84443379Y-142381121D01*
X84558375Y-142469361D01*
X84692291Y-142524830D01*
X84836000Y-142543750D01*
X84836001Y-142543749D01*
X84842726Y-142544635D01*
X84906623Y-142572901D01*
X84914221Y-142579892D01*
X85200057Y-142865729D01*
X85454955Y-143120627D01*
X85471080Y-143140483D01*
X85477018Y-143149571D01*
X85477021Y-143149575D01*
X85505030Y-143171375D01*
X85510792Y-143176464D01*
X85513587Y-143179259D01*
X85532600Y-143192833D01*
X85575916Y-143226548D01*
X85575923Y-143226550D01*
X85582825Y-143230286D01*
X85589901Y-143233745D01*
X85589906Y-143233749D01*
X85628568Y-143245259D01*
X85642508Y-143249409D01*
X85694443Y-143267239D01*
X85702177Y-143268529D01*
X85710015Y-143269506D01*
X85710017Y-143269507D01*
X85710018Y-143269506D01*
X85710019Y-143269507D01*
X85764861Y-143267239D01*
X85774860Y-143267239D01*
X85841899Y-143286924D01*
X85887654Y-143339728D01*
X85897798Y-143407423D01*
X85880950Y-143535400D01*
X85892576Y-143623710D01*
X85899870Y-143679108D01*
X85899871Y-143679112D01*
X85955337Y-143813022D01*
X85955338Y-143813024D01*
X85955339Y-143813025D01*
X86043579Y-143928021D01*
X86158575Y-144016261D01*
X86292491Y-144071730D01*
X86419480Y-144088448D01*
X86436199Y-144090650D01*
X86436200Y-144090650D01*
X86436201Y-144090650D01*
X86451177Y-144088678D01*
X86579909Y-144071730D01*
X86713825Y-144016261D01*
X86828821Y-143928021D01*
X86883925Y-143856208D01*
X86940352Y-143815006D01*
X87010098Y-143810851D01*
X87071018Y-143845063D01*
X87080670Y-143856203D01*
X87135779Y-143928021D01*
X87250775Y-144016261D01*
X87384691Y-144071730D01*
X87511680Y-144088448D01*
X87528399Y-144090650D01*
X87528400Y-144090650D01*
X87528401Y-144090650D01*
X87543377Y-144088678D01*
X87672109Y-144071730D01*
X87806025Y-144016261D01*
X87921021Y-143928021D01*
X87941497Y-143901336D01*
X104377827Y-143901336D01*
X104392957Y-144016261D01*
X104396747Y-144045044D01*
X104396748Y-144045048D01*
X104452214Y-144178958D01*
X104452215Y-144178960D01*
X104452216Y-144178961D01*
X104540456Y-144293957D01*
X104655452Y-144382197D01*
X104789368Y-144437666D01*
X104914756Y-144454174D01*
X104933076Y-144456586D01*
X104933077Y-144456586D01*
X104933078Y-144456586D01*
X104948054Y-144454614D01*
X105076786Y-144437666D01*
X105210702Y-144382197D01*
X105325698Y-144293957D01*
X105413938Y-144178961D01*
X105469407Y-144045045D01*
X105488327Y-143901336D01*
X105469407Y-143757627D01*
X105413938Y-143623711D01*
X105354970Y-143546863D01*
X105329776Y-143481696D01*
X105343814Y-143413251D01*
X105392627Y-143363261D01*
X105460718Y-143347597D01*
X105500798Y-143356817D01*
X105530743Y-143369220D01*
X105571085Y-143385930D01*
X105698074Y-143402648D01*
X105714793Y-143404850D01*
X105714794Y-143404850D01*
X105714795Y-143404850D01*
X105729771Y-143402878D01*
X105858503Y-143385930D01*
X105992419Y-143330461D01*
X106107415Y-143242221D01*
X106195655Y-143127225D01*
X106251124Y-142993309D01*
X106270044Y-142849600D01*
X106251124Y-142705891D01*
X106203499Y-142590912D01*
X106195656Y-142571977D01*
X106195655Y-142571976D01*
X106195655Y-142571975D01*
X106107415Y-142456979D01*
X105992419Y-142368739D01*
X105992418Y-142368738D01*
X105992416Y-142368737D01*
X105858506Y-142313271D01*
X105858504Y-142313270D01*
X105858503Y-142313270D01*
X105759198Y-142300196D01*
X105714795Y-142294350D01*
X105714793Y-142294350D01*
X105571085Y-142313270D01*
X105571081Y-142313271D01*
X105437171Y-142368737D01*
X105322173Y-142456979D01*
X105233931Y-142571977D01*
X105178465Y-142705887D01*
X105178464Y-142705891D01*
X105160849Y-142839691D01*
X105159544Y-142849600D01*
X105177159Y-142983400D01*
X105178464Y-142993308D01*
X105178465Y-142993312D01*
X105233932Y-143127223D01*
X105233933Y-143127226D01*
X105267811Y-143171375D01*
X105292401Y-143203422D01*
X105292899Y-143204070D01*
X105318094Y-143269239D01*
X105304056Y-143337684D01*
X105255243Y-143387674D01*
X105187151Y-143403338D01*
X105147073Y-143394119D01*
X105103379Y-143376021D01*
X105076786Y-143365006D01*
X104966946Y-143350545D01*
X104933078Y-143346086D01*
X104933076Y-143346086D01*
X104789368Y-143365006D01*
X104789364Y-143365007D01*
X104655454Y-143420473D01*
X104540456Y-143508715D01*
X104452214Y-143623713D01*
X104396748Y-143757623D01*
X104396747Y-143757627D01*
X104381991Y-143869711D01*
X104377827Y-143901336D01*
X87941497Y-143901336D01*
X88009261Y-143813025D01*
X88064730Y-143679109D01*
X88081475Y-143551919D01*
X88109740Y-143488025D01*
X88168065Y-143449554D01*
X88237929Y-143448722D01*
X88276462Y-143467187D01*
X88287878Y-143475338D01*
X88291573Y-143477976D01*
X88334899Y-143511699D01*
X88341811Y-143515439D01*
X88348889Y-143518900D01*
X88392388Y-143531850D01*
X88401494Y-143534561D01*
X88453429Y-143552390D01*
X88453431Y-143552390D01*
X88461168Y-143553681D01*
X88468998Y-143554657D01*
X88469000Y-143554658D01*
X88469001Y-143554657D01*
X88469002Y-143554658D01*
X88523844Y-143552390D01*
X90980063Y-143552390D01*
X91047102Y-143572075D01*
X91055541Y-143578007D01*
X91159464Y-143657751D01*
X91293380Y-143713220D01*
X91420369Y-143729938D01*
X91437088Y-143732140D01*
X91437089Y-143732140D01*
X91437090Y-143732140D01*
X91452066Y-143730168D01*
X91580798Y-143713220D01*
X91714714Y-143657751D01*
X91829710Y-143569511D01*
X91917950Y-143454515D01*
X91973419Y-143320599D01*
X91992339Y-143176890D01*
X91973419Y-143033181D01*
X91928221Y-142924061D01*
X91917951Y-142899267D01*
X91917950Y-142899266D01*
X91917950Y-142899265D01*
X91829710Y-142784269D01*
X91714714Y-142696029D01*
X91714713Y-142696028D01*
X91714711Y-142696027D01*
X91580801Y-142640561D01*
X91580799Y-142640560D01*
X91580798Y-142640560D01*
X91500125Y-142629939D01*
X91437090Y-142621640D01*
X91437088Y-142621640D01*
X91293380Y-142640560D01*
X91293376Y-142640561D01*
X91159466Y-142696027D01*
X91127153Y-142720822D01*
X91055548Y-142775766D01*
X90990380Y-142800960D01*
X90980063Y-142801390D01*
X90710827Y-142801390D01*
X90643788Y-142781705D01*
X90598033Y-142728901D01*
X90588089Y-142659743D01*
X90596265Y-142629939D01*
X90612430Y-142590913D01*
X90631350Y-142447204D01*
X90631332Y-142447071D01*
X90626766Y-142412387D01*
X90621084Y-142369229D01*
X90631849Y-142300196D01*
X90678229Y-142247940D01*
X90696560Y-142238488D01*
X90755736Y-142213978D01*
X90870732Y-142125738D01*
X90958972Y-142010742D01*
X91014441Y-141876826D01*
X91033361Y-141733117D01*
X91032605Y-141727378D01*
X91029101Y-141700758D01*
X91014441Y-141589408D01*
X90958972Y-141455492D01*
X90870732Y-141340496D01*
X90755736Y-141252256D01*
X90755735Y-141252255D01*
X90755733Y-141252254D01*
X90621823Y-141196788D01*
X90621821Y-141196787D01*
X90621820Y-141196787D01*
X90508623Y-141181884D01*
X90478112Y-141177867D01*
X90478110Y-141177867D01*
X90334402Y-141196787D01*
X90334398Y-141196788D01*
X90200488Y-141252254D01*
X90085490Y-141340496D01*
X89997248Y-141455494D01*
X89941782Y-141589404D01*
X89941781Y-141589408D01*
X89922861Y-141733116D01*
X89922861Y-141733119D01*
X89933126Y-141811090D01*
X89922360Y-141880125D01*
X89875980Y-141932381D01*
X89857640Y-141941836D01*
X89798474Y-141966343D01*
X89798473Y-141966343D01*
X89701684Y-142040614D01*
X89636515Y-142065809D01*
X89626197Y-142066239D01*
X88772405Y-142066239D01*
X88705366Y-142046554D01*
X88659611Y-141993750D01*
X88649667Y-141924592D01*
X88678692Y-141861036D01*
X88710406Y-141834851D01*
X88713250Y-141833207D01*
X88713258Y-141833205D01*
X88828254Y-141744965D01*
X88916494Y-141629969D01*
X88971963Y-141496053D01*
X88990883Y-141352344D01*
X88971963Y-141208635D01*
X88923474Y-141091570D01*
X88916495Y-141074721D01*
X88916494Y-141074720D01*
X88916494Y-141074719D01*
X88828254Y-140959723D01*
X88713258Y-140871483D01*
X88713257Y-140871482D01*
X88713255Y-140871481D01*
X88579345Y-140816015D01*
X88579343Y-140816014D01*
X88579342Y-140816014D01*
X88450817Y-140799093D01*
X88435634Y-140797094D01*
X88435632Y-140797094D01*
X88291924Y-140816014D01*
X88291920Y-140816015D01*
X88158010Y-140871481D01*
X88043012Y-140959723D01*
X87954770Y-141074721D01*
X87899304Y-141208631D01*
X87899303Y-141208635D01*
X87893119Y-141255610D01*
X87880383Y-141352344D01*
X87889702Y-141423131D01*
X87899303Y-141496052D01*
X87899304Y-141496056D01*
X87954770Y-141629966D01*
X87954771Y-141629968D01*
X87954772Y-141629969D01*
X88043012Y-141744965D01*
X88158008Y-141833205D01*
X88158011Y-141833206D01*
X88160860Y-141834851D01*
X88162784Y-141836869D01*
X88164456Y-141838152D01*
X88164256Y-141838412D01*
X88209076Y-141885418D01*
X88222300Y-141954025D01*
X88196332Y-142018890D01*
X88139419Y-142059419D01*
X88098861Y-142066239D01*
X86403193Y-142066239D01*
X86336154Y-142046554D01*
X86290399Y-141993750D01*
X86280254Y-141958425D01*
X86273607Y-141907940D01*
X86263961Y-141834672D01*
X86221896Y-141733116D01*
X86208493Y-141700758D01*
X86208492Y-141700757D01*
X86208492Y-141700756D01*
X86120252Y-141585760D01*
X86005256Y-141497520D01*
X86005255Y-141497519D01*
X86005253Y-141497518D01*
X85871343Y-141442052D01*
X85871341Y-141442051D01*
X85871340Y-141442051D01*
X85799485Y-141432591D01*
X85727632Y-141423131D01*
X85727630Y-141423131D01*
X85583922Y-141442051D01*
X85583918Y-141442052D01*
X85450007Y-141497519D01*
X85450005Y-141497520D01*
X85350707Y-141573714D01*
X85285538Y-141598908D01*
X85217093Y-141584869D01*
X85199741Y-141573718D01*
X85113625Y-141507639D01*
X85113624Y-141507638D01*
X85113622Y-141507637D01*
X84979712Y-141452171D01*
X84979710Y-141452170D01*
X84979709Y-141452170D01*
X84902849Y-141442051D01*
X84836001Y-141433250D01*
X84835999Y-141433250D01*
X84692291Y-141452170D01*
X84692287Y-141452171D01*
X84558377Y-141507637D01*
X84443379Y-141595879D01*
X84355137Y-141710877D01*
X84299671Y-141844787D01*
X84299670Y-141844791D01*
X84284710Y-141958425D01*
X84280750Y-141988500D01*
X82641691Y-141988500D01*
X82629130Y-141893089D01*
X82578812Y-141771608D01*
X82573662Y-141759175D01*
X82573661Y-141759174D01*
X82573661Y-141759173D01*
X82485421Y-141644177D01*
X82370425Y-141555937D01*
X82370424Y-141555936D01*
X82370422Y-141555935D01*
X82236512Y-141500469D01*
X82236510Y-141500468D01*
X82236509Y-141500468D01*
X82164654Y-141491008D01*
X82092801Y-141481548D01*
X82092799Y-141481548D01*
X81949091Y-141500468D01*
X81949087Y-141500469D01*
X81815177Y-141555935D01*
X81700179Y-141644177D01*
X81611937Y-141759175D01*
X81556471Y-141893085D01*
X81556470Y-141893089D01*
X81545517Y-141976287D01*
X81537550Y-142036798D01*
X78218115Y-142036798D01*
X78245161Y-142001551D01*
X78300630Y-141867635D01*
X78319550Y-141723926D01*
X78300630Y-141580217D01*
X78248968Y-141455492D01*
X78245162Y-141446303D01*
X78245161Y-141446302D01*
X78245161Y-141446301D01*
X78156921Y-141331305D01*
X78041925Y-141243065D01*
X78041924Y-141243064D01*
X78041922Y-141243063D01*
X77908012Y-141187597D01*
X77908010Y-141187596D01*
X77908009Y-141187596D01*
X77853024Y-141180356D01*
X77810931Y-141174815D01*
X77747035Y-141146548D01*
X77708564Y-141088223D01*
X77704178Y-141068061D01*
X77700219Y-141037993D01*
X77691030Y-140968192D01*
X77635561Y-140834276D01*
X77547321Y-140719280D01*
X77432325Y-140631040D01*
X77432324Y-140631039D01*
X77432322Y-140631038D01*
X77298412Y-140575572D01*
X77298410Y-140575571D01*
X77298409Y-140575571D01*
X77277693Y-140572843D01*
X77190077Y-140561308D01*
X77126181Y-140533041D01*
X77118548Y-140521468D01*
X81378672Y-140521468D01*
X81393097Y-140631038D01*
X81397592Y-140665176D01*
X81397593Y-140665180D01*
X81453059Y-140799090D01*
X81453060Y-140799092D01*
X81453061Y-140799093D01*
X81541301Y-140914089D01*
X81656297Y-141002329D01*
X81790213Y-141057798D01*
X81917202Y-141074516D01*
X81933921Y-141076718D01*
X81933922Y-141076718D01*
X81933923Y-141076718D01*
X81949106Y-141074719D01*
X82077631Y-141057798D01*
X82211547Y-141002329D01*
X82326543Y-140914089D01*
X82414783Y-140799093D01*
X82470252Y-140665177D01*
X82489172Y-140521468D01*
X82470252Y-140377759D01*
X82414783Y-140243843D01*
X82414782Y-140243842D01*
X82414782Y-140243841D01*
X82348895Y-140157977D01*
X82323700Y-140092808D01*
X82337738Y-140024363D01*
X82386552Y-139974373D01*
X82399839Y-139967920D01*
X82400564Y-139967620D01*
X82470033Y-139960174D01*
X82532503Y-139991469D01*
X82546353Y-140006710D01*
X82559899Y-140024363D01*
X82589179Y-140062521D01*
X82704175Y-140150761D01*
X82838091Y-140206230D01*
X82965080Y-140222948D01*
X82981799Y-140225150D01*
X82981800Y-140225150D01*
X82981801Y-140225150D01*
X82996777Y-140223178D01*
X83125509Y-140206230D01*
X83259425Y-140150761D01*
X83347904Y-140082868D01*
X83413071Y-140057675D01*
X83481516Y-140071713D01*
X83498869Y-140082864D01*
X83587353Y-140150761D01*
X83721269Y-140206230D01*
X83848258Y-140222948D01*
X83864977Y-140225150D01*
X83864978Y-140225150D01*
X83864979Y-140225150D01*
X83879955Y-140223178D01*
X84008687Y-140206230D01*
X84142603Y-140150761D01*
X84257599Y-140062521D01*
X84345839Y-139947525D01*
X84401308Y-139813609D01*
X84420228Y-139669900D01*
X84401308Y-139526191D01*
X84345839Y-139392275D01*
X84257599Y-139277279D01*
X84142603Y-139189039D01*
X84142602Y-139189038D01*
X84142600Y-139189037D01*
X84008690Y-139133571D01*
X84008688Y-139133570D01*
X84008687Y-139133570D01*
X83936832Y-139124110D01*
X83864979Y-139114650D01*
X83864977Y-139114650D01*
X83721269Y-139133570D01*
X83721265Y-139133571D01*
X83587355Y-139189037D01*
X83572316Y-139200577D01*
X83498873Y-139256931D01*
X83433707Y-139282125D01*
X83365262Y-139268087D01*
X83347908Y-139256935D01*
X83259425Y-139189039D01*
X83259424Y-139189038D01*
X83259422Y-139189037D01*
X83125512Y-139133571D01*
X83125510Y-139133570D01*
X83125509Y-139133570D01*
X83053654Y-139124110D01*
X82981801Y-139114650D01*
X82981799Y-139114650D01*
X82838093Y-139133569D01*
X82819209Y-139141391D01*
X82724872Y-139180466D01*
X82655403Y-139187934D01*
X82592924Y-139156658D01*
X82579046Y-139141391D01*
X82536221Y-139085581D01*
X82524689Y-139076732D01*
X82483488Y-139020303D01*
X82479335Y-138950557D01*
X82501802Y-138902872D01*
X82573661Y-138809225D01*
X82629130Y-138675309D01*
X82648050Y-138531600D01*
X82647332Y-138526150D01*
X82644841Y-138507228D01*
X82629130Y-138387891D01*
X82621211Y-138368772D01*
X82613742Y-138299302D01*
X82645018Y-138236823D01*
X82660274Y-138222953D01*
X82687006Y-138202441D01*
X82752171Y-138177248D01*
X82820616Y-138191286D01*
X82837977Y-138202443D01*
X82929862Y-138272950D01*
X82929863Y-138272950D01*
X82929864Y-138272951D01*
X83063780Y-138328420D01*
X83190769Y-138345138D01*
X83207488Y-138347340D01*
X83207489Y-138347340D01*
X83207490Y-138347340D01*
X83222466Y-138345368D01*
X83351198Y-138328420D01*
X83485114Y-138272951D01*
X83600110Y-138184711D01*
X83688350Y-138069715D01*
X83743819Y-137935799D01*
X83755668Y-137845800D01*
X86922350Y-137845800D01*
X86938841Y-137971063D01*
X86941270Y-137989508D01*
X86941271Y-137989512D01*
X86996737Y-138123422D01*
X86996738Y-138123424D01*
X86996739Y-138123425D01*
X87084979Y-138238421D01*
X87199975Y-138326661D01*
X87199976Y-138326661D01*
X87199977Y-138326662D01*
X87244613Y-138345150D01*
X87333891Y-138382130D01*
X87460880Y-138398848D01*
X87477599Y-138401050D01*
X87477600Y-138401050D01*
X87477601Y-138401050D01*
X87492577Y-138399078D01*
X87621309Y-138382130D01*
X87755225Y-138326661D01*
X87870221Y-138238421D01*
X87941863Y-138145054D01*
X87998290Y-138103853D01*
X88068036Y-138099698D01*
X88128956Y-138133910D01*
X88154799Y-138173090D01*
X88186043Y-138248522D01*
X88186044Y-138248524D01*
X88186045Y-138248525D01*
X88274285Y-138363521D01*
X88389281Y-138451761D01*
X88389282Y-138451761D01*
X88389283Y-138451762D01*
X88433919Y-138470250D01*
X88523197Y-138507230D01*
X88650186Y-138523948D01*
X88666905Y-138526150D01*
X88666906Y-138526150D01*
X88666907Y-138526150D01*
X88681883Y-138524178D01*
X88810615Y-138507230D01*
X88944531Y-138451761D01*
X89059527Y-138363521D01*
X89147767Y-138248525D01*
X89203236Y-138114609D01*
X89222156Y-137970900D01*
X89203236Y-137827191D01*
X89160170Y-137723218D01*
X89147768Y-137693277D01*
X89147767Y-137693276D01*
X89147767Y-137693275D01*
X89059527Y-137578279D01*
X88944531Y-137490039D01*
X88944530Y-137490038D01*
X88944528Y-137490037D01*
X88810618Y-137434571D01*
X88810616Y-137434570D01*
X88810615Y-137434570D01*
X88687931Y-137418418D01*
X88666907Y-137415650D01*
X88666905Y-137415650D01*
X88523197Y-137434570D01*
X88523193Y-137434571D01*
X88389283Y-137490037D01*
X88274282Y-137578281D01*
X88202642Y-137671644D01*
X88146214Y-137712847D01*
X88076468Y-137717001D01*
X88015548Y-137682788D01*
X87989707Y-137643611D01*
X87958461Y-137568175D01*
X87870221Y-137453179D01*
X87755225Y-137364939D01*
X87755224Y-137364938D01*
X87755222Y-137364937D01*
X87621312Y-137309471D01*
X87621310Y-137309470D01*
X87621309Y-137309470D01*
X87549454Y-137300010D01*
X87477601Y-137290550D01*
X87477599Y-137290550D01*
X87333891Y-137309470D01*
X87333887Y-137309471D01*
X87199977Y-137364937D01*
X87084979Y-137453179D01*
X86996737Y-137568177D01*
X86941271Y-137702087D01*
X86941270Y-137702091D01*
X86928264Y-137800883D01*
X86922350Y-137845800D01*
X83755668Y-137845800D01*
X83762739Y-137792090D01*
X83743819Y-137648381D01*
X83688350Y-137514465D01*
X83600110Y-137399469D01*
X83485114Y-137311229D01*
X83485113Y-137311228D01*
X83485111Y-137311227D01*
X83351201Y-137255761D01*
X83351199Y-137255760D01*
X83351198Y-137255760D01*
X83279343Y-137246300D01*
X83207490Y-137236840D01*
X83207488Y-137236840D01*
X83063780Y-137255760D01*
X83063776Y-137255761D01*
X82929865Y-137311228D01*
X82929863Y-137311229D01*
X82867284Y-137359248D01*
X82802115Y-137384442D01*
X82733670Y-137370404D01*
X82716311Y-137359247D01*
X82624426Y-137288740D01*
X82624423Y-137288739D01*
X82490512Y-137233272D01*
X82490510Y-137233271D01*
X82490509Y-137233271D01*
X82418654Y-137223811D01*
X82346801Y-137214351D01*
X82346799Y-137214351D01*
X82203091Y-137233271D01*
X82203087Y-137233272D01*
X82069177Y-137288738D01*
X81954179Y-137376980D01*
X81865937Y-137491978D01*
X81810471Y-137625888D01*
X81810470Y-137625892D01*
X81791550Y-137769600D01*
X81791550Y-137769601D01*
X81810470Y-137913313D01*
X81818388Y-137932428D01*
X81825857Y-138001898D01*
X81794581Y-138064377D01*
X81779315Y-138078255D01*
X81700180Y-138138978D01*
X81611937Y-138253977D01*
X81556471Y-138387887D01*
X81556470Y-138387891D01*
X81537550Y-138531599D01*
X81537550Y-138531600D01*
X81556470Y-138675308D01*
X81556471Y-138675312D01*
X81611937Y-138809222D01*
X81611938Y-138809223D01*
X81611939Y-138809225D01*
X81700179Y-138924221D01*
X81703751Y-138926962D01*
X81711709Y-138933069D01*
X81752911Y-138989497D01*
X81757064Y-139059243D01*
X81734597Y-139106929D01*
X81662739Y-139200576D01*
X81662738Y-139200578D01*
X81607271Y-139334489D01*
X81607270Y-139334493D01*
X81588350Y-139478202D01*
X81594667Y-139526187D01*
X81607270Y-139621910D01*
X81607271Y-139621914D01*
X81662738Y-139755825D01*
X81662739Y-139755827D01*
X81728626Y-139841693D01*
X81753820Y-139906862D01*
X81739782Y-139975307D01*
X81690968Y-140025296D01*
X81677704Y-140031739D01*
X81656300Y-140040604D01*
X81541301Y-140128847D01*
X81453059Y-140243845D01*
X81397593Y-140377755D01*
X81397592Y-140377759D01*
X81382265Y-140494180D01*
X81378672Y-140521468D01*
X77118548Y-140521468D01*
X77087711Y-140474716D01*
X77083326Y-140454560D01*
X77068730Y-140343692D01*
X77013261Y-140209776D01*
X76925021Y-140094780D01*
X76810025Y-140006540D01*
X76810024Y-140006539D01*
X76810022Y-140006538D01*
X76676112Y-139951072D01*
X76676110Y-139951071D01*
X76676109Y-139951071D01*
X76604254Y-139941611D01*
X76532401Y-139932151D01*
X76532399Y-139932151D01*
X76388691Y-139951071D01*
X76388687Y-139951072D01*
X76254777Y-140006538D01*
X76139779Y-140094780D01*
X76051537Y-140209778D01*
X75996071Y-140343688D01*
X75996070Y-140343692D01*
X75977150Y-140487400D01*
X75977150Y-140487401D01*
X66216834Y-140487401D01*
X66177256Y-140447823D01*
X66161129Y-140427964D01*
X66155193Y-140418879D01*
X66155190Y-140418875D01*
X66127181Y-140397075D01*
X66121417Y-140391984D01*
X66118622Y-140389189D01*
X66102611Y-140377759D01*
X66099611Y-140375617D01*
X66091549Y-140369342D01*
X66056296Y-140341902D01*
X66049381Y-140338160D01*
X66042307Y-140334702D01*
X65989703Y-140319041D01*
X65937765Y-140301211D01*
X65930027Y-140299920D01*
X65912000Y-140297673D01*
X65912301Y-140295252D01*
X65858615Y-140281870D01*
X65845809Y-140273254D01*
X65783119Y-140225150D01*
X65744937Y-140195851D01*
X65744934Y-140195850D01*
X65611023Y-140140383D01*
X65611021Y-140140382D01*
X65611020Y-140140382D01*
X65523405Y-140128847D01*
X65467312Y-140121462D01*
X65467310Y-140121462D01*
X65323602Y-140140382D01*
X65323598Y-140140383D01*
X65189688Y-140195849D01*
X65074690Y-140284091D01*
X64986448Y-140399089D01*
X64930982Y-140532999D01*
X64930981Y-140533003D01*
X64912061Y-140676711D01*
X64912061Y-140676712D01*
X54953606Y-140676712D01*
X54868990Y-140274715D01*
X54783310Y-139800568D01*
X54687095Y-139247798D01*
X69535450Y-139247798D01*
X69554370Y-139391506D01*
X69554371Y-139391510D01*
X69609837Y-139525420D01*
X69609838Y-139525422D01*
X69609839Y-139525423D01*
X69698079Y-139640419D01*
X69813075Y-139728659D01*
X69946991Y-139784128D01*
X70070450Y-139800382D01*
X70090699Y-139803048D01*
X70090700Y-139803048D01*
X70090701Y-139803048D01*
X70110950Y-139800382D01*
X70234409Y-139784128D01*
X70368325Y-139728659D01*
X70483321Y-139640419D01*
X70571561Y-139525423D01*
X70627030Y-139391507D01*
X70645950Y-139247798D01*
X70627030Y-139104089D01*
X70571561Y-138970173D01*
X70537129Y-138925301D01*
X75352650Y-138925301D01*
X75365157Y-139020303D01*
X75371570Y-139069009D01*
X75371571Y-139069013D01*
X75427037Y-139202923D01*
X75427038Y-139202925D01*
X75427039Y-139202926D01*
X75515279Y-139317922D01*
X75630275Y-139406162D01*
X75764191Y-139461631D01*
X75890050Y-139478201D01*
X75907899Y-139480551D01*
X75907900Y-139480551D01*
X75907901Y-139480551D01*
X75925742Y-139478202D01*
X76051609Y-139461631D01*
X76185525Y-139406162D01*
X76300521Y-139317922D01*
X76388761Y-139202926D01*
X76444230Y-139069010D01*
X76463150Y-138925301D01*
X76461885Y-138915696D01*
X76460197Y-138902871D01*
X76444230Y-138781592D01*
X76388761Y-138647676D01*
X76300521Y-138532680D01*
X76185525Y-138444440D01*
X76185524Y-138444439D01*
X76185522Y-138444438D01*
X76051612Y-138388972D01*
X76051610Y-138388971D01*
X76051609Y-138388971D01*
X75979754Y-138379511D01*
X75907901Y-138370051D01*
X75907899Y-138370051D01*
X75764191Y-138388971D01*
X75764187Y-138388972D01*
X75630277Y-138444438D01*
X75515279Y-138532680D01*
X75427037Y-138647678D01*
X75371571Y-138781588D01*
X75371570Y-138781592D01*
X75353915Y-138915696D01*
X75352650Y-138925301D01*
X70537129Y-138925301D01*
X70483321Y-138855177D01*
X70368325Y-138766937D01*
X70368324Y-138766936D01*
X70368322Y-138766935D01*
X70234412Y-138711469D01*
X70234410Y-138711468D01*
X70234409Y-138711468D01*
X70162554Y-138702008D01*
X70090701Y-138692548D01*
X70090699Y-138692548D01*
X69946991Y-138711468D01*
X69946987Y-138711469D01*
X69813077Y-138766935D01*
X69698079Y-138855177D01*
X69609837Y-138970175D01*
X69554371Y-139104085D01*
X69554370Y-139104089D01*
X69535450Y-139247797D01*
X69535450Y-139247798D01*
X54687095Y-139247798D01*
X54685341Y-139237723D01*
X54670401Y-139133570D01*
X54623875Y-138809223D01*
X54617809Y-138766937D01*
X54581950Y-138507228D01*
X54538811Y-138194803D01*
X54534742Y-138156621D01*
X54489493Y-137732063D01*
X54429593Y-137147306D01*
X54403813Y-136779000D01*
X62131950Y-136779000D01*
X62150034Y-136916362D01*
X62150870Y-136922708D01*
X62150871Y-136922712D01*
X62206337Y-137056622D01*
X62206338Y-137056624D01*
X62206339Y-137056625D01*
X62294579Y-137171621D01*
X62409575Y-137259861D01*
X62409576Y-137259861D01*
X62409577Y-137259862D01*
X62414442Y-137261877D01*
X62543491Y-137315330D01*
X62670480Y-137332048D01*
X62687199Y-137334250D01*
X62687200Y-137334250D01*
X62687201Y-137334250D01*
X62702177Y-137332278D01*
X62830909Y-137315330D01*
X62964825Y-137259861D01*
X63079821Y-137171621D01*
X63168061Y-137056625D01*
X63223530Y-136922709D01*
X63242450Y-136779000D01*
X63223530Y-136635291D01*
X63186550Y-136546013D01*
X63168062Y-136501377D01*
X63168061Y-136501376D01*
X63168061Y-136501375D01*
X63147210Y-136474201D01*
X70437750Y-136474201D01*
X70455773Y-136611100D01*
X70456670Y-136617909D01*
X70456671Y-136617913D01*
X70512137Y-136751823D01*
X70512138Y-136751825D01*
X70512139Y-136751826D01*
X70570684Y-136828123D01*
X70600380Y-136866823D01*
X70603285Y-136869052D01*
X70649726Y-136904688D01*
X70690929Y-136961115D01*
X70695084Y-137030861D01*
X70660872Y-137091781D01*
X70654962Y-137096903D01*
X70652736Y-137099128D01*
X70564490Y-137214131D01*
X70509024Y-137348041D01*
X70509023Y-137348045D01*
X70490308Y-137490200D01*
X70490103Y-137491754D01*
X70508818Y-137633909D01*
X70509023Y-137635462D01*
X70509024Y-137635466D01*
X70564490Y-137769376D01*
X70564491Y-137769378D01*
X70564492Y-137769379D01*
X70652732Y-137884375D01*
X70767728Y-137972615D01*
X70901644Y-138028084D01*
X71028633Y-138044802D01*
X71045352Y-138047004D01*
X71045353Y-138047004D01*
X71045354Y-138047004D01*
X71060330Y-138045032D01*
X71189062Y-138028084D01*
X71322978Y-137972615D01*
X71437974Y-137884375D01*
X71526214Y-137769379D01*
X71581683Y-137635463D01*
X71600603Y-137491754D01*
X71600398Y-137490200D01*
X71593445Y-137437386D01*
X71581683Y-137348045D01*
X71526214Y-137214129D01*
X71437974Y-137099133D01*
X71388623Y-137061264D01*
X71347423Y-137004839D01*
X71343268Y-136935093D01*
X71377481Y-136874172D01*
X71383390Y-136869052D01*
X71385617Y-136866825D01*
X71385616Y-136866825D01*
X71385621Y-136866822D01*
X71388033Y-136863678D01*
X71390744Y-136861698D01*
X71391368Y-136861075D01*
X71391465Y-136861172D01*
X71444456Y-136822475D01*
X71514202Y-136818317D01*
X71533860Y-136824600D01*
X71640161Y-136868631D01*
X71767150Y-136885349D01*
X71783869Y-136887551D01*
X71783870Y-136887551D01*
X71783871Y-136887551D01*
X71798847Y-136885579D01*
X71927579Y-136868631D01*
X72061495Y-136813162D01*
X72176491Y-136724922D01*
X72264731Y-136609926D01*
X72320200Y-136476010D01*
X72325533Y-136435501D01*
X75858643Y-136435501D01*
X75877563Y-136579209D01*
X75877564Y-136579213D01*
X75933030Y-136713123D01*
X75933031Y-136713125D01*
X75933032Y-136713126D01*
X76021272Y-136828122D01*
X76076003Y-136870119D01*
X76117204Y-136926545D01*
X76121359Y-136996291D01*
X76087146Y-137057212D01*
X76076003Y-137066867D01*
X76035982Y-137097577D01*
X76035980Y-137097578D01*
X76035979Y-137097580D01*
X75997884Y-137147226D01*
X75947737Y-137212578D01*
X75892271Y-137346488D01*
X75892270Y-137346492D01*
X75873372Y-137490037D01*
X75873350Y-137490201D01*
X75891314Y-137626652D01*
X75892270Y-137633909D01*
X75892271Y-137633913D01*
X75947737Y-137767823D01*
X75947738Y-137767825D01*
X75947739Y-137767826D01*
X76035979Y-137882822D01*
X76150975Y-137971062D01*
X76150976Y-137971062D01*
X76150977Y-137971063D01*
X76195508Y-137989508D01*
X76284891Y-138026531D01*
X76411880Y-138043249D01*
X76428599Y-138045451D01*
X76428600Y-138045451D01*
X76428601Y-138045451D01*
X76443577Y-138043479D01*
X76572309Y-138026531D01*
X76706225Y-137971062D01*
X76821221Y-137882822D01*
X76909461Y-137767826D01*
X76964930Y-137633910D01*
X76983850Y-137490201D01*
X76983828Y-137490037D01*
X76978976Y-137453179D01*
X76964930Y-137346492D01*
X76919511Y-137236840D01*
X76909462Y-137212578D01*
X76909461Y-137212577D01*
X76909461Y-137212576D01*
X76821221Y-137097580D01*
X76766490Y-137055583D01*
X76725288Y-136999155D01*
X76721133Y-136929409D01*
X76755346Y-136868489D01*
X76766482Y-136858839D01*
X76806514Y-136828122D01*
X76894754Y-136713126D01*
X76950223Y-136579210D01*
X76969143Y-136435501D01*
X76950223Y-136291792D01*
X76894754Y-136157876D01*
X76806514Y-136042880D01*
X76691518Y-135954640D01*
X76691517Y-135954639D01*
X76691515Y-135954638D01*
X76557605Y-135899172D01*
X76557603Y-135899171D01*
X76557602Y-135899171D01*
X76485747Y-135889711D01*
X76413894Y-135880251D01*
X76413892Y-135880251D01*
X76270184Y-135899171D01*
X76270180Y-135899172D01*
X76136270Y-135954638D01*
X76021272Y-136042880D01*
X75933030Y-136157878D01*
X75877564Y-136291788D01*
X75877563Y-136291792D01*
X75858643Y-136435500D01*
X75858643Y-136435501D01*
X72325533Y-136435501D01*
X72339120Y-136332301D01*
X72320200Y-136188592D01*
X72275875Y-136081580D01*
X72264732Y-136054678D01*
X72264731Y-136054677D01*
X72264731Y-136054676D01*
X72176491Y-135939680D01*
X72061495Y-135851440D01*
X72061494Y-135851439D01*
X72061492Y-135851438D01*
X71927582Y-135795972D01*
X71927580Y-135795971D01*
X71927579Y-135795971D01*
X71855724Y-135786511D01*
X71783871Y-135777051D01*
X71783869Y-135777051D01*
X71640161Y-135795971D01*
X71640157Y-135795972D01*
X71506247Y-135851438D01*
X71468698Y-135880251D01*
X71393606Y-135937872D01*
X71391248Y-135939681D01*
X71388829Y-135942834D01*
X71386110Y-135944818D01*
X71385503Y-135945426D01*
X71385408Y-135945331D01*
X71332397Y-135984032D01*
X71262651Y-135988181D01*
X71243007Y-135981900D01*
X71136712Y-135937872D01*
X71136710Y-135937871D01*
X71136709Y-135937871D01*
X71064854Y-135928411D01*
X70993001Y-135918951D01*
X70992999Y-135918951D01*
X70849291Y-135937871D01*
X70849287Y-135937872D01*
X70715377Y-135993338D01*
X70600379Y-136081580D01*
X70512137Y-136196578D01*
X70456671Y-136330488D01*
X70456670Y-136330492D01*
X70437750Y-136474201D01*
X63147210Y-136474201D01*
X63079821Y-136386379D01*
X62964825Y-136298139D01*
X62964824Y-136298138D01*
X62964822Y-136298137D01*
X62830912Y-136242671D01*
X62830910Y-136242670D01*
X62830909Y-136242670D01*
X62759054Y-136233210D01*
X62687201Y-136223750D01*
X62687199Y-136223750D01*
X62543491Y-136242670D01*
X62543487Y-136242671D01*
X62409577Y-136298137D01*
X62294579Y-136386379D01*
X62206337Y-136501377D01*
X62150871Y-136635287D01*
X62150870Y-136635291D01*
X62135528Y-136751826D01*
X62131950Y-136779000D01*
X54403813Y-136779000D01*
X54398380Y-136701380D01*
X54357825Y-136096572D01*
X54357614Y-136090269D01*
X54344259Y-135692768D01*
X54323600Y-135043870D01*
X54324103Y-134858187D01*
X54324889Y-134620001D01*
X83314354Y-134620001D01*
X83321283Y-134668194D01*
X83322545Y-134685841D01*
X83322545Y-134691529D01*
X83324146Y-134696980D01*
X83327904Y-134714257D01*
X83334835Y-134762456D01*
X83355060Y-134806743D01*
X83361240Y-134823311D01*
X83362844Y-134828774D01*
X83362845Y-134828775D01*
X83362846Y-134828778D01*
X83365925Y-134833568D01*
X83374398Y-134849087D01*
X83380160Y-134861703D01*
X83394624Y-134893375D01*
X83426511Y-134930175D01*
X83437103Y-134944324D01*
X83440183Y-134949116D01*
X83440184Y-134949117D01*
X83444474Y-134952834D01*
X83456985Y-134965344D01*
X83488873Y-135002145D01*
X83529836Y-135028470D01*
X83543995Y-135039069D01*
X83548291Y-135042792D01*
X83553464Y-135045154D01*
X83568985Y-135053630D01*
X83587989Y-135065843D01*
X83609949Y-135079956D01*
X83656666Y-135093673D01*
X83673233Y-135099850D01*
X83678410Y-135102215D01*
X83684033Y-135103023D01*
X83701316Y-135106783D01*
X83748040Y-135120502D01*
X83796728Y-135120502D01*
X83814373Y-135121763D01*
X83820001Y-135122573D01*
X83825628Y-135121763D01*
X83843274Y-135120502D01*
X83891963Y-135120502D01*
X83900689Y-135117939D01*
X83938690Y-135106781D01*
X83955964Y-135103024D01*
X83961592Y-135102215D01*
X83966760Y-135099855D01*
X83983332Y-135093673D01*
X84030054Y-135079955D01*
X84071017Y-135053629D01*
X84086548Y-135045150D01*
X84089521Y-135043792D01*
X84091711Y-135042792D01*
X84096009Y-135039067D01*
X84110163Y-135028471D01*
X84151129Y-135002145D01*
X84183016Y-134965344D01*
X84195519Y-134952841D01*
X84199819Y-134949116D01*
X84202893Y-134944331D01*
X84213491Y-134930173D01*
X84245378Y-134893375D01*
X84265608Y-134849076D01*
X84274076Y-134833568D01*
X84277156Y-134828778D01*
X84278757Y-134823324D01*
X84284935Y-134806757D01*
X84305166Y-134762459D01*
X84312095Y-134714260D01*
X84315855Y-134696980D01*
X84317457Y-134691525D01*
X84318027Y-134675497D01*
X84318616Y-134668905D01*
X84325648Y-134620002D01*
X84318617Y-134571103D01*
X84318026Y-134564502D01*
X84317457Y-134548479D01*
X84315853Y-134543018D01*
X84312095Y-134525737D01*
X84309369Y-134506779D01*
X84305166Y-134477545D01*
X84284934Y-134433243D01*
X84278757Y-134416680D01*
X84277156Y-134411226D01*
X84274080Y-134406439D01*
X84265604Y-134390917D01*
X84245378Y-134346629D01*
X84213497Y-134309836D01*
X84202896Y-134295676D01*
X84199819Y-134290888D01*
X84199817Y-134290886D01*
X84199814Y-134290883D01*
X84195522Y-134287164D01*
X84183016Y-134274659D01*
X84151129Y-134237859D01*
X84110165Y-134211533D01*
X84096004Y-134200932D01*
X84091710Y-134197211D01*
X84091707Y-134197209D01*
X84086537Y-134194848D01*
X84071019Y-134186375D01*
X84030054Y-134160049D01*
X84030049Y-134160047D01*
X83983330Y-134146328D01*
X83966765Y-134140150D01*
X83961597Y-134137790D01*
X83961593Y-134137789D01*
X83955966Y-134136980D01*
X83938682Y-134133220D01*
X83891963Y-134119502D01*
X83891962Y-134119502D01*
X83843274Y-134119502D01*
X83825628Y-134118240D01*
X83820001Y-134117431D01*
X83814373Y-134118240D01*
X83796728Y-134119502D01*
X83748037Y-134119502D01*
X83701311Y-134133221D01*
X83684037Y-134136979D01*
X83678413Y-134137787D01*
X83678410Y-134137789D01*
X83673234Y-134140152D01*
X83656678Y-134146326D01*
X83609945Y-134160049D01*
X83568986Y-134186372D01*
X83553469Y-134194846D01*
X83548295Y-134197209D01*
X83548290Y-134197212D01*
X83543995Y-134200934D01*
X83529840Y-134211530D01*
X83488873Y-134237858D01*
X83488869Y-134237862D01*
X83456987Y-134274656D01*
X83444483Y-134287161D01*
X83440184Y-134290886D01*
X83440182Y-134290888D01*
X83437101Y-134295682D01*
X83426507Y-134309832D01*
X83394625Y-134346627D01*
X83394621Y-134346633D01*
X83374397Y-134390917D01*
X83365921Y-134406440D01*
X83362846Y-134411224D01*
X83362844Y-134411228D01*
X83361242Y-134416685D01*
X83355063Y-134433253D01*
X83334835Y-134477548D01*
X83327904Y-134525747D01*
X83324148Y-134543019D01*
X83322546Y-134548478D01*
X83322545Y-134548480D01*
X83322545Y-134554161D01*
X83321283Y-134571807D01*
X83314354Y-134620001D01*
X54324889Y-134620001D01*
X54326767Y-134050724D01*
X54346672Y-133983752D01*
X54356971Y-133970027D01*
X54392429Y-133929024D01*
X54877006Y-133368653D01*
X55936091Y-132087288D01*
X55993971Y-132048158D01*
X56032297Y-132042292D01*
X60732072Y-132066517D01*
X60799007Y-132086547D01*
X60844489Y-132139586D01*
X60854076Y-132208794D01*
X60836852Y-132251409D01*
X60838803Y-132252536D01*
X60834738Y-132259576D01*
X60779271Y-132393487D01*
X60779270Y-132393491D01*
X60760350Y-132537199D01*
X60760350Y-132537200D01*
X60779270Y-132680908D01*
X60779271Y-132680912D01*
X60834737Y-132814822D01*
X60834738Y-132814824D01*
X60834739Y-132814825D01*
X60922979Y-132929821D01*
X61037975Y-133018061D01*
X61171891Y-133073530D01*
X61298880Y-133090248D01*
X61315599Y-133092450D01*
X61315600Y-133092450D01*
X61315601Y-133092450D01*
X61330577Y-133090478D01*
X61459309Y-133073530D01*
X61593225Y-133018061D01*
X61708221Y-132929821D01*
X61796461Y-132814825D01*
X61851930Y-132680909D01*
X61870850Y-132537200D01*
X61851930Y-132393491D01*
X61823158Y-132324028D01*
X61796461Y-132259574D01*
X61795873Y-132258556D01*
X61795637Y-132257587D01*
X61793351Y-132252066D01*
X61794211Y-132251709D01*
X61779399Y-132190656D01*
X61802251Y-132124629D01*
X61857171Y-132081438D01*
X61903891Y-132072558D01*
X70089748Y-132114753D01*
X70156684Y-132134783D01*
X70202166Y-132187822D01*
X70205049Y-132194777D01*
X70209579Y-132206722D01*
X70213319Y-132212140D01*
X70299317Y-132336730D01*
X70417560Y-132441483D01*
X70417562Y-132441484D01*
X70557434Y-132514896D01*
X70710814Y-132552700D01*
X70710815Y-132552700D01*
X70868785Y-132552700D01*
X71022165Y-132514896D01*
X71052410Y-132499022D01*
X71162040Y-132441483D01*
X71280283Y-132336730D01*
X71370020Y-132206723D01*
X71371812Y-132201998D01*
X71413985Y-132146292D01*
X71479581Y-132122230D01*
X71488372Y-132121962D01*
X71989350Y-132124545D01*
X72056284Y-132144573D01*
X72101766Y-132197613D01*
X72111353Y-132266821D01*
X72087084Y-132324028D01*
X72048837Y-132373872D01*
X72048836Y-132373874D01*
X71993369Y-132507785D01*
X71993368Y-132507789D01*
X71974448Y-132651498D01*
X71978320Y-132680912D01*
X71993368Y-132795206D01*
X71993369Y-132795210D01*
X72048835Y-132929120D01*
X72048836Y-132929122D01*
X72048837Y-132929123D01*
X72137077Y-133044119D01*
X72252073Y-133132359D01*
X72385989Y-133187828D01*
X72512978Y-133204546D01*
X72529697Y-133206748D01*
X72529698Y-133206748D01*
X72529699Y-133206748D01*
X72544675Y-133204776D01*
X72673407Y-133187828D01*
X72807323Y-133132359D01*
X72922319Y-133044119D01*
X73010559Y-132929123D01*
X73066028Y-132795207D01*
X73084948Y-132651498D01*
X73066028Y-132507789D01*
X73010559Y-132373873D01*
X72985794Y-132341599D01*
X72976608Y-132329627D01*
X72951414Y-132264458D01*
X72965452Y-132196013D01*
X73014266Y-132146024D01*
X73075617Y-132130144D01*
X74807536Y-132139071D01*
X74874471Y-132159101D01*
X74919953Y-132212140D01*
X74929540Y-132281349D01*
X74905271Y-132338555D01*
X74884898Y-132365105D01*
X74884897Y-132365107D01*
X74829430Y-132499018D01*
X74829429Y-132499022D01*
X74810509Y-132642730D01*
X74810509Y-132642731D01*
X74829429Y-132786439D01*
X74829430Y-132786443D01*
X74884896Y-132920353D01*
X74884897Y-132920355D01*
X74884898Y-132920356D01*
X74973138Y-133035352D01*
X75088134Y-133123592D01*
X75222050Y-133179061D01*
X75349039Y-133195779D01*
X75365758Y-133197981D01*
X75365759Y-133197981D01*
X75365760Y-133197981D01*
X75380736Y-133196009D01*
X75509468Y-133179061D01*
X75643384Y-133123592D01*
X75752420Y-133039924D01*
X75817589Y-133014730D01*
X75827907Y-133014300D01*
X84453853Y-133014300D01*
X84516271Y-133031155D01*
X96804623Y-140190068D01*
X96852638Y-140240821D01*
X96865592Y-140309480D01*
X96839371Y-140374242D01*
X96782299Y-140414548D01*
X96758387Y-140420149D01*
X96681577Y-140430262D01*
X96655691Y-140433670D01*
X96655690Y-140433670D01*
X96655687Y-140433671D01*
X96521777Y-140489137D01*
X96464561Y-140533041D01*
X96406779Y-140577379D01*
X96318539Y-140692375D01*
X96318538Y-140692376D01*
X96318538Y-140692377D01*
X96294644Y-140750062D01*
X96250803Y-140804465D01*
X96184508Y-140826530D01*
X96116809Y-140809250D01*
X96069199Y-140758113D01*
X96065522Y-140750061D01*
X96041629Y-140692377D01*
X96041628Y-140692376D01*
X96041628Y-140692375D01*
X95953388Y-140577379D01*
X95838392Y-140489139D01*
X95838391Y-140489138D01*
X95838389Y-140489137D01*
X95704479Y-140433671D01*
X95704477Y-140433670D01*
X95704476Y-140433670D01*
X95601776Y-140420149D01*
X95560768Y-140414750D01*
X95560766Y-140414750D01*
X95417058Y-140433670D01*
X95417054Y-140433671D01*
X95283144Y-140489137D01*
X95168146Y-140577379D01*
X95079904Y-140692377D01*
X95024438Y-140826287D01*
X95024437Y-140826291D01*
X95005756Y-140968188D01*
X95005517Y-140970000D01*
X95024405Y-141113469D01*
X95024437Y-141113708D01*
X95024438Y-141113712D01*
X95079904Y-141247622D01*
X95079905Y-141247623D01*
X95079906Y-141247625D01*
X95168146Y-141362621D01*
X95203205Y-141389523D01*
X95283111Y-141450838D01*
X95324313Y-141507266D01*
X95328468Y-141577012D01*
X95294255Y-141637932D01*
X95283111Y-141647588D01*
X95179129Y-141727377D01*
X95179128Y-141727378D01*
X95179127Y-141727379D01*
X95154729Y-141759175D01*
X95090885Y-141842377D01*
X95035419Y-141976287D01*
X95035418Y-141976291D01*
X95016953Y-142116547D01*
X95016498Y-142120000D01*
X95035386Y-142263469D01*
X95035418Y-142263708D01*
X95035419Y-142263712D01*
X95090885Y-142397622D01*
X95090886Y-142397623D01*
X95090887Y-142397625D01*
X95179127Y-142512621D01*
X95267155Y-142580167D01*
X95308356Y-142636594D01*
X95312511Y-142706341D01*
X95278298Y-142767261D01*
X95267155Y-142776917D01*
X95187580Y-142837978D01*
X95187579Y-142837979D01*
X95178663Y-142849599D01*
X95099337Y-142952977D01*
X95043871Y-143086887D01*
X95043870Y-143086891D01*
X95029373Y-143197008D01*
X95024950Y-143230600D01*
X95042415Y-143363261D01*
X95043870Y-143374308D01*
X95043871Y-143374312D01*
X95099337Y-143508222D01*
X95099338Y-143508224D01*
X95099339Y-143508225D01*
X95187579Y-143623221D01*
X95302575Y-143711461D01*
X95302576Y-143711461D01*
X95302577Y-143711462D01*
X95347213Y-143729950D01*
X95436491Y-143766930D01*
X95563480Y-143783648D01*
X95580199Y-143785850D01*
X95580200Y-143785850D01*
X95580201Y-143785850D01*
X95595177Y-143783878D01*
X95723909Y-143766930D01*
X95857825Y-143711461D01*
X95972821Y-143623221D01*
X96061061Y-143508225D01*
X96062538Y-143504656D01*
X96064592Y-143502108D01*
X96065125Y-143501186D01*
X96065268Y-143501269D01*
X96106378Y-143450254D01*
X96172672Y-143428188D01*
X96240371Y-143445466D01*
X96287983Y-143496602D01*
X96291656Y-143504646D01*
X96293139Y-143508225D01*
X96381379Y-143623221D01*
X96496375Y-143711461D01*
X96496376Y-143711461D01*
X96496377Y-143711462D01*
X96541013Y-143729950D01*
X96630291Y-143766930D01*
X96757280Y-143783648D01*
X96773999Y-143785850D01*
X96774000Y-143785850D01*
X96774001Y-143785850D01*
X96788977Y-143783878D01*
X96917709Y-143766930D01*
X97051625Y-143711461D01*
X97166621Y-143623221D01*
X97254861Y-143508225D01*
X97254861Y-143508222D01*
X97259808Y-143501777D01*
X97262710Y-143504004D01*
X97300890Y-143467274D01*
X97369437Y-143453746D01*
X97434417Y-143479425D01*
X97454905Y-143503070D01*
X97456592Y-143501777D01*
X97461538Y-143508222D01*
X97461539Y-143508225D01*
X97549779Y-143623221D01*
X97664775Y-143711461D01*
X97664776Y-143711461D01*
X97664777Y-143711462D01*
X97709413Y-143729950D01*
X97798691Y-143766930D01*
X97925680Y-143783648D01*
X97942399Y-143785850D01*
X97942400Y-143785850D01*
X97942401Y-143785850D01*
X97957377Y-143783878D01*
X98086109Y-143766930D01*
X98220025Y-143711461D01*
X98335021Y-143623221D01*
X98423261Y-143508225D01*
X98478730Y-143374309D01*
X98497650Y-143230600D01*
X98478730Y-143086891D01*
X98434260Y-142979529D01*
X98433047Y-142976600D01*
X102822750Y-142976600D01*
X102837940Y-143091981D01*
X102841670Y-143120308D01*
X102841671Y-143120312D01*
X102897137Y-143254222D01*
X102897138Y-143254224D01*
X102897139Y-143254225D01*
X102985379Y-143369221D01*
X103100375Y-143457461D01*
X103100376Y-143457461D01*
X103100377Y-143457462D01*
X103111647Y-143462130D01*
X103234291Y-143512930D01*
X103361280Y-143529648D01*
X103377999Y-143531850D01*
X103378000Y-143531850D01*
X103378001Y-143531850D01*
X103392977Y-143529878D01*
X103521709Y-143512930D01*
X103655625Y-143457461D01*
X103770621Y-143369221D01*
X103858861Y-143254225D01*
X103914330Y-143120309D01*
X103933250Y-142976600D01*
X103914330Y-142832891D01*
X103869570Y-142724829D01*
X103858862Y-142698977D01*
X103858861Y-142698976D01*
X103858861Y-142698975D01*
X103770621Y-142583979D01*
X103655625Y-142495739D01*
X103655624Y-142495738D01*
X103655622Y-142495737D01*
X103521712Y-142440271D01*
X103521710Y-142440270D01*
X103521709Y-142440270D01*
X103439289Y-142429419D01*
X103378001Y-142421350D01*
X103377999Y-142421350D01*
X103234291Y-142440270D01*
X103234287Y-142440271D01*
X103100377Y-142495737D01*
X102985379Y-142583979D01*
X102897137Y-142698977D01*
X102841671Y-142832887D01*
X102841670Y-142832891D01*
X102832932Y-142899265D01*
X102822750Y-142976600D01*
X98433047Y-142976600D01*
X98423262Y-142952977D01*
X98423261Y-142952976D01*
X98423261Y-142952975D01*
X98335021Y-142837979D01*
X98269033Y-142787344D01*
X98227833Y-142730919D01*
X98223678Y-142661173D01*
X98257891Y-142600252D01*
X98269029Y-142590600D01*
X98370654Y-142512621D01*
X98458894Y-142397625D01*
X98514363Y-142263709D01*
X98533283Y-142120000D01*
X98531803Y-142108762D01*
X98525307Y-142059419D01*
X98514363Y-141976291D01*
X98469357Y-141867635D01*
X98458895Y-141842377D01*
X98458894Y-141842376D01*
X98458894Y-141842375D01*
X98370654Y-141727379D01*
X98335961Y-141700758D01*
X98255688Y-141639161D01*
X98247465Y-141627900D01*
X102609435Y-141627900D01*
X102628355Y-141771608D01*
X102628356Y-141771612D01*
X102683822Y-141905522D01*
X102683823Y-141905524D01*
X102683824Y-141905525D01*
X102772064Y-142020521D01*
X102887060Y-142108761D01*
X103020976Y-142164230D01*
X103144602Y-142180506D01*
X103164684Y-142183150D01*
X103164685Y-142183150D01*
X103164686Y-142183150D01*
X103184760Y-142180507D01*
X103308394Y-142164230D01*
X103442310Y-142108761D01*
X103557306Y-142020521D01*
X103645546Y-141905525D01*
X103701015Y-141771609D01*
X103719935Y-141627900D01*
X103701015Y-141484191D01*
X103645546Y-141350275D01*
X103557306Y-141235279D01*
X103442310Y-141147039D01*
X103442309Y-141147038D01*
X103442307Y-141147037D01*
X103308397Y-141091571D01*
X103308395Y-141091570D01*
X103308394Y-141091570D01*
X103202504Y-141077629D01*
X103164686Y-141072650D01*
X103164684Y-141072650D01*
X103020976Y-141091570D01*
X103020972Y-141091571D01*
X102887062Y-141147037D01*
X102772064Y-141235279D01*
X102683822Y-141350277D01*
X102628356Y-141484187D01*
X102628355Y-141484191D01*
X102609435Y-141627899D01*
X102609435Y-141627900D01*
X98247465Y-141627900D01*
X98214485Y-141582733D01*
X98210331Y-141512987D01*
X98244544Y-141452067D01*
X98255677Y-141442420D01*
X98359673Y-141362621D01*
X98447913Y-141247625D01*
X98503382Y-141113709D01*
X98522302Y-140970000D01*
X98522063Y-140968188D01*
X98514941Y-140914088D01*
X98503382Y-140826291D01*
X98455006Y-140709500D01*
X98447914Y-140692377D01*
X98447913Y-140692376D01*
X98447913Y-140692375D01*
X98359673Y-140577379D01*
X98324785Y-140550608D01*
X98283582Y-140494180D01*
X98279428Y-140424434D01*
X98313641Y-140363514D01*
X98375359Y-140330762D01*
X98399649Y-140328235D01*
X98642251Y-140327015D01*
X102108000Y-140309600D01*
X102132321Y-138303000D01*
X105973922Y-138303000D01*
X105992962Y-138459818D01*
X106048980Y-138607523D01*
X106138717Y-138737530D01*
X106256960Y-138842283D01*
X106256962Y-138842284D01*
X106396834Y-138915696D01*
X106550214Y-138953500D01*
X106550215Y-138953500D01*
X106708185Y-138953500D01*
X106861565Y-138915696D01*
X107001440Y-138842283D01*
X107119683Y-138737530D01*
X107209420Y-138607523D01*
X107265437Y-138459818D01*
X107284478Y-138303000D01*
X107281398Y-138277629D01*
X107265437Y-138146181D01*
X107236436Y-138069712D01*
X107209420Y-137998477D01*
X107119683Y-137868470D01*
X107001440Y-137763717D01*
X107001438Y-137763716D01*
X107001437Y-137763715D01*
X106861565Y-137690303D01*
X106708186Y-137652500D01*
X106708185Y-137652500D01*
X106550215Y-137652500D01*
X106550214Y-137652500D01*
X106396834Y-137690303D01*
X106256962Y-137763715D01*
X106138716Y-137868471D01*
X106048981Y-137998475D01*
X106048980Y-137998476D01*
X105992962Y-138146181D01*
X105973922Y-138302999D01*
X105973922Y-138303000D01*
X102132321Y-138303000D01*
X102132629Y-138277629D01*
X102153125Y-138210837D01*
X102206479Y-138165726D01*
X102275753Y-138156621D01*
X102314246Y-138169339D01*
X102332835Y-138179096D01*
X102382293Y-138191286D01*
X102486214Y-138216900D01*
X102486215Y-138216900D01*
X102644185Y-138216900D01*
X102797565Y-138179096D01*
X102840387Y-138156621D01*
X102937440Y-138105683D01*
X103055683Y-138000930D01*
X103145420Y-137870923D01*
X103201437Y-137723218D01*
X103220478Y-137566400D01*
X103211415Y-137491754D01*
X103201437Y-137409581D01*
X103165692Y-137315330D01*
X103145420Y-137261877D01*
X103055683Y-137131870D01*
X102937440Y-137027117D01*
X102937438Y-137027116D01*
X102937437Y-137027115D01*
X102797565Y-136953703D01*
X102644186Y-136915900D01*
X102644185Y-136915900D01*
X102486215Y-136915900D01*
X102486214Y-136915900D01*
X102332834Y-136953703D01*
X102331632Y-136954335D01*
X102330653Y-136954531D01*
X102325823Y-136956363D01*
X102325518Y-136955559D01*
X102263123Y-136968058D01*
X102198070Y-136942564D01*
X102157128Y-136885947D01*
X102150018Y-136843039D01*
X102156162Y-136336157D01*
X102176658Y-136269365D01*
X102230012Y-136224254D01*
X102299286Y-136215149D01*
X102309827Y-136217266D01*
X102384615Y-136235700D01*
X102542585Y-136235700D01*
X102695965Y-136197896D01*
X102835840Y-136124483D01*
X102835841Y-136124481D01*
X102842481Y-136120997D01*
X102843756Y-136123426D01*
X102897876Y-136105572D01*
X102899692Y-136105525D01*
X103010800Y-136103564D01*
X103075190Y-136121243D01*
X103075319Y-136120998D01*
X103076442Y-136121587D01*
X103078174Y-136122063D01*
X103081543Y-136124265D01*
X103221834Y-136197896D01*
X103375214Y-136235700D01*
X103375215Y-136235700D01*
X103533185Y-136235700D01*
X103686565Y-136197896D01*
X103826440Y-136124483D01*
X103832839Y-136118813D01*
X103896071Y-136089090D01*
X103912870Y-136087645D01*
X103980400Y-136086454D01*
X104047773Y-136104951D01*
X104064814Y-136117620D01*
X104072555Y-136124479D01*
X104072559Y-136124482D01*
X104072561Y-136124484D01*
X104212434Y-136197896D01*
X104365814Y-136235700D01*
X104365815Y-136235700D01*
X104523785Y-136235700D01*
X104677165Y-136197896D01*
X104817040Y-136124483D01*
X104832471Y-136110811D01*
X104895699Y-136081089D01*
X104964963Y-136090269D01*
X104996927Y-136110810D01*
X105012355Y-136124479D01*
X105012359Y-136124482D01*
X105012361Y-136124484D01*
X105152234Y-136197896D01*
X105305614Y-136235700D01*
X105305615Y-136235700D01*
X105463585Y-136235700D01*
X105616965Y-136197896D01*
X105756833Y-136124487D01*
X105756838Y-136124484D01*
X105756837Y-136124484D01*
X105756840Y-136124483D01*
X105802478Y-136084051D01*
X105865706Y-136054332D01*
X105882508Y-136052887D01*
X106476800Y-136042400D01*
X107746800Y-134086600D01*
X107795044Y-131794988D01*
X107816136Y-131728380D01*
X107869891Y-131683746D01*
X107919017Y-131673600D01*
X111316573Y-131673600D01*
X111383612Y-131693285D01*
G37*
%TD.AperFunction*%
%TD*%
%TA.AperFunction,Conductor*%
%TO.N,GND*%
G36*
X84594268Y-105134054D02*
G01*
X85150520Y-105153601D01*
X85645759Y-105180592D01*
X86201200Y-105219678D01*
X86694701Y-105264583D01*
X87248914Y-105323202D01*
X87739873Y-105385912D01*
X88292349Y-105464053D01*
X88779773Y-105544384D01*
X89292215Y-105635322D01*
X89330088Y-105642044D01*
X89402834Y-105656762D01*
X89813111Y-105739773D01*
X90360952Y-105856977D01*
X90838405Y-105971761D01*
X91383483Y-106108556D01*
X91854333Y-106239999D01*
X92361390Y-106386362D01*
X92396374Y-106396460D01*
X92859337Y-106544009D01*
X92933656Y-106568319D01*
X93398468Y-106720364D01*
X93851657Y-106883139D01*
X94388327Y-107079809D01*
X94829448Y-107256574D01*
X95364770Y-107474366D01*
X95649233Y-107600521D01*
X95789939Y-107662922D01*
X95898111Y-107711425D01*
X96326537Y-107903530D01*
X96727844Y-108099227D01*
X97272394Y-108366752D01*
X97380878Y-108424618D01*
X97628027Y-108556449D01*
X98201143Y-108863448D01*
X98361580Y-108956658D01*
X99059613Y-109362745D01*
X99107662Y-109413471D01*
X99114398Y-109429252D01*
X99375191Y-110180310D01*
X99962301Y-111756874D01*
X100512586Y-113139548D01*
X100519086Y-113209114D01*
X100486944Y-113271152D01*
X100426364Y-113305964D01*
X100397375Y-113309400D01*
X88674995Y-113309400D01*
X88607956Y-113289715D01*
X88562201Y-113236911D01*
X88552056Y-113201587D01*
X88550530Y-113189998D01*
X88547330Y-113165691D01*
X88494726Y-113038692D01*
X88491862Y-113031777D01*
X88491861Y-113031776D01*
X88491861Y-113031775D01*
X88403621Y-112916779D01*
X88288625Y-112828539D01*
X88288624Y-112828538D01*
X88288622Y-112828537D01*
X88154712Y-112773071D01*
X88154710Y-112773070D01*
X88154709Y-112773070D01*
X88069760Y-112761886D01*
X88011001Y-112754150D01*
X88002873Y-112754150D01*
X88002873Y-112752410D01*
X87943608Y-112743166D01*
X87891354Y-112696785D01*
X87873522Y-112647180D01*
X87872862Y-112642164D01*
X87861530Y-112556092D01*
X87806061Y-112422176D01*
X87717821Y-112307180D01*
X87602825Y-112218940D01*
X87602824Y-112218939D01*
X87602822Y-112218938D01*
X87468912Y-112163472D01*
X87468910Y-112163471D01*
X87468909Y-112163471D01*
X87397054Y-112154011D01*
X87325201Y-112144551D01*
X87325199Y-112144551D01*
X87181491Y-112163471D01*
X87181487Y-112163472D01*
X87047577Y-112218938D01*
X86932579Y-112307180D01*
X86844337Y-112422178D01*
X86788871Y-112556088D01*
X86788870Y-112556092D01*
X86769950Y-112699800D01*
X86769950Y-112699801D01*
X86788870Y-112843509D01*
X86788871Y-112843513D01*
X86844337Y-112977423D01*
X86844338Y-112977425D01*
X86844339Y-112977426D01*
X86932579Y-113092422D01*
X86932581Y-113092423D01*
X86932583Y-113092426D01*
X86937876Y-113097719D01*
X86971361Y-113159042D01*
X86966377Y-113228734D01*
X86924505Y-113284667D01*
X86859041Y-113309084D01*
X86850195Y-113309400D01*
X80536850Y-113309400D01*
X80469811Y-113289715D01*
X80424056Y-113236911D01*
X80413949Y-113190453D01*
X80413911Y-113190459D01*
X80413850Y-113189998D01*
X80412850Y-113185400D01*
X80412850Y-113182400D01*
X80403881Y-113114276D01*
X80393930Y-113038692D01*
X80338461Y-112904776D01*
X80250221Y-112789780D01*
X80135225Y-112701540D01*
X80135224Y-112701539D01*
X80135222Y-112701538D01*
X80001312Y-112646072D01*
X80001310Y-112646071D01*
X80001309Y-112646071D01*
X79929454Y-112636611D01*
X79857601Y-112627151D01*
X79857599Y-112627151D01*
X79853344Y-112627711D01*
X79849754Y-112627151D01*
X79849473Y-112627151D01*
X79849473Y-112627107D01*
X79784309Y-112616942D01*
X79732056Y-112570560D01*
X79722603Y-112552223D01*
X79680503Y-112450583D01*
X79680502Y-112450582D01*
X79680502Y-112450581D01*
X79592262Y-112335585D01*
X79477266Y-112247345D01*
X79477265Y-112247344D01*
X79477263Y-112247343D01*
X79343353Y-112191877D01*
X79343351Y-112191876D01*
X79343350Y-112191876D01*
X79271495Y-112182416D01*
X79199642Y-112172956D01*
X79199640Y-112172956D01*
X79055932Y-112191876D01*
X79055928Y-112191877D01*
X78922018Y-112247343D01*
X78807020Y-112335585D01*
X78718778Y-112450583D01*
X78663312Y-112584493D01*
X78663311Y-112584497D01*
X78644391Y-112728205D01*
X78644391Y-112728206D01*
X78663311Y-112871914D01*
X78663312Y-112871918D01*
X78718778Y-113005828D01*
X78718779Y-113005830D01*
X78718780Y-113005831D01*
X78798646Y-113109914D01*
X78823840Y-113175083D01*
X78809802Y-113243527D01*
X78760988Y-113293517D01*
X78700270Y-113309400D01*
X71002937Y-113309400D01*
X70935898Y-113289715D01*
X70890143Y-113236911D01*
X70880199Y-113167753D01*
X70901362Y-113114276D01*
X70998200Y-112975978D01*
X71098029Y-112761892D01*
X71098032Y-112761886D01*
X71155236Y-112548400D01*
X70258286Y-112548400D01*
X70284093Y-112508244D01*
X70324600Y-112370289D01*
X70324600Y-112226511D01*
X70284093Y-112088556D01*
X70258286Y-112048400D01*
X71155236Y-112048400D01*
X71155235Y-112048399D01*
X71098032Y-111834913D01*
X71098029Y-111834907D01*
X71027567Y-111683800D01*
X95101150Y-111683800D01*
X95120070Y-111827508D01*
X95120071Y-111827512D01*
X95175537Y-111961422D01*
X95175538Y-111961424D01*
X95175539Y-111961425D01*
X95263779Y-112076421D01*
X95378775Y-112164661D01*
X95512691Y-112220130D01*
X95639680Y-112236848D01*
X95656399Y-112239050D01*
X95656400Y-112239050D01*
X95656401Y-112239050D01*
X95671377Y-112237078D01*
X95800109Y-112220130D01*
X95934025Y-112164661D01*
X96049021Y-112076421D01*
X96137261Y-111961425D01*
X96192730Y-111827509D01*
X96211650Y-111683800D01*
X96192730Y-111540091D01*
X96146022Y-111427326D01*
X96137262Y-111406177D01*
X96137261Y-111406176D01*
X96137261Y-111406175D01*
X96049021Y-111291179D01*
X95934025Y-111202939D01*
X95934024Y-111202938D01*
X95934022Y-111202937D01*
X95800112Y-111147471D01*
X95800110Y-111147470D01*
X95800109Y-111147470D01*
X95728254Y-111138010D01*
X95656401Y-111128550D01*
X95656399Y-111128550D01*
X95512691Y-111147470D01*
X95512687Y-111147471D01*
X95378777Y-111202937D01*
X95263779Y-111291179D01*
X95175537Y-111406177D01*
X95120071Y-111540087D01*
X95120070Y-111540091D01*
X95101150Y-111683799D01*
X95101150Y-111683800D01*
X71027567Y-111683800D01*
X70998200Y-111620822D01*
X70998199Y-111620820D01*
X70862713Y-111427326D01*
X70862708Y-111427320D01*
X70695682Y-111260294D01*
X70502178Y-111124799D01*
X70288092Y-111024970D01*
X70288086Y-111024967D01*
X70074600Y-110967764D01*
X70074600Y-111862898D01*
X69966915Y-111813720D01*
X69860363Y-111798400D01*
X69788837Y-111798400D01*
X69682285Y-111813720D01*
X69574600Y-111862898D01*
X69574600Y-110967764D01*
X69574599Y-110967764D01*
X69361113Y-111024967D01*
X69361107Y-111024970D01*
X69147022Y-111124799D01*
X69147020Y-111124800D01*
X68953526Y-111260286D01*
X68953520Y-111260291D01*
X68786491Y-111427320D01*
X68786486Y-111427326D01*
X68651000Y-111620820D01*
X68650999Y-111620822D01*
X68551170Y-111834907D01*
X68551167Y-111834913D01*
X68493964Y-112048399D01*
X68493964Y-112048400D01*
X69390914Y-112048400D01*
X69365107Y-112088556D01*
X69324600Y-112226511D01*
X69324600Y-112370289D01*
X69365107Y-112508244D01*
X69390914Y-112548400D01*
X68493964Y-112548400D01*
X68551167Y-112761886D01*
X68551170Y-112761892D01*
X68650999Y-112975978D01*
X68747838Y-113114276D01*
X68770165Y-113180482D01*
X68753155Y-113248249D01*
X68702207Y-113296063D01*
X68646263Y-113309400D01*
X67242619Y-113309400D01*
X67175580Y-113289715D01*
X67129825Y-113236911D01*
X67119881Y-113167753D01*
X67127408Y-113139548D01*
X67677694Y-111756871D01*
X68177851Y-110413800D01*
X94389950Y-110413800D01*
X94408870Y-110557508D01*
X94408871Y-110557512D01*
X94464337Y-110691422D01*
X94464338Y-110691424D01*
X94464339Y-110691425D01*
X94552579Y-110806421D01*
X94667575Y-110894661D01*
X94801491Y-110950130D01*
X94928480Y-110966848D01*
X94945199Y-110969050D01*
X94945200Y-110969050D01*
X94945201Y-110969050D01*
X94960177Y-110967078D01*
X95088909Y-110950130D01*
X95222825Y-110894661D01*
X95337821Y-110806421D01*
X95426061Y-110691425D01*
X95481530Y-110557509D01*
X95500450Y-110413800D01*
X95481530Y-110270091D01*
X95426061Y-110136175D01*
X95337821Y-110021179D01*
X95222825Y-109932939D01*
X95222824Y-109932938D01*
X95222822Y-109932937D01*
X95088912Y-109877471D01*
X95088910Y-109877470D01*
X95088909Y-109877470D01*
X95017054Y-109868010D01*
X94945201Y-109858550D01*
X94945199Y-109858550D01*
X94801491Y-109877470D01*
X94801487Y-109877471D01*
X94667577Y-109932937D01*
X94552579Y-110021179D01*
X94464337Y-110136177D01*
X94408871Y-110270087D01*
X94408870Y-110270091D01*
X94389950Y-110413799D01*
X94389950Y-110413800D01*
X68177851Y-110413800D01*
X68264803Y-110180308D01*
X68413865Y-109751021D01*
X68525591Y-109429258D01*
X68566175Y-109372386D01*
X68580368Y-109362756D01*
X68913077Y-109169200D01*
X80225585Y-109169200D01*
X80244402Y-109372282D01*
X80300217Y-109568447D01*
X80300222Y-109568460D01*
X80391127Y-109751021D01*
X80514037Y-109913781D01*
X80664758Y-110051180D01*
X80664760Y-110051182D01*
X80763941Y-110112592D01*
X80838163Y-110158548D01*
X81028344Y-110232224D01*
X81228824Y-110269700D01*
X81228826Y-110269700D01*
X81432774Y-110269700D01*
X81432776Y-110269700D01*
X81633256Y-110232224D01*
X81823437Y-110158548D01*
X81996841Y-110051181D01*
X82147564Y-109913779D01*
X82270473Y-109751021D01*
X82361382Y-109568450D01*
X82417197Y-109372283D01*
X82436015Y-109169200D01*
X82765585Y-109169200D01*
X82784402Y-109372282D01*
X82840217Y-109568447D01*
X82840222Y-109568460D01*
X82931127Y-109751021D01*
X83054037Y-109913781D01*
X83204758Y-110051180D01*
X83204760Y-110051182D01*
X83303941Y-110112592D01*
X83378163Y-110158548D01*
X83568344Y-110232224D01*
X83768824Y-110269700D01*
X83768826Y-110269700D01*
X83972774Y-110269700D01*
X83972776Y-110269700D01*
X84173256Y-110232224D01*
X84363437Y-110158548D01*
X84536841Y-110051181D01*
X84544852Y-110043878D01*
X85310300Y-110043878D01*
X85324832Y-110116935D01*
X85324833Y-110116939D01*
X85343205Y-110144435D01*
X85380199Y-110199801D01*
X85463060Y-110255166D01*
X85463064Y-110255167D01*
X85536121Y-110269699D01*
X85536124Y-110269700D01*
X85536126Y-110269700D01*
X87285476Y-110269700D01*
X87285477Y-110269699D01*
X87358540Y-110255166D01*
X87441401Y-110199801D01*
X87496766Y-110116940D01*
X87511300Y-110043874D01*
X87511300Y-108294526D01*
X87511300Y-108294523D01*
X87511299Y-108294521D01*
X87496767Y-108221464D01*
X87496766Y-108221460D01*
X87441401Y-108138599D01*
X87358540Y-108083234D01*
X87358539Y-108083233D01*
X87358535Y-108083232D01*
X87285477Y-108068700D01*
X87285474Y-108068700D01*
X85536126Y-108068700D01*
X85536123Y-108068700D01*
X85463064Y-108083232D01*
X85463060Y-108083233D01*
X85380199Y-108138599D01*
X85324833Y-108221460D01*
X85324832Y-108221464D01*
X85310300Y-108294521D01*
X85310300Y-110043878D01*
X84544852Y-110043878D01*
X84687564Y-109913779D01*
X84810473Y-109751021D01*
X84901382Y-109568450D01*
X84957197Y-109372283D01*
X84976015Y-109169200D01*
X84957197Y-108966117D01*
X84901382Y-108769950D01*
X84810473Y-108587379D01*
X84687564Y-108424621D01*
X84687562Y-108424618D01*
X84536841Y-108287219D01*
X84536839Y-108287217D01*
X84363442Y-108179855D01*
X84363435Y-108179851D01*
X84255763Y-108138139D01*
X84173256Y-108106176D01*
X83972776Y-108068700D01*
X83768824Y-108068700D01*
X83568344Y-108106176D01*
X83568341Y-108106176D01*
X83568341Y-108106177D01*
X83378164Y-108179851D01*
X83378157Y-108179855D01*
X83204760Y-108287217D01*
X83204758Y-108287219D01*
X83054037Y-108424618D01*
X82931127Y-108587378D01*
X82840222Y-108769939D01*
X82840217Y-108769952D01*
X82784402Y-108966117D01*
X82765585Y-109169199D01*
X82765585Y-109169200D01*
X82436015Y-109169200D01*
X82417197Y-108966117D01*
X82361382Y-108769950D01*
X82270473Y-108587379D01*
X82147564Y-108424621D01*
X82147562Y-108424618D01*
X81996841Y-108287219D01*
X81996839Y-108287217D01*
X81823442Y-108179855D01*
X81823435Y-108179851D01*
X81715763Y-108138139D01*
X81633256Y-108106176D01*
X81432776Y-108068700D01*
X81228824Y-108068700D01*
X81028344Y-108106176D01*
X81028341Y-108106176D01*
X81028341Y-108106177D01*
X80838164Y-108179851D01*
X80838157Y-108179855D01*
X80664760Y-108287217D01*
X80664758Y-108287219D01*
X80514037Y-108424618D01*
X80391127Y-108587378D01*
X80300222Y-108769939D01*
X80300217Y-108769952D01*
X80244402Y-108966117D01*
X80225585Y-109169199D01*
X80225585Y-109169200D01*
X68913077Y-109169200D01*
X69278606Y-108956551D01*
X69438831Y-108863462D01*
X70012310Y-108556269D01*
X70367591Y-108366759D01*
X70912379Y-108099117D01*
X71313448Y-107903537D01*
X71850315Y-107662808D01*
X72275215Y-107474373D01*
X72810596Y-107256556D01*
X73251663Y-107079813D01*
X73788388Y-106883123D01*
X74241540Y-106720362D01*
X74780678Y-106544004D01*
X75243603Y-106396466D01*
X75785661Y-106240001D01*
X76256526Y-106108554D01*
X76801597Y-105971761D01*
X77279037Y-105856979D01*
X77826877Y-105739776D01*
X78309893Y-105642047D01*
X78860186Y-105544391D01*
X79347644Y-105464054D01*
X79900158Y-105385908D01*
X80391064Y-105323205D01*
X80945282Y-105264584D01*
X81438810Y-105219677D01*
X81994263Y-105180590D01*
X82489484Y-105153601D01*
X83045737Y-105134054D01*
X83541774Y-105125052D01*
X84098228Y-105125052D01*
X84594268Y-105134054D01*
G37*
%TD.AperFunction*%
%TD*%
M02*
