%TF.GenerationSoftware,KiCad,Pcbnew,7.0.9*%
%TF.CreationDate,2023-12-12T19:27:25-05:00*%
%TF.ProjectId,MotorDriver,4d6f746f-7244-4726-9976-65722e6b6963,rev?*%
%TF.SameCoordinates,Original*%
%TF.FileFunction,Paste,Top*%
%TF.FilePolarity,Positive*%
%FSLAX46Y46*%
G04 Gerber Fmt 4.6, Leading zero omitted, Abs format (unit mm)*
G04 Created by KiCad (PCBNEW 7.0.9) date 2023-12-12 19:27:25*
%MOMM*%
%LPD*%
G01*
G04 APERTURE LIST*
G04 Aperture macros list*
%AMRoundRect*
0 Rectangle with rounded corners*
0 $1 Rounding radius*
0 $2 $3 $4 $5 $6 $7 $8 $9 X,Y pos of 4 corners*
0 Add a 4 corners polygon primitive as box body*
4,1,4,$2,$3,$4,$5,$6,$7,$8,$9,$2,$3,0*
0 Add four circle primitives for the rounded corners*
1,1,$1+$1,$2,$3*
1,1,$1+$1,$4,$5*
1,1,$1+$1,$6,$7*
1,1,$1+$1,$8,$9*
0 Add four rect primitives between the rounded corners*
20,1,$1+$1,$2,$3,$4,$5,0*
20,1,$1+$1,$4,$5,$6,$7,0*
20,1,$1+$1,$6,$7,$8,$9,0*
20,1,$1+$1,$8,$9,$2,$3,0*%
G04 Aperture macros list end*
%ADD10C,0.010000*%
%ADD11RoundRect,0.225000X0.250000X-0.225000X0.250000X0.225000X-0.250000X0.225000X-0.250000X-0.225000X0*%
%ADD12RoundRect,0.250000X-1.425000X0.362500X-1.425000X-0.362500X1.425000X-0.362500X1.425000X0.362500X0*%
%ADD13RoundRect,0.012500X-0.112500X-0.337500X0.112500X-0.337500X0.112500X0.337500X-0.112500X0.337500X0*%
%ADD14RoundRect,0.011250X-0.176250X0.203750X-0.176250X-0.203750X0.176250X-0.203750X0.176250X0.203750X0*%
%ADD15R,1.905000X3.352800*%
%ADD16RoundRect,0.225000X0.225000X0.250000X-0.225000X0.250000X-0.225000X-0.250000X0.225000X-0.250000X0*%
%ADD17RoundRect,0.200000X-0.200000X-0.275000X0.200000X-0.275000X0.200000X0.275000X-0.200000X0.275000X0*%
%ADD18RoundRect,0.225000X-0.250000X0.225000X-0.250000X-0.225000X0.250000X-0.225000X0.250000X0.225000X0*%
%ADD19RoundRect,0.225000X-0.225000X-0.250000X0.225000X-0.250000X0.225000X0.250000X-0.225000X0.250000X0*%
%ADD20R,1.092200X1.143000*%
%ADD21RoundRect,0.200000X-0.275000X0.200000X-0.275000X-0.200000X0.275000X-0.200000X0.275000X0.200000X0*%
%ADD22RoundRect,0.200000X0.275000X-0.200000X0.275000X0.200000X-0.275000X0.200000X-0.275000X-0.200000X0*%
%ADD23R,0.635000X0.508000*%
%ADD24RoundRect,0.020000X0.180000X-0.575000X0.180000X0.575000X-0.180000X0.575000X-0.180000X-0.575000X0*%
%ADD25RoundRect,0.250000X0.250000X0.475000X-0.250000X0.475000X-0.250000X-0.475000X0.250000X-0.475000X0*%
%ADD26R,3.000000X1.000000*%
%ADD27RoundRect,0.218750X0.256250X-0.218750X0.256250X0.218750X-0.256250X0.218750X-0.256250X-0.218750X0*%
%ADD28RoundRect,0.075000X-0.700000X-0.075000X0.700000X-0.075000X0.700000X0.075000X-0.700000X0.075000X0*%
%ADD29RoundRect,0.075000X-0.075000X-0.700000X0.075000X-0.700000X0.075000X0.700000X-0.075000X0.700000X0*%
%ADD30RoundRect,0.218750X-0.256250X0.218750X-0.256250X-0.218750X0.256250X-0.218750X0.256250X0.218750X0*%
%ADD31RoundRect,0.200000X0.200000X0.275000X-0.200000X0.275000X-0.200000X-0.275000X0.200000X-0.275000X0*%
%ADD32RoundRect,0.250000X1.100000X-0.325000X1.100000X0.325000X-1.100000X0.325000X-1.100000X-0.325000X0*%
%ADD33RoundRect,0.007800X-0.122200X0.422200X-0.122200X-0.422200X0.122200X-0.422200X0.122200X0.422200X0*%
%ADD34RoundRect,0.007800X-0.422200X-0.122200X0.422200X-0.122200X0.422200X0.122200X-0.422200X0.122200X0*%
%ADD35R,0.655600X0.800000*%
G04 APERTURE END LIST*
%TO.C,U5*%
D10*
X93921304Y-113598084D02*
X90040534Y-113598084D01*
X90046304Y-113248084D01*
X93921304Y-113248084D01*
X93921304Y-113598084D01*
G36*
X93921304Y-113598084D02*
G01*
X90040534Y-113598084D01*
X90046304Y-113248084D01*
X93921304Y-113248084D01*
X93921304Y-113598084D01*
G37*
X91001304Y-115493084D02*
X89875434Y-115493084D01*
X89875434Y-114079584D01*
X91001304Y-114079584D01*
X91001304Y-115493084D01*
G36*
X91001304Y-115493084D02*
G01*
X89875434Y-115493084D01*
X89875434Y-114079584D01*
X91001304Y-114079584D01*
X91001304Y-115493084D01*
G37*
X92321304Y-115493084D02*
X91198784Y-115493084D01*
X91198784Y-114079944D01*
X92321304Y-114079944D01*
X92321304Y-115493084D01*
G36*
X92321304Y-115493084D02*
G01*
X91198784Y-115493084D01*
X91198784Y-114079944D01*
X92321304Y-114079944D01*
X92321304Y-115493084D01*
G37*
X94961304Y-115493084D02*
X93843644Y-115493084D01*
X93843644Y-114080574D01*
X94961304Y-114080574D01*
X94961304Y-115493084D01*
G36*
X94961304Y-115493084D02*
G01*
X93843644Y-115493084D01*
X93843644Y-114080574D01*
X94961304Y-114080574D01*
X94961304Y-115493084D01*
G37*
X93641304Y-115493084D02*
X92521401Y-115493084D01*
X92521401Y-114081614D01*
X93641304Y-114081614D01*
X93641304Y-115493084D01*
G36*
X93641304Y-115493084D02*
G01*
X92521401Y-115493084D01*
X92521401Y-114081614D01*
X93641304Y-114081614D01*
X93641304Y-115493084D01*
G37*
X91001304Y-117113084D02*
X89880484Y-117113084D01*
X89880484Y-115703118D01*
X91001304Y-115703118D01*
X91001304Y-117113084D01*
G36*
X91001304Y-117113084D02*
G01*
X89880484Y-117113084D01*
X89880484Y-115703118D01*
X91001304Y-115703118D01*
X91001304Y-117113084D01*
G37*
X93641304Y-117113084D02*
X92521504Y-117113084D01*
X92521504Y-115703294D01*
X93641304Y-115703294D01*
X93641304Y-117113084D01*
G36*
X93641304Y-117113084D02*
G01*
X92521504Y-117113084D01*
X92521504Y-115703294D01*
X93641304Y-115703294D01*
X93641304Y-117113084D01*
G37*
X94961304Y-117113084D02*
X93844884Y-117113084D01*
X93844884Y-115703348D01*
X94961304Y-115703348D01*
X94961304Y-117113084D01*
G36*
X94961304Y-117113084D02*
G01*
X93844884Y-117113084D01*
X93844884Y-115703348D01*
X94961304Y-115703348D01*
X94961304Y-117113084D01*
G37*
X92321304Y-117113084D02*
X91196804Y-117113084D01*
X91196804Y-115703471D01*
X92321304Y-115703471D01*
X92321304Y-117113084D01*
G36*
X92321304Y-117113084D02*
G01*
X91196804Y-117113084D01*
X91196804Y-115703471D01*
X92321304Y-115703471D01*
X92321304Y-117113084D01*
G37*
X93921304Y-117948084D02*
X90046304Y-117948084D01*
X90041614Y-117602024D01*
X93921304Y-117602024D01*
X93921304Y-117948084D01*
G36*
X93921304Y-117948084D02*
G01*
X90046304Y-117948084D01*
X90041614Y-117602024D01*
X93921304Y-117602024D01*
X93921304Y-117948084D01*
G37*
%TO.C,U8*%
X76820296Y-113598084D02*
X72939526Y-113598084D01*
X72945296Y-113248084D01*
X76820296Y-113248084D01*
X76820296Y-113598084D01*
G36*
X76820296Y-113598084D02*
G01*
X72939526Y-113598084D01*
X72945296Y-113248084D01*
X76820296Y-113248084D01*
X76820296Y-113598084D01*
G37*
X73900296Y-115493084D02*
X72774426Y-115493084D01*
X72774426Y-114079584D01*
X73900296Y-114079584D01*
X73900296Y-115493084D01*
G36*
X73900296Y-115493084D02*
G01*
X72774426Y-115493084D01*
X72774426Y-114079584D01*
X73900296Y-114079584D01*
X73900296Y-115493084D01*
G37*
X75220296Y-115493084D02*
X74097776Y-115493084D01*
X74097776Y-114079944D01*
X75220296Y-114079944D01*
X75220296Y-115493084D01*
G36*
X75220296Y-115493084D02*
G01*
X74097776Y-115493084D01*
X74097776Y-114079944D01*
X75220296Y-114079944D01*
X75220296Y-115493084D01*
G37*
X77860296Y-115493084D02*
X76742636Y-115493084D01*
X76742636Y-114080574D01*
X77860296Y-114080574D01*
X77860296Y-115493084D01*
G36*
X77860296Y-115493084D02*
G01*
X76742636Y-115493084D01*
X76742636Y-114080574D01*
X77860296Y-114080574D01*
X77860296Y-115493084D01*
G37*
X76540296Y-115493084D02*
X75420393Y-115493084D01*
X75420393Y-114081614D01*
X76540296Y-114081614D01*
X76540296Y-115493084D01*
G36*
X76540296Y-115493084D02*
G01*
X75420393Y-115493084D01*
X75420393Y-114081614D01*
X76540296Y-114081614D01*
X76540296Y-115493084D01*
G37*
X73900296Y-117113084D02*
X72779476Y-117113084D01*
X72779476Y-115703118D01*
X73900296Y-115703118D01*
X73900296Y-117113084D01*
G36*
X73900296Y-117113084D02*
G01*
X72779476Y-117113084D01*
X72779476Y-115703118D01*
X73900296Y-115703118D01*
X73900296Y-117113084D01*
G37*
X76540296Y-117113084D02*
X75420496Y-117113084D01*
X75420496Y-115703294D01*
X76540296Y-115703294D01*
X76540296Y-117113084D01*
G36*
X76540296Y-117113084D02*
G01*
X75420496Y-117113084D01*
X75420496Y-115703294D01*
X76540296Y-115703294D01*
X76540296Y-117113084D01*
G37*
X77860296Y-117113084D02*
X76743876Y-117113084D01*
X76743876Y-115703348D01*
X77860296Y-115703348D01*
X77860296Y-117113084D01*
G36*
X77860296Y-117113084D02*
G01*
X76743876Y-117113084D01*
X76743876Y-115703348D01*
X77860296Y-115703348D01*
X77860296Y-117113084D01*
G37*
X75220296Y-117113084D02*
X74095796Y-117113084D01*
X74095796Y-115703471D01*
X75220296Y-115703471D01*
X75220296Y-117113084D01*
G36*
X75220296Y-117113084D02*
G01*
X74095796Y-117113084D01*
X74095796Y-115703471D01*
X75220296Y-115703471D01*
X75220296Y-117113084D01*
G37*
X76820296Y-117948084D02*
X72945296Y-117948084D01*
X72940606Y-117602024D01*
X76820296Y-117602024D01*
X76820296Y-117948084D01*
G36*
X76820296Y-117948084D02*
G01*
X72945296Y-117948084D01*
X72940606Y-117602024D01*
X76820296Y-117602024D01*
X76820296Y-117948084D01*
G37*
%TO.C,U6*%
X85370800Y-113598084D02*
X81490030Y-113598084D01*
X81495800Y-113248084D01*
X85370800Y-113248084D01*
X85370800Y-113598084D01*
G36*
X85370800Y-113598084D02*
G01*
X81490030Y-113598084D01*
X81495800Y-113248084D01*
X85370800Y-113248084D01*
X85370800Y-113598084D01*
G37*
X82450800Y-115493084D02*
X81324930Y-115493084D01*
X81324930Y-114079584D01*
X82450800Y-114079584D01*
X82450800Y-115493084D01*
G36*
X82450800Y-115493084D02*
G01*
X81324930Y-115493084D01*
X81324930Y-114079584D01*
X82450800Y-114079584D01*
X82450800Y-115493084D01*
G37*
X83770800Y-115493084D02*
X82648280Y-115493084D01*
X82648280Y-114079944D01*
X83770800Y-114079944D01*
X83770800Y-115493084D01*
G36*
X83770800Y-115493084D02*
G01*
X82648280Y-115493084D01*
X82648280Y-114079944D01*
X83770800Y-114079944D01*
X83770800Y-115493084D01*
G37*
X86410800Y-115493084D02*
X85293140Y-115493084D01*
X85293140Y-114080574D01*
X86410800Y-114080574D01*
X86410800Y-115493084D01*
G36*
X86410800Y-115493084D02*
G01*
X85293140Y-115493084D01*
X85293140Y-114080574D01*
X86410800Y-114080574D01*
X86410800Y-115493084D01*
G37*
X85090800Y-115493084D02*
X83970897Y-115493084D01*
X83970897Y-114081614D01*
X85090800Y-114081614D01*
X85090800Y-115493084D01*
G36*
X85090800Y-115493084D02*
G01*
X83970897Y-115493084D01*
X83970897Y-114081614D01*
X85090800Y-114081614D01*
X85090800Y-115493084D01*
G37*
X82450800Y-117113084D02*
X81329980Y-117113084D01*
X81329980Y-115703118D01*
X82450800Y-115703118D01*
X82450800Y-117113084D01*
G36*
X82450800Y-117113084D02*
G01*
X81329980Y-117113084D01*
X81329980Y-115703118D01*
X82450800Y-115703118D01*
X82450800Y-117113084D01*
G37*
X85090800Y-117113084D02*
X83971000Y-117113084D01*
X83971000Y-115703294D01*
X85090800Y-115703294D01*
X85090800Y-117113084D01*
G36*
X85090800Y-117113084D02*
G01*
X83971000Y-117113084D01*
X83971000Y-115703294D01*
X85090800Y-115703294D01*
X85090800Y-117113084D01*
G37*
X86410800Y-117113084D02*
X85294380Y-117113084D01*
X85294380Y-115703348D01*
X86410800Y-115703348D01*
X86410800Y-117113084D01*
G36*
X86410800Y-117113084D02*
G01*
X85294380Y-117113084D01*
X85294380Y-115703348D01*
X86410800Y-115703348D01*
X86410800Y-117113084D01*
G37*
X83770800Y-117113084D02*
X82646300Y-117113084D01*
X82646300Y-115703471D01*
X83770800Y-115703471D01*
X83770800Y-117113084D01*
G36*
X83770800Y-117113084D02*
G01*
X82646300Y-117113084D01*
X82646300Y-115703471D01*
X83770800Y-115703471D01*
X83770800Y-117113084D01*
G37*
X85370800Y-117948084D02*
X81495800Y-117948084D01*
X81491110Y-117602024D01*
X85370800Y-117602024D01*
X85370800Y-117948084D01*
G36*
X85370800Y-117948084D02*
G01*
X81495800Y-117948084D01*
X81491110Y-117602024D01*
X85370800Y-117602024D01*
X85370800Y-117948084D01*
G37*
%TO.C,U4*%
X98910381Y-141640000D02*
X97290381Y-141640000D01*
X97290381Y-140020000D01*
X98910381Y-140020000D01*
X98910381Y-141640000D01*
G36*
X98910381Y-141640000D02*
G01*
X97290381Y-141640000D01*
X97290381Y-140020000D01*
X98910381Y-140020000D01*
X98910381Y-141640000D01*
G37*
X96330381Y-141640000D02*
X94710381Y-141640000D01*
X94710381Y-140020000D01*
X96330381Y-140020000D01*
X96330381Y-141640000D01*
G36*
X96330381Y-141640000D02*
G01*
X94710381Y-141640000D01*
X94710381Y-140020000D01*
X96330381Y-140020000D01*
X96330381Y-141640000D01*
G37*
X98910381Y-144220000D02*
X97290381Y-144220000D01*
X97290381Y-142600000D01*
X98910381Y-142600000D01*
X98910381Y-144220000D01*
G36*
X98910381Y-144220000D02*
G01*
X97290381Y-144220000D01*
X97290381Y-142600000D01*
X98910381Y-142600000D01*
X98910381Y-144220000D01*
G37*
X96330381Y-144220000D02*
X94710381Y-144220000D01*
X94710381Y-142600000D01*
X96330381Y-142600000D01*
X96330381Y-144220000D01*
G36*
X96330381Y-144220000D02*
G01*
X94710381Y-144220000D01*
X94710381Y-142600000D01*
X96330381Y-142600000D01*
X96330381Y-144220000D01*
G37*
%TD*%
D11*
%TO.C,C4*%
X70129400Y-150787400D03*
X70129400Y-149237400D03*
%TD*%
D12*
%TO.C,R23*%
X83870800Y-120430700D03*
X83870800Y-126355700D03*
%TD*%
D13*
%TO.C,U5*%
X94921304Y-113248084D03*
X94421304Y-113248084D03*
X93921304Y-113248084D03*
X93421304Y-113248084D03*
X92921304Y-113248084D03*
X92421304Y-113248084D03*
X91921304Y-113248084D03*
X91421304Y-113248084D03*
X90921304Y-113248084D03*
X90421304Y-113248084D03*
X89921304Y-113248084D03*
X89921304Y-117948084D03*
X90421304Y-117948084D03*
X90921304Y-117948084D03*
X91421304Y-117948084D03*
X91921304Y-117948084D03*
X92421304Y-117948084D03*
X92921304Y-117948084D03*
X93421304Y-117948084D03*
X93921304Y-117948084D03*
X94421304Y-117948084D03*
X94921304Y-117948084D03*
D14*
X95434304Y-113483084D03*
X89408304Y-113483084D03*
X89408304Y-117713084D03*
X95434304Y-117713084D03*
%TD*%
D15*
%TO.C,C27*%
X68503800Y-121183400D03*
X68503800Y-127838200D03*
%TD*%
D16*
%TO.C,C15*%
X97599800Y-131749800D03*
X96049800Y-131749800D03*
%TD*%
%TO.C,C1*%
X60541200Y-139395200D03*
X58991200Y-139395200D03*
%TD*%
D12*
%TO.C,R26*%
X75320296Y-120430700D03*
X75320296Y-126355700D03*
%TD*%
D17*
%TO.C,R12*%
X103823000Y-138277600D03*
X105473000Y-138277600D03*
%TD*%
D18*
%TO.C,C31*%
X84709000Y-152336200D03*
X84709000Y-153886200D03*
%TD*%
D19*
%TO.C,C2*%
X61963000Y-139395200D03*
X63513000Y-139395200D03*
%TD*%
D20*
%TO.C,D5*%
X107543600Y-142608300D03*
X107543600Y-145681700D03*
%TD*%
D17*
%TO.C,R16*%
X59627000Y-131038600D03*
X61277000Y-131038600D03*
%TD*%
D15*
%TO.C,C26*%
X99161600Y-121183400D03*
X99161600Y-127838200D03*
%TD*%
D18*
%TO.C,C32*%
X88138000Y-116420600D03*
X88138000Y-117970600D03*
%TD*%
D19*
%TO.C,C17*%
X96049800Y-133273800D03*
X97599800Y-133273800D03*
%TD*%
D18*
%TO.C,C20*%
X91186000Y-136537400D03*
X91186000Y-138087400D03*
%TD*%
D21*
%TO.C,R20*%
X84709000Y-149314400D03*
X84709000Y-150964400D03*
%TD*%
D22*
%TO.C,R10*%
X94361000Y-150977600D03*
X94361000Y-149327600D03*
%TD*%
D21*
%TO.C,R3*%
X80289400Y-149314400D03*
X80289400Y-150964400D03*
%TD*%
D16*
%TO.C,C6*%
X83706000Y-136499600D03*
X82156000Y-136499600D03*
%TD*%
%TO.C,C8*%
X64224200Y-133985000D03*
X62674200Y-133985000D03*
%TD*%
D18*
%TO.C,C28*%
X87655400Y-152336200D03*
X87655400Y-153886200D03*
%TD*%
D23*
%TO.C,U9*%
X80721200Y-153687399D03*
X80721200Y-152687401D03*
X82702400Y-152687401D03*
X82702400Y-153687399D03*
%TD*%
D11*
%TO.C,C22*%
X86969600Y-141389401D03*
X86969600Y-139839401D03*
%TD*%
D24*
%TO.C,U7*%
X58252600Y-135141800D03*
X58902600Y-135141800D03*
X59552600Y-135141800D03*
X59552600Y-133221800D03*
X58902600Y-133221800D03*
X58252600Y-133221800D03*
%TD*%
D21*
%TO.C,R18*%
X87655400Y-149314400D03*
X87655400Y-150964400D03*
%TD*%
D11*
%TO.C,C18*%
X99060000Y-133286800D03*
X99060000Y-131736800D03*
%TD*%
D25*
%TO.C,C23*%
X108900000Y-133070600D03*
X107000000Y-133070600D03*
%TD*%
D13*
%TO.C,U8*%
X77820296Y-113248084D03*
X77320296Y-113248084D03*
X76820296Y-113248084D03*
X76320296Y-113248084D03*
X75820296Y-113248084D03*
X75320296Y-113248084D03*
X74820296Y-113248084D03*
X74320296Y-113248084D03*
X73820296Y-113248084D03*
X73320296Y-113248084D03*
X72820296Y-113248084D03*
X72820296Y-117948084D03*
X73320296Y-117948084D03*
X73820296Y-117948084D03*
X74320296Y-117948084D03*
X74820296Y-117948084D03*
X75320296Y-117948084D03*
X75820296Y-117948084D03*
X76320296Y-117948084D03*
X76820296Y-117948084D03*
X77320296Y-117948084D03*
X77820296Y-117948084D03*
D14*
X78333296Y-113483084D03*
X72307296Y-113483084D03*
X72307296Y-117713084D03*
X78333296Y-117713084D03*
%TD*%
D18*
%TO.C,C34*%
X79603600Y-116395200D03*
X79603600Y-117945200D03*
%TD*%
D17*
%TO.C,R17*%
X62612000Y-131038600D03*
X64262000Y-131038600D03*
%TD*%
D19*
%TO.C,C7*%
X65747600Y-132511800D03*
X67297600Y-132511800D03*
%TD*%
D21*
%TO.C,R27*%
X102590600Y-147460200D03*
X102590600Y-149110200D03*
%TD*%
D26*
%TO.C,L2*%
X108889800Y-138236200D03*
X108889800Y-136236200D03*
%TD*%
D27*
%TO.C,D4*%
X90886066Y-150920100D03*
X90886066Y-149345100D03*
%TD*%
D19*
%TO.C,C21*%
X105993600Y-140614400D03*
X107543600Y-140614400D03*
%TD*%
D28*
%TO.C,U1*%
X68035800Y-136483400D03*
X68035800Y-136983400D03*
X68035800Y-137483400D03*
X68035800Y-137983400D03*
X68035800Y-138483400D03*
X68035800Y-138983400D03*
X68035800Y-139483400D03*
X68035800Y-139983400D03*
X68035800Y-140483400D03*
X68035800Y-140983400D03*
X68035800Y-141483400D03*
X68035800Y-141983400D03*
X68035800Y-142483400D03*
X68035800Y-142983400D03*
X68035800Y-143483400D03*
X68035800Y-143983400D03*
D29*
X69960800Y-145908400D03*
X70460800Y-145908400D03*
X70960800Y-145908400D03*
X71460800Y-145908400D03*
X71960800Y-145908400D03*
X72460800Y-145908400D03*
X72960800Y-145908400D03*
X73460800Y-145908400D03*
X73960800Y-145908400D03*
X74460800Y-145908400D03*
X74960800Y-145908400D03*
X75460800Y-145908400D03*
X75960800Y-145908400D03*
X76460800Y-145908400D03*
X76960800Y-145908400D03*
X77460800Y-145908400D03*
D28*
X79385800Y-143983400D03*
X79385800Y-143483400D03*
X79385800Y-142983400D03*
X79385800Y-142483400D03*
X79385800Y-141983400D03*
X79385800Y-141483400D03*
X79385800Y-140983400D03*
X79385800Y-140483400D03*
X79385800Y-139983400D03*
X79385800Y-139483400D03*
X79385800Y-138983400D03*
X79385800Y-138483400D03*
X79385800Y-137983400D03*
X79385800Y-137483400D03*
X79385800Y-136983400D03*
X79385800Y-136483400D03*
D29*
X77460800Y-134558400D03*
X76960800Y-134558400D03*
X76460800Y-134558400D03*
X75960800Y-134558400D03*
X75460800Y-134558400D03*
X74960800Y-134558400D03*
X74460800Y-134558400D03*
X73960800Y-134558400D03*
X73460800Y-134558400D03*
X72960800Y-134558400D03*
X72460800Y-134558400D03*
X71960800Y-134558400D03*
X71460800Y-134558400D03*
X70960800Y-134558400D03*
X70460800Y-134558400D03*
X69960800Y-134558400D03*
%TD*%
D18*
%TO.C,C12*%
X89128600Y-149377600D03*
X89128600Y-150927600D03*
%TD*%
D13*
%TO.C,U6*%
X86370800Y-113248084D03*
X85870800Y-113248084D03*
X85370800Y-113248084D03*
X84870800Y-113248084D03*
X84370800Y-113248084D03*
X83870800Y-113248084D03*
X83370800Y-113248084D03*
X82870800Y-113248084D03*
X82370800Y-113248084D03*
X81870800Y-113248084D03*
X81370800Y-113248084D03*
X81370800Y-117948084D03*
X81870800Y-117948084D03*
X82370800Y-117948084D03*
X82870800Y-117948084D03*
X83370800Y-117948084D03*
X83870800Y-117948084D03*
X84370800Y-117948084D03*
X84870800Y-117948084D03*
X85370800Y-117948084D03*
X85870800Y-117948084D03*
X86370800Y-117948084D03*
D14*
X86883800Y-113483084D03*
X80857800Y-113483084D03*
X80857800Y-117713084D03*
X86883800Y-117713084D03*
%TD*%
D18*
%TO.C,C24*%
X96748600Y-116420600D03*
X96748600Y-117970600D03*
%TD*%
D22*
%TO.C,R9*%
X92643532Y-150977600D03*
X92643532Y-149327600D03*
%TD*%
D18*
%TO.C,C16*%
X101092000Y-147522600D03*
X101092000Y-149072600D03*
%TD*%
D21*
%TO.C,R2*%
X81762600Y-149314400D03*
X81762600Y-150964400D03*
%TD*%
D19*
%TO.C,C19*%
X87159800Y-146456401D03*
X88709800Y-146456401D03*
%TD*%
D30*
%TO.C,D6*%
X104063800Y-147497800D03*
X104063800Y-149072800D03*
%TD*%
D19*
%TO.C,C3*%
X65747600Y-133985000D03*
X67297600Y-133985000D03*
%TD*%
D18*
%TO.C,C29*%
X86182200Y-152336200D03*
X86182200Y-153886200D03*
%TD*%
D31*
%TO.C,R11*%
X105447600Y-136804400D03*
X103797600Y-136804400D03*
%TD*%
D32*
%TO.C,C13*%
X101422200Y-134418600D03*
X101422200Y-131468600D03*
%TD*%
%TO.C,C14*%
X104622600Y-134418600D03*
X104622600Y-131468600D03*
%TD*%
D33*
%TO.C,U4*%
X99560381Y-138685000D03*
X99060381Y-138685000D03*
X98560381Y-138685000D03*
X98060381Y-138685000D03*
X97560381Y-138685000D03*
X97060381Y-138685000D03*
X96560381Y-138685000D03*
X96060381Y-138685000D03*
X95560381Y-138685000D03*
X95060381Y-138685000D03*
X94560381Y-138685000D03*
X94060381Y-138685000D03*
D34*
X93375381Y-139370000D03*
X93375381Y-139870000D03*
X93375381Y-140370000D03*
X93375381Y-140870000D03*
X93375381Y-141370000D03*
X93375381Y-141870000D03*
X93375381Y-142370000D03*
X93375381Y-142870000D03*
X93375381Y-143370000D03*
X93375381Y-143870000D03*
X93375381Y-144370000D03*
X93375381Y-144870000D03*
D33*
X94060381Y-145555000D03*
X94560381Y-145555000D03*
X95060381Y-145555000D03*
X95560381Y-145555000D03*
X96060381Y-145555000D03*
X96560381Y-145555000D03*
X97060381Y-145555000D03*
X97560381Y-145555000D03*
X98060381Y-145555000D03*
X98560381Y-145555000D03*
X99060381Y-145555000D03*
X99560381Y-145555000D03*
D34*
X100245381Y-144870000D03*
X100245381Y-144370000D03*
X100245381Y-143870000D03*
X100245381Y-143370000D03*
X100245381Y-142870000D03*
X100245381Y-142370000D03*
X100245381Y-141870000D03*
X100245381Y-141370000D03*
X100245381Y-140870000D03*
X100245381Y-140370000D03*
X100245381Y-139870000D03*
X100245381Y-139370000D03*
%TD*%
D35*
%TO.C,L1*%
X62674200Y-135432800D03*
X64329800Y-135432800D03*
%TD*%
D32*
%TO.C,C11*%
X74853800Y-152528800D03*
X74853800Y-149578800D03*
%TD*%
D19*
%TO.C,C30*%
X62674200Y-132511800D03*
X64224200Y-132511800D03*
%TD*%
D12*
%TO.C,R15*%
X92421304Y-120430700D03*
X92421304Y-126355700D03*
%TD*%
D21*
%TO.C,R1*%
X83235800Y-149314400D03*
X83235800Y-150964400D03*
%TD*%
D31*
%TO.C,R6*%
X67335400Y-131038600D03*
X65685400Y-131038600D03*
%TD*%
D11*
%TO.C,C5*%
X77495400Y-150241600D03*
X77495400Y-148691600D03*
%TD*%
D21*
%TO.C,R19*%
X86182200Y-149314400D03*
X86182200Y-150964400D03*
%TD*%
M02*
