M48
; DRILL file {KiCad 7.0.9} date Tue Dec 12 19:27:24 2023
; FORMAT={-:-/ absolute / inch / decimal}
; #@! TF.CreationDate,2023-12-12T19:27:24-05:00
; #@! TF.GenerationSoftware,Kicad,Pcbnew,7.0.9
; #@! TF.FileFunction,Plated,1,4,PTH
FMAT,2
INCH
; #@! TA.AperFunction,Plated,PTH,ViaDrill
T1C0.0118
; #@! TA.AperFunction,Plated,PTH,ComponentDrill
T2C0.0259
; #@! TA.AperFunction,Plated,PTH,ComponentDrill
T3C0.0394
%
G90
G05
T1
X2.195Y-5.381
X2.221Y-5.541
X2.244Y-5.283
X2.265Y-5.692
X2.329Y-5.82
X2.4Y-5.938
X2.414Y-5.218
X2.415Y-5.101
X2.4675Y-5.37
X2.497Y-6.052
X2.5775Y-5.5385
X2.5782Y-5.5699
X2.5783Y-5.6293
X2.588Y-5.374
X2.591Y-5.033
X2.611Y-6.156
X2.677Y-4.463
X2.678Y-4.427
X2.6786Y-5.718
X2.698Y-4.899
X2.7071Y-5.893
X2.716Y-4.617
X2.739Y-5.649
X2.745Y-4.342
X2.745Y-6.265
X2.752Y-4.614
X2.755Y-5.223
X2.7595Y-5.4822
X2.7715Y-5.608
X2.787Y-5.193
X2.789Y-5.032
X2.792Y-4.336
X2.792Y-4.618
X2.792Y-4.715
X2.792Y-4.769
X2.7937Y-5.3717
X2.794Y-5.677
X2.795Y-5.991
X2.813Y-5.429
X2.824Y-4.365
X2.825Y-4.588
X2.826Y-4.422
X2.826Y-4.515
X2.826Y-4.551
X2.8261Y-5.3674
X2.831Y-5.079
X2.84Y-5.962
X2.8409Y-5.9281
X2.8555Y-5.2225
X2.86Y-4.282
X2.879Y-5.8364
X2.88Y-5.039
X2.8989Y-5.6286
X2.902Y-5.809
X2.9056Y-4.512
X2.9056Y-4.5907
X2.926Y-4.5511
X2.932Y-5.627
X2.9334Y-6.07
X2.935Y-4.246
X2.945Y-4.512
X2.945Y-4.5907
X2.955Y-5.217
X2.965Y-4.911
X2.9654Y-4.5511
X2.9844Y-4.512
X2.9844Y-4.5907
X2.9885Y-5.4695
X2.9966Y-5.1855
X3.0047Y-4.5511
X3.0084Y-5.3715
X3.009Y-5.413
X3.0131Y-5.537
X3.0237Y-4.512
X3.0237Y-4.5907
X3.028Y-5.141
X3.0376Y-5.5697
X3.0616Y-5.602
X3.063Y-4.677
X3.075Y-5.107
X3.088Y-5.755
X3.098Y-4.974
X3.1Y-4.905
X3.1Y-5.283
X3.1181Y-4.4381
X3.142Y-4.198
X3.144Y-4.456
X3.162Y-5.781
X3.166Y-4.888
X3.196Y-4.975
X3.219Y-5.783
X3.2257Y-5.5323
X3.231Y-5.664
X3.232Y-5.454
X3.232Y-5.592
X3.234Y-5.4913
X3.242Y-5.424
X3.2423Y-4.512
X3.2423Y-4.5907
X3.251Y-4.188
X3.2626Y-4.5511
X3.267Y-5.4988
X3.2759Y-5.4249
X3.277Y-5.785
X3.2816Y-4.512
X3.2816Y-4.5907
X3.297Y-5.629
X3.301Y-4.915
X3.3018Y-5.4988
X3.302Y-4.5511
X3.307Y-5.91
X3.321Y-4.512
X3.321Y-4.5907
X3.34Y-5.5901
X3.3414Y-4.5511
X3.3502Y-4.8756
X3.353Y-4.188
X3.3604Y-4.512
X3.3604Y-4.5907
X3.364Y-5.912
X3.367Y-4.849
X3.3751Y-5.5897
X3.4004Y-4.6736
X3.403Y-5.651
X3.422Y-5.912
X3.4322Y-4.4372
X3.446Y-5.651
X3.464Y-4.198
X3.465Y-4.461
X3.477Y-4.909
X3.478Y-5.264
X3.478Y-5.3
X3.478Y-4.976
X3.4796Y-5.2309
X3.481Y-5.194
X3.4817Y-5.5651
X3.512Y-4.691
X3.516Y-5.3755
X3.5279Y-5.4319
X3.5403Y-5.114
X3.5463Y-5.6082
X3.551Y-5.767
X3.5529Y-5.7341
X3.5621Y-5.58
X3.5789Y-4.512
X3.5789Y-4.5907
X3.579Y-5.042
X3.586Y-4.915
X3.5993Y-4.5511
X3.5999Y-5.6369
X3.602Y-5.0868
X3.6183Y-4.512
X3.6183Y-4.5907
X3.6266Y-5.046
X3.6386Y-4.5511
X3.6576Y-4.512
X3.6576Y-4.5907
X3.6587Y-5.3345
X3.663Y-4.246
X3.664Y-5.79
X3.678Y-4.5511
X3.697Y-4.512
X3.697Y-4.5907
X3.713Y-5.275
X3.715Y-5.14
X3.715Y-6.036
X3.737Y-4.7
X3.738Y-4.347
X3.756Y-5.883
X3.7605Y-5.099
X3.7622Y-5.55
X3.7627Y-5.5953
X3.763Y-5.639
X3.766Y-4.397
X3.777Y-4.297
X3.801Y-5.843
X3.808Y-5.916
X3.81Y-5.639
X3.811Y-5.55
X3.8114Y-5.5953
X3.813Y-5.311
X3.824Y-5.952
X3.855Y-6.266
X3.856Y-5.639
X3.857Y-5.55
X3.8574Y-5.5953
X3.868Y-5.992
X3.87Y-4.354
X3.872Y-5.14
X3.888Y-4.566
X3.9087Y-4.6343
X3.914Y-5.827
X3.916Y-5.358
X3.932Y-5.404
X3.954Y-4.577
X3.971Y-4.646
X3.979Y-6.173
X3.995Y-5.339
X3.997Y-5.034
X4.013Y-4.706
X4.034Y-5.338
X4.038Y-5.416
X4.044Y-5.704
X4.05Y-5.035
X4.0616Y-5.5759
X4.07Y-5.629
X4.073Y-5.338
X4.086Y-6.075
X4.097Y-5.919
X4.102Y-5.735
X4.112Y-5.338
X4.1312Y-5.6654
X4.149Y-5.338
X4.162Y-5.624
X4.174Y-5.968
X4.196Y-5.382
X4.198Y-5.445
X4.245Y-5.868
X4.258Y-5.308
X4.311Y-5.757
X4.316Y-5.309
X4.364Y-5.629
X4.401Y-5.49
X4.411Y-5.323
T2
X2.4589Y-5.6646
X2.5549Y-5.831
T3
X2.749Y-4.4212
X2.749Y-4.5212
X2.772Y-6.162
X2.872Y-6.162
X2.972Y-6.162
X3.072Y-6.162
X3.172Y-6.162
X3.202Y-4.298
X3.272Y-6.162
X3.302Y-4.298
X3.402Y-4.298
X3.413Y-6.162
X3.513Y-6.162
X3.613Y-6.162
X3.7582Y-6.162
X3.8582Y-6.162
T0
M30
