%TF.GenerationSoftware,KiCad,Pcbnew,7.0.9*%
%TF.CreationDate,2023-12-12T19:27:25-05:00*%
%TF.ProjectId,MotorDriver,4d6f746f-7244-4726-9976-65722e6b6963,rev?*%
%TF.SameCoordinates,Original*%
%TF.FileFunction,Copper,L3,Inr*%
%TF.FilePolarity,Positive*%
%FSLAX46Y46*%
G04 Gerber Fmt 4.6, Leading zero omitted, Abs format (unit mm)*
G04 Created by KiCad (PCBNEW 7.0.9) date 2023-12-12 19:27:25*
%MOMM*%
%LPD*%
G01*
G04 APERTURE LIST*
%TA.AperFunction,ComponentPad*%
%ADD10R,1.700000X1.700000*%
%TD*%
%TA.AperFunction,ComponentPad*%
%ADD11O,1.700000X1.700000*%
%TD*%
%TA.AperFunction,ComponentPad*%
%ADD12C,1.007000*%
%TD*%
%TA.AperFunction,ViaPad*%
%ADD13C,0.600000*%
%TD*%
%TA.AperFunction,Conductor*%
%ADD14C,0.250000*%
%TD*%
G04 APERTURE END LIST*
D10*
%TO.N,/Microcontroller/NRST*%
%TO.C,J2*%
X70408800Y-156514800D03*
D11*
%TO.N,/Microcontroller/TCK*%
X72948800Y-156514800D03*
%TO.N,/Microcontroller/TMS*%
X75488800Y-156514800D03*
%TO.N,/Microcontroller/SWO*%
X78028800Y-156514800D03*
%TO.N,GND*%
X80568800Y-156514800D03*
%TO.N,+3.3V*%
X83108800Y-156514800D03*
%TD*%
D10*
%TO.N,Net-(J3-Pin_1)*%
%TO.C,J3*%
X97998200Y-156514800D03*
D11*
%TO.N,Net-(J3-Pin_2)*%
X95458200Y-156514800D03*
%TD*%
D10*
%TO.N,Vdrive*%
%TO.C,J4*%
X69824600Y-114838400D03*
D11*
%TO.N,GND*%
X69824600Y-112298400D03*
%TD*%
D10*
%TO.N,/MotorController/MOTA*%
%TO.C,J5*%
X86410800Y-109169200D03*
D11*
%TO.N,/MotorController/MOTB*%
X83870800Y-109169200D03*
%TO.N,/MotorController/MOTC*%
X81330800Y-109169200D03*
%TD*%
D10*
%TO.N,GND*%
%TO.C,J1*%
X91770200Y-156514800D03*
D11*
%TO.N,/Microcontroller/UART_RX*%
X89230200Y-156514800D03*
%TO.N,/Microcontroller/UART_TX*%
X86690200Y-156514800D03*
%TD*%
D12*
%TO.N,/Microcontroller/CLK_N*%
%TO.C,Y2*%
X64894800Y-148106841D03*
%TO.N,/Microcontroller/CLK_P*%
X62454800Y-143880637D03*
%TD*%
D13*
%TO.N,GND*%
X67995800Y-113360200D03*
X68021200Y-112445800D03*
X70916800Y-110134400D03*
X71729600Y-110871000D03*
X71780400Y-112318800D03*
%TO.N,Vdrive*%
X69900800Y-117195600D03*
X71755000Y-116535200D03*
X71780400Y-115595400D03*
X71780400Y-114681000D03*
X68986400Y-117271800D03*
X100863400Y-118008400D03*
X105384600Y-135585200D03*
X84353504Y-116604800D03*
X74320296Y-115598084D03*
X84870800Y-115598084D03*
X91421304Y-115598084D03*
X101473000Y-135610600D03*
X61341000Y-129565400D03*
X92904008Y-114604800D03*
X91904008Y-116604800D03*
X70916800Y-121132600D03*
X100431600Y-116255800D03*
X94361000Y-130556000D03*
X82353504Y-116604800D03*
X96850200Y-134899400D03*
X92904008Y-116604800D03*
X103454200Y-135585200D03*
X90904008Y-116604800D03*
X76320296Y-115598084D03*
X83353504Y-116604800D03*
X70916800Y-117297200D03*
X90904008Y-114604800D03*
X92421304Y-115598084D03*
X76803000Y-116604800D03*
X74803000Y-116604800D03*
X102463600Y-135585200D03*
X91904008Y-114604800D03*
X82870800Y-115598084D03*
X104444800Y-135585200D03*
X83870800Y-115598084D03*
X70916800Y-119761000D03*
X98755200Y-115976400D03*
X93904008Y-114604800D03*
X93421304Y-115598084D03*
X98348800Y-130556000D03*
X73803000Y-116604800D03*
X93904008Y-116604800D03*
X75320296Y-115598084D03*
X83353504Y-114604800D03*
X85353504Y-114604800D03*
X85353504Y-116604800D03*
X75803000Y-114604800D03*
X82353504Y-114604800D03*
X74803000Y-114604800D03*
X75803000Y-116604800D03*
X101930200Y-119532400D03*
X73803000Y-114604800D03*
X76803000Y-114604800D03*
X84353504Y-114604800D03*
X99280897Y-117711303D03*
%TO.N,GND*%
X59156600Y-147828000D03*
X83845400Y-124841000D03*
X110845600Y-142976600D03*
X63423800Y-153720800D03*
X97917000Y-159156400D03*
X65811400Y-127838200D03*
X82575400Y-106375200D03*
X112039400Y-135204200D03*
X97967052Y-140970000D03*
X106629200Y-138303000D03*
X99415600Y-148005800D03*
X85166200Y-106375200D03*
X95560767Y-140970000D03*
X107823000Y-149047200D03*
X72644000Y-108762800D03*
X97978033Y-142120000D03*
X95571748Y-142120000D03*
X69723000Y-110286800D03*
X68529200Y-124434600D03*
X79806800Y-106629200D03*
X66319400Y-156362400D03*
X109499400Y-146227800D03*
X103784400Y-154305000D03*
X96774000Y-143230600D03*
X99466400Y-136093200D03*
X97942400Y-143230600D03*
X98298000Y-110591600D03*
X60960000Y-150825200D03*
X75311000Y-124739400D03*
X101523800Y-127863600D03*
X74549000Y-107848400D03*
X101066600Y-156794200D03*
X78689200Y-126339600D03*
X57531000Y-144576800D03*
X93040200Y-107848400D03*
X78740000Y-124587000D03*
X91084400Y-124841000D03*
X87985600Y-106629200D03*
X95580200Y-143230600D03*
X70840600Y-127812800D03*
X106019600Y-151587200D03*
X69723000Y-159131000D03*
X70789800Y-131902200D03*
X95935800Y-109143800D03*
X55753000Y-136677400D03*
X102870000Y-127889000D03*
X96810381Y-142120000D03*
X56413400Y-140741400D03*
X111785400Y-139446000D03*
X96799400Y-140970000D03*
%TO.N,+3.3V*%
X70967600Y-144195800D03*
X56997600Y-134188201D03*
X109626400Y-134848600D03*
X93065600Y-147066000D03*
X78740000Y-134188200D03*
X106578400Y-136702800D03*
X108153200Y-134823200D03*
X69977000Y-132664200D03*
X65735200Y-136499600D03*
X94361000Y-153314401D03*
X104063800Y-150342600D03*
X78435200Y-146177000D03*
%TO.N,/Microcontroller/UART_TX*%
X68035800Y-145237201D03*
%TO.N,/Microcontroller/UART_RX*%
X68760300Y-149682201D03*
%TO.N,/Microcontroller/TMS*%
X76428600Y-137490201D03*
%TO.N,/Microcontroller/TCK*%
X76413893Y-136435501D03*
%TO.N,/Microcontroller/SWO*%
X75907900Y-138925301D03*
%TO.N,/Microcontroller/CAN2_RX*%
X74472800Y-142925800D03*
%TO.N,/Microcontroller/CAN2_TX*%
X73631460Y-142967637D03*
X74508700Y-154178501D03*
%TO.N,/Encoder/SPI3.CS*%
X88417400Y-131927600D03*
X78105000Y-129717798D03*
%TO.N,/Encoder/SPI3.SCK*%
X88383037Y-132864260D03*
X76911200Y-130581400D03*
%TO.N,/Encoder/SPI3.MISO*%
X88341200Y-133705600D03*
X76112813Y-131710918D03*
%TO.N,/Encoder/SPI3.MOSI*%
X75057000Y-132511800D03*
X88341200Y-134620000D03*
%TO.N,/Encoder/M1_ENC.I*%
X72529698Y-132651498D03*
%TO.N,/Encoder/M1_ENC.A*%
X83207489Y-137792090D03*
X71783870Y-136332301D03*
%TO.N,/Encoder/M1_ENC.B*%
X82346800Y-137769601D03*
X70960800Y-136442001D03*
%TO.N,/MotorController/SPC*%
X91490800Y-129204900D03*
X90243289Y-145646512D03*
X71907400Y-129006600D03*
%TO.N,/MotorController/SNC*%
X90195400Y-146481801D03*
X73152000Y-127990600D03*
X90906600Y-128066801D03*
%TO.N,/MotorController/SPA*%
X89305900Y-136537400D03*
X88315800Y-124688600D03*
%TO.N,/MotorController/SNA*%
X89609299Y-137970900D03*
X88341204Y-126390400D03*
%TO.N,/MotorController/SPB*%
X80416400Y-124155200D03*
X82981800Y-139669900D03*
%TO.N,/MotorController/SNB*%
X83864978Y-139669900D03*
X81178400Y-126365000D03*
%TO.N,/MotorController/GHA*%
X94310200Y-133985000D03*
X95656400Y-111683800D03*
%TO.N,/MotorController/GLA*%
X94919800Y-119380000D03*
X92930894Y-135495337D03*
%TO.N,/MotorController/GHB*%
X87177775Y-112705101D03*
X90478111Y-141733117D03*
X92115800Y-128168401D03*
%TO.N,/MotorController/GLB*%
X89204799Y-119151400D03*
X89923200Y-129895601D03*
X88435633Y-141352344D03*
X86370800Y-118708800D03*
%TO.N,/MotorController/GHC*%
X85727631Y-141978381D03*
X79199641Y-112728206D03*
X85521800Y-123164601D03*
X90076100Y-142447204D03*
%TO.N,/MotorController/GLC*%
X85094263Y-123840187D03*
X91437089Y-143176890D03*
X84836000Y-141988500D03*
X77800200Y-118795801D03*
%TO.N,/Microcontroller/DRV.INLC*%
X82092800Y-142036798D03*
X103164685Y-141627900D03*
%TO.N,/Microcontroller/DRV.INLB*%
X103378000Y-142976600D03*
X83743800Y-142976600D03*
%TO.N,/Microcontroller/DRV.INLA*%
X102717600Y-144881600D03*
X82067400Y-143865600D03*
%TO.N,/Microcontroller/DRV.ENABLE*%
X70992996Y-152171400D03*
X71450199Y-137896601D03*
X98247196Y-152196800D03*
%TO.N,/Microcontroller/DRV.INHA*%
X104190800Y-145669000D03*
X81933922Y-140521468D03*
%TO.N,/Microcontroller/DRV.INHB*%
X82143600Y-139478202D03*
X104933077Y-143901336D03*
%TO.N,/Microcontroller/DRV.INHC*%
X105714794Y-142849600D03*
X82092800Y-138531600D03*
%TO.N,/Microcontroller/SEN.VSENVM*%
X61315600Y-132537200D03*
X69570600Y-143484600D03*
%TO.N,/Microcontroller/SPI1.CS*%
X97129600Y-151180798D03*
X72136000Y-151434801D03*
%TO.N,/Microcontroller/SPI1.SCK*%
X96722146Y-150265230D03*
X72158489Y-150574112D03*
%TO.N,/Microcontroller/SPI1.MISO*%
X95402406Y-149428200D03*
X73126600Y-148244622D03*
%TO.N,/Microcontroller/SPI1.MOSI*%
X96545400Y-148412200D03*
X73710800Y-147548601D03*
%TO.N,/Microcontroller/NRST*%
X70090700Y-139247798D03*
%TO.N,Net-(U1-PC6)*%
X83235800Y-146939001D03*
X77764300Y-142290800D03*
%TO.N,Net-(U1-PC7)*%
X77154700Y-141469379D03*
X81762600Y-146888201D03*
%TO.N,Net-(U1-PC8)*%
X76532400Y-140639800D03*
X80314800Y-146837401D03*
%TO.N,Net-(U5-SH)*%
X94945200Y-110413800D03*
X95516100Y-129514600D03*
%TO.N,Net-(U6-SH)*%
X88011000Y-113309400D03*
X87528400Y-143535400D03*
%TO.N,/Microcontroller/VDDA*%
X62674200Y-136398000D03*
X70395500Y-142443200D03*
%TO.N,/Microcontroller/SEN.ISENA*%
X86918800Y-150164801D03*
X65487999Y-142983400D03*
%TO.N,/Microcontroller/SEN.ISENB*%
X65485088Y-141476017D03*
X85445600Y-150164801D03*
%TO.N,/Microcontroller/SEN.ISENC*%
X65467311Y-140676712D03*
X83997800Y-150114001D03*
%TO.N,Net-(U8-SH)*%
X79857600Y-113182401D03*
X86436200Y-143535400D03*
%TO.N,Net-(U4-FB)*%
X102565200Y-137566400D03*
X99872800Y-137261600D03*
%TD*%
D14*
%TO.N,Vdrive*%
X69773800Y-121132600D02*
X70916800Y-121132600D01*
X61341000Y-129565400D02*
X69773800Y-121132600D01*
%TO.N,/Microcontroller/TMS*%
X76428600Y-137490201D02*
X75844399Y-137490201D01*
X75133200Y-138201400D02*
X75133200Y-156159200D01*
X75844399Y-137490201D02*
X75133200Y-138201400D01*
X75133200Y-156159200D02*
X75488800Y-156514800D01*
%TO.N,/Microcontroller/TCK*%
X72349200Y-148871496D02*
X72349200Y-138267601D01*
X72349200Y-138267601D02*
X74181300Y-136435501D01*
X74181300Y-136435501D02*
X76413893Y-136435501D01*
X72948800Y-156514800D02*
X72948800Y-149471096D01*
X72948800Y-149471096D02*
X72349200Y-148871496D01*
%TO.N,/Microcontroller/SWO*%
X75907900Y-154393900D02*
X78028800Y-156514800D01*
X75907900Y-138925301D02*
X75907900Y-154393900D01*
%TO.N,/Microcontroller/CAN2_TX*%
X74508700Y-143844877D02*
X73631460Y-142967637D01*
X74508700Y-154178501D02*
X74508700Y-143844877D01*
%TO.N,/Encoder/M1_ENC.A*%
X78645296Y-135260501D02*
X73653104Y-135260501D01*
X72581304Y-136332301D02*
X71783870Y-136332301D01*
X83207489Y-137284090D02*
X83068000Y-137144601D01*
X83207489Y-137792090D02*
X83207489Y-137284090D01*
X73653104Y-135260501D02*
X72581304Y-136332301D01*
X83068000Y-137144601D02*
X80529396Y-137144601D01*
X80529396Y-137144601D02*
X78645296Y-135260501D01*
%TO.N,/Encoder/M1_ENC.B*%
X72593200Y-136956801D02*
X73839500Y-135710501D01*
X71475600Y-136956801D02*
X72593200Y-136956801D01*
X73839500Y-135710501D02*
X78458900Y-135710501D01*
X80518000Y-137769601D02*
X82346800Y-137769601D01*
X70960800Y-136442001D02*
X71475600Y-136956801D01*
X78458900Y-135710501D02*
X80518000Y-137769601D01*
%TO.N,/MotorController/SPC*%
X91490800Y-139777101D02*
X91490800Y-129204900D01*
X89451600Y-144854823D02*
X89451600Y-141816301D01*
X90243289Y-145646512D02*
X89451600Y-144854823D01*
X89451600Y-141816301D02*
X91490800Y-139777101D01*
%TO.N,/MotorController/SNC*%
X90906600Y-128066801D02*
X90830400Y-128143001D01*
X90830400Y-139801105D02*
X89001600Y-141629905D01*
X89001600Y-145288002D02*
X90195400Y-146481801D01*
X89001600Y-141629905D02*
X89001600Y-145288002D01*
X90830400Y-128143001D02*
X90830400Y-139801105D01*
%TO.N,/MotorController/SPA*%
X89305900Y-136537400D02*
X89306400Y-136536900D01*
X87716204Y-129208885D02*
X87716204Y-125288196D01*
X89306400Y-130799081D02*
X87716204Y-129208885D01*
X89306400Y-136536900D02*
X89306400Y-130799081D01*
X87716204Y-125288196D02*
X88315800Y-124688600D01*
%TO.N,/MotorController/SNA*%
X89930400Y-137649799D02*
X89930400Y-130786685D01*
X88341204Y-129197489D02*
X88341204Y-126390400D01*
X89609299Y-137970900D02*
X89930400Y-137649799D01*
X88290400Y-126441204D02*
X88341204Y-126390400D01*
X89930400Y-130786685D02*
X88341204Y-129197489D01*
%TO.N,/MotorController/SPB*%
X80416400Y-127914400D02*
X81076800Y-128574800D01*
X81076800Y-128574800D02*
X83261200Y-128574800D01*
X84531200Y-129844800D02*
X84531200Y-138120500D01*
X84531200Y-138120500D02*
X82981800Y-139669900D01*
X80416400Y-124155200D02*
X80416400Y-127914400D01*
X83261200Y-128574800D02*
X84531200Y-129844800D01*
%TO.N,/MotorController/SNB*%
X84981200Y-138553678D02*
X84981200Y-129658404D01*
X83864978Y-139669900D02*
X84981200Y-138553678D01*
X81457800Y-128066800D02*
X81178400Y-127787400D01*
X81178400Y-127787400D02*
X81178400Y-126365000D01*
X83389596Y-128066800D02*
X81457800Y-128066800D01*
X84981200Y-129658404D02*
X83389596Y-128066800D01*
%TO.N,/MotorController/GHA*%
X96240600Y-112268000D02*
X96240600Y-132054600D01*
X96240600Y-132054600D02*
X94310200Y-133985000D01*
X95656400Y-111683800D02*
X96240600Y-112268000D01*
%TO.N,/MotorController/GLA*%
X94919800Y-128971895D02*
X94919800Y-119380000D01*
X92930894Y-135495337D02*
X92930894Y-130960801D01*
X92930894Y-130960801D02*
X94919800Y-128971895D01*
%TO.N,/MotorController/GHB*%
X88747600Y-115332276D02*
X92115800Y-118700476D01*
X90478111Y-141733117D02*
X92115800Y-140095428D01*
X87177775Y-112705101D02*
X87198476Y-112684400D01*
X92115800Y-140095428D02*
X92115800Y-128168401D01*
X88269884Y-112684400D02*
X88747600Y-113162116D01*
X88747600Y-113162116D02*
X88747600Y-115332276D01*
X92115800Y-118700476D02*
X92115800Y-128168401D01*
X87198476Y-112684400D02*
X88269884Y-112684400D01*
%TO.N,/MotorController/GLB*%
X90380400Y-130352801D02*
X89923200Y-129895601D01*
X88435633Y-141352344D02*
X90380400Y-139407577D01*
X89204799Y-119151400D02*
X89923200Y-119869801D01*
X90380400Y-139407577D02*
X90380400Y-130352801D01*
X89923200Y-119869801D02*
X89923200Y-129895601D01*
%TO.N,/MotorController/GHC*%
X85910000Y-123552801D02*
X85521800Y-123164601D01*
X79629001Y-122529601D02*
X84886800Y-122529601D01*
X85727631Y-141978381D02*
X85910000Y-141796012D01*
X84886800Y-122529601D02*
X85521800Y-123164601D01*
X79199641Y-112728206D02*
X79199641Y-122100241D01*
X85910000Y-141796012D02*
X85910000Y-123552801D01*
X79199641Y-122100241D02*
X79629001Y-122529601D01*
%TO.N,/MotorController/GLC*%
X85460000Y-138711274D02*
X85460000Y-124205924D01*
X77800200Y-118795801D02*
X77800200Y-121337196D01*
X84233677Y-122979601D02*
X85094263Y-123840187D01*
X85460000Y-124205924D02*
X85094263Y-123840187D01*
X77800200Y-121337196D02*
X79442605Y-122979601D01*
X79442605Y-122979601D02*
X84233677Y-122979601D01*
X84836000Y-139335274D02*
X85460000Y-138711274D01*
X84836000Y-141988500D02*
X84836000Y-139335274D01*
%TO.N,/Microcontroller/DRV.ENABLE*%
X70342600Y-143936916D02*
X70342600Y-151521004D01*
X71899200Y-138345602D02*
X71899200Y-142380316D01*
X71450199Y-137896601D02*
X71899200Y-138345602D01*
X71899200Y-142380316D02*
X70342600Y-143936916D01*
X70342600Y-151521004D02*
X70992996Y-152171400D01*
%TO.N,/Microcontroller/SEN.VSENVM*%
X70815200Y-141139616D02*
X69570600Y-142384216D01*
X61315600Y-132537200D02*
X61315600Y-136432705D01*
X61315600Y-136432705D02*
X62797696Y-137914801D01*
X69943004Y-137914801D02*
X70815200Y-138786997D01*
X62797696Y-137914801D02*
X69943004Y-137914801D01*
X70815200Y-138786997D02*
X70815200Y-141139616D01*
X69570600Y-142384216D02*
X69570600Y-143484600D01*
%TO.N,/Microcontroller/NRST*%
X68945600Y-144993484D02*
X69892600Y-145940484D01*
X68945600Y-142372820D02*
X68945600Y-144993484D01*
X70104000Y-139261098D02*
X70104000Y-141214420D01*
X70104000Y-141214420D02*
X68945600Y-142372820D01*
X70090700Y-139247798D02*
X70104000Y-139261098D01*
X69892600Y-145940484D02*
X69892600Y-155998600D01*
X69892600Y-155998600D02*
X70408800Y-156514800D01*
%TO.N,Net-(U1-PC6)*%
X80387594Y-145637403D02*
X81934202Y-145637403D01*
X77764300Y-143014109D02*
X80387594Y-145637403D01*
X81934202Y-145637403D02*
X83235800Y-146939001D01*
X77764300Y-142290800D02*
X77764300Y-143014109D01*
%TO.N,Net-(U1-PC7)*%
X77139800Y-141484279D02*
X77139800Y-143026005D01*
X80201198Y-146087403D02*
X80961802Y-146087403D01*
X77139800Y-143026005D02*
X80201198Y-146087403D01*
X77154700Y-141469379D02*
X77139800Y-141484279D01*
X80961802Y-146087403D02*
X81762600Y-146888201D01*
%TO.N,Net-(U1-PC8)*%
X76530200Y-143052801D02*
X80314800Y-146837401D01*
X76530200Y-140642000D02*
X76530200Y-143052801D01*
X76532400Y-140639800D02*
X76530200Y-140642000D01*
%TO.N,Net-(U5-SH)*%
X95790600Y-113672200D02*
X95790600Y-129240100D01*
X94931400Y-112813000D02*
X95790600Y-113672200D01*
X94931400Y-110427600D02*
X94931400Y-112813000D01*
X95790600Y-129240100D02*
X95516100Y-129514600D01*
X94945200Y-110413800D02*
X94931400Y-110427600D01*
%TO.N,Net-(U6-SH)*%
X87528400Y-139868520D02*
X87528400Y-143535400D01*
X86852600Y-139192720D02*
X87528400Y-139868520D01*
X87985600Y-113334800D02*
X87985600Y-124134916D01*
X86852600Y-125267916D02*
X86852600Y-139192720D01*
X87985600Y-124134916D02*
X86852600Y-125267916D01*
X88011000Y-113309400D02*
X87985600Y-113334800D01*
%TO.N,/Microcontroller/VDDA*%
X65430401Y-137464801D02*
X70129400Y-137464801D01*
X62674200Y-136398000D02*
X64363600Y-136398000D01*
X71449200Y-138784601D02*
X71449200Y-141389500D01*
X64363600Y-136398000D02*
X65430401Y-137464801D01*
X70129400Y-137464801D02*
X71449200Y-138784601D01*
X71449200Y-141389500D02*
X70395500Y-142443200D01*
%TO.N,Net-(U8-SH)*%
X86360000Y-123118917D02*
X86360000Y-143459200D01*
X85320684Y-122079601D02*
X86360000Y-123118917D01*
X79857600Y-113182401D02*
X79857600Y-121513600D01*
X86360000Y-143459200D02*
X86436200Y-143535400D01*
X79857600Y-121513600D02*
X80423601Y-122079601D01*
X80423601Y-122079601D02*
X85320684Y-122079601D01*
%TO.N,Net-(U4-FB)*%
X102565200Y-137566400D02*
X101676200Y-137566400D01*
X99888500Y-137245900D02*
X99872800Y-137261600D01*
X102565200Y-137718800D02*
X102565200Y-137566400D01*
X101676200Y-137566400D02*
X101355700Y-137245900D01*
X101355700Y-137245900D02*
X99888500Y-137245900D01*
%TD*%
%TA.AperFunction,Conductor*%
%TO.N,GND*%
G36*
X88566303Y-115682462D02*
G01*
X88572781Y-115688494D01*
X91703981Y-118819694D01*
X91737466Y-118881017D01*
X91740300Y-118907375D01*
X91740300Y-127711375D01*
X91720615Y-127778414D01*
X91714675Y-127786862D01*
X91632295Y-127894220D01*
X91575867Y-127935423D01*
X91506121Y-127939577D01*
X91445201Y-127905364D01*
X91419359Y-127866185D01*
X91387462Y-127789178D01*
X91387461Y-127789177D01*
X91387461Y-127789176D01*
X91299221Y-127674180D01*
X91184225Y-127585940D01*
X91184224Y-127585939D01*
X91184222Y-127585938D01*
X91050312Y-127530472D01*
X91050310Y-127530471D01*
X91050309Y-127530471D01*
X90978454Y-127521011D01*
X90906601Y-127511551D01*
X90906599Y-127511551D01*
X90762891Y-127530471D01*
X90762887Y-127530472D01*
X90628977Y-127585938D01*
X90513974Y-127674184D01*
X90510381Y-127677778D01*
X90449058Y-127711263D01*
X90379366Y-127706279D01*
X90323433Y-127664407D01*
X90299016Y-127598943D01*
X90298700Y-127590097D01*
X90298700Y-119921604D01*
X90301339Y-119896159D01*
X90301985Y-119893075D01*
X90303567Y-119885532D01*
X90301487Y-119868852D01*
X90299177Y-119850309D01*
X90298700Y-119842633D01*
X90298700Y-119838690D01*
X90298699Y-119838684D01*
X90298422Y-119837026D01*
X90294855Y-119815648D01*
X90288065Y-119761175D01*
X90288065Y-119761174D01*
X90285817Y-119753628D01*
X90283265Y-119746191D01*
X90257142Y-119697920D01*
X90233026Y-119648589D01*
X90233023Y-119648586D01*
X90233023Y-119648585D01*
X90228467Y-119642203D01*
X90223623Y-119635979D01*
X90223619Y-119635975D01*
X90183241Y-119598804D01*
X89793483Y-119209046D01*
X89759998Y-119147723D01*
X89758227Y-119137563D01*
X89741129Y-119007691D01*
X89685660Y-118873775D01*
X89597420Y-118758779D01*
X89482424Y-118670539D01*
X89482423Y-118670538D01*
X89482421Y-118670537D01*
X89348511Y-118615071D01*
X89348509Y-118615070D01*
X89348508Y-118615070D01*
X89276653Y-118605610D01*
X89204800Y-118596150D01*
X89204798Y-118596150D01*
X89061090Y-118615070D01*
X89061086Y-118615071D01*
X88927176Y-118670537D01*
X88812178Y-118758779D01*
X88723936Y-118873777D01*
X88668470Y-119007687D01*
X88668469Y-119007691D01*
X88649549Y-119151400D01*
X88659195Y-119224671D01*
X88668469Y-119295108D01*
X88668470Y-119295112D01*
X88723936Y-119429022D01*
X88723937Y-119429024D01*
X88723938Y-119429025D01*
X88812178Y-119544021D01*
X88927174Y-119632261D01*
X88927175Y-119632261D01*
X88927176Y-119632262D01*
X88936150Y-119635979D01*
X89061090Y-119687730D01*
X89190952Y-119704827D01*
X89254847Y-119733092D01*
X89262446Y-119740084D01*
X89511381Y-119989019D01*
X89544866Y-120050342D01*
X89547700Y-120076700D01*
X89547700Y-129438575D01*
X89528015Y-129505614D01*
X89522075Y-129514063D01*
X89463456Y-129590455D01*
X89407028Y-129631657D01*
X89337282Y-129635811D01*
X89277400Y-129602648D01*
X89055514Y-129380762D01*
X88753023Y-129078270D01*
X88719538Y-129016947D01*
X88716704Y-128990589D01*
X88716704Y-126847426D01*
X88736389Y-126780387D01*
X88742321Y-126771947D01*
X88822065Y-126668025D01*
X88877534Y-126534109D01*
X88896454Y-126390400D01*
X88877534Y-126246691D01*
X88822065Y-126112775D01*
X88733825Y-125997779D01*
X88618829Y-125909539D01*
X88618828Y-125909538D01*
X88618826Y-125909537D01*
X88484916Y-125854071D01*
X88484914Y-125854070D01*
X88484913Y-125854070D01*
X88413058Y-125844610D01*
X88341205Y-125835150D01*
X88341202Y-125835150D01*
X88231889Y-125849541D01*
X88162854Y-125838775D01*
X88110598Y-125792395D01*
X88091704Y-125726602D01*
X88091704Y-125495095D01*
X88111389Y-125428056D01*
X88128017Y-125407419D01*
X88258155Y-125277281D01*
X88319474Y-125243799D01*
X88329628Y-125242029D01*
X88459509Y-125224930D01*
X88593425Y-125169461D01*
X88708421Y-125081221D01*
X88796661Y-124966225D01*
X88852130Y-124832309D01*
X88871050Y-124688600D01*
X88852130Y-124544891D01*
X88815150Y-124455613D01*
X88796662Y-124410977D01*
X88796661Y-124410976D01*
X88796661Y-124410975D01*
X88708421Y-124295979D01*
X88593425Y-124207739D01*
X88593424Y-124207738D01*
X88593422Y-124207737D01*
X88459503Y-124152267D01*
X88452998Y-124150524D01*
X88393340Y-124114155D01*
X88362815Y-124051306D01*
X88361100Y-124030752D01*
X88361100Y-115776175D01*
X88380785Y-115709136D01*
X88433589Y-115663381D01*
X88502747Y-115653437D01*
X88566303Y-115682462D01*
G37*
%TD.AperFunction*%
%TA.AperFunction,Conductor*%
G36*
X84876696Y-105520682D02*
G01*
X85931999Y-105578196D01*
X86984520Y-105673968D01*
X88032871Y-105807873D01*
X89075673Y-105979734D01*
X90111552Y-106189324D01*
X91139142Y-106436368D01*
X92157090Y-106720540D01*
X93164055Y-107041465D01*
X94158711Y-107398722D01*
X95139747Y-107791838D01*
X96105871Y-108220297D01*
X97055810Y-108683533D01*
X97988312Y-109180938D01*
X98745962Y-109621114D01*
X98794040Y-109671811D01*
X98800810Y-109687658D01*
X99016663Y-110309296D01*
X99606736Y-111893815D01*
X100231965Y-113464795D01*
X100892039Y-115021455D01*
X101586632Y-116563022D01*
X102315397Y-118088731D01*
X103077974Y-119597825D01*
X103873984Y-121089554D01*
X104703031Y-122563179D01*
X105564704Y-124017966D01*
X106458576Y-125453195D01*
X107384202Y-126868153D01*
X108341123Y-128262136D01*
X109328864Y-129634454D01*
X110346934Y-130984424D01*
X111394829Y-132311377D01*
X112472028Y-133614655D01*
X112902447Y-134112397D01*
X112931408Y-134175982D01*
X112932652Y-134193168D01*
X112934875Y-135011753D01*
X112935032Y-135069417D01*
X112899545Y-136125690D01*
X112825750Y-137179979D01*
X112713744Y-138230896D01*
X112563675Y-139277056D01*
X112375740Y-140317082D01*
X112150187Y-141349602D01*
X111887313Y-142373257D01*
X111587464Y-143386697D01*
X111251035Y-144388590D01*
X110878470Y-145377613D01*
X110470259Y-146352465D01*
X110098969Y-147155980D01*
X110026940Y-147311860D01*
X109549097Y-148254536D01*
X109037360Y-149179251D01*
X108492403Y-150084786D01*
X107914942Y-150969948D01*
X107305741Y-151833571D01*
X106665600Y-152674518D01*
X105995363Y-153491680D01*
X105295913Y-154283982D01*
X104568172Y-155050379D01*
X103813098Y-155789862D01*
X103031686Y-156501457D01*
X102224965Y-157184226D01*
X101393998Y-157837270D01*
X100539880Y-158459728D01*
X99663736Y-159050781D01*
X98766720Y-159609650D01*
X98006676Y-160045714D01*
X97938732Y-160062002D01*
X97921624Y-160059942D01*
X97275358Y-159936060D01*
X95608087Y-159654818D01*
X93934965Y-159410792D01*
X92256821Y-159204102D01*
X90574488Y-159034853D01*
X88888803Y-158903128D01*
X87200601Y-158808991D01*
X85510721Y-158752491D01*
X83820001Y-158733654D01*
X82129281Y-158752491D01*
X80439401Y-158808991D01*
X78751199Y-158903128D01*
X77065514Y-159034853D01*
X75383181Y-159204102D01*
X73705037Y-159410792D01*
X72031915Y-159654818D01*
X70364644Y-159936060D01*
X69718375Y-160059942D01*
X69648829Y-160053230D01*
X69633323Y-160045714D01*
X68873281Y-159609651D01*
X67976265Y-159050782D01*
X67100121Y-158459729D01*
X66246003Y-157837271D01*
X65415036Y-157184227D01*
X64608315Y-156501458D01*
X63826903Y-155789863D01*
X63071829Y-155050380D01*
X62344088Y-154283983D01*
X61644638Y-153491681D01*
X60974401Y-152674519D01*
X60334260Y-151833572D01*
X59725058Y-150969949D01*
X59147598Y-150084786D01*
X58602640Y-149179252D01*
X58090903Y-148254537D01*
X58016037Y-148106844D01*
X64136029Y-148106844D01*
X64155051Y-148275677D01*
X64211171Y-148436060D01*
X64286479Y-148555912D01*
X64301569Y-148579927D01*
X64421714Y-148700072D01*
X64462157Y-148725484D01*
X64550432Y-148780951D01*
X64565582Y-148790470D01*
X64725958Y-148846588D01*
X64725961Y-148846588D01*
X64725963Y-148846589D01*
X64894796Y-148865612D01*
X64894800Y-148865612D01*
X64894804Y-148865612D01*
X65063636Y-148846589D01*
X65063637Y-148846588D01*
X65063642Y-148846588D01*
X65224018Y-148790470D01*
X65367886Y-148700072D01*
X65488031Y-148579927D01*
X65578429Y-148436059D01*
X65634547Y-148275683D01*
X65634548Y-148275677D01*
X65653571Y-148106844D01*
X65653571Y-148106837D01*
X65634548Y-147938004D01*
X65634547Y-147938002D01*
X65634547Y-147937999D01*
X65578429Y-147777623D01*
X65488031Y-147633755D01*
X65367886Y-147513610D01*
X65337076Y-147494251D01*
X65224019Y-147423212D01*
X65082609Y-147373731D01*
X65063642Y-147367094D01*
X65063641Y-147367093D01*
X65063636Y-147367092D01*
X64894804Y-147348070D01*
X64894796Y-147348070D01*
X64725963Y-147367092D01*
X64565580Y-147423212D01*
X64421713Y-147513610D01*
X64301569Y-147633754D01*
X64211171Y-147777621D01*
X64155051Y-147938004D01*
X64136029Y-148106837D01*
X64136029Y-148106844D01*
X58016037Y-148106844D01*
X57613060Y-147311861D01*
X57545580Y-147165826D01*
X57169741Y-146352465D01*
X56761530Y-145377613D01*
X56388965Y-144388590D01*
X56218399Y-143880640D01*
X61696029Y-143880640D01*
X61715051Y-144049473D01*
X61771171Y-144209856D01*
X61844369Y-144326350D01*
X61861569Y-144353723D01*
X61981714Y-144473868D01*
X62125582Y-144564266D01*
X62285958Y-144620384D01*
X62285961Y-144620384D01*
X62285963Y-144620385D01*
X62454796Y-144639408D01*
X62454800Y-144639408D01*
X62454804Y-144639408D01*
X62623636Y-144620385D01*
X62623637Y-144620384D01*
X62623642Y-144620384D01*
X62784018Y-144564266D01*
X62927886Y-144473868D01*
X63048031Y-144353723D01*
X63138429Y-144209855D01*
X63194547Y-144049479D01*
X63194548Y-144049473D01*
X63213571Y-143880640D01*
X63213571Y-143880633D01*
X63194548Y-143711800D01*
X63194547Y-143711798D01*
X63194547Y-143711795D01*
X63138429Y-143551419D01*
X63137537Y-143550000D01*
X63073760Y-143448499D01*
X63048031Y-143407551D01*
X62927886Y-143287406D01*
X62784019Y-143197008D01*
X62629040Y-143142779D01*
X62623642Y-143140890D01*
X62623641Y-143140889D01*
X62623636Y-143140888D01*
X62454804Y-143121866D01*
X62454796Y-143121866D01*
X62285963Y-143140888D01*
X62125580Y-143197008D01*
X61981713Y-143287406D01*
X61861569Y-143407550D01*
X61771171Y-143551417D01*
X61715051Y-143711800D01*
X61696029Y-143880633D01*
X61696029Y-143880640D01*
X56218399Y-143880640D01*
X56052536Y-143386698D01*
X55933211Y-142983400D01*
X64932749Y-142983400D01*
X64943084Y-143061904D01*
X64951669Y-143127108D01*
X64951670Y-143127112D01*
X65007136Y-143261022D01*
X65007137Y-143261024D01*
X65007138Y-143261025D01*
X65095378Y-143376021D01*
X65210374Y-143464261D01*
X65344290Y-143519730D01*
X65471279Y-143536448D01*
X65487998Y-143538650D01*
X65487999Y-143538650D01*
X65488000Y-143538650D01*
X65502976Y-143536678D01*
X65631708Y-143519730D01*
X65765624Y-143464261D01*
X65880620Y-143376021D01*
X65968860Y-143261025D01*
X66024329Y-143127109D01*
X66043249Y-142983400D01*
X66042739Y-142979530D01*
X66036937Y-142935456D01*
X66024329Y-142839691D01*
X65968908Y-142705891D01*
X65968861Y-142705777D01*
X65968860Y-142705776D01*
X65968860Y-142705775D01*
X65880620Y-142590779D01*
X65765624Y-142502539D01*
X65765623Y-142502538D01*
X65765621Y-142502537D01*
X65631711Y-142447071D01*
X65631709Y-142447070D01*
X65631708Y-142447070D01*
X65559853Y-142437610D01*
X65488000Y-142428150D01*
X65487998Y-142428150D01*
X65344290Y-142447070D01*
X65344286Y-142447071D01*
X65210376Y-142502537D01*
X65095378Y-142590779D01*
X65007136Y-142705777D01*
X64951670Y-142839687D01*
X64951669Y-142839691D01*
X64933259Y-142979530D01*
X64932749Y-142983400D01*
X55933211Y-142983400D01*
X55752687Y-142373257D01*
X55489813Y-141349602D01*
X55342821Y-140676712D01*
X64912061Y-140676712D01*
X64927916Y-140797144D01*
X64930981Y-140820420D01*
X64930982Y-140820424D01*
X64986449Y-140954334D01*
X64986450Y-140954337D01*
X65027258Y-141007519D01*
X65031050Y-141012460D01*
X65056245Y-141077629D01*
X65042207Y-141146074D01*
X65031052Y-141163432D01*
X65004226Y-141198392D01*
X65004226Y-141198393D01*
X64948759Y-141332304D01*
X64948758Y-141332308D01*
X64929838Y-141476017D01*
X64947077Y-141606961D01*
X64948758Y-141619725D01*
X64948759Y-141619729D01*
X65004225Y-141753639D01*
X65004226Y-141753641D01*
X65004227Y-141753642D01*
X65092467Y-141868638D01*
X65207463Y-141956878D01*
X65341379Y-142012347D01*
X65468368Y-142029065D01*
X65485087Y-142031267D01*
X65485088Y-142031267D01*
X65485089Y-142031267D01*
X65500659Y-142029217D01*
X65628797Y-142012347D01*
X65762713Y-141956878D01*
X65877709Y-141868638D01*
X65965949Y-141753642D01*
X66021418Y-141619726D01*
X66040338Y-141476017D01*
X66021418Y-141332308D01*
X65965949Y-141198392D01*
X65921346Y-141140264D01*
X65896153Y-141075098D01*
X65910191Y-141006653D01*
X65921340Y-140989304D01*
X65948172Y-140954337D01*
X66003641Y-140820421D01*
X66022561Y-140676712D01*
X66003641Y-140533003D01*
X65948172Y-140399087D01*
X65859932Y-140284091D01*
X65744936Y-140195851D01*
X65744935Y-140195850D01*
X65744933Y-140195849D01*
X65611023Y-140140383D01*
X65611021Y-140140382D01*
X65611020Y-140140382D01*
X65523405Y-140128847D01*
X65467312Y-140121462D01*
X65467310Y-140121462D01*
X65323602Y-140140382D01*
X65323598Y-140140383D01*
X65189688Y-140195849D01*
X65074690Y-140284091D01*
X64986448Y-140399089D01*
X64930982Y-140532999D01*
X64930981Y-140533003D01*
X64912061Y-140676712D01*
X55342821Y-140676712D01*
X55264260Y-140317082D01*
X55076325Y-139277057D01*
X54926256Y-138230896D01*
X54814250Y-137179979D01*
X54740455Y-136125690D01*
X54704968Y-135069417D01*
X54707346Y-134193170D01*
X54708820Y-134188201D01*
X56442350Y-134188201D01*
X56458684Y-134312271D01*
X56461270Y-134331909D01*
X56461271Y-134331913D01*
X56516737Y-134465823D01*
X56516738Y-134465825D01*
X56516739Y-134465826D01*
X56604979Y-134580822D01*
X56719975Y-134669062D01*
X56719976Y-134669062D01*
X56719977Y-134669063D01*
X56745153Y-134679491D01*
X56853891Y-134724531D01*
X56980880Y-134741249D01*
X56997599Y-134743451D01*
X56997600Y-134743451D01*
X56997601Y-134743451D01*
X57012577Y-134741479D01*
X57141309Y-134724531D01*
X57275225Y-134669062D01*
X57390221Y-134580822D01*
X57478461Y-134465826D01*
X57533930Y-134331910D01*
X57552850Y-134188201D01*
X57533930Y-134044492D01*
X57478461Y-133910576D01*
X57390221Y-133795580D01*
X57275225Y-133707340D01*
X57275224Y-133707339D01*
X57275222Y-133707338D01*
X57141312Y-133651872D01*
X57141310Y-133651871D01*
X57141309Y-133651871D01*
X57069454Y-133642411D01*
X56997601Y-133632951D01*
X56997599Y-133632951D01*
X56853891Y-133651871D01*
X56853887Y-133651872D01*
X56719977Y-133707338D01*
X56604979Y-133795580D01*
X56516737Y-133910578D01*
X56461271Y-134044488D01*
X56461270Y-134044492D01*
X56450183Y-134128708D01*
X56442350Y-134188201D01*
X54708820Y-134188201D01*
X54727213Y-134126186D01*
X54737544Y-134112408D01*
X55167974Y-133614654D01*
X56058522Y-132537200D01*
X60760350Y-132537200D01*
X60779270Y-132680908D01*
X60779271Y-132680912D01*
X60834737Y-132814822D01*
X60834738Y-132814824D01*
X60834739Y-132814825D01*
X60914476Y-132918740D01*
X60939670Y-132983909D01*
X60940100Y-132994226D01*
X60940100Y-136380901D01*
X60937462Y-136406339D01*
X60935233Y-136416973D01*
X60935233Y-136416974D01*
X60935233Y-136416976D01*
X60939623Y-136452196D01*
X60940100Y-136459872D01*
X60940100Y-136463821D01*
X60943942Y-136486846D01*
X60950734Y-136541332D01*
X60952973Y-136548852D01*
X60955534Y-136556313D01*
X60955535Y-136556315D01*
X60971444Y-136585713D01*
X60981655Y-136604582D01*
X61005774Y-136653916D01*
X61010342Y-136660314D01*
X61015182Y-136666532D01*
X61055571Y-136703714D01*
X62495545Y-138143687D01*
X62511673Y-138163546D01*
X62517612Y-138172637D01*
X62545628Y-138194442D01*
X62551389Y-138199531D01*
X62554178Y-138202320D01*
X62573179Y-138215886D01*
X62615109Y-138248522D01*
X62616507Y-138249610D01*
X62623418Y-138253350D01*
X62630496Y-138256811D01*
X62683101Y-138272472D01*
X62735036Y-138290301D01*
X62735038Y-138290301D01*
X62742775Y-138291592D01*
X62750605Y-138292568D01*
X62750607Y-138292569D01*
X62750608Y-138292568D01*
X62750609Y-138292569D01*
X62805451Y-138290301D01*
X69736105Y-138290301D01*
X69803144Y-138309986D01*
X69823786Y-138326620D01*
X70001474Y-138504308D01*
X70034959Y-138565631D01*
X70029975Y-138635323D01*
X69988103Y-138691256D01*
X69954231Y-138707711D01*
X69954499Y-138708358D01*
X69813077Y-138766935D01*
X69698079Y-138855177D01*
X69609837Y-138970175D01*
X69554371Y-139104085D01*
X69554370Y-139104089D01*
X69535450Y-139247798D01*
X69553161Y-139382327D01*
X69554370Y-139391506D01*
X69554371Y-139391510D01*
X69609837Y-139525420D01*
X69609838Y-139525422D01*
X69609839Y-139525423D01*
X69683877Y-139621911D01*
X69702876Y-139646670D01*
X69728070Y-139711840D01*
X69728500Y-139722157D01*
X69728500Y-141007519D01*
X69708815Y-141074558D01*
X69692181Y-141095200D01*
X68716708Y-142070672D01*
X68696854Y-142086796D01*
X68687765Y-142092734D01*
X68687764Y-142092735D01*
X68665963Y-142120743D01*
X68660886Y-142126494D01*
X68658084Y-142129297D01*
X68658074Y-142129308D01*
X68644505Y-142148315D01*
X68610792Y-142191628D01*
X68607047Y-142198549D01*
X68603588Y-142205624D01*
X68587929Y-142258223D01*
X68570100Y-142310158D01*
X68568806Y-142317912D01*
X68567831Y-142325731D01*
X68570100Y-142380575D01*
X68570100Y-144701847D01*
X68550415Y-144768886D01*
X68497611Y-144814641D01*
X68428453Y-144824585D01*
X68370615Y-144800224D01*
X68313425Y-144756340D01*
X68313424Y-144756339D01*
X68313422Y-144756338D01*
X68179512Y-144700872D01*
X68179510Y-144700871D01*
X68179509Y-144700871D01*
X68084101Y-144688310D01*
X68035801Y-144681951D01*
X68035799Y-144681951D01*
X67892091Y-144700871D01*
X67892087Y-144700872D01*
X67758177Y-144756338D01*
X67643179Y-144844580D01*
X67554937Y-144959578D01*
X67499471Y-145093488D01*
X67499470Y-145093492D01*
X67487010Y-145188137D01*
X67480550Y-145237201D01*
X67490307Y-145311315D01*
X67499470Y-145380909D01*
X67499471Y-145380913D01*
X67554937Y-145514823D01*
X67554938Y-145514824D01*
X67554939Y-145514826D01*
X67643179Y-145629822D01*
X67758175Y-145718062D01*
X67892091Y-145773531D01*
X68018854Y-145790220D01*
X68035799Y-145792451D01*
X68035800Y-145792451D01*
X68035801Y-145792451D01*
X68052746Y-145790220D01*
X68179509Y-145773531D01*
X68313425Y-145718062D01*
X68428421Y-145629822D01*
X68516661Y-145514826D01*
X68568437Y-145389824D01*
X68612275Y-145335425D01*
X68678568Y-145313359D01*
X68746268Y-145330637D01*
X68770677Y-145349599D01*
X69480781Y-146059702D01*
X69514266Y-146121025D01*
X69517100Y-146147383D01*
X69517100Y-149447363D01*
X69497415Y-149514402D01*
X69444611Y-149560157D01*
X69375453Y-149570101D01*
X69311897Y-149541076D01*
X69278539Y-149494815D01*
X69241162Y-149404578D01*
X69241161Y-149404577D01*
X69241161Y-149404576D01*
X69152921Y-149289580D01*
X69037925Y-149201340D01*
X69037924Y-149201339D01*
X69037922Y-149201338D01*
X68904012Y-149145872D01*
X68904010Y-149145871D01*
X68904009Y-149145871D01*
X68832154Y-149136411D01*
X68760301Y-149126951D01*
X68760299Y-149126951D01*
X68616591Y-149145871D01*
X68616587Y-149145872D01*
X68482677Y-149201338D01*
X68367679Y-149289580D01*
X68279437Y-149404578D01*
X68223971Y-149538488D01*
X68223970Y-149538492D01*
X68219809Y-149570101D01*
X68205050Y-149682201D01*
X68221384Y-149806271D01*
X68223970Y-149825909D01*
X68223971Y-149825913D01*
X68279437Y-149959823D01*
X68279438Y-149959825D01*
X68279439Y-149959826D01*
X68367679Y-150074822D01*
X68482675Y-150163062D01*
X68616591Y-150218531D01*
X68743580Y-150235249D01*
X68760299Y-150237451D01*
X68760300Y-150237451D01*
X68760301Y-150237451D01*
X68775277Y-150235479D01*
X68904009Y-150218531D01*
X69037925Y-150163062D01*
X69152921Y-150074822D01*
X69241161Y-149959826D01*
X69278539Y-149869585D01*
X69322379Y-149815182D01*
X69388673Y-149793117D01*
X69456373Y-149810396D01*
X69503983Y-149861533D01*
X69517100Y-149917038D01*
X69517100Y-155325110D01*
X69497415Y-155392149D01*
X69461990Y-155428213D01*
X69461060Y-155428833D01*
X69461060Y-155428834D01*
X69411170Y-155462169D01*
X69378199Y-155484199D01*
X69322833Y-155567060D01*
X69322832Y-155567064D01*
X69308300Y-155640121D01*
X69308300Y-157389478D01*
X69322832Y-157462535D01*
X69322833Y-157462539D01*
X69322834Y-157462540D01*
X69378199Y-157545401D01*
X69460354Y-157600294D01*
X69461060Y-157600766D01*
X69461064Y-157600767D01*
X69534121Y-157615299D01*
X69534124Y-157615300D01*
X69534126Y-157615300D01*
X71283476Y-157615300D01*
X71283477Y-157615299D01*
X71356540Y-157600766D01*
X71439401Y-157545401D01*
X71494766Y-157462540D01*
X71509300Y-157389474D01*
X71509300Y-155640126D01*
X71509300Y-155640123D01*
X71509299Y-155640121D01*
X71494767Y-155567064D01*
X71494766Y-155567060D01*
X71439401Y-155484199D01*
X71356540Y-155428834D01*
X71356539Y-155428833D01*
X71356535Y-155428832D01*
X71283477Y-155414300D01*
X71283474Y-155414300D01*
X70392100Y-155414300D01*
X70325061Y-155394615D01*
X70279306Y-155341811D01*
X70268100Y-155290300D01*
X70268100Y-152483262D01*
X70287785Y-152416223D01*
X70340589Y-152370468D01*
X70409747Y-152360524D01*
X70473303Y-152389549D01*
X70506661Y-152435810D01*
X70512133Y-152449022D01*
X70512134Y-152449024D01*
X70512135Y-152449025D01*
X70600375Y-152564021D01*
X70715371Y-152652261D01*
X70849287Y-152707730D01*
X70976276Y-152724448D01*
X70992995Y-152726650D01*
X70992996Y-152726650D01*
X70992997Y-152726650D01*
X71007973Y-152724678D01*
X71136705Y-152707730D01*
X71270621Y-152652261D01*
X71385617Y-152564021D01*
X71473857Y-152449025D01*
X71529326Y-152315109D01*
X71548246Y-152171400D01*
X71529326Y-152027691D01*
X71473857Y-151893775D01*
X71385617Y-151778779D01*
X71270621Y-151690539D01*
X71270620Y-151690538D01*
X71270618Y-151690537D01*
X71136708Y-151635071D01*
X71136706Y-151635070D01*
X71136705Y-151635070D01*
X71120039Y-151632875D01*
X71006842Y-151617972D01*
X70942946Y-151589705D01*
X70935348Y-151582714D01*
X70754419Y-151401785D01*
X70720934Y-151340462D01*
X70718100Y-151314104D01*
X70718100Y-144859597D01*
X70737785Y-144792558D01*
X70790589Y-144746803D01*
X70858285Y-144736658D01*
X70931920Y-144746352D01*
X70967599Y-144751050D01*
X70967600Y-144751050D01*
X70967601Y-144751050D01*
X70982577Y-144749078D01*
X71111309Y-144732130D01*
X71245225Y-144676661D01*
X71360221Y-144588421D01*
X71448461Y-144473425D01*
X71503930Y-144339509D01*
X71522850Y-144195800D01*
X71503930Y-144052091D01*
X71452539Y-143928020D01*
X71448462Y-143918177D01*
X71448461Y-143918176D01*
X71448461Y-143918175D01*
X71360221Y-143803179D01*
X71272743Y-143736054D01*
X71231543Y-143679629D01*
X71227388Y-143609883D01*
X71260549Y-143550002D01*
X71762020Y-143048532D01*
X71823342Y-143015048D01*
X71893034Y-143020032D01*
X71948967Y-143061904D01*
X71973384Y-143127368D01*
X71973700Y-143136214D01*
X71973700Y-148819692D01*
X71971062Y-148845130D01*
X71968833Y-148855764D01*
X71968833Y-148855765D01*
X71968833Y-148855767D01*
X71973223Y-148890987D01*
X71973700Y-148898663D01*
X71973700Y-148902612D01*
X71977542Y-148925637D01*
X71984334Y-148980123D01*
X71986573Y-148987643D01*
X71989134Y-148995104D01*
X71989135Y-148995106D01*
X71997174Y-149009961D01*
X72015255Y-149043373D01*
X72039374Y-149092707D01*
X72043942Y-149099105D01*
X72048782Y-149105323D01*
X72089171Y-149142505D01*
X72536981Y-149590314D01*
X72570466Y-149651637D01*
X72573300Y-149677995D01*
X72573300Y-149964496D01*
X72553615Y-150031535D01*
X72500811Y-150077290D01*
X72431653Y-150087234D01*
X72401849Y-150079058D01*
X72302198Y-150037782D01*
X72302197Y-150037781D01*
X72302195Y-150037781D01*
X72158490Y-150018862D01*
X72158488Y-150018862D01*
X72014780Y-150037782D01*
X72014776Y-150037783D01*
X71880866Y-150093249D01*
X71765868Y-150181491D01*
X71677626Y-150296489D01*
X71622160Y-150430399D01*
X71622159Y-150430403D01*
X71607355Y-150542852D01*
X71603239Y-150574112D01*
X71619961Y-150701129D01*
X71622159Y-150717820D01*
X71622160Y-150717824D01*
X71677627Y-150851735D01*
X71677628Y-150851738D01*
X71725646Y-150914315D01*
X71750841Y-150979484D01*
X71736803Y-151047929D01*
X71725647Y-151065288D01*
X71655139Y-151157175D01*
X71655138Y-151157177D01*
X71599671Y-151291088D01*
X71599670Y-151291092D01*
X71580750Y-151434800D01*
X71580750Y-151434801D01*
X71599670Y-151578509D01*
X71599671Y-151578513D01*
X71655137Y-151712423D01*
X71655138Y-151712425D01*
X71655139Y-151712426D01*
X71743379Y-151827422D01*
X71858375Y-151915662D01*
X71858376Y-151915662D01*
X71858377Y-151915663D01*
X71903013Y-151934151D01*
X71992291Y-151971131D01*
X72119280Y-151987849D01*
X72135999Y-151990051D01*
X72136000Y-151990051D01*
X72136001Y-151990051D01*
X72150977Y-151988079D01*
X72279709Y-151971131D01*
X72401848Y-151920539D01*
X72471317Y-151913071D01*
X72533796Y-151944346D01*
X72569448Y-152004435D01*
X72573300Y-152035101D01*
X72573300Y-155395130D01*
X72553615Y-155462169D01*
X72500811Y-155507924D01*
X72494095Y-155510756D01*
X72456171Y-155525447D01*
X72456159Y-155525453D01*
X72282760Y-155632817D01*
X72282758Y-155632819D01*
X72132037Y-155770218D01*
X72009127Y-155932978D01*
X71918222Y-156115539D01*
X71918217Y-156115552D01*
X71862402Y-156311717D01*
X71843585Y-156514799D01*
X71843585Y-156514800D01*
X71862402Y-156717882D01*
X71918217Y-156914047D01*
X71918222Y-156914060D01*
X72009127Y-157096621D01*
X72132037Y-157259381D01*
X72282758Y-157396780D01*
X72282760Y-157396782D01*
X72381941Y-157458192D01*
X72456163Y-157504148D01*
X72646344Y-157577824D01*
X72846824Y-157615300D01*
X72846826Y-157615300D01*
X73050774Y-157615300D01*
X73050776Y-157615300D01*
X73251256Y-157577824D01*
X73441437Y-157504148D01*
X73614841Y-157396781D01*
X73765564Y-157259379D01*
X73888473Y-157096621D01*
X73979382Y-156914050D01*
X74035197Y-156717883D01*
X74054015Y-156514800D01*
X74035197Y-156311717D01*
X73979382Y-156115550D01*
X73976636Y-156110036D01*
X73888604Y-155933243D01*
X73888473Y-155932979D01*
X73765564Y-155770221D01*
X73765562Y-155770218D01*
X73614841Y-155632819D01*
X73614839Y-155632817D01*
X73441440Y-155525453D01*
X73441428Y-155525447D01*
X73403505Y-155510756D01*
X73348104Y-155468183D01*
X73324514Y-155402416D01*
X73324300Y-155395130D01*
X73324300Y-149522899D01*
X73326939Y-149497454D01*
X73327585Y-149494370D01*
X73329167Y-149486827D01*
X73327087Y-149470147D01*
X73324777Y-149451604D01*
X73324300Y-149443928D01*
X73324300Y-149439985D01*
X73324299Y-149439979D01*
X73322333Y-149428199D01*
X73320455Y-149416943D01*
X73318914Y-149404576D01*
X73313665Y-149362469D01*
X73311417Y-149354923D01*
X73308865Y-149347486D01*
X73282742Y-149299215D01*
X73275542Y-149284487D01*
X73258626Y-149249884D01*
X73258623Y-149249881D01*
X73258623Y-149249880D01*
X73254067Y-149243498D01*
X73249223Y-149237274D01*
X73249219Y-149237270D01*
X73208841Y-149200099D01*
X73018703Y-149009961D01*
X72985218Y-148948638D01*
X72990202Y-148878946D01*
X73032074Y-148823013D01*
X73097538Y-148798596D01*
X73122574Y-148799341D01*
X73124196Y-148799555D01*
X73126599Y-148799872D01*
X73126600Y-148799872D01*
X73126601Y-148799872D01*
X73141577Y-148797900D01*
X73270309Y-148780952D01*
X73404225Y-148725483D01*
X73519221Y-148637243D01*
X73607461Y-148522247D01*
X73662930Y-148388331D01*
X73681850Y-148244622D01*
X73680311Y-148232934D01*
X73691075Y-148163902D01*
X73737454Y-148111645D01*
X73787063Y-148093810D01*
X73854509Y-148084931D01*
X73961748Y-148040512D01*
X74031217Y-148033043D01*
X74093696Y-148064319D01*
X74129348Y-148124408D01*
X74133200Y-148155073D01*
X74133200Y-153721475D01*
X74113515Y-153788514D01*
X74107582Y-153796953D01*
X74066318Y-153850729D01*
X74027837Y-153900878D01*
X73972371Y-154034788D01*
X73972370Y-154034792D01*
X73953450Y-154178500D01*
X73953450Y-154178501D01*
X73972370Y-154322209D01*
X73972371Y-154322213D01*
X74027837Y-154456123D01*
X74027838Y-154456125D01*
X74027839Y-154456126D01*
X74116079Y-154571122D01*
X74231075Y-154659362D01*
X74364991Y-154714831D01*
X74490736Y-154731386D01*
X74508699Y-154733751D01*
X74508699Y-154733750D01*
X74508700Y-154733751D01*
X74617517Y-154719424D01*
X74686549Y-154730189D01*
X74738805Y-154776568D01*
X74757700Y-154842363D01*
X74757700Y-155637376D01*
X74738015Y-155704415D01*
X74717239Y-155729013D01*
X74672035Y-155770221D01*
X74549127Y-155932978D01*
X74458222Y-156115539D01*
X74458217Y-156115552D01*
X74402402Y-156311717D01*
X74383585Y-156514799D01*
X74383585Y-156514800D01*
X74402402Y-156717882D01*
X74458217Y-156914047D01*
X74458222Y-156914060D01*
X74549127Y-157096621D01*
X74672037Y-157259381D01*
X74822758Y-157396780D01*
X74822760Y-157396782D01*
X74921941Y-157458192D01*
X74996163Y-157504148D01*
X75186344Y-157577824D01*
X75386824Y-157615300D01*
X75386826Y-157615300D01*
X75590774Y-157615300D01*
X75590776Y-157615300D01*
X75791256Y-157577824D01*
X75981437Y-157504148D01*
X76154841Y-157396781D01*
X76305564Y-157259379D01*
X76428473Y-157096621D01*
X76519382Y-156914050D01*
X76575197Y-156717883D01*
X76594015Y-156514800D01*
X76575197Y-156311717D01*
X76519382Y-156115550D01*
X76516636Y-156110036D01*
X76428604Y-155933243D01*
X76428473Y-155932979D01*
X76305564Y-155770221D01*
X76305562Y-155770218D01*
X76154841Y-155632819D01*
X76154839Y-155632817D01*
X75981442Y-155525455D01*
X75981439Y-155525453D01*
X75981437Y-155525452D01*
X75981436Y-155525451D01*
X75981435Y-155525451D01*
X75864299Y-155480073D01*
X75791256Y-155451776D01*
X75609914Y-155417877D01*
X75547634Y-155386210D01*
X75512361Y-155325897D01*
X75508700Y-155295989D01*
X75508700Y-154825099D01*
X75528385Y-154758060D01*
X75581189Y-154712305D01*
X75650347Y-154702361D01*
X75713903Y-154731386D01*
X75720381Y-154737418D01*
X76969089Y-155986126D01*
X77002574Y-156047449D01*
X76998131Y-156109565D01*
X76999786Y-156110036D01*
X76942403Y-156311715D01*
X76942402Y-156311717D01*
X76923585Y-156514799D01*
X76923585Y-156514800D01*
X76942402Y-156717882D01*
X76998217Y-156914047D01*
X76998222Y-156914060D01*
X77089127Y-157096621D01*
X77212037Y-157259381D01*
X77362758Y-157396780D01*
X77362760Y-157396782D01*
X77461941Y-157458192D01*
X77536163Y-157504148D01*
X77726344Y-157577824D01*
X77926824Y-157615300D01*
X77926826Y-157615300D01*
X78130774Y-157615300D01*
X78130776Y-157615300D01*
X78331256Y-157577824D01*
X78521437Y-157504148D01*
X78694841Y-157396781D01*
X78845564Y-157259379D01*
X78968473Y-157096621D01*
X79059382Y-156914050D01*
X79115197Y-156717883D01*
X79134015Y-156514800D01*
X79464087Y-156514800D01*
X79482896Y-156717789D01*
X79482897Y-156717792D01*
X79538683Y-156913863D01*
X79538686Y-156913869D01*
X79629554Y-157096356D01*
X79752408Y-157259042D01*
X79903060Y-157396378D01*
X80076384Y-157503697D01*
X80266478Y-157577339D01*
X80466872Y-157614800D01*
X80670728Y-157614800D01*
X80871121Y-157577339D01*
X81061215Y-157503697D01*
X81234539Y-157396378D01*
X81385191Y-157259042D01*
X81508045Y-157096356D01*
X81598913Y-156913869D01*
X81598916Y-156913863D01*
X81654702Y-156717792D01*
X81654703Y-156717789D01*
X81673513Y-156514800D01*
X82003585Y-156514800D01*
X82022402Y-156717882D01*
X82078217Y-156914047D01*
X82078222Y-156914060D01*
X82169127Y-157096621D01*
X82292037Y-157259381D01*
X82442758Y-157396780D01*
X82442760Y-157396782D01*
X82541941Y-157458192D01*
X82616163Y-157504148D01*
X82806344Y-157577824D01*
X83006824Y-157615300D01*
X83006826Y-157615300D01*
X83210774Y-157615300D01*
X83210776Y-157615300D01*
X83411256Y-157577824D01*
X83601437Y-157504148D01*
X83774841Y-157396781D01*
X83925564Y-157259379D01*
X84048473Y-157096621D01*
X84139382Y-156914050D01*
X84195197Y-156717883D01*
X84214015Y-156514800D01*
X85584985Y-156514800D01*
X85603802Y-156717882D01*
X85659617Y-156914047D01*
X85659622Y-156914060D01*
X85750527Y-157096621D01*
X85873437Y-157259381D01*
X86024158Y-157396780D01*
X86024160Y-157396782D01*
X86123341Y-157458192D01*
X86197563Y-157504148D01*
X86387744Y-157577824D01*
X86588224Y-157615300D01*
X86588226Y-157615300D01*
X86792174Y-157615300D01*
X86792176Y-157615300D01*
X86992656Y-157577824D01*
X87182837Y-157504148D01*
X87356241Y-157396781D01*
X87506964Y-157259379D01*
X87629873Y-157096621D01*
X87720782Y-156914050D01*
X87776597Y-156717883D01*
X87795415Y-156514800D01*
X88124985Y-156514800D01*
X88143802Y-156717882D01*
X88199617Y-156914047D01*
X88199622Y-156914060D01*
X88290527Y-157096621D01*
X88413437Y-157259381D01*
X88564158Y-157396780D01*
X88564160Y-157396782D01*
X88663341Y-157458192D01*
X88737563Y-157504148D01*
X88927744Y-157577824D01*
X89128224Y-157615300D01*
X89128226Y-157615300D01*
X89332174Y-157615300D01*
X89332176Y-157615300D01*
X89532656Y-157577824D01*
X89722837Y-157504148D01*
X89896241Y-157396781D01*
X89904307Y-157389428D01*
X90670200Y-157389428D01*
X90684703Y-157462340D01*
X90684705Y-157462344D01*
X90739960Y-157545039D01*
X90822655Y-157600294D01*
X90822659Y-157600296D01*
X90895571Y-157614799D01*
X90895574Y-157614800D01*
X92644826Y-157614800D01*
X92644828Y-157614799D01*
X92717740Y-157600296D01*
X92717744Y-157600294D01*
X92800439Y-157545039D01*
X92855694Y-157462344D01*
X92855696Y-157462340D01*
X92870199Y-157389428D01*
X92870200Y-157389426D01*
X92870200Y-156514800D01*
X94352985Y-156514800D01*
X94371802Y-156717882D01*
X94427617Y-156914047D01*
X94427622Y-156914060D01*
X94518527Y-157096621D01*
X94641437Y-157259381D01*
X94792158Y-157396780D01*
X94792160Y-157396782D01*
X94891341Y-157458192D01*
X94965563Y-157504148D01*
X95155744Y-157577824D01*
X95356224Y-157615300D01*
X95356226Y-157615300D01*
X95560174Y-157615300D01*
X95560176Y-157615300D01*
X95760656Y-157577824D01*
X95950837Y-157504148D01*
X96124241Y-157396781D01*
X96132252Y-157389478D01*
X96897700Y-157389478D01*
X96912232Y-157462535D01*
X96912233Y-157462539D01*
X96912234Y-157462540D01*
X96967599Y-157545401D01*
X97049754Y-157600294D01*
X97050460Y-157600766D01*
X97050464Y-157600767D01*
X97123521Y-157615299D01*
X97123524Y-157615300D01*
X97123526Y-157615300D01*
X98872876Y-157615300D01*
X98872877Y-157615299D01*
X98945940Y-157600766D01*
X99028801Y-157545401D01*
X99084166Y-157462540D01*
X99098700Y-157389474D01*
X99098700Y-155640126D01*
X99098700Y-155640123D01*
X99098699Y-155640121D01*
X99084167Y-155567064D01*
X99084166Y-155567060D01*
X99028801Y-155484199D01*
X98945940Y-155428834D01*
X98945939Y-155428833D01*
X98945935Y-155428832D01*
X98872877Y-155414300D01*
X98872874Y-155414300D01*
X97123526Y-155414300D01*
X97123523Y-155414300D01*
X97050464Y-155428832D01*
X97050460Y-155428833D01*
X96967599Y-155484199D01*
X96912233Y-155567060D01*
X96912232Y-155567064D01*
X96897700Y-155640121D01*
X96897700Y-157389478D01*
X96132252Y-157389478D01*
X96274964Y-157259379D01*
X96397873Y-157096621D01*
X96488782Y-156914050D01*
X96544597Y-156717883D01*
X96563415Y-156514800D01*
X96544597Y-156311717D01*
X96488782Y-156115550D01*
X96486036Y-156110036D01*
X96398004Y-155933243D01*
X96397873Y-155932979D01*
X96274964Y-155770221D01*
X96274962Y-155770218D01*
X96124241Y-155632819D01*
X96124239Y-155632817D01*
X95950842Y-155525455D01*
X95950839Y-155525453D01*
X95950837Y-155525452D01*
X95950836Y-155525451D01*
X95950835Y-155525451D01*
X95833699Y-155480073D01*
X95760656Y-155451776D01*
X95560176Y-155414300D01*
X95356224Y-155414300D01*
X95155744Y-155451776D01*
X95155741Y-155451776D01*
X95155741Y-155451777D01*
X94965564Y-155525451D01*
X94965557Y-155525455D01*
X94792160Y-155632817D01*
X94792158Y-155632819D01*
X94641437Y-155770218D01*
X94518527Y-155932978D01*
X94427622Y-156115539D01*
X94427617Y-156115552D01*
X94371802Y-156311717D01*
X94352985Y-156514799D01*
X94352985Y-156514800D01*
X92870200Y-156514800D01*
X92870200Y-155640173D01*
X92870199Y-155640171D01*
X92855696Y-155567259D01*
X92855694Y-155567255D01*
X92800439Y-155484560D01*
X92717744Y-155429305D01*
X92717740Y-155429303D01*
X92644827Y-155414800D01*
X90895573Y-155414800D01*
X90822659Y-155429303D01*
X90822655Y-155429305D01*
X90739960Y-155484560D01*
X90684705Y-155567255D01*
X90684703Y-155567259D01*
X90670200Y-155640171D01*
X90670200Y-157389428D01*
X89904307Y-157389428D01*
X90046964Y-157259379D01*
X90169873Y-157096621D01*
X90260782Y-156914050D01*
X90316597Y-156717883D01*
X90335415Y-156514800D01*
X90316597Y-156311717D01*
X90260782Y-156115550D01*
X90258036Y-156110036D01*
X90170004Y-155933243D01*
X90169873Y-155932979D01*
X90046964Y-155770221D01*
X90046962Y-155770218D01*
X89896241Y-155632819D01*
X89896239Y-155632817D01*
X89722842Y-155525455D01*
X89722839Y-155525453D01*
X89722837Y-155525452D01*
X89722836Y-155525451D01*
X89722835Y-155525451D01*
X89605699Y-155480073D01*
X89532656Y-155451776D01*
X89332176Y-155414300D01*
X89128224Y-155414300D01*
X88927744Y-155451776D01*
X88927741Y-155451776D01*
X88927741Y-155451777D01*
X88737564Y-155525451D01*
X88737557Y-155525455D01*
X88564160Y-155632817D01*
X88564158Y-155632819D01*
X88413437Y-155770218D01*
X88290527Y-155932978D01*
X88199622Y-156115539D01*
X88199617Y-156115552D01*
X88143802Y-156311717D01*
X88124985Y-156514799D01*
X88124985Y-156514800D01*
X87795415Y-156514800D01*
X87776597Y-156311717D01*
X87720782Y-156115550D01*
X87718036Y-156110036D01*
X87630004Y-155933243D01*
X87629873Y-155932979D01*
X87506964Y-155770221D01*
X87506962Y-155770218D01*
X87356241Y-155632819D01*
X87356239Y-155632817D01*
X87182842Y-155525455D01*
X87182839Y-155525453D01*
X87182837Y-155525452D01*
X87182836Y-155525451D01*
X87182835Y-155525451D01*
X87065699Y-155480073D01*
X86992656Y-155451776D01*
X86792176Y-155414300D01*
X86588224Y-155414300D01*
X86387744Y-155451776D01*
X86387741Y-155451776D01*
X86387741Y-155451777D01*
X86197564Y-155525451D01*
X86197557Y-155525455D01*
X86024160Y-155632817D01*
X86024158Y-155632819D01*
X85873437Y-155770218D01*
X85750527Y-155932978D01*
X85659622Y-156115539D01*
X85659617Y-156115552D01*
X85603802Y-156311717D01*
X85584985Y-156514799D01*
X85584985Y-156514800D01*
X84214015Y-156514800D01*
X84195197Y-156311717D01*
X84139382Y-156115550D01*
X84136636Y-156110036D01*
X84048604Y-155933243D01*
X84048473Y-155932979D01*
X83925564Y-155770221D01*
X83925562Y-155770218D01*
X83774841Y-155632819D01*
X83774839Y-155632817D01*
X83601442Y-155525455D01*
X83601439Y-155525453D01*
X83601437Y-155525452D01*
X83601436Y-155525451D01*
X83601435Y-155525451D01*
X83484299Y-155480073D01*
X83411256Y-155451776D01*
X83210776Y-155414300D01*
X83006824Y-155414300D01*
X82806344Y-155451776D01*
X82806341Y-155451776D01*
X82806341Y-155451777D01*
X82616164Y-155525451D01*
X82616157Y-155525455D01*
X82442760Y-155632817D01*
X82442758Y-155632819D01*
X82292037Y-155770218D01*
X82169127Y-155932978D01*
X82078222Y-156115539D01*
X82078217Y-156115552D01*
X82022402Y-156311717D01*
X82003585Y-156514799D01*
X82003585Y-156514800D01*
X81673513Y-156514800D01*
X81673513Y-156514799D01*
X81654703Y-156311810D01*
X81654702Y-156311807D01*
X81598916Y-156115736D01*
X81598913Y-156115730D01*
X81508045Y-155933243D01*
X81385191Y-155770557D01*
X81234539Y-155633221D01*
X81061215Y-155525902D01*
X80871121Y-155452260D01*
X80670728Y-155414800D01*
X80466872Y-155414800D01*
X80266478Y-155452260D01*
X80076384Y-155525902D01*
X79903060Y-155633221D01*
X79752408Y-155770557D01*
X79629554Y-155933243D01*
X79538686Y-156115730D01*
X79538683Y-156115736D01*
X79482897Y-156311807D01*
X79482896Y-156311810D01*
X79464087Y-156514799D01*
X79464087Y-156514800D01*
X79134015Y-156514800D01*
X79115197Y-156311717D01*
X79059382Y-156115550D01*
X79056636Y-156110036D01*
X78968604Y-155933243D01*
X78968473Y-155932979D01*
X78845564Y-155770221D01*
X78845562Y-155770218D01*
X78694841Y-155632819D01*
X78694839Y-155632817D01*
X78521442Y-155525455D01*
X78521439Y-155525453D01*
X78521437Y-155525452D01*
X78521436Y-155525451D01*
X78521435Y-155525451D01*
X78404299Y-155480073D01*
X78331256Y-155451776D01*
X78130776Y-155414300D01*
X77926824Y-155414300D01*
X77852396Y-155428213D01*
X77726336Y-155451777D01*
X77636243Y-155486679D01*
X77566620Y-155492540D01*
X77504880Y-155459830D01*
X77503770Y-155458733D01*
X76319719Y-154274681D01*
X76286234Y-154213358D01*
X76283400Y-154187000D01*
X76283400Y-153314401D01*
X93805750Y-153314401D01*
X93824670Y-153458109D01*
X93824671Y-153458113D01*
X93880137Y-153592023D01*
X93880138Y-153592025D01*
X93880139Y-153592026D01*
X93968379Y-153707022D01*
X94083375Y-153795262D01*
X94217291Y-153850731D01*
X94344280Y-153867449D01*
X94360999Y-153869651D01*
X94361000Y-153869651D01*
X94361001Y-153869651D01*
X94375977Y-153867679D01*
X94504709Y-153850731D01*
X94638625Y-153795262D01*
X94753621Y-153707022D01*
X94841861Y-153592026D01*
X94897330Y-153458110D01*
X94916250Y-153314401D01*
X94897330Y-153170692D01*
X94841861Y-153036776D01*
X94753621Y-152921780D01*
X94638625Y-152833540D01*
X94638624Y-152833539D01*
X94638622Y-152833538D01*
X94504712Y-152778072D01*
X94504710Y-152778071D01*
X94504709Y-152778071D01*
X94432854Y-152768611D01*
X94361001Y-152759151D01*
X94360999Y-152759151D01*
X94217291Y-152778071D01*
X94217287Y-152778072D01*
X94083377Y-152833538D01*
X93968379Y-152921780D01*
X93880137Y-153036778D01*
X93824671Y-153170688D01*
X93824670Y-153170692D01*
X93805750Y-153314400D01*
X93805750Y-153314401D01*
X76283400Y-153314401D01*
X76283400Y-152196800D01*
X97691946Y-152196800D01*
X97710866Y-152340508D01*
X97710867Y-152340512D01*
X97766333Y-152474422D01*
X97766334Y-152474424D01*
X97766335Y-152474425D01*
X97854575Y-152589421D01*
X97969571Y-152677661D01*
X98103487Y-152733130D01*
X98230476Y-152749848D01*
X98247195Y-152752050D01*
X98247196Y-152752050D01*
X98247197Y-152752050D01*
X98262173Y-152750078D01*
X98390905Y-152733130D01*
X98524821Y-152677661D01*
X98639817Y-152589421D01*
X98728057Y-152474425D01*
X98783526Y-152340509D01*
X98802446Y-152196800D01*
X98783526Y-152053091D01*
X98738483Y-151944346D01*
X98728058Y-151919177D01*
X98728057Y-151919176D01*
X98728057Y-151919175D01*
X98639817Y-151804179D01*
X98524821Y-151715939D01*
X98524820Y-151715938D01*
X98524818Y-151715937D01*
X98390908Y-151660471D01*
X98390906Y-151660470D01*
X98390905Y-151660470D01*
X98319050Y-151651010D01*
X98247197Y-151641550D01*
X98247195Y-151641550D01*
X98103487Y-151660470D01*
X98103483Y-151660471D01*
X97969573Y-151715937D01*
X97854575Y-151804179D01*
X97766333Y-151919177D01*
X97710867Y-152053087D01*
X97710866Y-152053091D01*
X97691946Y-152196799D01*
X97691946Y-152196800D01*
X76283400Y-152196800D01*
X76283400Y-150114001D01*
X83442550Y-150114001D01*
X83461470Y-150257709D01*
X83461471Y-150257713D01*
X83516937Y-150391623D01*
X83516938Y-150391625D01*
X83516939Y-150391626D01*
X83605179Y-150506622D01*
X83720175Y-150594862D01*
X83854091Y-150650331D01*
X83981080Y-150667049D01*
X83997799Y-150669251D01*
X83997800Y-150669251D01*
X83997801Y-150669251D01*
X84012777Y-150667279D01*
X84141509Y-150650331D01*
X84275425Y-150594862D01*
X84390421Y-150506622D01*
X84478661Y-150391626D01*
X84534130Y-150257710D01*
X84546362Y-150164801D01*
X84890350Y-150164801D01*
X84909270Y-150308509D01*
X84909271Y-150308513D01*
X84964737Y-150442423D01*
X84964738Y-150442425D01*
X84964739Y-150442426D01*
X85052979Y-150557422D01*
X85167975Y-150645662D01*
X85167976Y-150645662D01*
X85167977Y-150645663D01*
X85197400Y-150657850D01*
X85301891Y-150701131D01*
X85428654Y-150717820D01*
X85445599Y-150720051D01*
X85445600Y-150720051D01*
X85445601Y-150720051D01*
X85462546Y-150717820D01*
X85589309Y-150701131D01*
X85723225Y-150645662D01*
X85838221Y-150557422D01*
X85926461Y-150442426D01*
X85981930Y-150308510D01*
X86000850Y-150164801D01*
X86363550Y-150164801D01*
X86382470Y-150308509D01*
X86382471Y-150308513D01*
X86437937Y-150442423D01*
X86437938Y-150442425D01*
X86437939Y-150442426D01*
X86526179Y-150557422D01*
X86641175Y-150645662D01*
X86641176Y-150645662D01*
X86641177Y-150645663D01*
X86670600Y-150657850D01*
X86775091Y-150701131D01*
X86901854Y-150717820D01*
X86918799Y-150720051D01*
X86918800Y-150720051D01*
X86918801Y-150720051D01*
X86935746Y-150717820D01*
X87062509Y-150701131D01*
X87196425Y-150645662D01*
X87311421Y-150557422D01*
X87399661Y-150442426D01*
X87455130Y-150308510D01*
X87460828Y-150265230D01*
X96166896Y-150265230D01*
X96185816Y-150408938D01*
X96185817Y-150408942D01*
X96241283Y-150542852D01*
X96241284Y-150542854D01*
X96241285Y-150542855D01*
X96329525Y-150657851D01*
X96444521Y-150746091D01*
X96559810Y-150793844D01*
X96614211Y-150837683D01*
X96636276Y-150903977D01*
X96626917Y-150955855D01*
X96593270Y-151037088D01*
X96593270Y-151037089D01*
X96574350Y-151180798D01*
X96591900Y-151314104D01*
X96593270Y-151324506D01*
X96593271Y-151324510D01*
X96648737Y-151458420D01*
X96648738Y-151458422D01*
X96648739Y-151458423D01*
X96736979Y-151573419D01*
X96851975Y-151661659D01*
X96985891Y-151717128D01*
X97112880Y-151733846D01*
X97129599Y-151736048D01*
X97129600Y-151736048D01*
X97129601Y-151736048D01*
X97144577Y-151734076D01*
X97273309Y-151717128D01*
X97407225Y-151661659D01*
X97522221Y-151573419D01*
X97610461Y-151458423D01*
X97665930Y-151324507D01*
X97684850Y-151180798D01*
X97665930Y-151037089D01*
X97610461Y-150903173D01*
X97522221Y-150788177D01*
X97407225Y-150699937D01*
X97407224Y-150699936D01*
X97407222Y-150699935D01*
X97291938Y-150652184D01*
X97237534Y-150608344D01*
X97215469Y-150542050D01*
X97224829Y-150490171D01*
X97258476Y-150408939D01*
X97267210Y-150342600D01*
X103508550Y-150342600D01*
X103527470Y-150486308D01*
X103527471Y-150486312D01*
X103582937Y-150620222D01*
X103582938Y-150620224D01*
X103582939Y-150620225D01*
X103671179Y-150735221D01*
X103786175Y-150823461D01*
X103920091Y-150878930D01*
X104047080Y-150895648D01*
X104063799Y-150897850D01*
X104063800Y-150897850D01*
X104063801Y-150897850D01*
X104078777Y-150895878D01*
X104207509Y-150878930D01*
X104341425Y-150823461D01*
X104456421Y-150735221D01*
X104544661Y-150620225D01*
X104600130Y-150486309D01*
X104619050Y-150342600D01*
X104600130Y-150198891D01*
X104544661Y-150064975D01*
X104456421Y-149949979D01*
X104341425Y-149861739D01*
X104341424Y-149861738D01*
X104341422Y-149861737D01*
X104207512Y-149806271D01*
X104207510Y-149806270D01*
X104207509Y-149806270D01*
X104107604Y-149793117D01*
X104063801Y-149787350D01*
X104063799Y-149787350D01*
X103920091Y-149806270D01*
X103920087Y-149806271D01*
X103786177Y-149861737D01*
X103671179Y-149949979D01*
X103582937Y-150064977D01*
X103527471Y-150198887D01*
X103527470Y-150198891D01*
X103508550Y-150342599D01*
X103508550Y-150342600D01*
X97267210Y-150342600D01*
X97277396Y-150265230D01*
X97258476Y-150121521D01*
X97203007Y-149987605D01*
X97114767Y-149872609D01*
X96999771Y-149784369D01*
X96999770Y-149784368D01*
X96999768Y-149784367D01*
X96865858Y-149728901D01*
X96865856Y-149728900D01*
X96865855Y-149728900D01*
X96794000Y-149719440D01*
X96722147Y-149709980D01*
X96722145Y-149709980D01*
X96578437Y-149728900D01*
X96578433Y-149728901D01*
X96444523Y-149784367D01*
X96329525Y-149872609D01*
X96241283Y-149987607D01*
X96185817Y-150121517D01*
X96185816Y-150121521D01*
X96166896Y-150265229D01*
X96166896Y-150265230D01*
X87460828Y-150265230D01*
X87474050Y-150164801D01*
X87455130Y-150021092D01*
X87399661Y-149887176D01*
X87311421Y-149772180D01*
X87196425Y-149683940D01*
X87196424Y-149683939D01*
X87196422Y-149683938D01*
X87062512Y-149628472D01*
X87062510Y-149628471D01*
X87062509Y-149628471D01*
X86990654Y-149619011D01*
X86918801Y-149609551D01*
X86918799Y-149609551D01*
X86775091Y-149628471D01*
X86775087Y-149628472D01*
X86641177Y-149683938D01*
X86526179Y-149772180D01*
X86437937Y-149887178D01*
X86382471Y-150021088D01*
X86382470Y-150021092D01*
X86363550Y-150164800D01*
X86363550Y-150164801D01*
X86000850Y-150164801D01*
X85981930Y-150021092D01*
X85926461Y-149887176D01*
X85838221Y-149772180D01*
X85723225Y-149683940D01*
X85723224Y-149683939D01*
X85723222Y-149683938D01*
X85589312Y-149628472D01*
X85589310Y-149628471D01*
X85589309Y-149628471D01*
X85517454Y-149619011D01*
X85445601Y-149609551D01*
X85445599Y-149609551D01*
X85301891Y-149628471D01*
X85301887Y-149628472D01*
X85167977Y-149683938D01*
X85052979Y-149772180D01*
X84964737Y-149887178D01*
X84909271Y-150021088D01*
X84909270Y-150021092D01*
X84890350Y-150164800D01*
X84890350Y-150164801D01*
X84546362Y-150164801D01*
X84553050Y-150114001D01*
X84534130Y-149970292D01*
X84478661Y-149836376D01*
X84390421Y-149721380D01*
X84275425Y-149633140D01*
X84275424Y-149633139D01*
X84275422Y-149633138D01*
X84141512Y-149577672D01*
X84141510Y-149577671D01*
X84141509Y-149577671D01*
X84069654Y-149568211D01*
X83997801Y-149558751D01*
X83997799Y-149558751D01*
X83854091Y-149577671D01*
X83854087Y-149577672D01*
X83720177Y-149633138D01*
X83605179Y-149721380D01*
X83516937Y-149836378D01*
X83461471Y-149970288D01*
X83461470Y-149970292D01*
X83442550Y-150114000D01*
X83442550Y-150114001D01*
X76283400Y-150114001D01*
X76283400Y-149428200D01*
X94847156Y-149428200D01*
X94861676Y-149538492D01*
X94866076Y-149571908D01*
X94866077Y-149571912D01*
X94921543Y-149705822D01*
X94921544Y-149705824D01*
X94921545Y-149705825D01*
X95009785Y-149820821D01*
X95124781Y-149909061D01*
X95258697Y-149964530D01*
X95385686Y-149981248D01*
X95402405Y-149983450D01*
X95402406Y-149983450D01*
X95402407Y-149983450D01*
X95417383Y-149981478D01*
X95546115Y-149964530D01*
X95680031Y-149909061D01*
X95795027Y-149820821D01*
X95883267Y-149705825D01*
X95938736Y-149571909D01*
X95957656Y-149428200D01*
X95938736Y-149284491D01*
X95883267Y-149150575D01*
X95795027Y-149035579D01*
X95680031Y-148947339D01*
X95680030Y-148947338D01*
X95680028Y-148947337D01*
X95546118Y-148891871D01*
X95546116Y-148891870D01*
X95546115Y-148891870D01*
X95474260Y-148882410D01*
X95402407Y-148872950D01*
X95402405Y-148872950D01*
X95258697Y-148891870D01*
X95258693Y-148891871D01*
X95124783Y-148947337D01*
X95009785Y-149035579D01*
X94921543Y-149150577D01*
X94866077Y-149284487D01*
X94866076Y-149284491D01*
X94864138Y-149299215D01*
X94847156Y-149428200D01*
X76283400Y-149428200D01*
X76283400Y-148412200D01*
X95990150Y-148412200D01*
X96009070Y-148555908D01*
X96009071Y-148555912D01*
X96064537Y-148689822D01*
X96064538Y-148689824D01*
X96064539Y-148689825D01*
X96152779Y-148804821D01*
X96267775Y-148893061D01*
X96267776Y-148893061D01*
X96267777Y-148893062D01*
X96290833Y-148902612D01*
X96401691Y-148948530D01*
X96528680Y-148965248D01*
X96545399Y-148967450D01*
X96545400Y-148967450D01*
X96545401Y-148967450D01*
X96560377Y-148965478D01*
X96689109Y-148948530D01*
X96823025Y-148893061D01*
X96938021Y-148804821D01*
X97026261Y-148689825D01*
X97081730Y-148555909D01*
X97100650Y-148412200D01*
X97081730Y-148268491D01*
X97044750Y-148179213D01*
X97026262Y-148134577D01*
X97026261Y-148134576D01*
X97026261Y-148134575D01*
X96938021Y-148019579D01*
X96823025Y-147931339D01*
X96823024Y-147931338D01*
X96823022Y-147931337D01*
X96689112Y-147875871D01*
X96689110Y-147875870D01*
X96689109Y-147875870D01*
X96617254Y-147866410D01*
X96545401Y-147856950D01*
X96545399Y-147856950D01*
X96401691Y-147875870D01*
X96401687Y-147875871D01*
X96267777Y-147931337D01*
X96152779Y-148019579D01*
X96064537Y-148134577D01*
X96009071Y-148268487D01*
X96009070Y-148268491D01*
X95990150Y-148412199D01*
X95990150Y-148412200D01*
X76283400Y-148412200D01*
X76283400Y-143636400D01*
X76303085Y-143569361D01*
X76355889Y-143523606D01*
X76425047Y-143513662D01*
X76488603Y-143542687D01*
X76495081Y-143548719D01*
X78374850Y-145428488D01*
X78408335Y-145489811D01*
X78403351Y-145559503D01*
X78361479Y-145615436D01*
X78303356Y-145639107D01*
X78291491Y-145640670D01*
X78291487Y-145640671D01*
X78157577Y-145696137D01*
X78042579Y-145784379D01*
X77954337Y-145899377D01*
X77898871Y-146033287D01*
X77898870Y-146033291D01*
X77879950Y-146176999D01*
X77879950Y-146177000D01*
X77898870Y-146320708D01*
X77898871Y-146320712D01*
X77954337Y-146454622D01*
X77954338Y-146454624D01*
X77954339Y-146454625D01*
X78042579Y-146569621D01*
X78157575Y-146657861D01*
X78291491Y-146713330D01*
X78418480Y-146730048D01*
X78435199Y-146732250D01*
X78435200Y-146732250D01*
X78435201Y-146732250D01*
X78450177Y-146730278D01*
X78578909Y-146713330D01*
X78712825Y-146657861D01*
X78827821Y-146569621D01*
X78916061Y-146454625D01*
X78971530Y-146320709D01*
X78973092Y-146308844D01*
X79001354Y-146244952D01*
X79059677Y-146206478D01*
X79129542Y-146205644D01*
X79183711Y-146237349D01*
X79726114Y-146779752D01*
X79759599Y-146841075D01*
X79761372Y-146851246D01*
X79778470Y-146981109D01*
X79778471Y-146981113D01*
X79833937Y-147115023D01*
X79833938Y-147115025D01*
X79833939Y-147115026D01*
X79922179Y-147230022D01*
X80037175Y-147318262D01*
X80171091Y-147373731D01*
X80298080Y-147390449D01*
X80314799Y-147392651D01*
X80314800Y-147392651D01*
X80314801Y-147392651D01*
X80329777Y-147390679D01*
X80458509Y-147373731D01*
X80592425Y-147318262D01*
X80707421Y-147230022D01*
X80795661Y-147115026D01*
X80851130Y-146981110D01*
X80870050Y-146837401D01*
X80870050Y-146829273D01*
X80872569Y-146829273D01*
X80881383Y-146772720D01*
X80927759Y-146720461D01*
X80995027Y-146701570D01*
X81061829Y-146722045D01*
X81081242Y-146737880D01*
X81173914Y-146830552D01*
X81207399Y-146891875D01*
X81209172Y-146902046D01*
X81226270Y-147031909D01*
X81226271Y-147031913D01*
X81281737Y-147165823D01*
X81281738Y-147165825D01*
X81281739Y-147165826D01*
X81369979Y-147280822D01*
X81484975Y-147369062D01*
X81484976Y-147369062D01*
X81484977Y-147369063D01*
X81496247Y-147373731D01*
X81618891Y-147424531D01*
X81745880Y-147441249D01*
X81762599Y-147443451D01*
X81762600Y-147443451D01*
X81762601Y-147443451D01*
X81777577Y-147441479D01*
X81906309Y-147424531D01*
X82040225Y-147369062D01*
X82155221Y-147280822D01*
X82243461Y-147165826D01*
X82298930Y-147031910D01*
X82317850Y-146888201D01*
X82314571Y-146863295D01*
X82325336Y-146794261D01*
X82371716Y-146742005D01*
X82438984Y-146723119D01*
X82505785Y-146743599D01*
X82525191Y-146759429D01*
X82647114Y-146881352D01*
X82680599Y-146942675D01*
X82682372Y-146952846D01*
X82699470Y-147082709D01*
X82699471Y-147082713D01*
X82754937Y-147216623D01*
X82754938Y-147216625D01*
X82754939Y-147216626D01*
X82843179Y-147331622D01*
X82958175Y-147419862D01*
X82958176Y-147419862D01*
X82958177Y-147419863D01*
X82969447Y-147424531D01*
X83092091Y-147475331D01*
X83219080Y-147492049D01*
X83235799Y-147494251D01*
X83235800Y-147494251D01*
X83235801Y-147494251D01*
X83250777Y-147492279D01*
X83379509Y-147475331D01*
X83513425Y-147419862D01*
X83628421Y-147331622D01*
X83716661Y-147216626D01*
X83772130Y-147082710D01*
X83774330Y-147066000D01*
X92510350Y-147066000D01*
X92529270Y-147209708D01*
X92529271Y-147209712D01*
X92584737Y-147343622D01*
X92584738Y-147343624D01*
X92584739Y-147343625D01*
X92672979Y-147458621D01*
X92787975Y-147546861D01*
X92787976Y-147546861D01*
X92787977Y-147546862D01*
X92820396Y-147560290D01*
X92921891Y-147602330D01*
X93048880Y-147619048D01*
X93065599Y-147621250D01*
X93065600Y-147621250D01*
X93065601Y-147621250D01*
X93080577Y-147619278D01*
X93209309Y-147602330D01*
X93343225Y-147546861D01*
X93458221Y-147458621D01*
X93546461Y-147343625D01*
X93601930Y-147209709D01*
X93620850Y-147066000D01*
X93601930Y-146922291D01*
X93549326Y-146795292D01*
X93546462Y-146788377D01*
X93546461Y-146788376D01*
X93546461Y-146788375D01*
X93458221Y-146673379D01*
X93343225Y-146585139D01*
X93343224Y-146585138D01*
X93343222Y-146585137D01*
X93209312Y-146529671D01*
X93209310Y-146529670D01*
X93209309Y-146529670D01*
X93137454Y-146520210D01*
X93065601Y-146510750D01*
X93065599Y-146510750D01*
X92921891Y-146529670D01*
X92921887Y-146529671D01*
X92787977Y-146585137D01*
X92672979Y-146673379D01*
X92584737Y-146788377D01*
X92529271Y-146922287D01*
X92529270Y-146922291D01*
X92510350Y-147065999D01*
X92510350Y-147066000D01*
X83774330Y-147066000D01*
X83791050Y-146939001D01*
X83772130Y-146795292D01*
X83716661Y-146661376D01*
X83628421Y-146546380D01*
X83513425Y-146458140D01*
X83513424Y-146458139D01*
X83513422Y-146458138D01*
X83379512Y-146402672D01*
X83379510Y-146402671D01*
X83379509Y-146402671D01*
X83362843Y-146400476D01*
X83249646Y-146385573D01*
X83185750Y-146357306D01*
X83178152Y-146350315D01*
X82236351Y-145408514D01*
X82220224Y-145388655D01*
X82214288Y-145379570D01*
X82214285Y-145379566D01*
X82199325Y-145367922D01*
X82186274Y-145357764D01*
X82180512Y-145352675D01*
X82177717Y-145349880D01*
X82158707Y-145336309D01*
X82157571Y-145335425D01*
X82136621Y-145319118D01*
X82115391Y-145302593D01*
X82108476Y-145298851D01*
X82101402Y-145295393D01*
X82048798Y-145279732D01*
X81996860Y-145261902D01*
X81989125Y-145260611D01*
X81981287Y-145259634D01*
X81926446Y-145261903D01*
X80594493Y-145261903D01*
X80527454Y-145242218D01*
X80506812Y-145225584D01*
X79146829Y-143865600D01*
X81512150Y-143865600D01*
X81531070Y-144009308D01*
X81531071Y-144009312D01*
X81586537Y-144143222D01*
X81586538Y-144143224D01*
X81586539Y-144143225D01*
X81674779Y-144258221D01*
X81789775Y-144346461D01*
X81923691Y-144401930D01*
X82050680Y-144418648D01*
X82067399Y-144420850D01*
X82067400Y-144420850D01*
X82067401Y-144420850D01*
X82082377Y-144418878D01*
X82211109Y-144401930D01*
X82345025Y-144346461D01*
X82460021Y-144258221D01*
X82548261Y-144143225D01*
X82603730Y-144009309D01*
X82622650Y-143865600D01*
X82603730Y-143721891D01*
X82563063Y-143623710D01*
X82548262Y-143587977D01*
X82548261Y-143587976D01*
X82548261Y-143587975D01*
X82460021Y-143472979D01*
X82345025Y-143384739D01*
X82345024Y-143384738D01*
X82345022Y-143384737D01*
X82211112Y-143329271D01*
X82211110Y-143329270D01*
X82211109Y-143329270D01*
X82139254Y-143319810D01*
X82067401Y-143310350D01*
X82067399Y-143310350D01*
X81923691Y-143329270D01*
X81923687Y-143329271D01*
X81789777Y-143384737D01*
X81674779Y-143472979D01*
X81586537Y-143587977D01*
X81531071Y-143721887D01*
X81531070Y-143721891D01*
X81512150Y-143865599D01*
X81512150Y-143865600D01*
X79146829Y-143865600D01*
X78257829Y-142976600D01*
X83188550Y-142976600D01*
X83205901Y-143108395D01*
X83207470Y-143120308D01*
X83207471Y-143120312D01*
X83262937Y-143254222D01*
X83262938Y-143254224D01*
X83262939Y-143254225D01*
X83351179Y-143369221D01*
X83466175Y-143457461D01*
X83600091Y-143512930D01*
X83727080Y-143529648D01*
X83743799Y-143531850D01*
X83743800Y-143531850D01*
X83743801Y-143531850D01*
X83758777Y-143529878D01*
X83887509Y-143512930D01*
X84021425Y-143457461D01*
X84136421Y-143369221D01*
X84224661Y-143254225D01*
X84280130Y-143120309D01*
X84299050Y-142976600D01*
X84280130Y-142832891D01*
X84235369Y-142724826D01*
X84224662Y-142698977D01*
X84224661Y-142698976D01*
X84224661Y-142698975D01*
X84136421Y-142583979D01*
X84021425Y-142495739D01*
X84021424Y-142495738D01*
X84021422Y-142495737D01*
X83887512Y-142440271D01*
X83887510Y-142440270D01*
X83887509Y-142440270D01*
X83805089Y-142429419D01*
X83743801Y-142421350D01*
X83743799Y-142421350D01*
X83600091Y-142440270D01*
X83600087Y-142440271D01*
X83466177Y-142495737D01*
X83351179Y-142583979D01*
X83262937Y-142698977D01*
X83207471Y-142832887D01*
X83207470Y-142832891D01*
X83198732Y-142899265D01*
X83188550Y-142976600D01*
X78257829Y-142976600D01*
X78176119Y-142894890D01*
X78142634Y-142833567D01*
X78139800Y-142807209D01*
X78139800Y-142747826D01*
X78159485Y-142680787D01*
X78165417Y-142672347D01*
X78245161Y-142568425D01*
X78300630Y-142434509D01*
X78319550Y-142290800D01*
X78300630Y-142147091D01*
X78254946Y-142036798D01*
X81537550Y-142036798D01*
X81544132Y-142086796D01*
X81556470Y-142180506D01*
X81556471Y-142180510D01*
X81611937Y-142314420D01*
X81611938Y-142314422D01*
X81611939Y-142314423D01*
X81700179Y-142429419D01*
X81815175Y-142517659D01*
X81815176Y-142517659D01*
X81815177Y-142517660D01*
X81842198Y-142528852D01*
X81949091Y-142573128D01*
X82076080Y-142589846D01*
X82092799Y-142592048D01*
X82092800Y-142592048D01*
X82092801Y-142592048D01*
X82107777Y-142590076D01*
X82236509Y-142573128D01*
X82370425Y-142517659D01*
X82485421Y-142429419D01*
X82573661Y-142314423D01*
X82629130Y-142180507D01*
X82648050Y-142036798D01*
X82629130Y-141893089D01*
X82586965Y-141791292D01*
X82573662Y-141759175D01*
X82573661Y-141759174D01*
X82573661Y-141759173D01*
X82485421Y-141644177D01*
X82370425Y-141555937D01*
X82370424Y-141555936D01*
X82370422Y-141555935D01*
X82236512Y-141500469D01*
X82236510Y-141500468D01*
X82236509Y-141500468D01*
X82155502Y-141489803D01*
X82092801Y-141481548D01*
X82092799Y-141481548D01*
X81949091Y-141500468D01*
X81949087Y-141500469D01*
X81815177Y-141555935D01*
X81700179Y-141644177D01*
X81611937Y-141759175D01*
X81556471Y-141893085D01*
X81556470Y-141893089D01*
X81537550Y-142036798D01*
X78254946Y-142036798D01*
X78245161Y-142013175D01*
X78156921Y-141898179D01*
X78041925Y-141809939D01*
X78041924Y-141809938D01*
X78041922Y-141809937D01*
X77908012Y-141754471D01*
X77908010Y-141754470D01*
X77908009Y-141754470D01*
X77891670Y-141752318D01*
X77799367Y-141740166D01*
X77735471Y-141711899D01*
X77697001Y-141653574D01*
X77692615Y-141601045D01*
X77709950Y-141469379D01*
X77691030Y-141325670D01*
X77635561Y-141191754D01*
X77547321Y-141076758D01*
X77432325Y-140988518D01*
X77432324Y-140988517D01*
X77432322Y-140988516D01*
X77298412Y-140933050D01*
X77298410Y-140933049D01*
X77298409Y-140933049D01*
X77249850Y-140926656D01*
X77176229Y-140916963D01*
X77112332Y-140888696D01*
X77073862Y-140830371D01*
X77069476Y-140777840D01*
X77087650Y-140639800D01*
X77068730Y-140496091D01*
X77013261Y-140362175D01*
X76925021Y-140247179D01*
X76810025Y-140158939D01*
X76810024Y-140158938D01*
X76810022Y-140158937D01*
X76676112Y-140103471D01*
X76676110Y-140103470D01*
X76676109Y-140103470D01*
X76595125Y-140092808D01*
X76532401Y-140084550D01*
X76532399Y-140084550D01*
X76470340Y-140092720D01*
X76423585Y-140098875D01*
X76354550Y-140088111D01*
X76302294Y-140041731D01*
X76283400Y-139975937D01*
X76283400Y-139382327D01*
X76303085Y-139315288D01*
X76309017Y-139306848D01*
X76388761Y-139202926D01*
X76444230Y-139069010D01*
X76463150Y-138925301D01*
X76444230Y-138781592D01*
X76388761Y-138647676D01*
X76300521Y-138532680D01*
X76185525Y-138444440D01*
X76185524Y-138444439D01*
X76185522Y-138444438D01*
X76051612Y-138388972D01*
X76051610Y-138388971D01*
X76051609Y-138388971D01*
X75938784Y-138374117D01*
X75907901Y-138370051D01*
X75907898Y-138370051D01*
X75795239Y-138384883D01*
X75726204Y-138374117D01*
X75673948Y-138327738D01*
X75655063Y-138260469D01*
X75675544Y-138193668D01*
X75691368Y-138174268D01*
X75929004Y-137936632D01*
X75990325Y-137903149D01*
X76060017Y-137908133D01*
X76092169Y-137925939D01*
X76114653Y-137943191D01*
X76150975Y-137971062D01*
X76284891Y-138026531D01*
X76411880Y-138043249D01*
X76428599Y-138045451D01*
X76428600Y-138045451D01*
X76428601Y-138045451D01*
X76443577Y-138043479D01*
X76572309Y-138026531D01*
X76706225Y-137971062D01*
X76821221Y-137882822D01*
X76909461Y-137767826D01*
X76964930Y-137633910D01*
X76983850Y-137490201D01*
X76983828Y-137490037D01*
X76976526Y-137434570D01*
X76964930Y-137346492D01*
X76920460Y-137239130D01*
X76909462Y-137212578D01*
X76909461Y-137212577D01*
X76909461Y-137212576D01*
X76821221Y-137097580D01*
X76766490Y-137055583D01*
X76725288Y-136999155D01*
X76721133Y-136929409D01*
X76755346Y-136868489D01*
X76766482Y-136858839D01*
X76806514Y-136828122D01*
X76894754Y-136713126D01*
X76950223Y-136579210D01*
X76969143Y-136435501D01*
X76950223Y-136291792D01*
X76935998Y-136257451D01*
X76928531Y-136187983D01*
X76959807Y-136125504D01*
X77019896Y-136089852D01*
X77050561Y-136086001D01*
X78252001Y-136086001D01*
X78319040Y-136105686D01*
X78339682Y-136122320D01*
X80215849Y-137998487D01*
X80231978Y-138018348D01*
X80237714Y-138027129D01*
X80237916Y-138027437D01*
X80265932Y-138049242D01*
X80271693Y-138054331D01*
X80274482Y-138057120D01*
X80293483Y-138070686D01*
X80314190Y-138086803D01*
X80336811Y-138104410D01*
X80343704Y-138108140D01*
X80350796Y-138111607D01*
X80350801Y-138111611D01*
X80384522Y-138121650D01*
X80403403Y-138127271D01*
X80455338Y-138145101D01*
X80463072Y-138146391D01*
X80470910Y-138147368D01*
X80470912Y-138147369D01*
X80470913Y-138147368D01*
X80470914Y-138147369D01*
X80525756Y-138145101D01*
X81471458Y-138145101D01*
X81538497Y-138164786D01*
X81584252Y-138217590D01*
X81594196Y-138286748D01*
X81586020Y-138316549D01*
X81578545Y-138334597D01*
X81556470Y-138387890D01*
X81556470Y-138387891D01*
X81538268Y-138526150D01*
X81537550Y-138531600D01*
X81545037Y-138588472D01*
X81556470Y-138675308D01*
X81556471Y-138675312D01*
X81611937Y-138809222D01*
X81611938Y-138809223D01*
X81611939Y-138809225D01*
X81700179Y-138924221D01*
X81703751Y-138926962D01*
X81711709Y-138933069D01*
X81752911Y-138989497D01*
X81757064Y-139059243D01*
X81734597Y-139106929D01*
X81662739Y-139200576D01*
X81662738Y-139200578D01*
X81607271Y-139334489D01*
X81607270Y-139334493D01*
X81591472Y-139454492D01*
X81588350Y-139478202D01*
X81594566Y-139525420D01*
X81607270Y-139621910D01*
X81607271Y-139621914D01*
X81662738Y-139755825D01*
X81662739Y-139755827D01*
X81728626Y-139841693D01*
X81753820Y-139906862D01*
X81739782Y-139975307D01*
X81690968Y-140025296D01*
X81677704Y-140031739D01*
X81656300Y-140040604D01*
X81541301Y-140128847D01*
X81453059Y-140243845D01*
X81397593Y-140377755D01*
X81397592Y-140377759D01*
X81378672Y-140521467D01*
X81378672Y-140521468D01*
X81397592Y-140665176D01*
X81397593Y-140665180D01*
X81453059Y-140799090D01*
X81453060Y-140799092D01*
X81453061Y-140799093D01*
X81541301Y-140914089D01*
X81656297Y-141002329D01*
X81790213Y-141057798D01*
X81917202Y-141074516D01*
X81933921Y-141076718D01*
X81933922Y-141076718D01*
X81933923Y-141076718D01*
X81949106Y-141074719D01*
X82077631Y-141057798D01*
X82211547Y-141002329D01*
X82326543Y-140914089D01*
X82414783Y-140799093D01*
X82470252Y-140665177D01*
X82489172Y-140521468D01*
X82470252Y-140377759D01*
X82414783Y-140243843D01*
X82414782Y-140243842D01*
X82414782Y-140243841D01*
X82375102Y-140192130D01*
X82348894Y-140157976D01*
X82323700Y-140092808D01*
X82337738Y-140024363D01*
X82386552Y-139974373D01*
X82399839Y-139967920D01*
X82400564Y-139967620D01*
X82470033Y-139960174D01*
X82532503Y-139991469D01*
X82546353Y-140006710D01*
X82559664Y-140024057D01*
X82589179Y-140062521D01*
X82704175Y-140150761D01*
X82838091Y-140206230D01*
X82965080Y-140222948D01*
X82981799Y-140225150D01*
X82981800Y-140225150D01*
X82981801Y-140225150D01*
X82996777Y-140223178D01*
X83125509Y-140206230D01*
X83259425Y-140150761D01*
X83347904Y-140082868D01*
X83413071Y-140057675D01*
X83481516Y-140071713D01*
X83498869Y-140082864D01*
X83587353Y-140150761D01*
X83721269Y-140206230D01*
X83848258Y-140222948D01*
X83864977Y-140225150D01*
X83864978Y-140225150D01*
X83864979Y-140225150D01*
X83879955Y-140223178D01*
X84008687Y-140206230D01*
X84142603Y-140150761D01*
X84257599Y-140062521D01*
X84257599Y-140062520D01*
X84261013Y-140059901D01*
X84326182Y-140034706D01*
X84394627Y-140048744D01*
X84444617Y-140097558D01*
X84460500Y-140158276D01*
X84460500Y-141531474D01*
X84440815Y-141598513D01*
X84434882Y-141606952D01*
X84399108Y-141653574D01*
X84355137Y-141710877D01*
X84299671Y-141844787D01*
X84299670Y-141844791D01*
X84280750Y-141988500D01*
X84298160Y-142120743D01*
X84299670Y-142132208D01*
X84299671Y-142132212D01*
X84355137Y-142266122D01*
X84355138Y-142266124D01*
X84355139Y-142266125D01*
X84443379Y-142381121D01*
X84558375Y-142469361D01*
X84692291Y-142524830D01*
X84819280Y-142541548D01*
X84835999Y-142543750D01*
X84836000Y-142543750D01*
X84836001Y-142543750D01*
X84850977Y-142541778D01*
X84979709Y-142524830D01*
X85113625Y-142469361D01*
X85212922Y-142393166D01*
X85278091Y-142367972D01*
X85346536Y-142382010D01*
X85363896Y-142393167D01*
X85450004Y-142459241D01*
X85450005Y-142459241D01*
X85450006Y-142459242D01*
X85583922Y-142514711D01*
X85710911Y-142531429D01*
X85727630Y-142533631D01*
X85727630Y-142533630D01*
X85727631Y-142533631D01*
X85844317Y-142518268D01*
X85913349Y-142529033D01*
X85965605Y-142575412D01*
X85984500Y-142641207D01*
X85984500Y-143177679D01*
X85964815Y-143244718D01*
X85958876Y-143253165D01*
X85955338Y-143257774D01*
X85899871Y-143391687D01*
X85899870Y-143391691D01*
X85882838Y-143521063D01*
X85880950Y-143535400D01*
X85895229Y-143643861D01*
X85899870Y-143679108D01*
X85899871Y-143679112D01*
X85955337Y-143813022D01*
X85955338Y-143813024D01*
X85955339Y-143813025D01*
X86043579Y-143928021D01*
X86158575Y-144016261D01*
X86158576Y-144016261D01*
X86158577Y-144016262D01*
X86169847Y-144020930D01*
X86292491Y-144071730D01*
X86419480Y-144088448D01*
X86436199Y-144090650D01*
X86436200Y-144090650D01*
X86436201Y-144090650D01*
X86451177Y-144088678D01*
X86579909Y-144071730D01*
X86713825Y-144016261D01*
X86828821Y-143928021D01*
X86883925Y-143856208D01*
X86940352Y-143815006D01*
X87010098Y-143810851D01*
X87071018Y-143845063D01*
X87080670Y-143856203D01*
X87135779Y-143928021D01*
X87250775Y-144016261D01*
X87250776Y-144016261D01*
X87250777Y-144016262D01*
X87262047Y-144020930D01*
X87384691Y-144071730D01*
X87511680Y-144088448D01*
X87528399Y-144090650D01*
X87528400Y-144090650D01*
X87528401Y-144090650D01*
X87543377Y-144088678D01*
X87672109Y-144071730D01*
X87806025Y-144016261D01*
X87921021Y-143928021D01*
X88009261Y-143813025D01*
X88064730Y-143679109D01*
X88083650Y-143535400D01*
X88064730Y-143391691D01*
X88021534Y-143287406D01*
X88009262Y-143257777D01*
X88009261Y-143257776D01*
X88009261Y-143257775D01*
X87929523Y-143153859D01*
X87904330Y-143088691D01*
X87903900Y-143078374D01*
X87903900Y-141889667D01*
X87923585Y-141822628D01*
X87976389Y-141776873D01*
X88045547Y-141766929D01*
X88103384Y-141791290D01*
X88158008Y-141833205D01*
X88291924Y-141888674D01*
X88418913Y-141905392D01*
X88435632Y-141907594D01*
X88435633Y-141907594D01*
X88435634Y-141907594D01*
X88452627Y-141905356D01*
X88485914Y-141900974D01*
X88554949Y-141911739D01*
X88607205Y-141958119D01*
X88626100Y-142023913D01*
X88626100Y-145236198D01*
X88623462Y-145261636D01*
X88621233Y-145272270D01*
X88621233Y-145272271D01*
X88621233Y-145272273D01*
X88625623Y-145307493D01*
X88626100Y-145315169D01*
X88626100Y-145319118D01*
X88629942Y-145342143D01*
X88636734Y-145396629D01*
X88638973Y-145404149D01*
X88641534Y-145411610D01*
X88641535Y-145411612D01*
X88644954Y-145417930D01*
X88667655Y-145459879D01*
X88691774Y-145509213D01*
X88696342Y-145515611D01*
X88701182Y-145521829D01*
X88741571Y-145559011D01*
X89606714Y-146424154D01*
X89640199Y-146485477D01*
X89641972Y-146495648D01*
X89659070Y-146625509D01*
X89659071Y-146625513D01*
X89714537Y-146759423D01*
X89714538Y-146759425D01*
X89714539Y-146759426D01*
X89802779Y-146874422D01*
X89917775Y-146962662D01*
X90051691Y-147018131D01*
X90178680Y-147034849D01*
X90195399Y-147037051D01*
X90195400Y-147037051D01*
X90195401Y-147037051D01*
X90210377Y-147035079D01*
X90339109Y-147018131D01*
X90473025Y-146962662D01*
X90588021Y-146874422D01*
X90676261Y-146759426D01*
X90731730Y-146625510D01*
X90750650Y-146481801D01*
X90731730Y-146338092D01*
X90676261Y-146204176D01*
X90655408Y-146177000D01*
X90650687Y-146170847D01*
X90625493Y-146105678D01*
X90639532Y-146037233D01*
X90650688Y-146019874D01*
X90706894Y-145946625D01*
X90724150Y-145924137D01*
X90779619Y-145790221D01*
X90795578Y-145669000D01*
X103635550Y-145669000D01*
X103654470Y-145812708D01*
X103654471Y-145812712D01*
X103709937Y-145946622D01*
X103709938Y-145946624D01*
X103709939Y-145946625D01*
X103798179Y-146061621D01*
X103913175Y-146149861D01*
X104047091Y-146205330D01*
X104174080Y-146222048D01*
X104190799Y-146224250D01*
X104190800Y-146224250D01*
X104190801Y-146224250D01*
X104205777Y-146222278D01*
X104334509Y-146205330D01*
X104468425Y-146149861D01*
X104583421Y-146061621D01*
X104671661Y-145946625D01*
X104727130Y-145812709D01*
X104746050Y-145669000D01*
X104727130Y-145525291D01*
X104690150Y-145436013D01*
X104671662Y-145391377D01*
X104671661Y-145391376D01*
X104671661Y-145391375D01*
X104583421Y-145276379D01*
X104468425Y-145188139D01*
X104468424Y-145188138D01*
X104468422Y-145188137D01*
X104334512Y-145132671D01*
X104334510Y-145132670D01*
X104334509Y-145132670D01*
X104216200Y-145117094D01*
X104190801Y-145113750D01*
X104190799Y-145113750D01*
X104047091Y-145132670D01*
X104047087Y-145132671D01*
X103913177Y-145188137D01*
X103798179Y-145276379D01*
X103709937Y-145391377D01*
X103654471Y-145525287D01*
X103654470Y-145525291D01*
X103635550Y-145668999D01*
X103635550Y-145669000D01*
X90795578Y-145669000D01*
X90798539Y-145646512D01*
X90779619Y-145502803D01*
X90728573Y-145379566D01*
X90724151Y-145368889D01*
X90724150Y-145368888D01*
X90724150Y-145368887D01*
X90635910Y-145253891D01*
X90520914Y-145165651D01*
X90520913Y-145165650D01*
X90520911Y-145165649D01*
X90387001Y-145110183D01*
X90386999Y-145110182D01*
X90386998Y-145110182D01*
X90370332Y-145107987D01*
X90257135Y-145093084D01*
X90193239Y-145064817D01*
X90185641Y-145057826D01*
X90009415Y-144881600D01*
X102162350Y-144881600D01*
X102181176Y-145024598D01*
X102181270Y-145025308D01*
X102181271Y-145025312D01*
X102236737Y-145159222D01*
X102236738Y-145159224D01*
X102236739Y-145159225D01*
X102324979Y-145274221D01*
X102439975Y-145362461D01*
X102573891Y-145417930D01*
X102700880Y-145434648D01*
X102717599Y-145436850D01*
X102717600Y-145436850D01*
X102717601Y-145436850D01*
X102732577Y-145434878D01*
X102861309Y-145417930D01*
X102995225Y-145362461D01*
X103110221Y-145274221D01*
X103198461Y-145159225D01*
X103253930Y-145025309D01*
X103272850Y-144881600D01*
X103253930Y-144737891D01*
X103198461Y-144603975D01*
X103110221Y-144488979D01*
X102995225Y-144400739D01*
X102995224Y-144400738D01*
X102995222Y-144400737D01*
X102861312Y-144345271D01*
X102861310Y-144345270D01*
X102861309Y-144345270D01*
X102789454Y-144335810D01*
X102717601Y-144326350D01*
X102717599Y-144326350D01*
X102573891Y-144345270D01*
X102573887Y-144345271D01*
X102439977Y-144400737D01*
X102324979Y-144488979D01*
X102236737Y-144603977D01*
X102181271Y-144737887D01*
X102181270Y-144737891D01*
X102162350Y-144881600D01*
X90009415Y-144881600D01*
X89863419Y-144735604D01*
X89829934Y-144674281D01*
X89827100Y-144647923D01*
X89827100Y-143901336D01*
X104377827Y-143901336D01*
X104392957Y-144016261D01*
X104396747Y-144045044D01*
X104396748Y-144045048D01*
X104452214Y-144178958D01*
X104452215Y-144178960D01*
X104452216Y-144178961D01*
X104540456Y-144293957D01*
X104655452Y-144382197D01*
X104789368Y-144437666D01*
X104916357Y-144454384D01*
X104933076Y-144456586D01*
X104933077Y-144456586D01*
X104933078Y-144456586D01*
X104948054Y-144454614D01*
X105076786Y-144437666D01*
X105210702Y-144382197D01*
X105325698Y-144293957D01*
X105413938Y-144178961D01*
X105469407Y-144045045D01*
X105488327Y-143901336D01*
X105469407Y-143757627D01*
X105413938Y-143623711D01*
X105354970Y-143546863D01*
X105329776Y-143481696D01*
X105343814Y-143413251D01*
X105392627Y-143363261D01*
X105460718Y-143347597D01*
X105500798Y-143356817D01*
X105530743Y-143369220D01*
X105571085Y-143385930D01*
X105698074Y-143402648D01*
X105714793Y-143404850D01*
X105714794Y-143404850D01*
X105714795Y-143404850D01*
X105729771Y-143402878D01*
X105858503Y-143385930D01*
X105992419Y-143330461D01*
X106107415Y-143242221D01*
X106195655Y-143127225D01*
X106251124Y-142993309D01*
X106270044Y-142849600D01*
X106251124Y-142705891D01*
X106214144Y-142616613D01*
X106195656Y-142571977D01*
X106195655Y-142571976D01*
X106195655Y-142571975D01*
X106107415Y-142456979D01*
X105992419Y-142368739D01*
X105992418Y-142368738D01*
X105992416Y-142368737D01*
X105858506Y-142313271D01*
X105858504Y-142313270D01*
X105858503Y-142313270D01*
X105759198Y-142300196D01*
X105714795Y-142294350D01*
X105714793Y-142294350D01*
X105571085Y-142313270D01*
X105571081Y-142313271D01*
X105437171Y-142368737D01*
X105322173Y-142456979D01*
X105233931Y-142571977D01*
X105178465Y-142705887D01*
X105178464Y-142705891D01*
X105160849Y-142839691D01*
X105159544Y-142849600D01*
X105177159Y-142983400D01*
X105178464Y-142993308D01*
X105178465Y-142993312D01*
X105233932Y-143127223D01*
X105233933Y-143127226D01*
X105271211Y-143175806D01*
X105272042Y-143176890D01*
X105292899Y-143204070D01*
X105318094Y-143269239D01*
X105304056Y-143337684D01*
X105255243Y-143387674D01*
X105187151Y-143403338D01*
X105147073Y-143394119D01*
X105103379Y-143376021D01*
X105076786Y-143365006D01*
X105004931Y-143355546D01*
X104933078Y-143346086D01*
X104933076Y-143346086D01*
X104789368Y-143365006D01*
X104789364Y-143365007D01*
X104655454Y-143420473D01*
X104540456Y-143508715D01*
X104452214Y-143623713D01*
X104396748Y-143757623D01*
X104396747Y-143757627D01*
X104377827Y-143901336D01*
X89827100Y-143901336D01*
X89827100Y-143176890D01*
X90881839Y-143176890D01*
X90887484Y-143219771D01*
X90900759Y-143320598D01*
X90900760Y-143320602D01*
X90956226Y-143454512D01*
X90956227Y-143454514D01*
X90956228Y-143454515D01*
X91044468Y-143569511D01*
X91159464Y-143657751D01*
X91293380Y-143713220D01*
X91420369Y-143729938D01*
X91437088Y-143732140D01*
X91437089Y-143732140D01*
X91437090Y-143732140D01*
X91452066Y-143730168D01*
X91580798Y-143713220D01*
X91714714Y-143657751D01*
X91829710Y-143569511D01*
X91917950Y-143454515D01*
X91973419Y-143320599D01*
X91992339Y-143176890D01*
X91973419Y-143033181D01*
X91949983Y-142976600D01*
X102822750Y-142976600D01*
X102840101Y-143108395D01*
X102841670Y-143120308D01*
X102841671Y-143120312D01*
X102897137Y-143254222D01*
X102897138Y-143254224D01*
X102897139Y-143254225D01*
X102985379Y-143369221D01*
X103100375Y-143457461D01*
X103234291Y-143512930D01*
X103361280Y-143529648D01*
X103377999Y-143531850D01*
X103378000Y-143531850D01*
X103378001Y-143531850D01*
X103392977Y-143529878D01*
X103521709Y-143512930D01*
X103655625Y-143457461D01*
X103770621Y-143369221D01*
X103858861Y-143254225D01*
X103914330Y-143120309D01*
X103933250Y-142976600D01*
X103914330Y-142832891D01*
X103869569Y-142724826D01*
X103858862Y-142698977D01*
X103858861Y-142698976D01*
X103858861Y-142698975D01*
X103770621Y-142583979D01*
X103655625Y-142495739D01*
X103655624Y-142495738D01*
X103655622Y-142495737D01*
X103521712Y-142440271D01*
X103521710Y-142440270D01*
X103521709Y-142440270D01*
X103439289Y-142429419D01*
X103378001Y-142421350D01*
X103377999Y-142421350D01*
X103234291Y-142440270D01*
X103234287Y-142440271D01*
X103100377Y-142495737D01*
X102985379Y-142583979D01*
X102897137Y-142698977D01*
X102841671Y-142832887D01*
X102841670Y-142832891D01*
X102832932Y-142899265D01*
X102822750Y-142976600D01*
X91949983Y-142976600D01*
X91928221Y-142924061D01*
X91917951Y-142899267D01*
X91917950Y-142899266D01*
X91917950Y-142899265D01*
X91829710Y-142784269D01*
X91714714Y-142696029D01*
X91714713Y-142696028D01*
X91714711Y-142696027D01*
X91580801Y-142640561D01*
X91580799Y-142640560D01*
X91580798Y-142640560D01*
X91475242Y-142626663D01*
X91437090Y-142621640D01*
X91437088Y-142621640D01*
X91293380Y-142640560D01*
X91293376Y-142640561D01*
X91159466Y-142696027D01*
X91044468Y-142784269D01*
X90956226Y-142899267D01*
X90900760Y-143033177D01*
X90900759Y-143033181D01*
X90886579Y-143140890D01*
X90881839Y-143176890D01*
X89827100Y-143176890D01*
X89827100Y-143111066D01*
X89846785Y-143044027D01*
X89899589Y-142998272D01*
X89967282Y-142988127D01*
X90076100Y-143002454D01*
X90219809Y-142983534D01*
X90353725Y-142928065D01*
X90468721Y-142839825D01*
X90556961Y-142724829D01*
X90612430Y-142590913D01*
X90631350Y-142447204D01*
X90631332Y-142447071D01*
X90626766Y-142412387D01*
X90621084Y-142369229D01*
X90631849Y-142300196D01*
X90678229Y-142247940D01*
X90696560Y-142238488D01*
X90755736Y-142213978D01*
X90870732Y-142125738D01*
X90958972Y-142010742D01*
X91014441Y-141876826D01*
X91031538Y-141746962D01*
X91059803Y-141683068D01*
X91066783Y-141675481D01*
X91114364Y-141627900D01*
X102609435Y-141627900D01*
X102625110Y-141746965D01*
X102628355Y-141771608D01*
X102628356Y-141771612D01*
X102683822Y-141905522D01*
X102683823Y-141905524D01*
X102683824Y-141905525D01*
X102772064Y-142020521D01*
X102887060Y-142108761D01*
X102887061Y-142108761D01*
X102887062Y-142108762D01*
X102923324Y-142123782D01*
X103020976Y-142164230D01*
X103144602Y-142180506D01*
X103164684Y-142183150D01*
X103164685Y-142183150D01*
X103164686Y-142183150D01*
X103184760Y-142180507D01*
X103308394Y-142164230D01*
X103442310Y-142108761D01*
X103557306Y-142020521D01*
X103645546Y-141905525D01*
X103701015Y-141771609D01*
X103719935Y-141627900D01*
X103701015Y-141484191D01*
X103645546Y-141350275D01*
X103557306Y-141235279D01*
X103442310Y-141147039D01*
X103442309Y-141147038D01*
X103442307Y-141147037D01*
X103308397Y-141091571D01*
X103308395Y-141091570D01*
X103308394Y-141091570D01*
X103195888Y-141076758D01*
X103164686Y-141072650D01*
X103164684Y-141072650D01*
X103020976Y-141091570D01*
X103020972Y-141091571D01*
X102887062Y-141147037D01*
X102772064Y-141235279D01*
X102683822Y-141350277D01*
X102628356Y-141484187D01*
X102628355Y-141484191D01*
X102618910Y-141555935D01*
X102609435Y-141627900D01*
X91114364Y-141627900D01*
X92344692Y-140397572D01*
X92364541Y-140381453D01*
X92373636Y-140375512D01*
X92395444Y-140347490D01*
X92400521Y-140341744D01*
X92403320Y-140338946D01*
X92416894Y-140319932D01*
X92419112Y-140317082D01*
X92450607Y-140276620D01*
X92454347Y-140269708D01*
X92457803Y-140262635D01*
X92457810Y-140262627D01*
X92473470Y-140210024D01*
X92491300Y-140158088D01*
X92491300Y-140158083D01*
X92492590Y-140150352D01*
X92493568Y-140142513D01*
X92491300Y-140087672D01*
X92491300Y-137261600D01*
X99317550Y-137261600D01*
X99333971Y-137386331D01*
X99336470Y-137405308D01*
X99336471Y-137405312D01*
X99391937Y-137539222D01*
X99391938Y-137539224D01*
X99391939Y-137539225D01*
X99480179Y-137654221D01*
X99595175Y-137742461D01*
X99729091Y-137797930D01*
X99856080Y-137814648D01*
X99872799Y-137816850D01*
X99872800Y-137816850D01*
X99872801Y-137816850D01*
X99887777Y-137814878D01*
X100016509Y-137797930D01*
X100150425Y-137742461D01*
X100265421Y-137654221D01*
X100265422Y-137654218D01*
X100271868Y-137649273D01*
X100273498Y-137651398D01*
X100323246Y-137624234D01*
X100349604Y-137621400D01*
X101148801Y-137621400D01*
X101215840Y-137641085D01*
X101236482Y-137657719D01*
X101374049Y-137795286D01*
X101390177Y-137815145D01*
X101396116Y-137824236D01*
X101424132Y-137846041D01*
X101429893Y-137851130D01*
X101432682Y-137853919D01*
X101451683Y-137867485D01*
X101471388Y-137882822D01*
X101495011Y-137901209D01*
X101501922Y-137904949D01*
X101509000Y-137908410D01*
X101552344Y-137921314D01*
X101561605Y-137924071D01*
X101613540Y-137941900D01*
X101613542Y-137941900D01*
X101621279Y-137943191D01*
X101629109Y-137944167D01*
X101629111Y-137944168D01*
X101629112Y-137944167D01*
X101629113Y-137944168D01*
X101683955Y-137941900D01*
X102108174Y-137941900D01*
X102175213Y-137961585D01*
X102183652Y-137967517D01*
X102287575Y-138047261D01*
X102287576Y-138047261D01*
X102287577Y-138047262D01*
X102311377Y-138057120D01*
X102421491Y-138102730D01*
X102548480Y-138119448D01*
X102565199Y-138121650D01*
X102565200Y-138121650D01*
X102565201Y-138121650D01*
X102580177Y-138119678D01*
X102708909Y-138102730D01*
X102842825Y-138047261D01*
X102957821Y-137959021D01*
X103046061Y-137844025D01*
X103101530Y-137710109D01*
X103120450Y-137566400D01*
X103101530Y-137422691D01*
X103057127Y-137315491D01*
X103046062Y-137288777D01*
X103046061Y-137288776D01*
X103046061Y-137288775D01*
X102957821Y-137173779D01*
X102842825Y-137085539D01*
X102842824Y-137085538D01*
X102842822Y-137085537D01*
X102708912Y-137030071D01*
X102708910Y-137030070D01*
X102708909Y-137030070D01*
X102619220Y-137018262D01*
X102565201Y-137011150D01*
X102565199Y-137011150D01*
X102421491Y-137030070D01*
X102421487Y-137030071D01*
X102287577Y-137085537D01*
X102245418Y-137117887D01*
X102183659Y-137165276D01*
X102118491Y-137190470D01*
X102108174Y-137190900D01*
X101883100Y-137190900D01*
X101816061Y-137171215D01*
X101795419Y-137154581D01*
X101657849Y-137017011D01*
X101641722Y-136997152D01*
X101635786Y-136988067D01*
X101635783Y-136988063D01*
X101607774Y-136966263D01*
X101602010Y-136961172D01*
X101599215Y-136958377D01*
X101580205Y-136944806D01*
X101536889Y-136911090D01*
X101529974Y-136907348D01*
X101522900Y-136903890D01*
X101470296Y-136888229D01*
X101418358Y-136870399D01*
X101410623Y-136869108D01*
X101402785Y-136868131D01*
X101347944Y-136870400D01*
X100309366Y-136870400D01*
X100242327Y-136850715D01*
X100233880Y-136844776D01*
X100150425Y-136780739D01*
X100150423Y-136780738D01*
X100016512Y-136725271D01*
X100016510Y-136725270D01*
X100016509Y-136725270D01*
X99924245Y-136713123D01*
X99872801Y-136706350D01*
X99872799Y-136706350D01*
X99729091Y-136725270D01*
X99729087Y-136725271D01*
X99595177Y-136780737D01*
X99480179Y-136868979D01*
X99391937Y-136983977D01*
X99336471Y-137117887D01*
X99336470Y-137117891D01*
X99317629Y-137261003D01*
X99317550Y-137261600D01*
X92491300Y-137261600D01*
X92491300Y-136702800D01*
X106023150Y-136702800D01*
X106039649Y-136828123D01*
X106042070Y-136846508D01*
X106042071Y-136846512D01*
X106097537Y-136980422D01*
X106097538Y-136980424D01*
X106097539Y-136980425D01*
X106185779Y-137095421D01*
X106300775Y-137183661D01*
X106300776Y-137183661D01*
X106300777Y-137183662D01*
X106327624Y-137194782D01*
X106434691Y-137239130D01*
X106561680Y-137255848D01*
X106578399Y-137258050D01*
X106578400Y-137258050D01*
X106578401Y-137258050D01*
X106593377Y-137256078D01*
X106722109Y-137239130D01*
X106856025Y-137183661D01*
X106971021Y-137095421D01*
X107059261Y-136980425D01*
X107114730Y-136846509D01*
X107133650Y-136702800D01*
X107114730Y-136559091D01*
X107070453Y-136452196D01*
X107059262Y-136425177D01*
X107059261Y-136425176D01*
X107059261Y-136425175D01*
X106971021Y-136310179D01*
X106856025Y-136221939D01*
X106856024Y-136221938D01*
X106856022Y-136221937D01*
X106722112Y-136166471D01*
X106722110Y-136166470D01*
X106722109Y-136166470D01*
X106636560Y-136155207D01*
X106578401Y-136147550D01*
X106578399Y-136147550D01*
X106434691Y-136166470D01*
X106434687Y-136166471D01*
X106300777Y-136221937D01*
X106185779Y-136310179D01*
X106097537Y-136425177D01*
X106042071Y-136559087D01*
X106042070Y-136559091D01*
X106028846Y-136659539D01*
X106023150Y-136702800D01*
X92491300Y-136702800D01*
X92491300Y-136094687D01*
X92510985Y-136027648D01*
X92563789Y-135981893D01*
X92632947Y-135971949D01*
X92662752Y-135980126D01*
X92787185Y-136031667D01*
X92914174Y-136048385D01*
X92930893Y-136050587D01*
X92930894Y-136050587D01*
X92930895Y-136050587D01*
X92945871Y-136048615D01*
X93074603Y-136031667D01*
X93208519Y-135976198D01*
X93323515Y-135887958D01*
X93411755Y-135772962D01*
X93467224Y-135639046D01*
X93470969Y-135610600D01*
X100917750Y-135610600D01*
X100936670Y-135754308D01*
X100936671Y-135754312D01*
X100992137Y-135888222D01*
X100992138Y-135888224D01*
X100992139Y-135888225D01*
X101080379Y-136003221D01*
X101195375Y-136091461D01*
X101195376Y-136091461D01*
X101195377Y-136091462D01*
X101219747Y-136101556D01*
X101329291Y-136146930D01*
X101456280Y-136163648D01*
X101472999Y-136165850D01*
X101473000Y-136165850D01*
X101473001Y-136165850D01*
X101487977Y-136163878D01*
X101616709Y-136146930D01*
X101750625Y-136091461D01*
X101865621Y-136003221D01*
X101879735Y-135984827D01*
X101936162Y-135943625D01*
X102005908Y-135939470D01*
X102065791Y-135972633D01*
X102070974Y-135977816D01*
X102070976Y-135977818D01*
X102070979Y-135977821D01*
X102185975Y-136066061D01*
X102319891Y-136121530D01*
X102446880Y-136138248D01*
X102463599Y-136140450D01*
X102463600Y-136140450D01*
X102463601Y-136140450D01*
X102478577Y-136138478D01*
X102607309Y-136121530D01*
X102741225Y-136066061D01*
X102856221Y-135977821D01*
X102860523Y-135972213D01*
X102916948Y-135931010D01*
X102986694Y-135926853D01*
X103047615Y-135961063D01*
X103057272Y-135972208D01*
X103059744Y-135975429D01*
X103060333Y-135976198D01*
X103061579Y-135977821D01*
X103176575Y-136066061D01*
X103310491Y-136121530D01*
X103437480Y-136138248D01*
X103454199Y-136140450D01*
X103454200Y-136140450D01*
X103454201Y-136140450D01*
X103469177Y-136138478D01*
X103597909Y-136121530D01*
X103731825Y-136066061D01*
X103846821Y-135977821D01*
X103851123Y-135972213D01*
X103907548Y-135931010D01*
X103977294Y-135926853D01*
X104038215Y-135961063D01*
X104047872Y-135972208D01*
X104050344Y-135975429D01*
X104050933Y-135976198D01*
X104052179Y-135977821D01*
X104167175Y-136066061D01*
X104301091Y-136121530D01*
X104428080Y-136138248D01*
X104444799Y-136140450D01*
X104444800Y-136140450D01*
X104444801Y-136140450D01*
X104459777Y-136138478D01*
X104588509Y-136121530D01*
X104722425Y-136066061D01*
X104837421Y-135977821D01*
X104837422Y-135977818D01*
X104839213Y-135976445D01*
X104904382Y-135951250D01*
X104972827Y-135965288D01*
X104990187Y-135976445D01*
X104991977Y-135977818D01*
X104991979Y-135977821D01*
X105106975Y-136066061D01*
X105240891Y-136121530D01*
X105367880Y-136138248D01*
X105384599Y-136140450D01*
X105384600Y-136140450D01*
X105384601Y-136140450D01*
X105399577Y-136138478D01*
X105528309Y-136121530D01*
X105662225Y-136066061D01*
X105777221Y-135977821D01*
X105865461Y-135862825D01*
X105920930Y-135728909D01*
X105939850Y-135585200D01*
X105920930Y-135441491D01*
X105865461Y-135307575D01*
X105777221Y-135192579D01*
X105662225Y-135104339D01*
X105662224Y-135104338D01*
X105662222Y-135104337D01*
X105528312Y-135048871D01*
X105528310Y-135048870D01*
X105528309Y-135048870D01*
X105448107Y-135038311D01*
X105384601Y-135029950D01*
X105384599Y-135029950D01*
X105240891Y-135048870D01*
X105240887Y-135048871D01*
X105106977Y-135104337D01*
X105078457Y-135126222D01*
X104991979Y-135192579D01*
X104991977Y-135192581D01*
X104990187Y-135193955D01*
X104925018Y-135219149D01*
X104856573Y-135205111D01*
X104839213Y-135193955D01*
X104837422Y-135192581D01*
X104837421Y-135192579D01*
X104722425Y-135104339D01*
X104722424Y-135104338D01*
X104722422Y-135104337D01*
X104588512Y-135048871D01*
X104588510Y-135048870D01*
X104588509Y-135048870D01*
X104508307Y-135038311D01*
X104444801Y-135029950D01*
X104444799Y-135029950D01*
X104301091Y-135048870D01*
X104301087Y-135048871D01*
X104167177Y-135104337D01*
X104134076Y-135129737D01*
X104052179Y-135192579D01*
X104052178Y-135192580D01*
X104052177Y-135192581D01*
X104047875Y-135198188D01*
X103991447Y-135239390D01*
X103921701Y-135243545D01*
X103860781Y-135209332D01*
X103851125Y-135198188D01*
X103850824Y-135197795D01*
X103846821Y-135192579D01*
X103731825Y-135104339D01*
X103731824Y-135104338D01*
X103731822Y-135104337D01*
X103597912Y-135048871D01*
X103597910Y-135048870D01*
X103597909Y-135048870D01*
X103517707Y-135038311D01*
X103454201Y-135029950D01*
X103454199Y-135029950D01*
X103310491Y-135048870D01*
X103310487Y-135048871D01*
X103176577Y-135104337D01*
X103143476Y-135129737D01*
X103061579Y-135192579D01*
X103061578Y-135192580D01*
X103061577Y-135192581D01*
X103057275Y-135198188D01*
X103000847Y-135239390D01*
X102931101Y-135243545D01*
X102870181Y-135209332D01*
X102860525Y-135198188D01*
X102860224Y-135197795D01*
X102856221Y-135192579D01*
X102741225Y-135104339D01*
X102741224Y-135104338D01*
X102741222Y-135104337D01*
X102607312Y-135048871D01*
X102607310Y-135048870D01*
X102607309Y-135048870D01*
X102527107Y-135038311D01*
X102463601Y-135029950D01*
X102463599Y-135029950D01*
X102319891Y-135048870D01*
X102319887Y-135048871D01*
X102185977Y-135104337D01*
X102070976Y-135192581D01*
X102056862Y-135210975D01*
X102000432Y-135252176D01*
X101930686Y-135256328D01*
X101870808Y-135223166D01*
X101865625Y-135217983D01*
X101865622Y-135217981D01*
X101865621Y-135217979D01*
X101750625Y-135129739D01*
X101750624Y-135129738D01*
X101750622Y-135129737D01*
X101616712Y-135074271D01*
X101616710Y-135074270D01*
X101616709Y-135074270D01*
X101544854Y-135064810D01*
X101473001Y-135055350D01*
X101472999Y-135055350D01*
X101329291Y-135074270D01*
X101329287Y-135074271D01*
X101195377Y-135129737D01*
X101080379Y-135217979D01*
X100992137Y-135332977D01*
X100936671Y-135466887D01*
X100936670Y-135466891D01*
X100917750Y-135610599D01*
X100917750Y-135610600D01*
X93470969Y-135610600D01*
X93486144Y-135495337D01*
X93467224Y-135351628D01*
X93411755Y-135217712D01*
X93332017Y-135113796D01*
X93306824Y-135048628D01*
X93306394Y-135038311D01*
X93306394Y-134899400D01*
X96294950Y-134899400D01*
X96308256Y-135000471D01*
X96313870Y-135043108D01*
X96313871Y-135043112D01*
X96369337Y-135177022D01*
X96369338Y-135177024D01*
X96369339Y-135177025D01*
X96457579Y-135292021D01*
X96572575Y-135380261D01*
X96572576Y-135380261D01*
X96572577Y-135380262D01*
X96583847Y-135384930D01*
X96706491Y-135435730D01*
X96833480Y-135452448D01*
X96850199Y-135454650D01*
X96850200Y-135454650D01*
X96850201Y-135454650D01*
X96865177Y-135452678D01*
X96993909Y-135435730D01*
X97127825Y-135380261D01*
X97242821Y-135292021D01*
X97331061Y-135177025D01*
X97386530Y-135043109D01*
X97405450Y-134899400D01*
X97395418Y-134823200D01*
X107597950Y-134823200D01*
X107605753Y-134882472D01*
X107616870Y-134966908D01*
X107616871Y-134966912D01*
X107672337Y-135100822D01*
X107672338Y-135100824D01*
X107672339Y-135100825D01*
X107760579Y-135215821D01*
X107875575Y-135304061D01*
X107875576Y-135304061D01*
X107875577Y-135304062D01*
X107920213Y-135322550D01*
X108009491Y-135359530D01*
X108136480Y-135376248D01*
X108153199Y-135378450D01*
X108153200Y-135378450D01*
X108153201Y-135378450D01*
X108168177Y-135376478D01*
X108296909Y-135359530D01*
X108430825Y-135304061D01*
X108545821Y-135215821D01*
X108634061Y-135100825D01*
X108689530Y-134966909D01*
X108705106Y-134848600D01*
X109071150Y-134848600D01*
X109080351Y-134918491D01*
X109090070Y-134992308D01*
X109090071Y-134992312D01*
X109145537Y-135126222D01*
X109145538Y-135126224D01*
X109145539Y-135126225D01*
X109233779Y-135241221D01*
X109348775Y-135329461D01*
X109348776Y-135329461D01*
X109348777Y-135329462D01*
X109380095Y-135342434D01*
X109482691Y-135384930D01*
X109609680Y-135401648D01*
X109626399Y-135403850D01*
X109626400Y-135403850D01*
X109626401Y-135403850D01*
X109641377Y-135401878D01*
X109770109Y-135384930D01*
X109904025Y-135329461D01*
X110019021Y-135241221D01*
X110107261Y-135126225D01*
X110162730Y-134992309D01*
X110181650Y-134848600D01*
X110162730Y-134704891D01*
X110107261Y-134570975D01*
X110019021Y-134455979D01*
X109904025Y-134367739D01*
X109904024Y-134367738D01*
X109904022Y-134367737D01*
X109770112Y-134312271D01*
X109770110Y-134312270D01*
X109770109Y-134312270D01*
X109698254Y-134302810D01*
X109626401Y-134293350D01*
X109626399Y-134293350D01*
X109482691Y-134312270D01*
X109482687Y-134312271D01*
X109348777Y-134367737D01*
X109233779Y-134455979D01*
X109145537Y-134570977D01*
X109090071Y-134704887D01*
X109090070Y-134704891D01*
X109084994Y-134743450D01*
X109071150Y-134848600D01*
X108705106Y-134848600D01*
X108708450Y-134823200D01*
X108689530Y-134679491D01*
X108634061Y-134545575D01*
X108545821Y-134430579D01*
X108430825Y-134342339D01*
X108430824Y-134342338D01*
X108430822Y-134342337D01*
X108296912Y-134286871D01*
X108296910Y-134286870D01*
X108296909Y-134286870D01*
X108225054Y-134277410D01*
X108153201Y-134267950D01*
X108153199Y-134267950D01*
X108009491Y-134286870D01*
X108009487Y-134286871D01*
X107875577Y-134342337D01*
X107760579Y-134430579D01*
X107672337Y-134545577D01*
X107616871Y-134679487D01*
X107616870Y-134679491D01*
X107610941Y-134724529D01*
X107597950Y-134823200D01*
X97395418Y-134823200D01*
X97386530Y-134755691D01*
X97331061Y-134621775D01*
X97242821Y-134506779D01*
X97127825Y-134418539D01*
X97127824Y-134418538D01*
X97127822Y-134418537D01*
X96993912Y-134363071D01*
X96993910Y-134363070D01*
X96993909Y-134363070D01*
X96922054Y-134353610D01*
X96850201Y-134344150D01*
X96850199Y-134344150D01*
X96706491Y-134363070D01*
X96706487Y-134363071D01*
X96572577Y-134418537D01*
X96457579Y-134506779D01*
X96369337Y-134621777D01*
X96313871Y-134755687D01*
X96313870Y-134755691D01*
X96294950Y-134899400D01*
X93306394Y-134899400D01*
X93306394Y-131167699D01*
X93326079Y-131100660D01*
X93342709Y-131080022D01*
X93663675Y-130759055D01*
X93724996Y-130725572D01*
X93794687Y-130730556D01*
X93850621Y-130772427D01*
X93865915Y-130799285D01*
X93880139Y-130833625D01*
X93968379Y-130948621D01*
X94083375Y-131036861D01*
X94217291Y-131092330D01*
X94344280Y-131109048D01*
X94360999Y-131111250D01*
X94361000Y-131111250D01*
X94361001Y-131111250D01*
X94375977Y-131109278D01*
X94504709Y-131092330D01*
X94638625Y-131036861D01*
X94753621Y-130948621D01*
X94841861Y-130833625D01*
X94897330Y-130699709D01*
X94916250Y-130556000D01*
X94897330Y-130412291D01*
X94841861Y-130278375D01*
X94753621Y-130163379D01*
X94638625Y-130075139D01*
X94638620Y-130075137D01*
X94604285Y-130060915D01*
X94549882Y-130017074D01*
X94527817Y-129950780D01*
X94545096Y-129883081D01*
X94564052Y-129858678D01*
X94785473Y-129637258D01*
X94846795Y-129603774D01*
X94916487Y-129608758D01*
X94972420Y-129650630D01*
X94987714Y-129677488D01*
X95035237Y-129792222D01*
X95035238Y-129792224D01*
X95035239Y-129792225D01*
X95123479Y-129907221D01*
X95238475Y-129995461D01*
X95372391Y-130050930D01*
X95499380Y-130067648D01*
X95516099Y-130069850D01*
X95516100Y-130069850D01*
X95516101Y-130069850D01*
X95552027Y-130065120D01*
X95659809Y-130050930D01*
X95693650Y-130036912D01*
X95763115Y-130029444D01*
X95825595Y-130060718D01*
X95861248Y-130120807D01*
X95865100Y-130151474D01*
X95865100Y-131847699D01*
X95845415Y-131914738D01*
X95828781Y-131935380D01*
X94367845Y-133396315D01*
X94306522Y-133429800D01*
X94296350Y-133431573D01*
X94197430Y-133444596D01*
X94166491Y-133448670D01*
X94166490Y-133448670D01*
X94166487Y-133448671D01*
X94032577Y-133504137D01*
X93917579Y-133592379D01*
X93829337Y-133707377D01*
X93773871Y-133841287D01*
X93773870Y-133841291D01*
X93754950Y-133985000D01*
X93771722Y-134112397D01*
X93773870Y-134128708D01*
X93773871Y-134128712D01*
X93829337Y-134262622D01*
X93829338Y-134262624D01*
X93829339Y-134262625D01*
X93917579Y-134377621D01*
X94032575Y-134465861D01*
X94032576Y-134465861D01*
X94032577Y-134465862D01*
X94077213Y-134484350D01*
X94166491Y-134521330D01*
X94293480Y-134538048D01*
X94310199Y-134540250D01*
X94310200Y-134540250D01*
X94310201Y-134540250D01*
X94325177Y-134538278D01*
X94453909Y-134521330D01*
X94587825Y-134465861D01*
X94702821Y-134377621D01*
X94791061Y-134262625D01*
X94846530Y-134128709D01*
X94863627Y-133998845D01*
X94891892Y-133934951D01*
X94898872Y-133927364D01*
X96469492Y-132356744D01*
X96489341Y-132340625D01*
X96498436Y-132334684D01*
X96520244Y-132306662D01*
X96525321Y-132300916D01*
X96528120Y-132298118D01*
X96541694Y-132279104D01*
X96566490Y-132247248D01*
X96575407Y-132235792D01*
X96579147Y-132228880D01*
X96582603Y-132221807D01*
X96582610Y-132221799D01*
X96598270Y-132169196D01*
X96616100Y-132117260D01*
X96616100Y-132117255D01*
X96617390Y-132109524D01*
X96618368Y-132101685D01*
X96616100Y-132046844D01*
X96616100Y-130556000D01*
X97793550Y-130556000D01*
X97811344Y-130691160D01*
X97812470Y-130699708D01*
X97812471Y-130699712D01*
X97867937Y-130833622D01*
X97867938Y-130833623D01*
X97867939Y-130833625D01*
X97956179Y-130948621D01*
X98071175Y-131036861D01*
X98205091Y-131092330D01*
X98332080Y-131109048D01*
X98348799Y-131111250D01*
X98348800Y-131111250D01*
X98348801Y-131111250D01*
X98363777Y-131109278D01*
X98492509Y-131092330D01*
X98626425Y-131036861D01*
X98741421Y-130948621D01*
X98829661Y-130833625D01*
X98885130Y-130699709D01*
X98904050Y-130556000D01*
X98885130Y-130412291D01*
X98829661Y-130278375D01*
X98741421Y-130163379D01*
X98626425Y-130075139D01*
X98626424Y-130075138D01*
X98626422Y-130075137D01*
X98492512Y-130019671D01*
X98492510Y-130019670D01*
X98492509Y-130019670D01*
X98420654Y-130010210D01*
X98348801Y-130000750D01*
X98348799Y-130000750D01*
X98205091Y-130019670D01*
X98205087Y-130019671D01*
X98071177Y-130075137D01*
X97956179Y-130163379D01*
X97867937Y-130278377D01*
X97812471Y-130412287D01*
X97812470Y-130412291D01*
X97793550Y-130556000D01*
X96616100Y-130556000D01*
X96616100Y-119532400D01*
X101374950Y-119532400D01*
X101391436Y-119657625D01*
X101393870Y-119676108D01*
X101393871Y-119676112D01*
X101449337Y-119810022D01*
X101449338Y-119810024D01*
X101449339Y-119810025D01*
X101537579Y-119925021D01*
X101652575Y-120013261D01*
X101786491Y-120068730D01*
X101913480Y-120085448D01*
X101930199Y-120087650D01*
X101930200Y-120087650D01*
X101930201Y-120087650D01*
X101945177Y-120085678D01*
X102073909Y-120068730D01*
X102207825Y-120013261D01*
X102322821Y-119925021D01*
X102411061Y-119810025D01*
X102466530Y-119676109D01*
X102485450Y-119532400D01*
X102466530Y-119388691D01*
X102411061Y-119254775D01*
X102322821Y-119139779D01*
X102207825Y-119051539D01*
X102207824Y-119051538D01*
X102207822Y-119051537D01*
X102073912Y-118996071D01*
X102073910Y-118996070D01*
X102073909Y-118996070D01*
X102000627Y-118986422D01*
X101930201Y-118977150D01*
X101930199Y-118977150D01*
X101786491Y-118996070D01*
X101786487Y-118996071D01*
X101652577Y-119051537D01*
X101537579Y-119139779D01*
X101449337Y-119254777D01*
X101393871Y-119388687D01*
X101393870Y-119388691D01*
X101374950Y-119532400D01*
X96616100Y-119532400D01*
X96616100Y-117711303D01*
X98725647Y-117711303D01*
X98738394Y-117808128D01*
X98744567Y-117855011D01*
X98744568Y-117855015D01*
X98800034Y-117988925D01*
X98800035Y-117988927D01*
X98800036Y-117988928D01*
X98888276Y-118103924D01*
X99003272Y-118192164D01*
X99137188Y-118247633D01*
X99264177Y-118264351D01*
X99280896Y-118266553D01*
X99280897Y-118266553D01*
X99280898Y-118266553D01*
X99295874Y-118264581D01*
X99424606Y-118247633D01*
X99558522Y-118192164D01*
X99673518Y-118103924D01*
X99746817Y-118008400D01*
X100308150Y-118008400D01*
X100327070Y-118152108D01*
X100327071Y-118152112D01*
X100382537Y-118286022D01*
X100382538Y-118286024D01*
X100382539Y-118286025D01*
X100470779Y-118401021D01*
X100585775Y-118489261D01*
X100719691Y-118544730D01*
X100846680Y-118561448D01*
X100863399Y-118563650D01*
X100863400Y-118563650D01*
X100863401Y-118563650D01*
X100878377Y-118561678D01*
X101007109Y-118544730D01*
X101141025Y-118489261D01*
X101256021Y-118401021D01*
X101344261Y-118286025D01*
X101399730Y-118152109D01*
X101418650Y-118008400D01*
X101399730Y-117864691D01*
X101352576Y-117750850D01*
X101344262Y-117730777D01*
X101344261Y-117730776D01*
X101344261Y-117730775D01*
X101256021Y-117615779D01*
X101141025Y-117527539D01*
X101141024Y-117527538D01*
X101141022Y-117527537D01*
X101007112Y-117472071D01*
X101007110Y-117472070D01*
X101007109Y-117472070D01*
X100904067Y-117458504D01*
X100863401Y-117453150D01*
X100863399Y-117453150D01*
X100719691Y-117472070D01*
X100719687Y-117472071D01*
X100585777Y-117527537D01*
X100470779Y-117615779D01*
X100382537Y-117730777D01*
X100327071Y-117864687D01*
X100327070Y-117864691D01*
X100308150Y-118008399D01*
X100308150Y-118008400D01*
X99746817Y-118008400D01*
X99761758Y-117988928D01*
X99817227Y-117855012D01*
X99836147Y-117711303D01*
X99817227Y-117567594D01*
X99772041Y-117458504D01*
X99761759Y-117433680D01*
X99761758Y-117433679D01*
X99761758Y-117433678D01*
X99673518Y-117318682D01*
X99558522Y-117230442D01*
X99558521Y-117230441D01*
X99558519Y-117230440D01*
X99424609Y-117174974D01*
X99424607Y-117174973D01*
X99424606Y-117174973D01*
X99311257Y-117160050D01*
X99280898Y-117156053D01*
X99280896Y-117156053D01*
X99137188Y-117174973D01*
X99137184Y-117174974D01*
X99003274Y-117230440D01*
X98888276Y-117318682D01*
X98800034Y-117433680D01*
X98744568Y-117567590D01*
X98744567Y-117567594D01*
X98728476Y-117689818D01*
X98725647Y-117711303D01*
X96616100Y-117711303D01*
X96616100Y-115976400D01*
X98199950Y-115976400D01*
X98217814Y-116112091D01*
X98218870Y-116120108D01*
X98218871Y-116120112D01*
X98274337Y-116254022D01*
X98274338Y-116254024D01*
X98274339Y-116254025D01*
X98362579Y-116369021D01*
X98477575Y-116457261D01*
X98477576Y-116457261D01*
X98477577Y-116457262D01*
X98522213Y-116475750D01*
X98611491Y-116512730D01*
X98738480Y-116529448D01*
X98755199Y-116531650D01*
X98755200Y-116531650D01*
X98755201Y-116531650D01*
X98770177Y-116529678D01*
X98898909Y-116512730D01*
X99032825Y-116457261D01*
X99147821Y-116369021D01*
X99234699Y-116255800D01*
X99876350Y-116255800D01*
X99894214Y-116391491D01*
X99895270Y-116399508D01*
X99895271Y-116399512D01*
X99950737Y-116533422D01*
X99950738Y-116533424D01*
X99950739Y-116533425D01*
X100038979Y-116648421D01*
X100153975Y-116736661D01*
X100153976Y-116736661D01*
X100153977Y-116736662D01*
X100182579Y-116748509D01*
X100287891Y-116792130D01*
X100414880Y-116808848D01*
X100431599Y-116811050D01*
X100431600Y-116811050D01*
X100431601Y-116811050D01*
X100446577Y-116809078D01*
X100575309Y-116792130D01*
X100709225Y-116736661D01*
X100824221Y-116648421D01*
X100912461Y-116533425D01*
X100967930Y-116399509D01*
X100986850Y-116255800D01*
X100967930Y-116112091D01*
X100912461Y-115978175D01*
X100824221Y-115863179D01*
X100709225Y-115774939D01*
X100709224Y-115774938D01*
X100709222Y-115774937D01*
X100575312Y-115719471D01*
X100575310Y-115719470D01*
X100575309Y-115719470D01*
X100496816Y-115709136D01*
X100431601Y-115700550D01*
X100431599Y-115700550D01*
X100287891Y-115719470D01*
X100287887Y-115719471D01*
X100153977Y-115774937D01*
X100038979Y-115863179D01*
X99950737Y-115978177D01*
X99895271Y-116112087D01*
X99895270Y-116112091D01*
X99876350Y-116255800D01*
X99234699Y-116255800D01*
X99236061Y-116254025D01*
X99291530Y-116120109D01*
X99310450Y-115976400D01*
X99291530Y-115832691D01*
X99252767Y-115739108D01*
X99236062Y-115698777D01*
X99236061Y-115698776D01*
X99236061Y-115698775D01*
X99147821Y-115583779D01*
X99032825Y-115495539D01*
X99032824Y-115495538D01*
X99032822Y-115495537D01*
X98898912Y-115440071D01*
X98898910Y-115440070D01*
X98898909Y-115440070D01*
X98827054Y-115430610D01*
X98755201Y-115421150D01*
X98755199Y-115421150D01*
X98611491Y-115440070D01*
X98611487Y-115440071D01*
X98477577Y-115495537D01*
X98362579Y-115583779D01*
X98274337Y-115698777D01*
X98218871Y-115832687D01*
X98218870Y-115832691D01*
X98206801Y-115924366D01*
X98199950Y-115976400D01*
X96616100Y-115976400D01*
X96616100Y-112319803D01*
X96618739Y-112294358D01*
X96619817Y-112289215D01*
X96620967Y-112283732D01*
X96617190Y-112253428D01*
X96616577Y-112248507D01*
X96616100Y-112240831D01*
X96616100Y-112236890D01*
X96616099Y-112236881D01*
X96612257Y-112213856D01*
X96605466Y-112159376D01*
X96603221Y-112151837D01*
X96600666Y-112144392D01*
X96574541Y-112096118D01*
X96574193Y-112095407D01*
X96550426Y-112046789D01*
X96550423Y-112046786D01*
X96550423Y-112046785D01*
X96545880Y-112040421D01*
X96541020Y-112034176D01*
X96541019Y-112034174D01*
X96500629Y-111996992D01*
X96245084Y-111741446D01*
X96211599Y-111680123D01*
X96209828Y-111669963D01*
X96192730Y-111540091D01*
X96137261Y-111406175D01*
X96049021Y-111291179D01*
X95934025Y-111202939D01*
X95934024Y-111202938D01*
X95934022Y-111202937D01*
X95800112Y-111147471D01*
X95800110Y-111147470D01*
X95800109Y-111147470D01*
X95727313Y-111137886D01*
X95656401Y-111128550D01*
X95656399Y-111128550D01*
X95512691Y-111147470D01*
X95478351Y-111161694D01*
X95408882Y-111169162D01*
X95346403Y-111137886D01*
X95310751Y-111077797D01*
X95306900Y-111047132D01*
X95306900Y-110888705D01*
X95326585Y-110821666D01*
X95333367Y-110813249D01*
X95332873Y-110812870D01*
X95364666Y-110771435D01*
X95426061Y-110691425D01*
X95481530Y-110557509D01*
X95500450Y-110413800D01*
X95481530Y-110270091D01*
X95426061Y-110136175D01*
X95337821Y-110021179D01*
X95222825Y-109932939D01*
X95222824Y-109932938D01*
X95222822Y-109932937D01*
X95088912Y-109877471D01*
X95088910Y-109877470D01*
X95088909Y-109877470D01*
X95017054Y-109868010D01*
X94945201Y-109858550D01*
X94945199Y-109858550D01*
X94801491Y-109877470D01*
X94801487Y-109877471D01*
X94667577Y-109932937D01*
X94552579Y-110021179D01*
X94464337Y-110136177D01*
X94408871Y-110270087D01*
X94408870Y-110270091D01*
X94389950Y-110413799D01*
X94389950Y-110413800D01*
X94408870Y-110557508D01*
X94408871Y-110557512D01*
X94464338Y-110691423D01*
X94464339Y-110691426D01*
X94530275Y-110777354D01*
X94555470Y-110842523D01*
X94555900Y-110852841D01*
X94555900Y-112761196D01*
X94553262Y-112786634D01*
X94551033Y-112797268D01*
X94551033Y-112797269D01*
X94551033Y-112797271D01*
X94555423Y-112832491D01*
X94555900Y-112840167D01*
X94555900Y-112844116D01*
X94559742Y-112867141D01*
X94566534Y-112921627D01*
X94568773Y-112929147D01*
X94571334Y-112936608D01*
X94571335Y-112936610D01*
X94573657Y-112940900D01*
X94597455Y-112984877D01*
X94621574Y-113034211D01*
X94626142Y-113040609D01*
X94630982Y-113046827D01*
X94671371Y-113084009D01*
X95378781Y-113791418D01*
X95412266Y-113852741D01*
X95415100Y-113879099D01*
X95415100Y-118814720D01*
X95395415Y-118881759D01*
X95342611Y-118927514D01*
X95273453Y-118937458D01*
X95215615Y-118913096D01*
X95197425Y-118899139D01*
X95197424Y-118899138D01*
X95197422Y-118899137D01*
X95063512Y-118843671D01*
X95063510Y-118843670D01*
X95063509Y-118843670D01*
X94991654Y-118834210D01*
X94919801Y-118824750D01*
X94919799Y-118824750D01*
X94776091Y-118843670D01*
X94776087Y-118843671D01*
X94642177Y-118899137D01*
X94527179Y-118987379D01*
X94438937Y-119102377D01*
X94383471Y-119236287D01*
X94383470Y-119236291D01*
X94364550Y-119379999D01*
X94364550Y-119380000D01*
X94383470Y-119523708D01*
X94383471Y-119523712D01*
X94438937Y-119657622D01*
X94438938Y-119657624D01*
X94438939Y-119657625D01*
X94518676Y-119761540D01*
X94543870Y-119826709D01*
X94544300Y-119837026D01*
X94544300Y-128764994D01*
X94524615Y-128832033D01*
X94507981Y-128852675D01*
X92702981Y-130657675D01*
X92641658Y-130691160D01*
X92571966Y-130686176D01*
X92516033Y-130644304D01*
X92491616Y-130578840D01*
X92491300Y-130569994D01*
X92491300Y-128625427D01*
X92510985Y-128558388D01*
X92516917Y-128549948D01*
X92596661Y-128446026D01*
X92652130Y-128312110D01*
X92671050Y-128168401D01*
X92652130Y-128024692D01*
X92610047Y-127923092D01*
X92596662Y-127890778D01*
X92596661Y-127890777D01*
X92596661Y-127890776D01*
X92516923Y-127786860D01*
X92491730Y-127721692D01*
X92491300Y-127711375D01*
X92491300Y-118752280D01*
X92493939Y-118726835D01*
X92494585Y-118723751D01*
X92496167Y-118716208D01*
X92494298Y-118701216D01*
X92491777Y-118680982D01*
X92491300Y-118673306D01*
X92491300Y-118669365D01*
X92491298Y-118669352D01*
X92487457Y-118646335D01*
X92480666Y-118591852D01*
X92480666Y-118591850D01*
X92480664Y-118591846D01*
X92478422Y-118584316D01*
X92475865Y-118576868D01*
X92475865Y-118576866D01*
X92449744Y-118528598D01*
X92425626Y-118479265D01*
X92425624Y-118479263D01*
X92425624Y-118479262D01*
X92421067Y-118472880D01*
X92416215Y-118466645D01*
X92375829Y-118429468D01*
X91196960Y-117250599D01*
X91163475Y-117189276D01*
X91168459Y-117119584D01*
X91209154Y-117064543D01*
X91296629Y-116997421D01*
X91305633Y-116985686D01*
X91362058Y-116944485D01*
X91431804Y-116940329D01*
X91492725Y-116974540D01*
X91502375Y-116985676D01*
X91511387Y-116997421D01*
X91626383Y-117085661D01*
X91760299Y-117141130D01*
X91887288Y-117157848D01*
X91904007Y-117160050D01*
X91904008Y-117160050D01*
X91904009Y-117160050D01*
X91918985Y-117158078D01*
X92047717Y-117141130D01*
X92181633Y-117085661D01*
X92296629Y-116997421D01*
X92305633Y-116985686D01*
X92362058Y-116944485D01*
X92431804Y-116940329D01*
X92492725Y-116974540D01*
X92502375Y-116985676D01*
X92511387Y-116997421D01*
X92626383Y-117085661D01*
X92760299Y-117141130D01*
X92887288Y-117157848D01*
X92904007Y-117160050D01*
X92904008Y-117160050D01*
X92904009Y-117160050D01*
X92918985Y-117158078D01*
X93047717Y-117141130D01*
X93181633Y-117085661D01*
X93296629Y-116997421D01*
X93305633Y-116985686D01*
X93362058Y-116944485D01*
X93431804Y-116940329D01*
X93492725Y-116974540D01*
X93502375Y-116985676D01*
X93511387Y-116997421D01*
X93626383Y-117085661D01*
X93760299Y-117141130D01*
X93887288Y-117157848D01*
X93904007Y-117160050D01*
X93904008Y-117160050D01*
X93904009Y-117160050D01*
X93918985Y-117158078D01*
X94047717Y-117141130D01*
X94181633Y-117085661D01*
X94296629Y-116997421D01*
X94384869Y-116882425D01*
X94440338Y-116748509D01*
X94459258Y-116604800D01*
X94440338Y-116461091D01*
X94384869Y-116327175D01*
X94296629Y-116212179D01*
X94181633Y-116123939D01*
X94181632Y-116123938D01*
X94181630Y-116123937D01*
X94047720Y-116068471D01*
X94047718Y-116068470D01*
X94047717Y-116068470D01*
X94022862Y-116065197D01*
X93993007Y-116061267D01*
X93929111Y-116033000D01*
X93890641Y-115974675D01*
X93889810Y-115904810D01*
X93901811Y-115876321D01*
X93902159Y-115875716D01*
X93902165Y-115875709D01*
X93957634Y-115741793D01*
X93976554Y-115598084D01*
X93957634Y-115454375D01*
X93921304Y-115366665D01*
X93901094Y-115317872D01*
X93893625Y-115248402D01*
X93924901Y-115185923D01*
X93984990Y-115150272D01*
X93999457Y-115147483D01*
X94047717Y-115141130D01*
X94181633Y-115085661D01*
X94296629Y-114997421D01*
X94384869Y-114882425D01*
X94440338Y-114748509D01*
X94459258Y-114604800D01*
X94440338Y-114461091D01*
X94384869Y-114327175D01*
X94296629Y-114212179D01*
X94181633Y-114123939D01*
X94181632Y-114123938D01*
X94181630Y-114123937D01*
X94047720Y-114068471D01*
X94047718Y-114068470D01*
X94047717Y-114068470D01*
X93975862Y-114059010D01*
X93904009Y-114049550D01*
X93904007Y-114049550D01*
X93760299Y-114068470D01*
X93760295Y-114068471D01*
X93626385Y-114123937D01*
X93568885Y-114168059D01*
X93511387Y-114212179D01*
X93511386Y-114212180D01*
X93511385Y-114212181D01*
X93502383Y-114223913D01*
X93445955Y-114265116D01*
X93376209Y-114269270D01*
X93315289Y-114235057D01*
X93305633Y-114223913D01*
X93303790Y-114221511D01*
X93296629Y-114212179D01*
X93181633Y-114123939D01*
X93181632Y-114123938D01*
X93181630Y-114123937D01*
X93047720Y-114068471D01*
X93047718Y-114068470D01*
X93047717Y-114068470D01*
X92975862Y-114059010D01*
X92904009Y-114049550D01*
X92904007Y-114049550D01*
X92760299Y-114068470D01*
X92760295Y-114068471D01*
X92626385Y-114123937D01*
X92568885Y-114168059D01*
X92511387Y-114212179D01*
X92511386Y-114212180D01*
X92511385Y-114212181D01*
X92502383Y-114223913D01*
X92445955Y-114265116D01*
X92376209Y-114269270D01*
X92315289Y-114235057D01*
X92305633Y-114223913D01*
X92303790Y-114221511D01*
X92296629Y-114212179D01*
X92181633Y-114123939D01*
X92181632Y-114123938D01*
X92181630Y-114123937D01*
X92047720Y-114068471D01*
X92047718Y-114068470D01*
X92047717Y-114068470D01*
X91975862Y-114059010D01*
X91904009Y-114049550D01*
X91904007Y-114049550D01*
X91760299Y-114068470D01*
X91760295Y-114068471D01*
X91626385Y-114123937D01*
X91568885Y-114168059D01*
X91511387Y-114212179D01*
X91511386Y-114212180D01*
X91511385Y-114212181D01*
X91502383Y-114223913D01*
X91445955Y-114265116D01*
X91376209Y-114269270D01*
X91315289Y-114235057D01*
X91305633Y-114223913D01*
X91303790Y-114221511D01*
X91296629Y-114212179D01*
X91181633Y-114123939D01*
X91181632Y-114123938D01*
X91181630Y-114123937D01*
X91047720Y-114068471D01*
X91047718Y-114068470D01*
X91047717Y-114068470D01*
X90975862Y-114059010D01*
X90904009Y-114049550D01*
X90904007Y-114049550D01*
X90760299Y-114068470D01*
X90760295Y-114068471D01*
X90626385Y-114123937D01*
X90511387Y-114212179D01*
X90423145Y-114327177D01*
X90367679Y-114461087D01*
X90367678Y-114461091D01*
X90348758Y-114604799D01*
X90348758Y-114604800D01*
X90367678Y-114748508D01*
X90367679Y-114748512D01*
X90423145Y-114882422D01*
X90423146Y-114882424D01*
X90423147Y-114882425D01*
X90511387Y-114997421D01*
X90626383Y-115085661D01*
X90760299Y-115141130D01*
X90841351Y-115151800D01*
X90905246Y-115180066D01*
X90943717Y-115238390D01*
X90944549Y-115308255D01*
X90939725Y-115322191D01*
X90884975Y-115454371D01*
X90884974Y-115454375D01*
X90870265Y-115566102D01*
X90866054Y-115598084D01*
X90879310Y-115698775D01*
X90884974Y-115741792D01*
X90884975Y-115741796D01*
X90943553Y-115883218D01*
X90941284Y-115884157D01*
X90954828Y-115940007D01*
X90931970Y-116006031D01*
X90877044Y-116049217D01*
X90847156Y-116057034D01*
X90760299Y-116068470D01*
X90760295Y-116068471D01*
X90626385Y-116123937D01*
X90602100Y-116142572D01*
X90511387Y-116212179D01*
X90511386Y-116212180D01*
X90511385Y-116212181D01*
X90444265Y-116299653D01*
X90387837Y-116340855D01*
X90318091Y-116345010D01*
X90258209Y-116311847D01*
X89159419Y-115213057D01*
X89125934Y-115151734D01*
X89123100Y-115125376D01*
X89123100Y-113213919D01*
X89125739Y-113188474D01*
X89127520Y-113179978D01*
X89127967Y-113177847D01*
X89125887Y-113161167D01*
X89123577Y-113142624D01*
X89123100Y-113134948D01*
X89123100Y-113131005D01*
X89123099Y-113130999D01*
X89119255Y-113107962D01*
X89112465Y-113053489D01*
X89110217Y-113045943D01*
X89107665Y-113038506D01*
X89081542Y-112990235D01*
X89077870Y-112982723D01*
X89057426Y-112940904D01*
X89057423Y-112940901D01*
X89057423Y-112940900D01*
X89052867Y-112934518D01*
X89048023Y-112928294D01*
X89040780Y-112921626D01*
X89007641Y-112891119D01*
X88572033Y-112455511D01*
X88555906Y-112435652D01*
X88549970Y-112426567D01*
X88549967Y-112426563D01*
X88521958Y-112404763D01*
X88516194Y-112399672D01*
X88513399Y-112396877D01*
X88494389Y-112383306D01*
X88451073Y-112349590D01*
X88444158Y-112345848D01*
X88437084Y-112342390D01*
X88384480Y-112326729D01*
X88332542Y-112308899D01*
X88324807Y-112307608D01*
X88316969Y-112306631D01*
X88262128Y-112308900D01*
X87607822Y-112308900D01*
X87540783Y-112289215D01*
X87532335Y-112283275D01*
X87455401Y-112224240D01*
X87455398Y-112224239D01*
X87321487Y-112168772D01*
X87321485Y-112168771D01*
X87321484Y-112168771D01*
X87249629Y-112159311D01*
X87177776Y-112149851D01*
X87177774Y-112149851D01*
X87034066Y-112168771D01*
X87034062Y-112168772D01*
X86900152Y-112224238D01*
X86785154Y-112312480D01*
X86696912Y-112427478D01*
X86641446Y-112561388D01*
X86641445Y-112561392D01*
X86622525Y-112705100D01*
X86622525Y-112705101D01*
X86641445Y-112848809D01*
X86641446Y-112848813D01*
X86696912Y-112982723D01*
X86696913Y-112982725D01*
X86696914Y-112982726D01*
X86785154Y-113097722D01*
X86900150Y-113185962D01*
X86900151Y-113185962D01*
X86900152Y-113185963D01*
X86944788Y-113204451D01*
X87034066Y-113241431D01*
X87161055Y-113258149D01*
X87177774Y-113260351D01*
X87177774Y-113260350D01*
X87177775Y-113260351D01*
X87321484Y-113241431D01*
X87321488Y-113241429D01*
X87321725Y-113241398D01*
X87390761Y-113252163D01*
X87443017Y-113298542D01*
X87460851Y-113348150D01*
X87474670Y-113453108D01*
X87474671Y-113453112D01*
X87530138Y-113587023D01*
X87530139Y-113587025D01*
X87584475Y-113657836D01*
X87609670Y-113723005D01*
X87610100Y-113733323D01*
X87610100Y-123928016D01*
X87590415Y-123995055D01*
X87573781Y-124015697D01*
X86947181Y-124642297D01*
X86885858Y-124675782D01*
X86816166Y-124670798D01*
X86760233Y-124628926D01*
X86735816Y-124563462D01*
X86735500Y-124554616D01*
X86735500Y-123170720D01*
X86738139Y-123145275D01*
X86738573Y-123143204D01*
X86740367Y-123134649D01*
X86738325Y-123118270D01*
X86735977Y-123099424D01*
X86735500Y-123091748D01*
X86735500Y-123087806D01*
X86735498Y-123087793D01*
X86731657Y-123064776D01*
X86724866Y-123010293D01*
X86724866Y-123010291D01*
X86724864Y-123010287D01*
X86722622Y-123002757D01*
X86720065Y-122995309D01*
X86720065Y-122995307D01*
X86693944Y-122947039D01*
X86669826Y-122897706D01*
X86669824Y-122897704D01*
X86669824Y-122897703D01*
X86665276Y-122891333D01*
X86660420Y-122885093D01*
X86660419Y-122885091D01*
X86620029Y-122847909D01*
X85622833Y-121850712D01*
X85606706Y-121830853D01*
X85600770Y-121821768D01*
X85600767Y-121821764D01*
X85572758Y-121799964D01*
X85566994Y-121794873D01*
X85564199Y-121792078D01*
X85545189Y-121778507D01*
X85501873Y-121744791D01*
X85494958Y-121741049D01*
X85487884Y-121737591D01*
X85435280Y-121721930D01*
X85383342Y-121704100D01*
X85375607Y-121702809D01*
X85367769Y-121701832D01*
X85312928Y-121704101D01*
X80630500Y-121704101D01*
X80563461Y-121684416D01*
X80542819Y-121667782D01*
X80269419Y-121394381D01*
X80235934Y-121333058D01*
X80233100Y-121306700D01*
X80233100Y-118708800D01*
X85815550Y-118708800D01*
X85833306Y-118843671D01*
X85834470Y-118852508D01*
X85834471Y-118852512D01*
X85889937Y-118986422D01*
X85889938Y-118986424D01*
X85889939Y-118986425D01*
X85978179Y-119101421D01*
X86093175Y-119189661D01*
X86227091Y-119245130D01*
X86354080Y-119261848D01*
X86370799Y-119264050D01*
X86370800Y-119264050D01*
X86370801Y-119264050D01*
X86385777Y-119262078D01*
X86514509Y-119245130D01*
X86648425Y-119189661D01*
X86763421Y-119101421D01*
X86851661Y-118986425D01*
X86907130Y-118852509D01*
X86926050Y-118708800D01*
X86907130Y-118565091D01*
X86851661Y-118431175D01*
X86763421Y-118316179D01*
X86648425Y-118227939D01*
X86648424Y-118227938D01*
X86648422Y-118227937D01*
X86514512Y-118172471D01*
X86514510Y-118172470D01*
X86514509Y-118172470D01*
X86442654Y-118163010D01*
X86370801Y-118153550D01*
X86370799Y-118153550D01*
X86227091Y-118172470D01*
X86227087Y-118172471D01*
X86093177Y-118227937D01*
X85978179Y-118316179D01*
X85889937Y-118431177D01*
X85834471Y-118565087D01*
X85834470Y-118565091D01*
X85820588Y-118670537D01*
X85815550Y-118708800D01*
X80233100Y-118708800D01*
X80233100Y-116604800D01*
X81798254Y-116604800D01*
X81816310Y-116741950D01*
X81817174Y-116748508D01*
X81817175Y-116748512D01*
X81872641Y-116882422D01*
X81872642Y-116882424D01*
X81872643Y-116882425D01*
X81960883Y-116997421D01*
X82075879Y-117085661D01*
X82209795Y-117141130D01*
X82336784Y-117157848D01*
X82353503Y-117160050D01*
X82353504Y-117160050D01*
X82353505Y-117160050D01*
X82368481Y-117158078D01*
X82497213Y-117141130D01*
X82631129Y-117085661D01*
X82746125Y-116997421D01*
X82755129Y-116985686D01*
X82811554Y-116944485D01*
X82881300Y-116940329D01*
X82942221Y-116974540D01*
X82951871Y-116985676D01*
X82960883Y-116997421D01*
X83075879Y-117085661D01*
X83209795Y-117141130D01*
X83336784Y-117157848D01*
X83353503Y-117160050D01*
X83353504Y-117160050D01*
X83353505Y-117160050D01*
X83368481Y-117158078D01*
X83497213Y-117141130D01*
X83631129Y-117085661D01*
X83746125Y-116997421D01*
X83755129Y-116985686D01*
X83811554Y-116944485D01*
X83881300Y-116940329D01*
X83942221Y-116974540D01*
X83951871Y-116985676D01*
X83960883Y-116997421D01*
X84075879Y-117085661D01*
X84209795Y-117141130D01*
X84336784Y-117157848D01*
X84353503Y-117160050D01*
X84353504Y-117160050D01*
X84353505Y-117160050D01*
X84368481Y-117158078D01*
X84497213Y-117141130D01*
X84631129Y-117085661D01*
X84746125Y-116997421D01*
X84755129Y-116985686D01*
X84811554Y-116944485D01*
X84881300Y-116940329D01*
X84942221Y-116974540D01*
X84951871Y-116985676D01*
X84960883Y-116997421D01*
X85075879Y-117085661D01*
X85209795Y-117141130D01*
X85336784Y-117157848D01*
X85353503Y-117160050D01*
X85353504Y-117160050D01*
X85353505Y-117160050D01*
X85368481Y-117158078D01*
X85497213Y-117141130D01*
X85631129Y-117085661D01*
X85746125Y-116997421D01*
X85834365Y-116882425D01*
X85889834Y-116748509D01*
X85908754Y-116604800D01*
X85889834Y-116461091D01*
X85834365Y-116327175D01*
X85746125Y-116212179D01*
X85631129Y-116123939D01*
X85631128Y-116123938D01*
X85631126Y-116123937D01*
X85497216Y-116068471D01*
X85497214Y-116068470D01*
X85497213Y-116068470D01*
X85472358Y-116065197D01*
X85442503Y-116061267D01*
X85378607Y-116033000D01*
X85340137Y-115974675D01*
X85339306Y-115904810D01*
X85351307Y-115876321D01*
X85351655Y-115875716D01*
X85351661Y-115875709D01*
X85407130Y-115741793D01*
X85426050Y-115598084D01*
X85407130Y-115454375D01*
X85370800Y-115366665D01*
X85350590Y-115317872D01*
X85343121Y-115248402D01*
X85374397Y-115185923D01*
X85434486Y-115150272D01*
X85448953Y-115147483D01*
X85497213Y-115141130D01*
X85631129Y-115085661D01*
X85746125Y-114997421D01*
X85834365Y-114882425D01*
X85889834Y-114748509D01*
X85908754Y-114604800D01*
X85889834Y-114461091D01*
X85834365Y-114327175D01*
X85746125Y-114212179D01*
X85631129Y-114123939D01*
X85631128Y-114123938D01*
X85631126Y-114123937D01*
X85497216Y-114068471D01*
X85497214Y-114068470D01*
X85497213Y-114068470D01*
X85425358Y-114059010D01*
X85353505Y-114049550D01*
X85353503Y-114049550D01*
X85209795Y-114068470D01*
X85209791Y-114068471D01*
X85075881Y-114123937D01*
X85018381Y-114168059D01*
X84960883Y-114212179D01*
X84960882Y-114212180D01*
X84960881Y-114212181D01*
X84951879Y-114223913D01*
X84895451Y-114265116D01*
X84825705Y-114269270D01*
X84764785Y-114235057D01*
X84755129Y-114223913D01*
X84753286Y-114221511D01*
X84746125Y-114212179D01*
X84631129Y-114123939D01*
X84631128Y-114123938D01*
X84631126Y-114123937D01*
X84497216Y-114068471D01*
X84497214Y-114068470D01*
X84497213Y-114068470D01*
X84425358Y-114059010D01*
X84353505Y-114049550D01*
X84353503Y-114049550D01*
X84209795Y-114068470D01*
X84209791Y-114068471D01*
X84075881Y-114123937D01*
X84018381Y-114168059D01*
X83960883Y-114212179D01*
X83960882Y-114212180D01*
X83960881Y-114212181D01*
X83951879Y-114223913D01*
X83895451Y-114265116D01*
X83825705Y-114269270D01*
X83764785Y-114235057D01*
X83755129Y-114223913D01*
X83753286Y-114221511D01*
X83746125Y-114212179D01*
X83631129Y-114123939D01*
X83631128Y-114123938D01*
X83631126Y-114123937D01*
X83497216Y-114068471D01*
X83497214Y-114068470D01*
X83497213Y-114068470D01*
X83425358Y-114059010D01*
X83353505Y-114049550D01*
X83353503Y-114049550D01*
X83209795Y-114068470D01*
X83209791Y-114068471D01*
X83075881Y-114123937D01*
X83018381Y-114168059D01*
X82960883Y-114212179D01*
X82960882Y-114212180D01*
X82960881Y-114212181D01*
X82951879Y-114223913D01*
X82895451Y-114265116D01*
X82825705Y-114269270D01*
X82764785Y-114235057D01*
X82755129Y-114223913D01*
X82753286Y-114221511D01*
X82746125Y-114212179D01*
X82631129Y-114123939D01*
X82631128Y-114123938D01*
X82631126Y-114123937D01*
X82497216Y-114068471D01*
X82497214Y-114068470D01*
X82497213Y-114068470D01*
X82425358Y-114059010D01*
X82353505Y-114049550D01*
X82353503Y-114049550D01*
X82209795Y-114068470D01*
X82209791Y-114068471D01*
X82075881Y-114123937D01*
X81960883Y-114212179D01*
X81872641Y-114327177D01*
X81817175Y-114461087D01*
X81817174Y-114461091D01*
X81798254Y-114604799D01*
X81798254Y-114604800D01*
X81817174Y-114748508D01*
X81817175Y-114748512D01*
X81872641Y-114882422D01*
X81872642Y-114882424D01*
X81872643Y-114882425D01*
X81960883Y-114997421D01*
X82075879Y-115085661D01*
X82209795Y-115141130D01*
X82290847Y-115151800D01*
X82354742Y-115180066D01*
X82393213Y-115238390D01*
X82394045Y-115308255D01*
X82389221Y-115322191D01*
X82334471Y-115454371D01*
X82334470Y-115454375D01*
X82319761Y-115566102D01*
X82315550Y-115598084D01*
X82328806Y-115698775D01*
X82334470Y-115741792D01*
X82334471Y-115741796D01*
X82393049Y-115883218D01*
X82390780Y-115884157D01*
X82404324Y-115940007D01*
X82381466Y-116006031D01*
X82326540Y-116049217D01*
X82296652Y-116057034D01*
X82209795Y-116068470D01*
X82209791Y-116068471D01*
X82075881Y-116123937D01*
X81960883Y-116212179D01*
X81872641Y-116327177D01*
X81817175Y-116461087D01*
X81817174Y-116461091D01*
X81807885Y-116531650D01*
X81798254Y-116604800D01*
X80233100Y-116604800D01*
X80233100Y-113639427D01*
X80252785Y-113572388D01*
X80258717Y-113563948D01*
X80338461Y-113460026D01*
X80393930Y-113326110D01*
X80412850Y-113182401D01*
X80412250Y-113177847D01*
X80407110Y-113138803D01*
X80393930Y-113038692D01*
X80356950Y-112949414D01*
X80338462Y-112904778D01*
X80338461Y-112904777D01*
X80338461Y-112904776D01*
X80250221Y-112789780D01*
X80135225Y-112701540D01*
X80135224Y-112701539D01*
X80135222Y-112701538D01*
X80001312Y-112646072D01*
X80001310Y-112646071D01*
X80001309Y-112646071D01*
X79861854Y-112627711D01*
X79857601Y-112627151D01*
X79857599Y-112627151D01*
X79853344Y-112627711D01*
X79849754Y-112627151D01*
X79849473Y-112627151D01*
X79849473Y-112627107D01*
X79784309Y-112616942D01*
X79732056Y-112570560D01*
X79722603Y-112552223D01*
X79680503Y-112450583D01*
X79680502Y-112450582D01*
X79680502Y-112450581D01*
X79592262Y-112335585D01*
X79477266Y-112247345D01*
X79477265Y-112247344D01*
X79477263Y-112247343D01*
X79343353Y-112191877D01*
X79343351Y-112191876D01*
X79343350Y-112191876D01*
X79271495Y-112182416D01*
X79199642Y-112172956D01*
X79199640Y-112172956D01*
X79055932Y-112191876D01*
X79055928Y-112191877D01*
X78922018Y-112247343D01*
X78807020Y-112335585D01*
X78718778Y-112450583D01*
X78663312Y-112584493D01*
X78663311Y-112584497D01*
X78644391Y-112728206D01*
X78662682Y-112867141D01*
X78663311Y-112871914D01*
X78663312Y-112871918D01*
X78718778Y-113005828D01*
X78718779Y-113005830D01*
X78718780Y-113005831D01*
X78798517Y-113109746D01*
X78823711Y-113174915D01*
X78824141Y-113185232D01*
X78824141Y-121530737D01*
X78804456Y-121597776D01*
X78751652Y-121643531D01*
X78682494Y-121653475D01*
X78618938Y-121624450D01*
X78612460Y-121618418D01*
X78212019Y-121217977D01*
X78178534Y-121156654D01*
X78175700Y-121130296D01*
X78175700Y-119252827D01*
X78195385Y-119185788D01*
X78201317Y-119177348D01*
X78281061Y-119073426D01*
X78336530Y-118939510D01*
X78355450Y-118795801D01*
X78336530Y-118652092D01*
X78292060Y-118544730D01*
X78281062Y-118518178D01*
X78281061Y-118518177D01*
X78281061Y-118518176D01*
X78192821Y-118403180D01*
X78077825Y-118314940D01*
X78077824Y-118314939D01*
X78077822Y-118314938D01*
X77943912Y-118259472D01*
X77943910Y-118259471D01*
X77943909Y-118259471D01*
X77853977Y-118247631D01*
X77800201Y-118240551D01*
X77800199Y-118240551D01*
X77656491Y-118259471D01*
X77656487Y-118259472D01*
X77522577Y-118314938D01*
X77407579Y-118403180D01*
X77319337Y-118518178D01*
X77263871Y-118652088D01*
X77263870Y-118652092D01*
X77244950Y-118795801D01*
X77260392Y-118913096D01*
X77263870Y-118939509D01*
X77263871Y-118939513D01*
X77319337Y-119073423D01*
X77319338Y-119073425D01*
X77319339Y-119073426D01*
X77399076Y-119177341D01*
X77424270Y-119242510D01*
X77424700Y-119252827D01*
X77424700Y-121285392D01*
X77422062Y-121310830D01*
X77419833Y-121321464D01*
X77419833Y-121321465D01*
X77419833Y-121321467D01*
X77424223Y-121356687D01*
X77424700Y-121364363D01*
X77424700Y-121368312D01*
X77428542Y-121391337D01*
X77435334Y-121445823D01*
X77437573Y-121453343D01*
X77440134Y-121460804D01*
X77440135Y-121460806D01*
X77465728Y-121508100D01*
X77466255Y-121509073D01*
X77490374Y-121558407D01*
X77494942Y-121564805D01*
X77499782Y-121571023D01*
X77540171Y-121608205D01*
X79140454Y-123208487D01*
X79156582Y-123228346D01*
X79162521Y-123237437D01*
X79190537Y-123259242D01*
X79196298Y-123264331D01*
X79199087Y-123267120D01*
X79218088Y-123280686D01*
X79261416Y-123314410D01*
X79268327Y-123318150D01*
X79275405Y-123321611D01*
X79328010Y-123337272D01*
X79379945Y-123355101D01*
X79379947Y-123355101D01*
X79387684Y-123356392D01*
X79395514Y-123357368D01*
X79395516Y-123357369D01*
X79395517Y-123357368D01*
X79395518Y-123357369D01*
X79450360Y-123355101D01*
X80384339Y-123355101D01*
X80414007Y-123363812D01*
X80429355Y-123356582D01*
X80448461Y-123355101D01*
X84026778Y-123355101D01*
X84093817Y-123374786D01*
X84114459Y-123391420D01*
X84505577Y-123782538D01*
X84539062Y-123843861D01*
X84540835Y-123854032D01*
X84557933Y-123983895D01*
X84557934Y-123983899D01*
X84613400Y-124117809D01*
X84613401Y-124117811D01*
X84613402Y-124117812D01*
X84701642Y-124232808D01*
X84816638Y-124321048D01*
X84950554Y-124376517D01*
X84976685Y-124379957D01*
X85040582Y-124408223D01*
X85079053Y-124466548D01*
X85084500Y-124502896D01*
X85084500Y-128931304D01*
X85064815Y-128998343D01*
X85012011Y-129044098D01*
X84942853Y-129054042D01*
X84879297Y-129025017D01*
X84872819Y-129018985D01*
X83691745Y-127837911D01*
X83675618Y-127818052D01*
X83669682Y-127808967D01*
X83669679Y-127808963D01*
X83644259Y-127789178D01*
X83641668Y-127787161D01*
X83635906Y-127782072D01*
X83633111Y-127779277D01*
X83618853Y-127769098D01*
X83614100Y-127765705D01*
X83591939Y-127748456D01*
X83570785Y-127731990D01*
X83563870Y-127728248D01*
X83556796Y-127724790D01*
X83504192Y-127709129D01*
X83452254Y-127691299D01*
X83444519Y-127690008D01*
X83436681Y-127689031D01*
X83381840Y-127691300D01*
X81677900Y-127691300D01*
X81610861Y-127671615D01*
X81565106Y-127618811D01*
X81553900Y-127567300D01*
X81553900Y-126822026D01*
X81573585Y-126754987D01*
X81579517Y-126746547D01*
X81659261Y-126642625D01*
X81714730Y-126508709D01*
X81733650Y-126365000D01*
X81714730Y-126221291D01*
X81659261Y-126087375D01*
X81571021Y-125972379D01*
X81456025Y-125884139D01*
X81456024Y-125884138D01*
X81456022Y-125884137D01*
X81322112Y-125828671D01*
X81322110Y-125828670D01*
X81322109Y-125828670D01*
X81250254Y-125819210D01*
X81178401Y-125809750D01*
X81178399Y-125809750D01*
X81034691Y-125828670D01*
X81034690Y-125828670D01*
X80963351Y-125858219D01*
X80893881Y-125865686D01*
X80831403Y-125834411D01*
X80795751Y-125774321D01*
X80791900Y-125743657D01*
X80791900Y-124612226D01*
X80811585Y-124545187D01*
X80817517Y-124536747D01*
X80897261Y-124432825D01*
X80952730Y-124298909D01*
X80971650Y-124155200D01*
X80952730Y-124011491D01*
X80897261Y-123877575D01*
X80809021Y-123762579D01*
X80694025Y-123674339D01*
X80694024Y-123674338D01*
X80694022Y-123674337D01*
X80560112Y-123618871D01*
X80560110Y-123618870D01*
X80560109Y-123618870D01*
X80432275Y-123602040D01*
X80420923Y-123597018D01*
X80419274Y-123598078D01*
X80400525Y-123602040D01*
X80272691Y-123618870D01*
X80272687Y-123618871D01*
X80138777Y-123674337D01*
X80023779Y-123762579D01*
X79935537Y-123877577D01*
X79880071Y-124011487D01*
X79880070Y-124011491D01*
X79861766Y-124150524D01*
X79861150Y-124155200D01*
X79871367Y-124232808D01*
X79880070Y-124298908D01*
X79880071Y-124298912D01*
X79935537Y-124432822D01*
X79935538Y-124432824D01*
X79935539Y-124432825D01*
X80015276Y-124536740D01*
X80040470Y-124601909D01*
X80040900Y-124612226D01*
X80040900Y-127862596D01*
X80038262Y-127888034D01*
X80036033Y-127898668D01*
X80036033Y-127898669D01*
X80036033Y-127898671D01*
X80040423Y-127933891D01*
X80040900Y-127941567D01*
X80040900Y-127945516D01*
X80044742Y-127968541D01*
X80051534Y-128023027D01*
X80053773Y-128030547D01*
X80056334Y-128038008D01*
X80056335Y-128038010D01*
X80082455Y-128086277D01*
X80106574Y-128135611D01*
X80111142Y-128142009D01*
X80115982Y-128148227D01*
X80156371Y-128185409D01*
X80774649Y-128803686D01*
X80790777Y-128823545D01*
X80796716Y-128832636D01*
X80822462Y-128852675D01*
X80824729Y-128854439D01*
X80830491Y-128859528D01*
X80833283Y-128862320D01*
X80852286Y-128875888D01*
X80895611Y-128909609D01*
X80895613Y-128909609D01*
X80902535Y-128913355D01*
X80909598Y-128916808D01*
X80909601Y-128916810D01*
X80962212Y-128932473D01*
X80988176Y-128941386D01*
X81014139Y-128950300D01*
X81021901Y-128951595D01*
X81029711Y-128952568D01*
X81029712Y-128952569D01*
X81029712Y-128952568D01*
X81029713Y-128952569D01*
X81057140Y-128951434D01*
X81084569Y-128950300D01*
X83054301Y-128950300D01*
X83121340Y-128969985D01*
X83141982Y-128986619D01*
X84119381Y-129964018D01*
X84152866Y-130025341D01*
X84155700Y-130051699D01*
X84155700Y-137913599D01*
X84136015Y-137980638D01*
X84119381Y-138001280D01*
X83830303Y-138290357D01*
X83768980Y-138323842D01*
X83738886Y-138321689D01*
X83741856Y-138334597D01*
X83718220Y-138400347D01*
X83705756Y-138414905D01*
X83039445Y-139081215D01*
X82978122Y-139114700D01*
X82967950Y-139116473D01*
X82838093Y-139133569D01*
X82838091Y-139133570D01*
X82724872Y-139180466D01*
X82655403Y-139187934D01*
X82592924Y-139156658D01*
X82579046Y-139141391D01*
X82536221Y-139085581D01*
X82524689Y-139076732D01*
X82483488Y-139020303D01*
X82479335Y-138950557D01*
X82501802Y-138902872D01*
X82573661Y-138809225D01*
X82629130Y-138675309D01*
X82648050Y-138531600D01*
X82647332Y-138526150D01*
X82643589Y-138497717D01*
X82629130Y-138387891D01*
X82621211Y-138368772D01*
X82613742Y-138299302D01*
X82645018Y-138236823D01*
X82660274Y-138222953D01*
X82687006Y-138202441D01*
X82752171Y-138177248D01*
X82820616Y-138191286D01*
X82837974Y-138202441D01*
X82846724Y-138209155D01*
X82929862Y-138272950D01*
X82929863Y-138272950D01*
X82929864Y-138272951D01*
X83063780Y-138328420D01*
X83190769Y-138345138D01*
X83207488Y-138347340D01*
X83207489Y-138347340D01*
X83207490Y-138347340D01*
X83222466Y-138345368D01*
X83351198Y-138328420D01*
X83485114Y-138272951D01*
X83542589Y-138228848D01*
X83607757Y-138203654D01*
X83620098Y-138206185D01*
X83633790Y-138143249D01*
X83644241Y-138127198D01*
X83688350Y-138069715D01*
X83743819Y-137935799D01*
X83762739Y-137792090D01*
X83743819Y-137648381D01*
X83688350Y-137514465D01*
X83688349Y-137514464D01*
X83688349Y-137514463D01*
X83608750Y-137410729D01*
X83583555Y-137345560D01*
X83585765Y-137309793D01*
X83587856Y-137299822D01*
X83585987Y-137284830D01*
X83583466Y-137264596D01*
X83582989Y-137256920D01*
X83582989Y-137252979D01*
X83582987Y-137252966D01*
X83579146Y-137229949D01*
X83578756Y-137226817D01*
X83572355Y-137175464D01*
X83572353Y-137175460D01*
X83570111Y-137167930D01*
X83567554Y-137160482D01*
X83567554Y-137160480D01*
X83541433Y-137112212D01*
X83517315Y-137062879D01*
X83517313Y-137062877D01*
X83517313Y-137062876D01*
X83512767Y-137056509D01*
X83507909Y-137050266D01*
X83507908Y-137050264D01*
X83490149Y-137033916D01*
X83467520Y-137013084D01*
X83370147Y-136915709D01*
X83354022Y-136895853D01*
X83348085Y-136886767D01*
X83348083Y-136886764D01*
X83320074Y-136864964D01*
X83314310Y-136859873D01*
X83311515Y-136857078D01*
X83292505Y-136843507D01*
X83249189Y-136809791D01*
X83242274Y-136806049D01*
X83235200Y-136802591D01*
X83182596Y-136786930D01*
X83130658Y-136769100D01*
X83122923Y-136767809D01*
X83115085Y-136766832D01*
X83060244Y-136769101D01*
X80736295Y-136769101D01*
X80669256Y-136749416D01*
X80648614Y-136732782D01*
X79804057Y-135888225D01*
X78947445Y-135031612D01*
X78931318Y-135011753D01*
X78925382Y-135002668D01*
X78925379Y-135002664D01*
X78897370Y-134980864D01*
X78891606Y-134975773D01*
X78888811Y-134972978D01*
X78869801Y-134959407D01*
X78845588Y-134940560D01*
X78804776Y-134883849D01*
X78801104Y-134814076D01*
X78835737Y-134753394D01*
X78877178Y-134729999D01*
X78876201Y-134727640D01*
X79017620Y-134669063D01*
X79017625Y-134669061D01*
X79132621Y-134580821D01*
X79220861Y-134465825D01*
X79276330Y-134331909D01*
X79295250Y-134188200D01*
X79276330Y-134044491D01*
X79220861Y-133910575D01*
X79132621Y-133795579D01*
X79017625Y-133707339D01*
X79017624Y-133707338D01*
X79017622Y-133707337D01*
X78883712Y-133651871D01*
X78883710Y-133651870D01*
X78883709Y-133651870D01*
X78811854Y-133642410D01*
X78740001Y-133632950D01*
X78739999Y-133632950D01*
X78596291Y-133651870D01*
X78596287Y-133651871D01*
X78462377Y-133707337D01*
X78347379Y-133795579D01*
X78259137Y-133910577D01*
X78203671Y-134044487D01*
X78203670Y-134044491D01*
X78186359Y-134175982D01*
X78184750Y-134188200D01*
X78203670Y-134331909D01*
X78203670Y-134331910D01*
X78203671Y-134331912D01*
X78259137Y-134465822D01*
X78259138Y-134465823D01*
X78259139Y-134465825D01*
X78347379Y-134580821D01*
X78453990Y-134662627D01*
X78495191Y-134719053D01*
X78499346Y-134788799D01*
X78465133Y-134849720D01*
X78403416Y-134882472D01*
X78378502Y-134885001D01*
X73704908Y-134885001D01*
X73679463Y-134882362D01*
X73668837Y-134880134D01*
X73668834Y-134880134D01*
X73633612Y-134884524D01*
X73625936Y-134885001D01*
X73621990Y-134885001D01*
X73604719Y-134887882D01*
X73598962Y-134888843D01*
X73544474Y-134895635D01*
X73536961Y-134897872D01*
X73529491Y-134900437D01*
X73481226Y-134926556D01*
X73431896Y-134950672D01*
X73425479Y-134955254D01*
X73419279Y-134960080D01*
X73382096Y-135000471D01*
X72462085Y-135920482D01*
X72400762Y-135953967D01*
X72374404Y-135956801D01*
X72240896Y-135956801D01*
X72173857Y-135937116D01*
X72165417Y-135931183D01*
X72061495Y-135851440D01*
X72061494Y-135851439D01*
X72061492Y-135851438D01*
X71927582Y-135795972D01*
X71927580Y-135795971D01*
X71927579Y-135795971D01*
X71855724Y-135786511D01*
X71783871Y-135777051D01*
X71783869Y-135777051D01*
X71640161Y-135795971D01*
X71640157Y-135795972D01*
X71506247Y-135851438D01*
X71391245Y-135939683D01*
X71388981Y-135941948D01*
X71386601Y-135943246D01*
X71384802Y-135944628D01*
X71384586Y-135944347D01*
X71327656Y-135975429D01*
X71257964Y-135970440D01*
X71239305Y-135961648D01*
X71238423Y-135961139D01*
X71104512Y-135905672D01*
X71104510Y-135905671D01*
X71104509Y-135905671D01*
X71032654Y-135896211D01*
X70960801Y-135886751D01*
X70960799Y-135886751D01*
X70817091Y-135905671D01*
X70817087Y-135905672D01*
X70683177Y-135961138D01*
X70568179Y-136049380D01*
X70479937Y-136164378D01*
X70424471Y-136298288D01*
X70424470Y-136298292D01*
X70405550Y-136442001D01*
X70420965Y-136559091D01*
X70424470Y-136585709D01*
X70424471Y-136585713D01*
X70479937Y-136719623D01*
X70479938Y-136719625D01*
X70479939Y-136719626D01*
X70568179Y-136834622D01*
X70683175Y-136922862D01*
X70683176Y-136922862D01*
X70683177Y-136922863D01*
X70727813Y-136941351D01*
X70817091Y-136978331D01*
X70946953Y-136995428D01*
X71010848Y-137023693D01*
X71018447Y-137030685D01*
X71173449Y-137185687D01*
X71189577Y-137205546D01*
X71194171Y-137212578D01*
X71195516Y-137214637D01*
X71202473Y-137222194D01*
X71199761Y-137224690D01*
X71229532Y-137266045D01*
X71233215Y-137335818D01*
X71198592Y-137396506D01*
X71174573Y-137414585D01*
X71172581Y-137415735D01*
X71172575Y-137415739D01*
X71172574Y-137415740D01*
X71057578Y-137503980D01*
X71057577Y-137503981D01*
X71057576Y-137503982D01*
X70988235Y-137594348D01*
X70931807Y-137635551D01*
X70862061Y-137639705D01*
X70802179Y-137606542D01*
X70431549Y-137235912D01*
X70415422Y-137216053D01*
X70409486Y-137206968D01*
X70409483Y-137206964D01*
X70387407Y-137189782D01*
X70381472Y-137185162D01*
X70375710Y-137180073D01*
X70372915Y-137177278D01*
X70353905Y-137163707D01*
X70310589Y-137129991D01*
X70303674Y-137126249D01*
X70296600Y-137122791D01*
X70243996Y-137107130D01*
X70192058Y-137089300D01*
X70184323Y-137088009D01*
X70176485Y-137087032D01*
X70121644Y-137089301D01*
X66228043Y-137089301D01*
X66161004Y-137069616D01*
X66115249Y-137016812D01*
X66105305Y-136947654D01*
X66129665Y-136889816D01*
X66216061Y-136777225D01*
X66271530Y-136643309D01*
X66290450Y-136499600D01*
X66290419Y-136499368D01*
X66286908Y-136472694D01*
X66271530Y-136355891D01*
X66228565Y-136252163D01*
X66216062Y-136221977D01*
X66216061Y-136221976D01*
X66216061Y-136221975D01*
X66127821Y-136106979D01*
X66012825Y-136018739D01*
X66012824Y-136018738D01*
X66012822Y-136018737D01*
X65878912Y-135963271D01*
X65878910Y-135963270D01*
X65878909Y-135963270D01*
X65787610Y-135951250D01*
X65735201Y-135944350D01*
X65735199Y-135944350D01*
X65591491Y-135963270D01*
X65591487Y-135963271D01*
X65457577Y-136018737D01*
X65342579Y-136106979D01*
X65254337Y-136221977D01*
X65198871Y-136355887D01*
X65198870Y-136355892D01*
X65191398Y-136412645D01*
X65163131Y-136476542D01*
X65104806Y-136515012D01*
X65034942Y-136515843D01*
X64980778Y-136484140D01*
X64665749Y-136169111D01*
X64649622Y-136149252D01*
X64643686Y-136140167D01*
X64643683Y-136140163D01*
X64619742Y-136121529D01*
X64615672Y-136118361D01*
X64609910Y-136113272D01*
X64607115Y-136110477D01*
X64588105Y-136096906D01*
X64544789Y-136063190D01*
X64537874Y-136059448D01*
X64530800Y-136055990D01*
X64478196Y-136040329D01*
X64426258Y-136022499D01*
X64418523Y-136021208D01*
X64410685Y-136020231D01*
X64355844Y-136022500D01*
X63131226Y-136022500D01*
X63064187Y-136002815D01*
X63055747Y-135996882D01*
X62951825Y-135917139D01*
X62951824Y-135917138D01*
X62951822Y-135917137D01*
X62817912Y-135861671D01*
X62817910Y-135861670D01*
X62817909Y-135861670D01*
X62740191Y-135851438D01*
X62674201Y-135842750D01*
X62674199Y-135842750D01*
X62530491Y-135861670D01*
X62530487Y-135861671D01*
X62396577Y-135917137D01*
X62281579Y-136005379D01*
X62193337Y-136120377D01*
X62137871Y-136254287D01*
X62137870Y-136254291D01*
X62118950Y-136397999D01*
X62118950Y-136405655D01*
X62099265Y-136472694D01*
X62046461Y-136518449D01*
X61977303Y-136528393D01*
X61913747Y-136499368D01*
X61907269Y-136493336D01*
X61727419Y-136313486D01*
X61693934Y-136252163D01*
X61691100Y-136225805D01*
X61691100Y-132994226D01*
X61710785Y-132927187D01*
X61716717Y-132918747D01*
X61796461Y-132814825D01*
X61851930Y-132680909D01*
X61854130Y-132664200D01*
X69421750Y-132664200D01*
X69438236Y-132789425D01*
X69440670Y-132807908D01*
X69440671Y-132807912D01*
X69496137Y-132941822D01*
X69496138Y-132941824D01*
X69496139Y-132941825D01*
X69584379Y-133056821D01*
X69699375Y-133145061D01*
X69833291Y-133200530D01*
X69960280Y-133217248D01*
X69976999Y-133219450D01*
X69977000Y-133219450D01*
X69977001Y-133219450D01*
X69991977Y-133217478D01*
X70120709Y-133200530D01*
X70254625Y-133145061D01*
X70369621Y-133056821D01*
X70457861Y-132941825D01*
X70513330Y-132807909D01*
X70532250Y-132664200D01*
X70530578Y-132651498D01*
X71974448Y-132651498D01*
X71992606Y-132789422D01*
X71993368Y-132795206D01*
X71993369Y-132795210D01*
X72048835Y-132929120D01*
X72048836Y-132929122D01*
X72048837Y-132929123D01*
X72137077Y-133044119D01*
X72252073Y-133132359D01*
X72385989Y-133187828D01*
X72512978Y-133204546D01*
X72529697Y-133206748D01*
X72529698Y-133206748D01*
X72529699Y-133206748D01*
X72544675Y-133204776D01*
X72673407Y-133187828D01*
X72807323Y-133132359D01*
X72922319Y-133044119D01*
X73010559Y-132929123D01*
X73066028Y-132795207D01*
X73084948Y-132651498D01*
X73066556Y-132511800D01*
X74501750Y-132511800D01*
X74520670Y-132655508D01*
X74520671Y-132655512D01*
X74576137Y-132789422D01*
X74576138Y-132789424D01*
X74576139Y-132789425D01*
X74664379Y-132904421D01*
X74779375Y-132992661D01*
X74913291Y-133048130D01*
X75040280Y-133064848D01*
X75056999Y-133067050D01*
X75057000Y-133067050D01*
X75057001Y-133067050D01*
X75071977Y-133065078D01*
X75200709Y-133048130D01*
X75334625Y-132992661D01*
X75449621Y-132904421D01*
X75537861Y-132789425D01*
X75593330Y-132655509D01*
X75612250Y-132511800D01*
X75611721Y-132507785D01*
X75607658Y-132476920D01*
X75593330Y-132368091D01*
X75550679Y-132265122D01*
X75543211Y-132195655D01*
X75574486Y-132133176D01*
X75634575Y-132097524D01*
X75704400Y-132100018D01*
X75740724Y-132119293D01*
X75835188Y-132191779D01*
X75835189Y-132191779D01*
X75835190Y-132191780D01*
X75867643Y-132205222D01*
X75969104Y-132247248D01*
X76096093Y-132263966D01*
X76112812Y-132266168D01*
X76112813Y-132266168D01*
X76112814Y-132266168D01*
X76127790Y-132264196D01*
X76256522Y-132247248D01*
X76390438Y-132191779D01*
X76505434Y-132103539D01*
X76593674Y-131988543D01*
X76649143Y-131854627D01*
X76668063Y-131710918D01*
X76649143Y-131567209D01*
X76610809Y-131474661D01*
X76593675Y-131433295D01*
X76593674Y-131433294D01*
X76593674Y-131433293D01*
X76505434Y-131318297D01*
X76390438Y-131230057D01*
X76390437Y-131230056D01*
X76390435Y-131230055D01*
X76256525Y-131174589D01*
X76256523Y-131174588D01*
X76256522Y-131174588D01*
X76184667Y-131165128D01*
X76112814Y-131155668D01*
X76112812Y-131155668D01*
X75969104Y-131174588D01*
X75969100Y-131174589D01*
X75835190Y-131230055D01*
X75720192Y-131318297D01*
X75631950Y-131433295D01*
X75576484Y-131567205D01*
X75576483Y-131567209D01*
X75557563Y-131710917D01*
X75557563Y-131710918D01*
X75576483Y-131854626D01*
X75576484Y-131854630D01*
X75619132Y-131957593D01*
X75626601Y-132027062D01*
X75595325Y-132089541D01*
X75535236Y-132125193D01*
X75465411Y-132122699D01*
X75429086Y-132103422D01*
X75334625Y-132030939D01*
X75334624Y-132030938D01*
X75334622Y-132030937D01*
X75200712Y-131975471D01*
X75200710Y-131975470D01*
X75200709Y-131975470D01*
X75128854Y-131966010D01*
X75057001Y-131956550D01*
X75056999Y-131956550D01*
X74913291Y-131975470D01*
X74913287Y-131975471D01*
X74779377Y-132030937D01*
X74664379Y-132119179D01*
X74576137Y-132234177D01*
X74520671Y-132368087D01*
X74520670Y-132368091D01*
X74501750Y-132511799D01*
X74501750Y-132511800D01*
X73066556Y-132511800D01*
X73066028Y-132507789D01*
X73010559Y-132373873D01*
X72922319Y-132258877D01*
X72807323Y-132170637D01*
X72807322Y-132170636D01*
X72807320Y-132170635D01*
X72673410Y-132115169D01*
X72673408Y-132115168D01*
X72673407Y-132115168D01*
X72585070Y-132103538D01*
X72529699Y-132096248D01*
X72529697Y-132096248D01*
X72385989Y-132115168D01*
X72385985Y-132115169D01*
X72252075Y-132170635D01*
X72137077Y-132258877D01*
X72048835Y-132373875D01*
X71993369Y-132507785D01*
X71993368Y-132507789D01*
X71982988Y-132586635D01*
X71974448Y-132651498D01*
X70530578Y-132651498D01*
X70513330Y-132520491D01*
X70457861Y-132386575D01*
X70369621Y-132271579D01*
X70254625Y-132183339D01*
X70254624Y-132183338D01*
X70254622Y-132183337D01*
X70120712Y-132127871D01*
X70120710Y-132127870D01*
X70120709Y-132127870D01*
X70024230Y-132115168D01*
X69977001Y-132108950D01*
X69976999Y-132108950D01*
X69833291Y-132127870D01*
X69833287Y-132127871D01*
X69699377Y-132183337D01*
X69584379Y-132271579D01*
X69496137Y-132386577D01*
X69440671Y-132520487D01*
X69440670Y-132520491D01*
X69431962Y-132586637D01*
X69421750Y-132664200D01*
X61854130Y-132664200D01*
X61870850Y-132537200D01*
X61851930Y-132393491D01*
X61796461Y-132259575D01*
X61708221Y-132144579D01*
X61593225Y-132056339D01*
X61593224Y-132056338D01*
X61593222Y-132056337D01*
X61459312Y-132000871D01*
X61459310Y-132000870D01*
X61459309Y-132000870D01*
X61365655Y-131988540D01*
X61315601Y-131981950D01*
X61315599Y-131981950D01*
X61171891Y-132000870D01*
X61171887Y-132000871D01*
X61037977Y-132056337D01*
X60922979Y-132144579D01*
X60834737Y-132259577D01*
X60779271Y-132393487D01*
X60779270Y-132393491D01*
X60760350Y-132537199D01*
X60760350Y-132537200D01*
X56058522Y-132537200D01*
X56245172Y-132311377D01*
X57293066Y-130984424D01*
X57597003Y-130581400D01*
X76355950Y-130581400D01*
X76370400Y-130691160D01*
X76374870Y-130725108D01*
X76374871Y-130725112D01*
X76430337Y-130859022D01*
X76430338Y-130859024D01*
X76430339Y-130859025D01*
X76518579Y-130974021D01*
X76633575Y-131062261D01*
X76767491Y-131117730D01*
X76894480Y-131134448D01*
X76911199Y-131136650D01*
X76911200Y-131136650D01*
X76911201Y-131136650D01*
X76926177Y-131134678D01*
X77054909Y-131117730D01*
X77188825Y-131062261D01*
X77303821Y-130974021D01*
X77392061Y-130859025D01*
X77447530Y-130725109D01*
X77466450Y-130581400D01*
X77447530Y-130437691D01*
X77392061Y-130303775D01*
X77303821Y-130188779D01*
X77188825Y-130100539D01*
X77188824Y-130100538D01*
X77188822Y-130100537D01*
X77054912Y-130045071D01*
X77054910Y-130045070D01*
X77054909Y-130045070D01*
X76983054Y-130035610D01*
X76911201Y-130026150D01*
X76911199Y-130026150D01*
X76767491Y-130045070D01*
X76767487Y-130045071D01*
X76633577Y-130100537D01*
X76518579Y-130188779D01*
X76430337Y-130303777D01*
X76374871Y-130437687D01*
X76374870Y-130437691D01*
X76355950Y-130581400D01*
X57597003Y-130581400D01*
X58311136Y-129634453D01*
X58360838Y-129565400D01*
X60785750Y-129565400D01*
X60804670Y-129709108D01*
X60804671Y-129709112D01*
X60860137Y-129843022D01*
X60860138Y-129843024D01*
X60860139Y-129843025D01*
X60948379Y-129958021D01*
X61063375Y-130046261D01*
X61063376Y-130046261D01*
X61063377Y-130046262D01*
X61098278Y-130060718D01*
X61197291Y-130101730D01*
X61324280Y-130118448D01*
X61340999Y-130120650D01*
X61341000Y-130120650D01*
X61341001Y-130120650D01*
X61355977Y-130118678D01*
X61484709Y-130101730D01*
X61618625Y-130046261D01*
X61733621Y-129958021D01*
X61821861Y-129843025D01*
X61873731Y-129717798D01*
X77549750Y-129717798D01*
X77567158Y-129850026D01*
X77568670Y-129861506D01*
X77568671Y-129861510D01*
X77624137Y-129995420D01*
X77624138Y-129995422D01*
X77624139Y-129995423D01*
X77712379Y-130110419D01*
X77827375Y-130198659D01*
X77961291Y-130254128D01*
X78088280Y-130270846D01*
X78104999Y-130273048D01*
X78105000Y-130273048D01*
X78105001Y-130273048D01*
X78119977Y-130271076D01*
X78248709Y-130254128D01*
X78382625Y-130198659D01*
X78497621Y-130110419D01*
X78585861Y-129995423D01*
X78641330Y-129861507D01*
X78660250Y-129717798D01*
X78659106Y-129709112D01*
X78651407Y-129650630D01*
X78641330Y-129574089D01*
X78585861Y-129440173D01*
X78497621Y-129325177D01*
X78382625Y-129236937D01*
X78382624Y-129236936D01*
X78382622Y-129236935D01*
X78248712Y-129181469D01*
X78248710Y-129181468D01*
X78248709Y-129181468D01*
X78176854Y-129172008D01*
X78105001Y-129162548D01*
X78104999Y-129162548D01*
X77961291Y-129181468D01*
X77961287Y-129181469D01*
X77827377Y-129236935D01*
X77712379Y-129325177D01*
X77624137Y-129440175D01*
X77568671Y-129574085D01*
X77568670Y-129574089D01*
X77550894Y-129709112D01*
X77549750Y-129717798D01*
X61873731Y-129717798D01*
X61877330Y-129709109D01*
X61894427Y-129579244D01*
X61922694Y-129515349D01*
X61929673Y-129507762D01*
X62430835Y-129006600D01*
X71352150Y-129006600D01*
X71371070Y-129150308D01*
X71371071Y-129150312D01*
X71426537Y-129284222D01*
X71426538Y-129284224D01*
X71426539Y-129284225D01*
X71514779Y-129399221D01*
X71629775Y-129487461D01*
X71763691Y-129542930D01*
X71890680Y-129559648D01*
X71907399Y-129561850D01*
X71907400Y-129561850D01*
X71907401Y-129561850D01*
X71922377Y-129559878D01*
X72051109Y-129542930D01*
X72185025Y-129487461D01*
X72300021Y-129399221D01*
X72388261Y-129284225D01*
X72443730Y-129150309D01*
X72462650Y-129006600D01*
X72443730Y-128862891D01*
X72388261Y-128728975D01*
X72300021Y-128613979D01*
X72185025Y-128525739D01*
X72185024Y-128525738D01*
X72185022Y-128525737D01*
X72051112Y-128470271D01*
X72051110Y-128470270D01*
X72051109Y-128470270D01*
X71943768Y-128456138D01*
X71907401Y-128451350D01*
X71907399Y-128451350D01*
X71763691Y-128470270D01*
X71763687Y-128470271D01*
X71629777Y-128525737D01*
X71514779Y-128613979D01*
X71426537Y-128728977D01*
X71371071Y-128862887D01*
X71371070Y-128862891D01*
X71352150Y-129006599D01*
X71352150Y-129006600D01*
X62430835Y-129006600D01*
X63446835Y-127990600D01*
X72596750Y-127990600D01*
X72615670Y-128134308D01*
X72615671Y-128134312D01*
X72671137Y-128268222D01*
X72671138Y-128268224D01*
X72671139Y-128268225D01*
X72759379Y-128383221D01*
X72874375Y-128471461D01*
X73008291Y-128526930D01*
X73135280Y-128543648D01*
X73151999Y-128545850D01*
X73152000Y-128545850D01*
X73152001Y-128545850D01*
X73166977Y-128543878D01*
X73295709Y-128526930D01*
X73429625Y-128471461D01*
X73544621Y-128383221D01*
X73632861Y-128268225D01*
X73688330Y-128134309D01*
X73707250Y-127990600D01*
X73688330Y-127846891D01*
X73651350Y-127757613D01*
X73632862Y-127712977D01*
X73632861Y-127712976D01*
X73632861Y-127712975D01*
X73544621Y-127597979D01*
X73429625Y-127509739D01*
X73429624Y-127509738D01*
X73429622Y-127509737D01*
X73295712Y-127454271D01*
X73295710Y-127454270D01*
X73295709Y-127454270D01*
X73223854Y-127444810D01*
X73152001Y-127435350D01*
X73151999Y-127435350D01*
X73008291Y-127454270D01*
X73008287Y-127454271D01*
X72874377Y-127509737D01*
X72759379Y-127597979D01*
X72671137Y-127712977D01*
X72615671Y-127846887D01*
X72615670Y-127846891D01*
X72596750Y-127990599D01*
X72596750Y-127990600D01*
X63446835Y-127990600D01*
X69893018Y-121544419D01*
X69954341Y-121510934D01*
X69980699Y-121508100D01*
X70459774Y-121508100D01*
X70526813Y-121527785D01*
X70535252Y-121533717D01*
X70639175Y-121613461D01*
X70773091Y-121668930D01*
X70890717Y-121684416D01*
X70916799Y-121687850D01*
X70916800Y-121687850D01*
X70916801Y-121687850D01*
X70942883Y-121684416D01*
X71060509Y-121668930D01*
X71194425Y-121613461D01*
X71309421Y-121525221D01*
X71397661Y-121410225D01*
X71453130Y-121276309D01*
X71472050Y-121132600D01*
X71453130Y-120988891D01*
X71397661Y-120854975D01*
X71309421Y-120739979D01*
X71194425Y-120651739D01*
X71194424Y-120651738D01*
X71194422Y-120651737D01*
X71060512Y-120596271D01*
X71060510Y-120596270D01*
X71060509Y-120596270D01*
X70988654Y-120586810D01*
X70916801Y-120577350D01*
X70916799Y-120577350D01*
X70773091Y-120596270D01*
X70773087Y-120596271D01*
X70639177Y-120651737D01*
X70592133Y-120687835D01*
X70535259Y-120731476D01*
X70470091Y-120756670D01*
X70459774Y-120757100D01*
X69825604Y-120757100D01*
X69800159Y-120754461D01*
X69789533Y-120752233D01*
X69789530Y-120752233D01*
X69754308Y-120756623D01*
X69746632Y-120757100D01*
X69742686Y-120757100D01*
X69725415Y-120759981D01*
X69719658Y-120760942D01*
X69665170Y-120767734D01*
X69657657Y-120769971D01*
X69650187Y-120772536D01*
X69601922Y-120798655D01*
X69552592Y-120822771D01*
X69546175Y-120827353D01*
X69539975Y-120832179D01*
X69502791Y-120872571D01*
X61398645Y-128976715D01*
X61337322Y-129010200D01*
X61327150Y-129011973D01*
X61228230Y-129024996D01*
X61197291Y-129029070D01*
X61197290Y-129029070D01*
X61197287Y-129029071D01*
X61063377Y-129084537D01*
X60948379Y-129172779D01*
X60860137Y-129287777D01*
X60804671Y-129421687D01*
X60804670Y-129421691D01*
X60785750Y-129565399D01*
X60785750Y-129565400D01*
X58360838Y-129565400D01*
X59298877Y-128262135D01*
X60255797Y-126868151D01*
X61181423Y-125453193D01*
X62075294Y-124017964D01*
X62936967Y-122563177D01*
X63766013Y-121089552D01*
X64474949Y-119761000D01*
X70361550Y-119761000D01*
X70371777Y-119838684D01*
X70380470Y-119904708D01*
X70380471Y-119904712D01*
X70435937Y-120038622D01*
X70435938Y-120038624D01*
X70435939Y-120038625D01*
X70524179Y-120153621D01*
X70639175Y-120241861D01*
X70773091Y-120297330D01*
X70900080Y-120314048D01*
X70916799Y-120316250D01*
X70916800Y-120316250D01*
X70916801Y-120316250D01*
X70931777Y-120314278D01*
X71060509Y-120297330D01*
X71194425Y-120241861D01*
X71309421Y-120153621D01*
X71397661Y-120038625D01*
X71453130Y-119904709D01*
X71472050Y-119761000D01*
X71471079Y-119753628D01*
X71468376Y-119733092D01*
X71453130Y-119617291D01*
X71397661Y-119483375D01*
X71309421Y-119368379D01*
X71194425Y-119280139D01*
X71194424Y-119280138D01*
X71194422Y-119280137D01*
X71060512Y-119224671D01*
X71060510Y-119224670D01*
X71060509Y-119224670D01*
X70988654Y-119215210D01*
X70916801Y-119205750D01*
X70916799Y-119205750D01*
X70773091Y-119224670D01*
X70773087Y-119224671D01*
X70639177Y-119280137D01*
X70524179Y-119368379D01*
X70435937Y-119483377D01*
X70380471Y-119617287D01*
X70380470Y-119617291D01*
X70362521Y-119753628D01*
X70361550Y-119761000D01*
X64474949Y-119761000D01*
X64562023Y-119597823D01*
X65324599Y-118088728D01*
X65714810Y-117271800D01*
X68431150Y-117271800D01*
X68450070Y-117415508D01*
X68450071Y-117415512D01*
X68505537Y-117549422D01*
X68505538Y-117549424D01*
X68505539Y-117549425D01*
X68593779Y-117664421D01*
X68708775Y-117752661D01*
X68842691Y-117808130D01*
X68969680Y-117824848D01*
X68986399Y-117827050D01*
X68986400Y-117827050D01*
X68986401Y-117827050D01*
X69001377Y-117825078D01*
X69130109Y-117808130D01*
X69264025Y-117752661D01*
X69379021Y-117664421D01*
X69388200Y-117652458D01*
X69444624Y-117611255D01*
X69514370Y-117607098D01*
X69562060Y-117629565D01*
X69623175Y-117676461D01*
X69757091Y-117731930D01*
X69884080Y-117748648D01*
X69900799Y-117750850D01*
X69900800Y-117750850D01*
X69900801Y-117750850D01*
X69915777Y-117748878D01*
X70044509Y-117731930D01*
X70178425Y-117676461D01*
X70291218Y-117589911D01*
X70356385Y-117564717D01*
X70424830Y-117578755D01*
X70465079Y-117612800D01*
X70524179Y-117689821D01*
X70639175Y-117778061D01*
X70773091Y-117833530D01*
X70900080Y-117850248D01*
X70916799Y-117852450D01*
X70916800Y-117852450D01*
X70916801Y-117852450D01*
X70931777Y-117850478D01*
X71060509Y-117833530D01*
X71194425Y-117778061D01*
X71309421Y-117689821D01*
X71397661Y-117574825D01*
X71453130Y-117440909D01*
X71472050Y-117297200D01*
X71460384Y-117208593D01*
X71471149Y-117139561D01*
X71517528Y-117087305D01*
X71584797Y-117068419D01*
X71603170Y-117070948D01*
X71603234Y-117070469D01*
X71611290Y-117071529D01*
X71611291Y-117071530D01*
X71703474Y-117083666D01*
X71754999Y-117090450D01*
X71755000Y-117090450D01*
X71755001Y-117090450D01*
X71778888Y-117087305D01*
X71898709Y-117071530D01*
X72032625Y-117016061D01*
X72147621Y-116927821D01*
X72235861Y-116812825D01*
X72291330Y-116678909D01*
X72301087Y-116604800D01*
X73247750Y-116604800D01*
X73265806Y-116741950D01*
X73266670Y-116748508D01*
X73266671Y-116748512D01*
X73322137Y-116882422D01*
X73322138Y-116882424D01*
X73322139Y-116882425D01*
X73410379Y-116997421D01*
X73525375Y-117085661D01*
X73659291Y-117141130D01*
X73786280Y-117157848D01*
X73802999Y-117160050D01*
X73803000Y-117160050D01*
X73803001Y-117160050D01*
X73817977Y-117158078D01*
X73946709Y-117141130D01*
X74080625Y-117085661D01*
X74195621Y-116997421D01*
X74204625Y-116985686D01*
X74261050Y-116944485D01*
X74330796Y-116940329D01*
X74391717Y-116974540D01*
X74401367Y-116985676D01*
X74410379Y-116997421D01*
X74525375Y-117085661D01*
X74659291Y-117141130D01*
X74786280Y-117157848D01*
X74802999Y-117160050D01*
X74803000Y-117160050D01*
X74803001Y-117160050D01*
X74817977Y-117158078D01*
X74946709Y-117141130D01*
X75080625Y-117085661D01*
X75195621Y-116997421D01*
X75204625Y-116985686D01*
X75261050Y-116944485D01*
X75330796Y-116940329D01*
X75391717Y-116974540D01*
X75401367Y-116985676D01*
X75410379Y-116997421D01*
X75525375Y-117085661D01*
X75659291Y-117141130D01*
X75786280Y-117157848D01*
X75802999Y-117160050D01*
X75803000Y-117160050D01*
X75803001Y-117160050D01*
X75817977Y-117158078D01*
X75946709Y-117141130D01*
X76080625Y-117085661D01*
X76195621Y-116997421D01*
X76204625Y-116985686D01*
X76261050Y-116944485D01*
X76330796Y-116940329D01*
X76391717Y-116974540D01*
X76401367Y-116985676D01*
X76410379Y-116997421D01*
X76525375Y-117085661D01*
X76659291Y-117141130D01*
X76786280Y-117157848D01*
X76802999Y-117160050D01*
X76803000Y-117160050D01*
X76803001Y-117160050D01*
X76817977Y-117158078D01*
X76946709Y-117141130D01*
X77080625Y-117085661D01*
X77195621Y-116997421D01*
X77283861Y-116882425D01*
X77339330Y-116748509D01*
X77358250Y-116604800D01*
X77339330Y-116461091D01*
X77283861Y-116327175D01*
X77195621Y-116212179D01*
X77080625Y-116123939D01*
X77080624Y-116123938D01*
X77080622Y-116123937D01*
X76946712Y-116068471D01*
X76946710Y-116068470D01*
X76946709Y-116068470D01*
X76921854Y-116065197D01*
X76891999Y-116061267D01*
X76828103Y-116033000D01*
X76789633Y-115974675D01*
X76788802Y-115904810D01*
X76800803Y-115876321D01*
X76801151Y-115875716D01*
X76801157Y-115875709D01*
X76856626Y-115741793D01*
X76875546Y-115598084D01*
X76856626Y-115454375D01*
X76820296Y-115366665D01*
X76800086Y-115317872D01*
X76792617Y-115248402D01*
X76823893Y-115185923D01*
X76883982Y-115150272D01*
X76898449Y-115147483D01*
X76946709Y-115141130D01*
X77080625Y-115085661D01*
X77195621Y-114997421D01*
X77283861Y-114882425D01*
X77339330Y-114748509D01*
X77358250Y-114604800D01*
X77339330Y-114461091D01*
X77283861Y-114327175D01*
X77195621Y-114212179D01*
X77080625Y-114123939D01*
X77080624Y-114123938D01*
X77080622Y-114123937D01*
X76946712Y-114068471D01*
X76946710Y-114068470D01*
X76946709Y-114068470D01*
X76874854Y-114059010D01*
X76803001Y-114049550D01*
X76802999Y-114049550D01*
X76659291Y-114068470D01*
X76659287Y-114068471D01*
X76525377Y-114123937D01*
X76467877Y-114168059D01*
X76410379Y-114212179D01*
X76410378Y-114212180D01*
X76410377Y-114212181D01*
X76401375Y-114223913D01*
X76344947Y-114265116D01*
X76275201Y-114269270D01*
X76214281Y-114235057D01*
X76204625Y-114223913D01*
X76202782Y-114221511D01*
X76195621Y-114212179D01*
X76080625Y-114123939D01*
X76080624Y-114123938D01*
X76080622Y-114123937D01*
X75946712Y-114068471D01*
X75946710Y-114068470D01*
X75946709Y-114068470D01*
X75874854Y-114059010D01*
X75803001Y-114049550D01*
X75802999Y-114049550D01*
X75659291Y-114068470D01*
X75659287Y-114068471D01*
X75525377Y-114123937D01*
X75467877Y-114168059D01*
X75410379Y-114212179D01*
X75410378Y-114212180D01*
X75410377Y-114212181D01*
X75401375Y-114223913D01*
X75344947Y-114265116D01*
X75275201Y-114269270D01*
X75214281Y-114235057D01*
X75204625Y-114223913D01*
X75202782Y-114221511D01*
X75195621Y-114212179D01*
X75080625Y-114123939D01*
X75080624Y-114123938D01*
X75080622Y-114123937D01*
X74946712Y-114068471D01*
X74946710Y-114068470D01*
X74946709Y-114068470D01*
X74874854Y-114059010D01*
X74803001Y-114049550D01*
X74802999Y-114049550D01*
X74659291Y-114068470D01*
X74659287Y-114068471D01*
X74525377Y-114123937D01*
X74467877Y-114168059D01*
X74410379Y-114212179D01*
X74410378Y-114212180D01*
X74410377Y-114212181D01*
X74401375Y-114223913D01*
X74344947Y-114265116D01*
X74275201Y-114269270D01*
X74214281Y-114235057D01*
X74204625Y-114223913D01*
X74202782Y-114221511D01*
X74195621Y-114212179D01*
X74080625Y-114123939D01*
X74080624Y-114123938D01*
X74080622Y-114123937D01*
X73946712Y-114068471D01*
X73946710Y-114068470D01*
X73946709Y-114068470D01*
X73874854Y-114059010D01*
X73803001Y-114049550D01*
X73802999Y-114049550D01*
X73659291Y-114068470D01*
X73659287Y-114068471D01*
X73525377Y-114123937D01*
X73410379Y-114212179D01*
X73322137Y-114327177D01*
X73266671Y-114461087D01*
X73266670Y-114461091D01*
X73247750Y-114604799D01*
X73247750Y-114604800D01*
X73266670Y-114748508D01*
X73266671Y-114748512D01*
X73322137Y-114882422D01*
X73322138Y-114882424D01*
X73322139Y-114882425D01*
X73410379Y-114997421D01*
X73525375Y-115085661D01*
X73659291Y-115141130D01*
X73740343Y-115151800D01*
X73804238Y-115180066D01*
X73842709Y-115238390D01*
X73843541Y-115308255D01*
X73838717Y-115322191D01*
X73783967Y-115454371D01*
X73783966Y-115454375D01*
X73769257Y-115566102D01*
X73765046Y-115598084D01*
X73778302Y-115698775D01*
X73783966Y-115741792D01*
X73783967Y-115741796D01*
X73842545Y-115883218D01*
X73840276Y-115884157D01*
X73853820Y-115940007D01*
X73830962Y-116006031D01*
X73776036Y-116049217D01*
X73746148Y-116057034D01*
X73659291Y-116068470D01*
X73659287Y-116068471D01*
X73525377Y-116123937D01*
X73410379Y-116212179D01*
X73322137Y-116327177D01*
X73266671Y-116461087D01*
X73266670Y-116461091D01*
X73257381Y-116531650D01*
X73247750Y-116604800D01*
X72301087Y-116604800D01*
X72310250Y-116535200D01*
X72291330Y-116391491D01*
X72235861Y-116257575D01*
X72157742Y-116155769D01*
X72132549Y-116090601D01*
X72146587Y-116022157D01*
X72168442Y-115992599D01*
X72173012Y-115988027D01*
X72173021Y-115988021D01*
X72261261Y-115873025D01*
X72316730Y-115739109D01*
X72335650Y-115595400D01*
X72316730Y-115451691D01*
X72261261Y-115317775D01*
X72261260Y-115317774D01*
X72261260Y-115317773D01*
X72181391Y-115213687D01*
X72156196Y-115148518D01*
X72170234Y-115080073D01*
X72181391Y-115062713D01*
X72196645Y-115042834D01*
X72261261Y-114958625D01*
X72316730Y-114824709D01*
X72335650Y-114681000D01*
X72316730Y-114537291D01*
X72261261Y-114403375D01*
X72173021Y-114288379D01*
X72058025Y-114200139D01*
X72058024Y-114200138D01*
X72058022Y-114200137D01*
X71924112Y-114144671D01*
X71924110Y-114144670D01*
X71924109Y-114144670D01*
X71852254Y-114135210D01*
X71780401Y-114125750D01*
X71780399Y-114125750D01*
X71636691Y-114144670D01*
X71636687Y-114144671D01*
X71502777Y-114200137D01*
X71387779Y-114288379D01*
X71299537Y-114403377D01*
X71244071Y-114537287D01*
X71244070Y-114537291D01*
X71225150Y-114680999D01*
X71225150Y-114681000D01*
X71244070Y-114824708D01*
X71244071Y-114824712D01*
X71299538Y-114958623D01*
X71299539Y-114958625D01*
X71379409Y-115062714D01*
X71404603Y-115127883D01*
X71390565Y-115196328D01*
X71379409Y-115213686D01*
X71299539Y-115317774D01*
X71299538Y-115317776D01*
X71244071Y-115451687D01*
X71244070Y-115451691D01*
X71225150Y-115595400D01*
X71241484Y-115719470D01*
X71244070Y-115739108D01*
X71244071Y-115739112D01*
X71299538Y-115873023D01*
X71299539Y-115873025D01*
X71377656Y-115974829D01*
X71402850Y-116039998D01*
X71388812Y-116108443D01*
X71366965Y-116137992D01*
X71362385Y-116142572D01*
X71362380Y-116142577D01*
X71362379Y-116142579D01*
X71311672Y-116208660D01*
X71274137Y-116257577D01*
X71218671Y-116391487D01*
X71218670Y-116391491D01*
X71199750Y-116535199D01*
X71199750Y-116535200D01*
X71211415Y-116623803D01*
X71200650Y-116692839D01*
X71154270Y-116745095D01*
X71087001Y-116763980D01*
X71068629Y-116761452D01*
X71068566Y-116761931D01*
X71060509Y-116760870D01*
X70966612Y-116748508D01*
X70916801Y-116741950D01*
X70916799Y-116741950D01*
X70773091Y-116760870D01*
X70773087Y-116760871D01*
X70639176Y-116816338D01*
X70639174Y-116816339D01*
X70526382Y-116902888D01*
X70461213Y-116928082D01*
X70392768Y-116914044D01*
X70352522Y-116880001D01*
X70293421Y-116802979D01*
X70178425Y-116714739D01*
X70178424Y-116714738D01*
X70178422Y-116714737D01*
X70044512Y-116659271D01*
X70044510Y-116659270D01*
X70044509Y-116659270D01*
X69962097Y-116648420D01*
X69900801Y-116640350D01*
X69900799Y-116640350D01*
X69757091Y-116659270D01*
X69757087Y-116659271D01*
X69623177Y-116714737D01*
X69508177Y-116802980D01*
X69498997Y-116814945D01*
X69442568Y-116856146D01*
X69372822Y-116860299D01*
X69325138Y-116837833D01*
X69264025Y-116790939D01*
X69264024Y-116790938D01*
X69264022Y-116790937D01*
X69130112Y-116735471D01*
X69130110Y-116735470D01*
X69130109Y-116735470D01*
X69058254Y-116726010D01*
X68986401Y-116716550D01*
X68986399Y-116716550D01*
X68842691Y-116735470D01*
X68842687Y-116735471D01*
X68708777Y-116790937D01*
X68593779Y-116879179D01*
X68505537Y-116994177D01*
X68450071Y-117128087D01*
X68450070Y-117128091D01*
X68431150Y-117271799D01*
X68431150Y-117271800D01*
X65714810Y-117271800D01*
X66053364Y-116563019D01*
X66436326Y-115713078D01*
X68724100Y-115713078D01*
X68738632Y-115786135D01*
X68738633Y-115786139D01*
X68738634Y-115786140D01*
X68793999Y-115869001D01*
X68847592Y-115904810D01*
X68876860Y-115924366D01*
X68876864Y-115924367D01*
X68949921Y-115938899D01*
X68949924Y-115938900D01*
X68949926Y-115938900D01*
X70699276Y-115938900D01*
X70699277Y-115938899D01*
X70772340Y-115924366D01*
X70855201Y-115869001D01*
X70910566Y-115786140D01*
X70925100Y-115713074D01*
X70925100Y-113963726D01*
X70925100Y-113963723D01*
X70925099Y-113963721D01*
X70910567Y-113890664D01*
X70910566Y-113890660D01*
X70902841Y-113879099D01*
X70855201Y-113807799D01*
X70772340Y-113752434D01*
X70772339Y-113752433D01*
X70772335Y-113752432D01*
X70699277Y-113737900D01*
X70699274Y-113737900D01*
X68949926Y-113737900D01*
X68949923Y-113737900D01*
X68876864Y-113752432D01*
X68876860Y-113752433D01*
X68793999Y-113807799D01*
X68738633Y-113890660D01*
X68738632Y-113890664D01*
X68724100Y-113963721D01*
X68724100Y-115713078D01*
X66436326Y-115713078D01*
X66747956Y-115021452D01*
X67408030Y-113464792D01*
X67872238Y-112298400D01*
X68719887Y-112298400D01*
X68738696Y-112501389D01*
X68738697Y-112501392D01*
X68794483Y-112697463D01*
X68794486Y-112697469D01*
X68885354Y-112879956D01*
X69008208Y-113042642D01*
X69158860Y-113179978D01*
X69332184Y-113287297D01*
X69522278Y-113360939D01*
X69722672Y-113398400D01*
X69926528Y-113398400D01*
X70126921Y-113360939D01*
X70317015Y-113287297D01*
X70490339Y-113179978D01*
X70640991Y-113042642D01*
X70763845Y-112879956D01*
X70854713Y-112697469D01*
X70854716Y-112697463D01*
X70910502Y-112501392D01*
X70910503Y-112501389D01*
X70929313Y-112298400D01*
X70929313Y-112298399D01*
X70910503Y-112095410D01*
X70910502Y-112095407D01*
X70854716Y-111899336D01*
X70854713Y-111899330D01*
X70763845Y-111716843D01*
X70640991Y-111554157D01*
X70490339Y-111416821D01*
X70317015Y-111309502D01*
X70126921Y-111235860D01*
X69926528Y-111198400D01*
X69722672Y-111198400D01*
X69522278Y-111235860D01*
X69332184Y-111309502D01*
X69158860Y-111416821D01*
X69008208Y-111554157D01*
X68885354Y-111716843D01*
X68794486Y-111899330D01*
X68794483Y-111899336D01*
X68738697Y-112095407D01*
X68738696Y-112095410D01*
X68719887Y-112298399D01*
X68719887Y-112298400D01*
X67872238Y-112298400D01*
X68033259Y-111893812D01*
X68623331Y-110309293D01*
X68839179Y-109687664D01*
X68879764Y-109630791D01*
X68894019Y-109621125D01*
X69651690Y-109180938D01*
X69673696Y-109169200D01*
X80225585Y-109169200D01*
X80244402Y-109372282D01*
X80300217Y-109568447D01*
X80300222Y-109568460D01*
X80391127Y-109751021D01*
X80514037Y-109913781D01*
X80664758Y-110051180D01*
X80664760Y-110051182D01*
X80763941Y-110112592D01*
X80838163Y-110158548D01*
X81028344Y-110232224D01*
X81228824Y-110269700D01*
X81228826Y-110269700D01*
X81432774Y-110269700D01*
X81432776Y-110269700D01*
X81633256Y-110232224D01*
X81823437Y-110158548D01*
X81996841Y-110051181D01*
X82147564Y-109913779D01*
X82270473Y-109751021D01*
X82361382Y-109568450D01*
X82417197Y-109372283D01*
X82436015Y-109169200D01*
X82765585Y-109169200D01*
X82784402Y-109372282D01*
X82840217Y-109568447D01*
X82840222Y-109568460D01*
X82931127Y-109751021D01*
X83054037Y-109913781D01*
X83204758Y-110051180D01*
X83204760Y-110051182D01*
X83303941Y-110112592D01*
X83378163Y-110158548D01*
X83568344Y-110232224D01*
X83768824Y-110269700D01*
X83768826Y-110269700D01*
X83972774Y-110269700D01*
X83972776Y-110269700D01*
X84173256Y-110232224D01*
X84363437Y-110158548D01*
X84536841Y-110051181D01*
X84544852Y-110043878D01*
X85310300Y-110043878D01*
X85324832Y-110116935D01*
X85324833Y-110116939D01*
X85343205Y-110144435D01*
X85380199Y-110199801D01*
X85463060Y-110255166D01*
X85463064Y-110255167D01*
X85536121Y-110269699D01*
X85536124Y-110269700D01*
X85536126Y-110269700D01*
X87285476Y-110269700D01*
X87285477Y-110269699D01*
X87358540Y-110255166D01*
X87441401Y-110199801D01*
X87496766Y-110116940D01*
X87511300Y-110043874D01*
X87511300Y-108294526D01*
X87511300Y-108294523D01*
X87511299Y-108294521D01*
X87496767Y-108221464D01*
X87496766Y-108221460D01*
X87495989Y-108220297D01*
X87441401Y-108138599D01*
X87358540Y-108083234D01*
X87358539Y-108083233D01*
X87358535Y-108083232D01*
X87285477Y-108068700D01*
X87285474Y-108068700D01*
X85536126Y-108068700D01*
X85536123Y-108068700D01*
X85463064Y-108083232D01*
X85463060Y-108083233D01*
X85380199Y-108138599D01*
X85324833Y-108221460D01*
X85324832Y-108221464D01*
X85310300Y-108294521D01*
X85310300Y-110043878D01*
X84544852Y-110043878D01*
X84687564Y-109913779D01*
X84810473Y-109751021D01*
X84901382Y-109568450D01*
X84957197Y-109372283D01*
X84976015Y-109169200D01*
X84957197Y-108966117D01*
X84901382Y-108769950D01*
X84810473Y-108587379D01*
X84687564Y-108424621D01*
X84687562Y-108424618D01*
X84536841Y-108287219D01*
X84536839Y-108287217D01*
X84363442Y-108179855D01*
X84363435Y-108179851D01*
X84256950Y-108138599D01*
X84173256Y-108106176D01*
X83972776Y-108068700D01*
X83768824Y-108068700D01*
X83568344Y-108106176D01*
X83568341Y-108106176D01*
X83568341Y-108106177D01*
X83378164Y-108179851D01*
X83378157Y-108179855D01*
X83204760Y-108287217D01*
X83204758Y-108287219D01*
X83054037Y-108424618D01*
X82931127Y-108587378D01*
X82840222Y-108769939D01*
X82840217Y-108769952D01*
X82784402Y-108966117D01*
X82765585Y-109169199D01*
X82765585Y-109169200D01*
X82436015Y-109169200D01*
X82417197Y-108966117D01*
X82361382Y-108769950D01*
X82270473Y-108587379D01*
X82147564Y-108424621D01*
X82147562Y-108424618D01*
X81996841Y-108287219D01*
X81996839Y-108287217D01*
X81823442Y-108179855D01*
X81823435Y-108179851D01*
X81716950Y-108138599D01*
X81633256Y-108106176D01*
X81432776Y-108068700D01*
X81228824Y-108068700D01*
X81028344Y-108106176D01*
X81028341Y-108106176D01*
X81028341Y-108106177D01*
X80838164Y-108179851D01*
X80838157Y-108179855D01*
X80664760Y-108287217D01*
X80664758Y-108287219D01*
X80514037Y-108424618D01*
X80391127Y-108587378D01*
X80300222Y-108769939D01*
X80300217Y-108769952D01*
X80244402Y-108966117D01*
X80225585Y-109169199D01*
X80225585Y-109169200D01*
X69673696Y-109169200D01*
X70584192Y-108683533D01*
X71534131Y-108220297D01*
X72500255Y-107791838D01*
X73481291Y-107398722D01*
X74475947Y-107041465D01*
X75482912Y-106720540D01*
X76500860Y-106436368D01*
X77528450Y-106189324D01*
X78564329Y-105979734D01*
X79607131Y-105807873D01*
X80655482Y-105673968D01*
X81708003Y-105578196D01*
X82763306Y-105520682D01*
X83820001Y-105501502D01*
X84876696Y-105520682D01*
G37*
%TD.AperFunction*%
%TD*%
M02*
